<svg width="36" height="36" viewBox="0 0 36 36" fill="none" xmlns="http://www.w3.org/2000/svg">
<path d="M0 8C0 3.58172 3.58172 0 8 0H28C32.4183 0 36 3.58172 36 8V28C36 32.4183 32.4183 36 28 36H8C3.58172 36 0 32.4183 0 28V8Z" fill="#323232"/>
<path d="M15.1668 11.3333V15.1999H11.3335C11.3335 12.7933 12.7668 11.3466 15.1668 11.3333Z" fill="#BABABA"/>
<path d="M24.6668 15.1999H20.8335V11.3333C23.2335 11.3466 24.6668 12.7933 24.6668 15.1999Z" fill="#BABABA"/>
<path d="M24.6668 20.8667C24.6402 23.2334 23.2135 24.6534 20.8335 24.6667V20.8667H24.6668Z" fill="#BABABA"/>
<path d="M15.1668 20.8667V24.6667C12.7868 24.6534 11.3602 23.2334 11.3335 20.8667H15.1668Z" fill="#BABABA"/>
<path d="M15.1668 16.2H11.3335V19.8666H15.1668V16.2Z" fill="#BABABA"/>
<path d="M24.6668 16.2H20.8335V19.8666H24.6668V16.2Z" fill="#BABABA"/>
<path d="M19.8332 16.2H16.1665V19.8666H19.8332V16.2Z" fill="#BABABA"/>
<path d="M19.8332 11.3333H16.1665V15.1999H19.8332V11.3333Z" fill="#BABABA"/>
<path d="M19.8332 20.8667H16.1665V24.6667H19.8332V20.8667Z" fill="#BABABA"/>
</svg>
