<svg width="36" height="36" viewBox="0 0 36 36" fill="none" xmlns="http://www.w3.org/2000/svg">
<path d="M0 8C0 3.58172 3.58172 0 8 0H28C32.4183 0 36 3.58172 36 8V28C36 32.4183 32.4183 36 28 36H8C3.58172 36 0 32.4183 0 28V8Z" fill="#323232"/>
<path d="M24.0002 13.5H19.3335C19.0602 13.5 18.8335 13.2733 18.8335 13C18.8335 12.7267 19.0602 12.5 19.3335 12.5H24.0002C24.2735 12.5 24.5002 12.7267 24.5002 13C24.5002 13.2733 24.2735 13.5 24.0002 13.5Z" fill="#BABABA"/>
<path d="M24.0002 16.8335H19.3335C19.0602 16.8335 18.8335 16.6068 18.8335 16.3335C18.8335 16.0602 19.0602 15.8335 19.3335 15.8335H24.0002C24.2735 15.8335 24.5002 16.0602 24.5002 16.3335C24.5002 16.6068 24.2735 16.8335 24.0002 16.8335Z" fill="#BABABA"/>
<path d="M24 20.1665H12C11.7267 20.1665 11.5 19.9398 11.5 19.6665C11.5 19.3932 11.7267 19.1665 12 19.1665H24C24.2733 19.1665 24.5 19.3932 24.5 19.6665C24.5 19.9398 24.2733 20.1665 24 20.1665Z" fill="#BABABA"/>
<path d="M24 23.5H12C11.7267 23.5 11.5 23.2733 11.5 23C11.5 22.7267 11.7267 22.5 12 22.5H24C24.2733 22.5 24.5 22.7267 24.5 23C24.5 23.2733 24.2733 23.5 24 23.5Z" fill="#BABABA"/>
<path d="M15.28 12.3335H13.3867C12.4533 12.3335 12 12.7868 12 13.7202V15.6202C12 16.5535 12.4533 17.0068 13.3867 17.0068H15.2867C16.22 17.0068 16.6733 16.5535 16.6733 15.6202V13.7202C16.6667 12.7868 16.2133 12.3335 15.28 12.3335Z" fill="#BABABA"/>
</svg>
