<svg width="36" height="36" viewBox="0 0 36 36" fill="none" xmlns="http://www.w3.org/2000/svg">
<path d="M0 8C0 3.58172 3.58172 0 8 0H28C32.4183 0 36 3.58172 36 8V28C36 32.4183 32.4183 36 28 36H8C3.58172 36 0 32.4183 0 28V8Z" fill="#323232"/>
<path d="M23.7331 12.7332V14.1999C23.7331 14.7332 23.3998 15.3999 23.0664 15.7332L20.1998 18.2666C19.7998 18.5999 19.5331 19.2666 19.5331 19.7999V22.6666C19.5331 23.0666 19.2664 23.5999 18.9331 23.7999L17.9998 24.3999C17.1331 24.9332 15.9331 24.3332 15.9331 23.2666V19.7332C15.9331 19.2666 15.6664 18.6666 15.3998 18.3332L15.0864 18.0066C14.8798 17.7866 14.8398 17.4532 15.0064 17.1932L18.4198 11.7132C18.5398 11.5199 18.7531 11.3999 18.9864 11.3999H22.3998C23.1331 11.3999 23.7331 11.9999 23.7331 12.7332Z" fill="#BABABA"/>
<path d="M16.8999 12.4199L14.5333 16.2132C14.3066 16.5799 13.7866 16.6332 13.4866 16.3199L12.8666 15.6666C12.5333 15.3332 12.2666 14.7332 12.2666 14.3332V12.7999C12.2666 11.9999 12.8666 11.3999 13.5999 11.3999H16.3333C16.8533 11.3999 17.1733 11.9732 16.8999 12.4199Z" fill="#BABABA"/>
</svg>
