<svg width="247" height="183" viewBox="0 0 247 183" fill="none" xmlns="http://www.w3.org/2000/svg">
<g filter="url(#filter0_b_4150_13223)">
<path d="M0 0H246.458V182.61H0V0Z" fill="white" fill-opacity="0.1"/>
<path d="M0 0H246.458V182.61H0V0Z" fill="url(#paint0_radial_4150_13223)"/>
<path d="M0.297821 0.297821H246.16V182.312H0.297821V0.297821Z" stroke="white" stroke-opacity="0.13" stroke-width="0.595642"/>
<path d="M7.81482 18.2954V11.4336H8.81074V14.3928H12.2416V11.4336H13.2423V18.2954H12.2416V15.3315H8.81074V18.2954H7.81482ZM16.8158 18.4384C16.3012 18.4384 15.8548 18.3224 15.4768 18.0905C15.0988 17.8586 14.8065 17.5393 14.6 17.1327C14.3967 16.7229 14.295 16.2512 14.295 15.7175C14.295 15.1806 14.3999 14.7089 14.6095 14.3022C14.8192 13.8924 15.113 13.5748 15.4911 13.3492C15.8691 13.1205 16.3107 13.0061 16.8158 13.0061C17.3304 13.0061 17.7768 13.1221 18.1548 13.354C18.5328 13.5859 18.8251 13.9051 19.0316 14.3118C19.2381 14.7184 19.3413 15.187 19.3413 15.7175C19.3413 16.2543 19.2365 16.7277 19.0268 17.1375C18.8203 17.5441 18.5281 17.8634 18.15 18.0953C17.772 18.324 17.3272 18.4384 16.8158 18.4384ZM16.8158 17.4996C17.3082 17.4996 17.6751 17.3344 17.9165 17.0041C18.1611 16.6705 18.2834 16.2416 18.2834 15.7175C18.2834 15.1806 18.1596 14.7517 17.9118 14.4309C17.6672 14.1069 17.3018 13.9448 16.8158 13.9448C16.4822 13.9448 16.2074 14.0211 15.9914 14.1736C15.7754 14.3229 15.615 14.531 15.5101 14.7978C15.4053 15.0615 15.3529 15.368 15.3529 15.7175C15.3529 16.2575 15.4768 16.6896 15.7246 17.0136C15.9724 17.3376 16.3361 17.4996 16.8158 17.4996ZM22.3279 18.4336C21.9721 18.4336 21.6734 18.3764 21.432 18.2621C21.1906 18.1477 20.9936 17.9984 20.8411 17.8141C20.6918 17.6267 20.5775 17.4234 20.498 17.2042C20.4186 16.985 20.3646 16.7706 20.336 16.5609C20.3074 16.3512 20.2931 16.167 20.2931 16.0081V13.1491H21.3034V15.6794C21.3034 15.8795 21.3192 16.086 21.351 16.2988C21.3859 16.5085 21.4495 16.7039 21.5416 16.8849C21.6369 17.066 21.7687 17.2121 21.9371 17.3233C22.1087 17.4345 22.331 17.4901 22.6042 17.4901C22.7821 17.4901 22.9505 17.4615 23.1093 17.4043C23.2682 17.344 23.4064 17.2487 23.5239 17.1184C23.6446 16.9882 23.7383 16.8166 23.805 16.6038C23.8749 16.3909 23.9099 16.132 23.9099 15.8271L24.5293 16.0606C24.5293 16.5275 24.442 16.9405 24.2673 17.2995C24.0925 17.6553 23.8416 17.9333 23.5144 18.1334C23.1872 18.3335 22.7917 18.4336 22.3279 18.4336ZM24.029 18.2954V16.8087H23.9099V13.1491H24.9153V18.2954H24.029ZM26.2518 18.2954V13.1491H27.1381V14.3975L27.0142 14.2355C27.0777 14.0703 27.1603 13.9194 27.262 13.7828C27.3637 13.6431 27.4812 13.5287 27.6146 13.4397C27.7449 13.3444 27.8894 13.2714 28.0482 13.2205C28.2103 13.1665 28.3755 13.1348 28.5438 13.1252C28.7122 13.1125 28.8742 13.1205 29.0299 13.1491V14.083C28.8615 14.0386 28.6741 14.0259 28.4676 14.0449C28.2643 14.064 28.0768 14.1291 27.9053 14.2403C27.7433 14.3451 27.6146 14.4722 27.5193 14.6215C27.4272 14.7708 27.3605 14.9376 27.3192 15.1218C27.2779 15.3029 27.2572 15.4951 27.2572 15.6984V18.2954H26.2518ZM31.7192 18.4336C31.0934 18.4336 30.5835 18.2954 30.1896 18.019C29.7957 17.7427 29.5542 17.3535 29.4653 16.8516L30.485 16.6943C30.5486 16.9612 30.6947 17.1724 30.9234 17.3281C31.1553 17.4806 31.4428 17.5568 31.7859 17.5568C32.0972 17.5568 32.3402 17.4933 32.515 17.3662C32.6929 17.2391 32.7818 17.0644 32.7818 16.842C32.7818 16.7118 32.75 16.607 32.6865 16.5275C32.6262 16.445 32.4975 16.3671 32.3005 16.2941C32.1036 16.221 31.8034 16.1305 31.3999 16.0224C30.9584 15.9081 30.6073 15.7858 30.3468 15.6555C30.0895 15.5221 29.9053 15.368 29.7941 15.1933C29.6861 15.0154 29.6321 14.801 29.6321 14.55C29.6321 14.2387 29.7147 13.9671 29.8798 13.7352C30.045 13.5033 30.2769 13.3238 30.5756 13.1967C30.8773 13.0696 31.23 13.0061 31.6334 13.0061C32.0273 13.0061 32.3784 13.0681 32.6865 13.192C32.9947 13.3158 33.244 13.4922 33.4346 13.7209C33.6252 13.9464 33.7396 14.2117 33.7777 14.5167L32.758 14.7025C32.723 14.4547 32.6071 14.2593 32.4101 14.1164C32.2132 13.9734 31.9574 13.8956 31.6429 13.8829C31.3412 13.8702 31.0965 13.921 30.9091 14.0354C30.7217 14.1466 30.628 14.3006 30.628 14.4976C30.628 14.612 30.6629 14.7089 30.7328 14.7883C30.8059 14.8677 30.9456 14.9439 31.1521 15.017C31.3586 15.0901 31.6636 15.1774 32.067 15.2791C32.4991 15.3903 32.8422 15.5142 33.0963 15.6508C33.3505 15.7842 33.5315 15.9446 33.6395 16.132C33.7507 16.3163 33.8063 16.5403 33.8063 16.8039C33.8063 17.3122 33.6205 17.7109 33.2488 18C32.8803 18.2891 32.3704 18.4336 31.7192 18.4336ZM38.222 18.2954L36.2301 11.4336H37.2737L38.7175 16.6228L40.1614 11.4384L41.2097 11.4336L42.6535 16.6228L44.0974 11.4336H45.1457L43.1491 18.2954H42.158L40.6855 13.1634L39.2131 18.2954H38.222ZM47.6123 18.4384C47.0977 18.4384 46.6514 18.3224 46.2733 18.0905C45.8953 17.8586 45.603 17.5393 45.3965 17.1327C45.1932 16.7229 45.0916 16.2512 45.0916 15.7175C45.0916 15.1806 45.1964 14.7089 45.4061 14.3022C45.6157 13.8924 45.9096 13.5748 46.2876 13.3492C46.6656 13.1205 47.1072 13.0061 47.6123 13.0061C48.127 13.0061 48.5733 13.1221 48.9513 13.354C49.3294 13.5859 49.6216 13.9051 49.8281 14.3118C50.0346 14.7184 50.1378 15.187 50.1378 15.7175C50.1378 16.2543 50.033 16.7277 49.8233 17.1375C49.6169 17.5441 49.3246 17.8634 48.9466 18.0953C48.5685 18.324 48.1238 18.4384 47.6123 18.4384ZM47.6123 17.4996C48.1047 17.4996 48.4716 17.3344 48.7131 17.0041C48.9577 16.6705 49.08 16.2416 49.08 15.7175C49.08 15.1806 48.9561 14.7517 48.7083 14.4309C48.4637 14.1069 48.0984 13.9448 47.6123 13.9448C47.2788 13.9448 47.004 14.0211 46.788 14.1736C46.5719 14.3229 46.4115 14.531 46.3067 14.7978C46.2018 15.0615 46.1494 15.368 46.1494 15.7175C46.1494 16.2575 46.2733 16.6896 46.5211 17.0136C46.7689 17.3376 47.1326 17.4996 47.6123 17.4996ZM51.185 18.2954V13.1491H52.0713V14.3975L51.9474 14.2355C52.0109 14.0703 52.0935 13.9194 52.1952 13.7828C52.2968 13.6431 52.4144 13.5287 52.5478 13.4397C52.6781 13.3444 52.8226 13.2714 52.9814 13.2205C53.1434 13.1665 53.3086 13.1348 53.477 13.1252C53.6454 13.1125 53.8074 13.1205 53.9631 13.1491V14.083C53.7947 14.0386 53.6073 14.0259 53.4008 14.0449C53.1975 14.064 53.01 14.1291 52.8385 14.2403C52.6765 14.3451 52.5478 14.4722 52.4525 14.6215C52.3604 14.7708 52.2937 14.9376 52.2524 15.1218C52.2111 15.3029 52.1904 15.4951 52.1904 15.6984V18.2954H51.185ZM54.8657 18.2954L54.8705 11.4336H55.8807V15.6269L57.9011 13.1491H59.1687L57.0339 15.7222L59.3879 18.2954H58.0346L55.8807 15.8175V18.2954H54.8657ZM62.0577 18.4384C61.5463 18.4384 61.0968 18.3272 60.7092 18.1048C60.3248 17.8793 60.0246 17.5663 59.8086 17.1661C59.5958 16.7626 59.4893 16.2956 59.4893 15.7651C59.4893 15.2028 59.5942 14.7152 59.8038 14.3022C60.0167 13.8893 60.3121 13.57 60.6902 13.3444C61.0682 13.1189 61.5082 13.0061 62.0101 13.0061C62.5343 13.0061 62.9806 13.1284 63.3491 13.373C63.7176 13.6145 63.9924 13.9591 64.1735 14.4071C64.3577 14.855 64.4308 15.3871 64.3927 16.0034H63.3967V15.6412C63.3904 15.044 63.276 14.6024 63.0537 14.3165C62.8345 14.0306 62.4993 13.8877 62.0482 13.8877C61.5495 13.8877 61.1746 14.0449 60.9236 14.3594C60.6727 14.6739 60.5472 15.1282 60.5472 15.7222C60.5472 16.2877 60.6727 16.7261 60.9236 17.0374C61.1746 17.3456 61.5368 17.4996 62.0101 17.4996C62.3214 17.4996 62.5899 17.4297 62.8154 17.29C63.0441 17.147 63.222 16.9437 63.3491 16.68L64.3259 16.9898C64.1258 17.4504 63.8224 17.8078 63.4158 18.0619C63.0092 18.3129 62.5565 18.4384 62.0577 18.4384ZM60.2232 16.0034V15.2267H63.8971V16.0034H60.2232ZM67.506 18.4384C67.0263 18.4384 66.6117 18.3192 66.2623 18.081C65.916 17.8427 65.6476 17.5187 65.457 17.1089C65.2696 16.6959 65.1759 16.2321 65.1759 15.7175C65.1759 15.1997 65.2712 14.7374 65.4618 14.3308C65.6524 13.921 65.9224 13.5986 66.2718 13.3635C66.6245 13.1252 67.0422 13.0061 67.5251 13.0061C68.0111 13.0061 68.4193 13.1252 68.7497 13.3635C69.0833 13.5986 69.3342 13.921 69.5026 14.3308C69.6741 14.7406 69.7599 15.2028 69.7599 15.7175C69.7599 16.2321 69.6741 16.6943 69.5026 17.1041C69.3311 17.5139 69.0785 17.8395 68.7449 18.081C68.4114 18.3192 67.9984 18.4384 67.506 18.4384ZM67.6442 17.5378C67.9714 17.5378 68.2382 17.4599 68.4447 17.3043C68.6512 17.1486 68.8021 16.9342 68.8974 16.661C68.9927 16.3878 69.0404 16.0733 69.0404 15.7175C69.0404 15.3617 68.9911 15.0472 68.8927 14.774C68.7974 14.5008 68.648 14.2879 68.4447 14.1354C68.2446 13.983 67.9889 13.9067 67.6775 13.9067C67.3472 13.9067 67.0756 13.9877 66.8627 14.1497C66.6499 14.3118 66.491 14.5294 66.3862 14.8026C66.2845 15.0758 66.2337 15.3807 66.2337 15.7175C66.2337 16.0574 66.2845 16.3655 66.3862 16.6419C66.491 16.9151 66.6467 17.1327 66.8532 17.2947C67.0628 17.4567 67.3265 17.5378 67.6442 17.5378ZM69.0404 18.2954V14.5929H68.926V11.4336H69.9267V18.2954H69.0404Z" fill="white"/>
<path d="M227.993 13.1041C227.338 13.1041 226.802 13.6402 226.802 14.2954C226.802 14.9506 227.338 15.4867 227.993 15.4867C228.648 15.4867 229.184 14.9506 229.184 14.2954C229.184 13.6402 228.648 13.1041 227.993 13.1041Z" stroke="#575F65" stroke-width="0.893462"/>
<path d="M236.332 13.1041C235.677 13.1041 235.141 13.6402 235.141 14.2954C235.141 14.9506 235.677 15.4867 236.332 15.4867C236.987 15.4867 237.523 14.9506 237.523 14.2954C237.523 13.6402 236.987 13.1041 236.332 13.1041Z" stroke="#575F65" stroke-width="0.893462"/>
<path d="M232.162 13.1041C231.507 13.1041 230.971 13.6402 230.971 14.2954C230.971 14.9506 231.507 15.4867 232.162 15.4867C232.817 15.4867 233.354 14.9506 233.354 14.2954C233.354 13.6402 232.817 13.1041 232.162 13.1041Z" stroke="#575F65" stroke-width="0.893462"/>
<path d="M9.32835 31.4431V26.0269H7.23109V25.439H12.0385V26.0269H9.94126V31.4431H9.32835ZM15.9593 31.4431V29.1457C15.9593 28.8955 15.9357 28.6662 15.8885 28.4577C15.8412 28.2465 15.7648 28.063 15.6591 27.9074C15.5563 27.7489 15.4215 27.6266 15.2547 27.5405C15.0907 27.4543 14.8906 27.4112 14.6543 27.4112C14.4375 27.4112 14.2457 27.4487 14.0789 27.5238C13.9149 27.5988 13.7759 27.7072 13.6619 27.849C13.5508 27.988 13.466 28.1575 13.4076 28.3577C13.3492 28.5578 13.3201 28.7857 13.3201 29.0415L12.8864 28.9456C12.8864 28.4842 12.967 28.0964 13.1283 27.7823C13.2895 27.4682 13.5118 27.2305 13.7954 27.0693C14.0789 26.9081 14.4041 26.8275 14.771 26.8275C15.0407 26.8275 15.2755 26.8692 15.4757 26.9526C15.6786 27.0359 15.8495 27.1485 15.9885 27.2903C16.1303 27.432 16.2443 27.5947 16.3304 27.7781C16.4166 27.9588 16.4791 28.152 16.5181 28.3577C16.557 28.5606 16.5764 28.7635 16.5764 28.9664V31.4431H15.9593ZM12.703 31.4431V25.439H13.2575V28.8288H13.3201V31.4431H12.703ZM19.5639 31.5682C19.1247 31.5682 18.7439 31.4709 18.4214 31.2763C18.1018 31.0817 17.853 30.8079 17.6751 30.4549C17.4972 30.1019 17.4082 29.6877 17.4082 29.2124C17.4082 28.7204 17.4958 28.2951 17.6709 27.9366C17.846 27.578 18.092 27.3014 18.4089 27.1068C18.7286 26.9123 19.1052 26.815 19.5388 26.815C19.9836 26.815 20.363 26.9178 20.6771 27.1235C20.9912 27.3264 21.2289 27.6183 21.3901 27.9991C21.5513 28.3799 21.625 28.8344 21.6111 29.3625H20.9857V29.1457C20.9745 28.562 20.8481 28.1214 20.6062 27.824C20.3672 27.5266 20.0169 27.3778 19.5555 27.3778C19.0719 27.3778 18.7008 27.5349 18.4423 27.849C18.1865 28.1631 18.0587 28.6106 18.0587 29.1916C18.0587 29.7586 18.1865 30.1992 18.4423 30.5133C18.7008 30.8246 19.0663 30.9803 19.5388 30.9803C19.8613 30.9803 20.142 30.9066 20.3811 30.7593C20.6229 30.6092 20.8133 30.3938 20.9523 30.113L21.5235 30.334C21.3456 30.7259 21.0829 31.0303 20.7355 31.2471C20.3908 31.4612 20.0003 31.5682 19.5639 31.5682ZM17.8419 29.3625V28.8497H21.2817V29.3625H17.8419ZM29.5761 31.4431L29.5803 28.4869C29.5803 28.1395 29.483 27.8671 29.2884 27.6697C29.0966 27.4696 28.852 27.3695 28.5546 27.3695C28.385 27.3695 28.2196 27.4084 28.0584 27.4863C27.8972 27.5641 27.7638 27.6892 27.6581 27.8615C27.5553 28.0338 27.5039 28.259 27.5039 28.537L27.1411 28.4327C27.1328 28.1103 27.1953 27.8282 27.3288 27.5863C27.465 27.3445 27.6512 27.1569 27.8875 27.0234C28.1265 26.8872 28.3961 26.8191 28.6964 26.8191C29.1494 26.8191 29.5122 26.9595 29.7846 27.2403C30.057 27.5182 30.1932 27.8949 30.1932 28.3702L30.189 31.4431H29.5761ZM24.2016 31.4431V26.94H24.752V28.0491H24.8187V31.4431H24.2016ZM26.8951 31.4431L26.8993 28.5286C26.8993 28.17 26.8034 27.8879 26.6116 27.6822C26.4226 27.4737 26.1724 27.3695 25.8611 27.3695C25.5498 27.3695 25.2982 27.4765 25.1064 27.6906C24.9146 27.9018 24.8187 28.1839 24.8187 28.537L24.4518 28.3368C24.4518 28.0477 24.5199 27.7892 24.6561 27.5613C24.7923 27.3306 24.9786 27.1499 25.2148 27.0193C25.4511 26.8858 25.7193 26.8191 26.0195 26.8191C26.3058 26.8191 26.5602 26.8803 26.7826 27.0026C27.0077 27.1249 27.1842 27.3028 27.3121 27.5363C27.4399 27.7698 27.5039 28.0533 27.5039 28.3869L27.4997 31.4431H26.8951ZM33.1554 31.5682C32.7162 31.5682 32.3354 31.4709 32.013 31.2763C31.6933 31.0817 31.4445 30.8079 31.2666 30.4549C31.0888 30.1019 30.9998 29.6877 30.9998 29.2124C30.9998 28.7204 31.0874 28.2951 31.2625 27.9366C31.4376 27.578 31.6836 27.3014 32.0005 27.1068C32.3201 26.9123 32.6968 26.815 33.1304 26.815C33.5752 26.815 33.9546 26.9178 34.2687 27.1235C34.5828 27.3264 34.8204 27.6183 34.9817 27.9991C35.1429 28.3799 35.2165 28.8344 35.2026 29.3625H34.5772V29.1457C34.5661 28.562 34.4396 28.1214 34.1978 27.824C33.9588 27.5266 33.6085 27.3778 33.1471 27.3778C32.6634 27.3778 32.2923 27.5349 32.0338 27.849C31.7781 28.1631 31.6502 28.6106 31.6502 29.1916C31.6502 29.7586 31.7781 30.1992 32.0338 30.5133C32.2923 30.8246 32.6579 30.9803 33.1304 30.9803C33.4529 30.9803 33.7336 30.9066 33.9726 30.7593C34.2145 30.6092 34.4049 30.3938 34.5439 30.113L35.1151 30.334C34.9372 30.7259 34.6745 31.0303 34.3271 31.2471C33.9824 31.4612 33.5918 31.5682 33.1554 31.5682ZM31.4334 29.3625V28.8497H34.8733V29.3625H31.4334ZM37.3349 31.5682C36.9958 31.5682 36.7109 31.507 36.4801 31.3847C36.2522 31.2624 36.0813 31.0998 35.9673 30.8969C35.8533 30.694 35.7963 30.473 35.7963 30.2339C35.7963 29.9893 35.845 29.7809 35.9423 29.6085C36.0423 29.4334 36.1772 29.2903 36.3467 29.1791C36.5191 29.0679 36.7178 28.9831 36.943 28.9247C37.1709 28.8691 37.4224 28.8205 37.6976 28.7788C37.9756 28.7343 38.2466 28.6968 38.5107 28.6662C38.7775 28.6329 39.011 28.6009 39.2112 28.5703L38.9943 28.7037C39.0027 28.259 38.9165 27.9296 38.7358 27.7156C38.5552 27.5015 38.2411 27.3945 37.7935 27.3945C37.485 27.3945 37.2237 27.464 37.0097 27.603C36.7984 27.742 36.6497 27.9616 36.5635 28.2618L35.9673 28.0867C36.0701 27.6836 36.2772 27.3709 36.5885 27.1485C36.8999 26.9262 37.3043 26.815 37.8019 26.815C38.2133 26.815 38.5621 26.8928 38.8484 27.0485C39.1375 27.2013 39.3418 27.4237 39.4613 27.7156C39.5169 27.8462 39.5531 27.9922 39.5697 28.1534C39.5864 28.3146 39.5948 28.4786 39.5948 28.6454V31.4431H39.0485V30.3132L39.207 30.3799C39.0541 30.7663 38.8164 31.0609 38.494 31.2638C38.1716 31.4667 37.7852 31.5682 37.3349 31.5682ZM37.4058 31.0387C37.6921 31.0387 37.9422 30.9872 38.1563 30.8844C38.3703 30.7815 38.5427 30.6412 38.6733 30.4633C38.8039 30.2826 38.8887 30.0797 38.9276 29.8545C38.961 29.71 38.9791 29.5515 38.9818 29.3792C38.9846 29.2041 38.986 29.0734 38.986 28.9873L39.2195 29.1082C39.011 29.136 38.7845 29.1638 38.5399 29.1916C38.298 29.2194 38.059 29.2513 37.8227 29.2875C37.5892 29.3236 37.378 29.3667 37.189 29.4167C37.0611 29.4529 36.9374 29.5043 36.8179 29.571C36.6983 29.6349 36.5997 29.7211 36.5218 29.8295C36.4468 29.9379 36.4093 30.0727 36.4093 30.2339C36.4093 30.3646 36.4412 30.4911 36.5052 30.6134C36.5719 30.7357 36.6775 30.8371 36.822 30.9177C36.9694 30.9984 37.1639 31.0387 37.4058 31.0387ZM42.3605 31.564C41.8324 31.564 41.3973 31.45 41.0554 31.2221C40.7163 30.9942 40.5078 30.6773 40.43 30.2715L41.0554 30.1672C41.1222 30.423 41.2736 30.6273 41.5099 30.7802C41.749 30.9303 42.0436 31.0053 42.3938 31.0053C42.7357 31.0053 43.0054 30.9344 43.2027 30.7927C43.4001 30.6481 43.4988 30.4522 43.4988 30.2048C43.4988 30.0658 43.4668 29.9532 43.4029 29.867C43.3417 29.7781 43.2152 29.6961 43.0234 29.621C42.8316 29.546 42.5453 29.457 42.1645 29.3542C41.7559 29.243 41.4363 29.1318 41.2055 29.0206C40.9748 28.9094 40.8108 28.7816 40.7135 28.637C40.6163 28.4897 40.5676 28.3104 40.5676 28.0992C40.5676 27.8434 40.6399 27.6197 40.7844 27.4279C40.929 27.2333 41.1291 27.0832 41.3848 26.9776C41.6406 26.8692 41.938 26.815 42.2771 26.815C42.6162 26.815 42.9192 26.8706 43.1861 26.9817C43.4557 27.0902 43.6725 27.243 43.8365 27.4404C44.0005 27.6377 44.0978 27.8671 44.1284 28.1284L43.5029 28.2409C43.4612 27.9769 43.3292 27.7684 43.1068 27.6155C42.8872 27.4598 42.6079 27.3792 42.2688 27.3737C41.9491 27.3653 41.6892 27.4265 41.4891 27.5571C41.2889 27.685 41.1889 27.8559 41.1889 28.07C41.1889 28.1895 41.225 28.2924 41.2973 28.3785C41.3695 28.4619 41.5002 28.5411 41.6892 28.6162C41.881 28.6912 42.1534 28.7732 42.5064 28.8622C42.9206 28.9678 43.2458 29.079 43.4821 29.1957C43.7184 29.3125 43.8865 29.4501 43.9866 29.6085C44.0867 29.767 44.1367 29.9629 44.1367 30.1964C44.1367 30.6217 43.9783 30.9567 43.6614 31.2013C43.3473 31.4431 42.9136 31.564 42.3605 31.564ZM46.7834 31.5557C46.5138 31.5557 46.2775 31.514 46.0746 31.4306C45.8745 31.3472 45.7035 31.2346 45.5617 31.0929C45.4228 30.9511 45.3102 30.7899 45.224 30.6092C45.1378 30.4257 45.0753 30.2326 45.0364 30.0296C44.9975 29.8239 44.978 29.6196 44.978 29.4167V26.94H45.5951V29.2374C45.5951 29.4848 45.6187 29.7142 45.666 29.9254C45.7132 30.1367 45.7883 30.3215 45.8911 30.4799C45.9968 30.6356 46.1316 30.7565 46.2956 30.8427C46.4624 30.9289 46.6639 30.9719 46.9002 30.9719C47.117 30.9719 47.3074 30.9344 47.4714 30.8594C47.6382 30.7843 47.7771 30.6773 47.8883 30.5383C48.0023 30.3966 48.0885 30.2256 48.1468 30.0255C48.2052 29.8226 48.2344 29.5946 48.2344 29.3417L48.668 29.4376C48.668 29.899 48.5874 30.2868 48.4262 30.6009C48.265 30.915 48.0426 31.1526 47.7591 31.3138C47.4755 31.4751 47.1503 31.5557 46.7834 31.5557ZM48.2969 31.4431V30.334H48.2344V26.94H48.8473V31.4431H48.2969ZM50.0127 31.4431V26.94H50.5631V28.0241L50.4546 27.8824C50.5047 27.7489 50.57 27.6266 50.6506 27.5154C50.7312 27.4015 50.8188 27.3084 50.9133 27.2361C51.03 27.1332 51.1662 27.0554 51.3219 27.0026C51.4776 26.947 51.6346 26.915 51.7931 26.9067C51.9515 26.8956 52.096 26.9067 52.2267 26.94V27.5154C52.0627 27.4737 51.8834 27.464 51.6888 27.4863C51.4942 27.5085 51.315 27.5863 51.151 27.7197C51.0008 27.8365 50.8883 27.9769 50.8132 28.1409C50.7382 28.3021 50.6881 28.4744 50.6631 28.6579C50.6381 28.8386 50.6256 29.0178 50.6256 29.1957V31.4431H50.0127ZM54.8417 31.5682C54.4025 31.5682 54.0217 31.4709 53.6992 31.2763C53.3796 31.0817 53.1308 30.8079 52.9529 30.4549C52.775 30.1019 52.686 29.6877 52.686 29.2124C52.686 28.7204 52.7736 28.2951 52.9487 27.9366C53.1238 27.578 53.3698 27.3014 53.6867 27.1068C54.0064 26.9123 54.383 26.815 54.8167 26.815C55.2614 26.815 55.6408 26.9178 55.9549 27.1235C56.269 27.3264 56.5067 27.6183 56.6679 27.9991C56.8291 28.3799 56.9028 28.8344 56.8889 29.3625H56.2635V29.1457C56.2523 28.562 56.1259 28.1214 55.884 27.824C55.645 27.5266 55.2948 27.3778 54.8333 27.3778C54.3497 27.3778 53.9786 27.5349 53.7201 27.849C53.4643 28.1631 53.3365 28.6106 53.3365 29.1916C53.3365 29.7586 53.4643 30.1992 53.7201 30.5133C53.9786 30.8246 54.3441 30.9803 54.8167 30.9803C55.1391 30.9803 55.4198 30.9066 55.6589 30.7593C55.9007 30.6092 56.0911 30.3938 56.2301 30.113L56.8013 30.334C56.6234 30.7259 56.3608 31.0303 56.0133 31.2471C55.6686 31.4612 55.2781 31.5682 54.8417 31.5682ZM53.1197 29.3625V28.8497H56.5595V29.3625H53.1197ZM63.0623 31.4431L63.0665 28.4869C63.0665 28.1395 62.9692 27.8671 62.7746 27.6697C62.5828 27.4696 62.3382 27.3695 62.0408 27.3695C61.8713 27.3695 61.7059 27.4084 61.5446 27.4863C61.3834 27.5641 61.25 27.6892 61.1444 27.8615C61.0415 28.0338 60.9901 28.259 60.9901 28.537L60.6274 28.4327C60.619 28.1103 60.6816 27.8282 60.815 27.5863C60.9512 27.3445 61.1374 27.1569 61.3737 27.0234C61.6127 26.8872 61.8824 26.8191 62.1826 26.8191C62.6357 26.8191 62.9984 26.9595 63.2708 27.2403C63.5432 27.5182 63.6794 27.8949 63.6794 28.3702L63.6753 31.4431H63.0623ZM57.6879 31.4431V26.94H58.2382V28.0491H58.305V31.4431H57.6879ZM60.3814 31.4431L60.3855 28.5286C60.3855 28.17 60.2896 27.8879 60.0978 27.6822C59.9088 27.4737 59.6586 27.3695 59.3473 27.3695C59.036 27.3695 58.7844 27.4765 58.5926 27.6906C58.4008 27.9018 58.305 28.1839 58.305 28.537L57.938 28.3368C57.938 28.0477 58.0061 27.7892 58.1423 27.5613C58.2785 27.3306 58.4648 27.1499 58.7011 27.0193C58.9373 26.8858 59.2056 26.8191 59.5058 26.8191C59.7921 26.8191 60.0464 26.8803 60.2688 27.0026C60.4939 27.1249 60.6704 27.3028 60.7983 27.5363C60.9262 27.7698 60.9901 28.0533 60.9901 28.3869L60.9859 31.4431H60.3814ZM66.6417 31.5682C66.2025 31.5682 65.8217 31.4709 65.4992 31.2763C65.1796 31.0817 64.9308 30.8079 64.7529 30.4549C64.575 30.1019 64.486 29.6877 64.486 29.2124C64.486 28.7204 64.5736 28.2951 64.7487 27.9366C64.9238 27.578 65.1698 27.3014 65.4867 27.1068C65.8064 26.9123 66.183 26.815 66.6166 26.815C67.0614 26.815 67.4408 26.9178 67.7549 27.1235C68.069 27.3264 68.3067 27.6183 68.4679 27.9991C68.6291 28.3799 68.7028 28.8344 68.6889 29.3625H68.0635V29.1457C68.0523 28.562 67.9259 28.1214 67.684 27.824C67.445 27.5266 67.0947 27.3778 66.6333 27.3778C66.1497 27.3778 65.7786 27.5349 65.5201 27.849C65.2643 28.1631 65.1365 28.6106 65.1365 29.1916C65.1365 29.7586 65.2643 30.1992 65.5201 30.5133C65.7786 30.8246 66.1441 30.9803 66.6166 30.9803C66.9391 30.9803 67.2198 30.9066 67.4589 30.7593C67.7007 30.6092 67.8911 30.3938 68.0301 30.113L68.6013 30.334C68.4234 30.7259 68.1607 31.0303 67.8133 31.2471C67.4686 31.4612 67.0781 31.5682 66.6417 31.5682ZM64.9197 29.3625V28.8497H68.3595V29.3625H64.9197ZM72.7442 31.4431V29.1457C72.7442 28.8955 72.7206 28.6662 72.6733 28.4577C72.6261 28.2465 72.5497 28.063 72.444 27.9074C72.3412 27.7489 72.2064 27.6266 72.0396 27.5405C71.8756 27.4543 71.6754 27.4112 71.4392 27.4112C71.2224 27.4112 71.0306 27.4487 70.8638 27.5238C70.6998 27.5988 70.5608 27.7072 70.4468 27.849C70.3357 27.988 70.2509 28.1575 70.1925 28.3577C70.1341 28.5578 70.1049 28.7857 70.1049 29.0415L69.6713 28.9456C69.6713 28.4842 69.7519 28.0964 69.9131 27.7823C70.0744 27.4682 70.2967 27.2305 70.5803 27.0693C70.8638 26.9081 71.189 26.8275 71.5559 26.8275C71.8255 26.8275 72.0604 26.8692 72.2606 26.9526C72.4635 27.0359 72.6344 27.1485 72.7734 27.2903C72.9152 27.432 73.0291 27.5947 73.1153 27.7781C73.2015 27.9588 73.264 28.152 73.3029 28.3577C73.3419 28.5606 73.3613 28.7635 73.3613 28.9664V31.4431H72.7442ZM69.4879 31.4431V26.94H70.0424V28.0491H70.1049V31.4431H69.4879ZM76.895 31.4431C76.642 31.4959 76.3918 31.5168 76.1444 31.5056C75.8998 31.4945 75.6802 31.4417 75.4857 31.3472C75.2939 31.2527 75.1479 31.1054 75.0479 30.9052C74.9673 30.7385 74.9228 30.5703 74.9144 30.4007C74.9089 30.2284 74.9061 30.0324 74.9061 29.8128V25.6892H75.5149V29.7878C75.5149 29.9768 75.5162 30.1353 75.519 30.2631C75.5246 30.3882 75.5538 30.4994 75.6066 30.5967C75.7067 30.7829 75.8651 30.8941 76.0819 30.9303C76.3015 30.9664 76.5725 30.958 76.895 30.9052V31.4431ZM73.943 27.4654V26.94H76.895V27.4654H73.943ZM81.332 31.5682C80.8845 31.5682 80.5023 31.4667 80.1854 31.2638C79.8685 31.0609 79.6253 30.7802 79.4557 30.4216C79.2862 30.063 79.2014 29.6516 79.2014 29.1874C79.2014 28.7149 79.2876 28.3007 79.4599 27.9449C79.6323 27.5891 79.8769 27.3125 80.1937 27.1152C80.5134 26.915 80.8928 26.815 81.332 26.815C81.7823 26.815 82.1659 26.9164 82.4828 27.1193C82.8025 27.3195 83.0457 27.5988 83.2125 27.9574C83.382 28.3132 83.4668 28.7232 83.4668 29.1874C83.4668 29.6599 83.382 30.0755 83.2125 30.4341C83.0429 30.7899 82.7983 31.0678 82.4786 31.268C82.159 31.4681 81.7768 31.5682 81.332 31.5682ZM81.332 30.9803C81.8324 30.9803 82.2048 30.8149 82.4494 30.4841C82.694 30.1506 82.8164 29.7183 82.8164 29.1874C82.8164 28.6426 82.6927 28.209 82.4453 27.8865C82.2007 27.5641 81.8296 27.4029 81.332 27.4029C80.9957 27.4029 80.7177 27.4793 80.4981 27.6322C80.2813 27.7823 80.1187 27.9922 80.0103 28.2618C79.9047 28.5286 79.8518 28.8372 79.8518 29.1874C79.8518 29.7294 79.9769 30.1645 80.2271 30.4925C80.4773 30.8177 80.8456 30.9803 81.332 30.9803ZM84.8327 31.4431V26.6065C84.8327 26.4897 84.8382 26.3744 84.8494 26.2604C84.8633 26.1465 84.8897 26.038 84.9286 25.9352C84.9675 25.8296 85.0287 25.7323 85.112 25.6433C85.2038 25.5433 85.3038 25.471 85.4122 25.4265C85.5207 25.3793 85.6332 25.3487 85.75 25.3348C85.8695 25.3209 85.9862 25.3139 86.1002 25.3139H86.6756V25.831H86.1419C85.9084 25.831 85.7333 25.8879 85.6166 26.0019C85.5026 26.1159 85.4456 26.2952 85.4456 26.5398V31.4431H84.8327ZM84.053 27.4654V26.94H86.6756V27.4654H84.053ZM90.3005 31.5682C89.9613 31.5682 89.6764 31.507 89.4457 31.3847C89.2178 31.2624 89.0468 31.0998 88.9329 30.8969C88.8189 30.694 88.7619 30.473 88.7619 30.2339C88.7619 29.9893 88.8106 29.7809 88.9078 29.6085C89.0079 29.4334 89.1427 29.2903 89.3123 29.1791C89.4846 29.0679 89.6834 28.9831 89.9085 28.9247C90.1365 28.8691 90.388 28.8205 90.6632 28.7788C90.9412 28.7343 91.2122 28.6968 91.4763 28.6662C91.7431 28.6329 91.9766 28.6009 92.1767 28.5703L91.9599 28.7037C91.9683 28.259 91.8821 27.9296 91.7014 27.7156C91.5207 27.5015 91.2066 27.3945 90.7591 27.3945C90.4506 27.3945 90.1893 27.464 89.9752 27.603C89.764 27.742 89.6153 27.9616 89.5291 28.2618L88.9329 28.0867C89.0357 27.6836 89.2428 27.3709 89.5541 27.1485C89.8654 26.9262 90.2699 26.815 90.7674 26.815C91.1788 26.815 91.5277 26.8928 91.814 27.0485C92.1031 27.2013 92.3074 27.4237 92.4269 27.7156C92.4825 27.8462 92.5186 27.9922 92.5353 28.1534C92.552 28.3146 92.5603 28.4786 92.5603 28.6454V31.4431H92.0141V30.3132L92.1726 30.3799C92.0197 30.7663 91.782 31.0609 91.4596 31.2638C91.1371 31.4667 90.7508 31.5682 90.3005 31.5682ZM90.3713 31.0387C90.6576 31.0387 90.9078 30.9872 91.1218 30.8844C91.3359 30.7815 91.5082 30.6412 91.6389 30.4633C91.7695 30.2826 91.8543 30.0797 91.8932 29.8545C91.9266 29.71 91.9446 29.5515 91.9474 29.3792C91.9502 29.2041 91.9516 29.0734 91.9516 28.9873L92.1851 29.1082C91.9766 29.136 91.75 29.1638 91.5054 29.1916C91.2636 29.2194 91.0246 29.2513 90.7883 29.2875C90.5548 29.3236 90.3435 29.3667 90.1545 29.4167C90.0267 29.4529 89.903 29.5043 89.7834 29.571C89.6639 29.6349 89.5652 29.7211 89.4874 29.8295C89.4124 29.9379 89.3748 30.0727 89.3748 30.2339C89.3748 30.3646 89.4068 30.4911 89.4707 30.6134C89.5374 30.7357 89.6431 30.8371 89.7876 30.9177C89.9349 30.9984 90.1295 31.0387 90.3713 31.0387ZM95.5137 31.5682C95.0606 31.5682 94.677 31.4667 94.3629 31.2638C94.0488 31.0609 93.8098 30.7815 93.6458 30.4257C93.4845 30.0672 93.4011 29.6558 93.3956 29.1916C93.4011 28.719 93.4873 28.3049 93.6541 27.9491C93.8209 27.5905 94.0613 27.3125 94.3754 27.1152C94.6895 26.915 95.0703 26.815 95.5179 26.815C95.9737 26.815 96.3698 26.9262 96.7062 27.1485C97.0453 27.3709 97.2774 27.6753 97.4025 28.0616L96.8021 28.2534C96.6964 27.9838 96.5283 27.7753 96.2976 27.628C96.0696 27.4779 95.8083 27.4029 95.5137 27.4029C95.1829 27.4029 94.9091 27.4793 94.6923 27.6322C94.4755 27.7823 94.3143 27.9922 94.2086 28.2618C94.103 28.5314 94.0488 28.8413 94.046 29.1916C94.0516 29.7308 94.1767 30.1645 94.4213 30.4925C94.6659 30.8177 95.03 30.9803 95.5137 30.9803C95.8195 30.9803 96.0793 30.9108 96.2934 30.7718C96.5102 30.63 96.6742 30.4244 96.7854 30.1547L97.4025 30.3382C97.2357 30.7385 96.9911 31.0442 96.6686 31.2555C96.3462 31.4639 95.9612 31.5682 95.5137 31.5682ZM100.715 31.4431C100.462 31.4959 100.212 31.5168 99.9643 31.5056C99.7197 31.4945 99.5001 31.4417 99.3055 31.3472C99.1137 31.2527 98.9678 31.1054 98.8677 30.9052C98.7871 30.7385 98.7426 30.5703 98.7343 30.4007C98.7287 30.2284 98.726 30.0324 98.726 29.8128V25.6892H99.3347V29.7878C99.3347 29.9768 99.3361 30.1353 99.3389 30.2631C99.3444 30.3882 99.3736 30.4994 99.4264 30.5967C99.5265 30.7829 99.6849 30.8941 99.9018 30.9303C100.121 30.9664 100.392 30.958 100.715 30.9052V31.4431ZM97.7628 27.4654V26.94H100.715V27.4654H97.7628ZM103.324 31.5557C103.054 31.5557 102.818 31.514 102.615 31.4306C102.415 31.3472 102.244 31.2346 102.102 31.0929C101.963 30.9511 101.851 30.7899 101.765 30.6092C101.678 30.4257 101.616 30.2326 101.577 30.0296C101.538 29.8239 101.519 29.6196 101.519 29.4167V26.94H102.136V29.2374C102.136 29.4848 102.159 29.7142 102.207 29.9254C102.254 30.1367 102.329 30.3215 102.432 30.4799C102.537 30.6356 102.672 30.7565 102.836 30.8427C103.003 30.9289 103.204 30.9719 103.441 30.9719C103.658 30.9719 103.848 30.9344 104.012 30.8594C104.179 30.7843 104.318 30.6773 104.429 30.5383C104.543 30.3966 104.629 30.2256 104.687 30.0255C104.746 29.8226 104.775 29.5946 104.775 29.3417L105.209 29.4376C105.209 29.899 105.128 30.2868 104.967 30.6009C104.806 30.915 104.583 31.1526 104.3 31.3138C104.016 31.4751 103.691 31.5557 103.324 31.5557ZM104.838 31.4431V30.334H104.775V26.94H105.388V31.4431H104.838ZM107.842 31.5682C107.503 31.5682 107.218 31.507 106.987 31.3847C106.759 31.2624 106.588 31.0998 106.474 30.8969C106.36 30.694 106.303 30.473 106.303 30.2339C106.303 29.9893 106.352 29.7809 106.449 29.6085C106.549 29.4334 106.684 29.2903 106.853 29.1791C107.026 29.0679 107.225 28.9831 107.45 28.9247C107.678 28.8691 107.929 28.8205 108.204 28.7788C108.482 28.7343 108.753 28.6968 109.017 28.6662C109.284 28.6329 109.518 28.6009 109.718 28.5703L109.501 28.7037C109.509 28.259 109.423 27.9296 109.243 27.7156C109.062 27.5015 108.748 27.3945 108.3 27.3945C107.992 27.3945 107.73 27.464 107.516 27.603C107.305 27.742 107.156 27.9616 107.07 28.2618L106.474 28.0867C106.577 27.6836 106.784 27.3709 107.095 27.1485C107.407 26.9262 107.811 26.815 108.309 26.815C108.72 26.815 109.069 26.8928 109.355 27.0485C109.644 27.2013 109.849 27.4237 109.968 27.7156C110.024 27.8462 110.06 27.9922 110.076 28.1534C110.093 28.3146 110.102 28.4786 110.102 28.6454V31.4431H109.555V30.3132L109.714 30.3799C109.561 30.7663 109.323 31.0609 109.001 31.2638C108.678 31.4667 108.292 31.5682 107.842 31.5682ZM107.913 31.0387C108.199 31.0387 108.449 30.9872 108.663 30.8844C108.877 30.7815 109.049 30.6412 109.18 30.4633C109.311 30.2826 109.395 30.0797 109.434 29.8545C109.468 29.71 109.486 29.5515 109.489 29.3792C109.491 29.2041 109.493 29.0734 109.493 28.9873L109.726 29.1082C109.518 29.136 109.291 29.1638 109.047 29.1916C108.805 29.2194 108.566 29.2513 108.329 29.2875C108.096 29.3236 107.885 29.3667 107.696 29.4167C107.568 29.4529 107.444 29.5043 107.325 29.571C107.205 29.6349 107.106 29.7211 107.029 29.8295C106.954 29.9379 106.916 30.0727 106.916 30.2339C106.916 30.3646 106.948 30.4911 107.012 30.6134C107.079 30.7357 107.184 30.8371 107.329 30.9177C107.476 30.9984 107.671 31.0387 107.913 31.0387ZM111.27 31.4431V25.3139H111.883V31.4431H111.27ZM118.055 31.4431V29.1457C118.055 28.8955 118.031 28.6662 117.984 28.4577C117.937 28.2465 117.86 28.063 117.755 27.9074C117.652 27.7489 117.517 27.6266 117.35 27.5405C117.186 27.4543 116.986 27.4112 116.75 27.4112C116.533 27.4112 116.341 27.4487 116.174 27.5238C116.01 27.5988 115.871 27.7072 115.757 27.849C115.646 27.988 115.562 28.1575 115.503 28.3577C115.445 28.5578 115.416 28.7857 115.416 29.0415L114.982 28.9456C114.982 28.4842 115.063 28.0964 115.224 27.7823C115.385 27.4682 115.607 27.2305 115.891 27.0693C116.174 26.9081 116.5 26.8275 116.867 26.8275C117.136 26.8275 117.371 26.8692 117.571 26.9526C117.774 27.0359 117.945 27.1485 118.084 27.2903C118.226 27.432 118.34 27.5947 118.426 27.7781C118.512 27.9588 118.575 28.152 118.614 28.3577C118.653 28.5606 118.672 28.7635 118.672 28.9664V31.4431H118.055ZM114.799 31.4431V25.439H115.353V28.8288H115.416V31.4431H114.799ZM121.634 31.5682C121.187 31.5682 120.805 31.4667 120.488 31.2638C120.171 31.0609 119.928 30.7802 119.758 30.4216C119.589 30.063 119.504 29.6516 119.504 29.1874C119.504 28.7149 119.59 28.3007 119.762 27.9449C119.935 27.5891 120.179 27.3125 120.496 27.1152C120.816 26.915 121.195 26.815 121.634 26.815C122.085 26.815 122.468 26.9164 122.785 27.1193C123.105 27.3195 123.348 27.5988 123.515 27.9574C123.684 28.3132 123.769 28.7232 123.769 29.1874C123.769 29.6599 123.684 30.0755 123.515 30.4341C123.345 30.7899 123.101 31.0678 122.781 31.268C122.461 31.4681 122.079 31.5682 121.634 31.5682ZM121.634 30.9803C122.135 30.9803 122.507 30.8149 122.752 30.4841C122.996 30.1506 123.119 29.7183 123.119 29.1874C123.119 28.6426 122.995 28.209 122.748 27.8865C122.503 27.5641 122.132 27.4029 121.634 27.4029C121.298 27.4029 121.02 27.4793 120.8 27.6322C120.584 27.7823 120.421 27.9922 120.313 28.2618C120.207 28.5286 120.154 28.8372 120.154 29.1874C120.154 29.7294 120.279 30.1645 120.529 30.4925C120.78 30.8177 121.148 30.9803 121.634 30.9803ZM126.411 31.5557C126.141 31.5557 125.905 31.514 125.702 31.4306C125.502 31.3472 125.331 31.2346 125.189 31.0929C125.05 30.9511 124.938 30.7899 124.852 30.6092C124.765 30.4257 124.703 30.2326 124.664 30.0296C124.625 29.8239 124.606 29.6196 124.606 29.4167V26.94H125.223V29.2374C125.223 29.4848 125.246 29.7142 125.293 29.9254C125.341 30.1367 125.416 30.3215 125.519 30.4799C125.624 30.6356 125.759 30.7565 125.923 30.8427C126.09 30.9289 126.291 30.9719 126.528 30.9719C126.744 30.9719 126.935 30.9344 127.099 30.8594C127.266 30.7843 127.405 30.6773 127.516 30.5383C127.63 30.3966 127.716 30.2256 127.774 30.0255C127.833 29.8226 127.862 29.5946 127.862 29.3417L128.296 29.4376C128.296 29.899 128.215 30.2868 128.054 30.6009C127.892 30.915 127.67 31.1526 127.387 31.3138C127.103 31.4751 126.778 31.5557 126.411 31.5557ZM127.924 31.4431V30.334H127.862V26.94H128.475V31.4431H127.924ZM129.64 31.4431V26.94H130.191V28.0241L130.082 27.8824C130.132 27.7489 130.198 27.6266 130.278 27.5154C130.359 27.4015 130.446 27.3084 130.541 27.2361C130.658 27.1332 130.794 27.0554 130.949 27.0026C131.105 26.947 131.262 26.915 131.421 26.9067C131.579 26.8956 131.724 26.9067 131.854 26.94V27.5154C131.69 27.4737 131.511 27.464 131.316 27.4863C131.122 27.5085 130.942 27.5863 130.778 27.7197C130.628 27.8365 130.516 27.9769 130.441 28.1409C130.366 28.3021 130.316 28.4744 130.291 28.6579C130.266 28.8386 130.253 29.0178 130.253 29.1957V31.4431H129.64ZM134.163 31.564C133.634 31.564 133.199 31.45 132.858 31.2221C132.518 30.9942 132.31 30.6773 132.232 30.2715L132.858 30.1672C132.924 30.423 133.076 30.6273 133.312 30.7802C133.551 30.9303 133.846 31.0053 134.196 31.0053C134.538 31.0053 134.807 30.9344 135.005 30.7927C135.202 30.6481 135.301 30.4522 135.301 30.2048C135.301 30.0658 135.269 29.9532 135.205 29.867C135.144 29.7781 135.017 29.6961 134.826 29.621C134.634 29.546 134.347 29.457 133.967 29.3542C133.558 29.243 133.238 29.1318 133.008 29.0206C132.777 28.9094 132.613 28.7816 132.516 28.637C132.418 28.4897 132.37 28.3104 132.37 28.0992C132.37 27.8434 132.442 27.6197 132.587 27.4279C132.731 27.2333 132.931 27.0832 133.187 26.9776C133.443 26.8692 133.74 26.815 134.079 26.815C134.418 26.815 134.721 26.8706 134.988 26.9817C135.258 27.0902 135.475 27.243 135.639 27.4404C135.803 27.6377 135.9 27.8671 135.93 28.1284L135.305 28.2409C135.263 27.9769 135.131 27.7684 134.909 27.6155C134.689 27.4598 134.41 27.3792 134.071 27.3737C133.751 27.3653 133.491 27.4265 133.291 27.5571C133.091 27.685 132.991 27.8559 132.991 28.07C132.991 28.1895 133.027 28.2924 133.099 28.3785C133.172 28.4619 133.302 28.5411 133.491 28.6162C133.683 28.6912 133.956 28.7732 134.309 28.8622C134.723 28.9678 135.048 29.079 135.284 29.1957C135.52 29.3125 135.689 29.4501 135.789 29.6085C135.889 29.767 135.939 29.9629 135.939 30.1964C135.939 30.6217 135.78 30.9567 135.463 31.2013C135.149 31.4431 134.716 31.564 134.163 31.564ZM140.413 31.5682C139.966 31.5682 139.584 31.4667 139.267 31.2638C138.95 31.0609 138.707 30.7802 138.537 30.4216C138.368 30.063 138.283 29.6516 138.283 29.1874C138.283 28.7149 138.369 28.3007 138.541 27.9449C138.714 27.5891 138.958 27.3125 139.275 27.1152C139.595 26.915 139.974 26.815 140.413 26.815C140.864 26.815 141.247 26.9164 141.564 27.1193C141.884 27.3195 142.127 27.5988 142.294 27.9574C142.463 28.3132 142.548 28.7232 142.548 29.1874C142.548 29.6599 142.463 30.0755 142.294 30.4341C142.124 30.7899 141.88 31.0678 141.56 31.268C141.24 31.4681 140.858 31.5682 140.413 31.5682ZM140.413 30.9803C140.914 30.9803 141.286 30.8149 141.531 30.4841C141.775 30.1506 141.898 29.7183 141.898 29.1874C141.898 28.6426 141.774 28.209 141.527 27.8865C141.282 27.5641 140.911 27.4029 140.413 27.4029C140.077 27.4029 139.799 27.4793 139.579 27.6322C139.363 27.7823 139.2 27.9922 139.092 28.2618C138.986 28.5286 138.933 28.8372 138.933 29.1874C138.933 29.7294 139.058 30.1645 139.308 30.4925C139.559 30.8177 139.927 30.9803 140.413 30.9803ZM143.914 31.4431V26.6065C143.914 26.4897 143.92 26.3744 143.931 26.2604C143.945 26.1465 143.971 26.038 144.01 25.9352C144.049 25.8296 144.11 25.7323 144.193 25.6433C144.285 25.5433 144.385 25.471 144.494 25.4265C144.602 25.3793 144.715 25.3487 144.831 25.3348C144.951 25.3209 145.068 25.3139 145.182 25.3139H145.757V25.831H145.223C144.99 25.831 144.815 25.8879 144.698 26.0019C144.584 26.1159 144.527 26.2952 144.527 26.5398V31.4431H143.914ZM143.134 27.4654V26.94H145.757V27.4654H143.134ZM149.052 31.4431L147.676 26.9359L148.289 26.94L149.357 30.4383L150.428 26.94H150.987L152.059 30.4383L153.134 26.94H153.743L152.367 31.4431H151.833L150.708 27.8573L149.586 31.4431H149.052ZM156.212 31.5682C155.764 31.5682 155.382 31.4667 155.065 31.2638C154.748 31.0609 154.505 30.7802 154.336 30.4216C154.166 30.063 154.081 29.6516 154.081 29.1874C154.081 28.7149 154.167 28.3007 154.34 27.9449C154.512 27.5891 154.757 27.3125 155.074 27.1152C155.393 26.915 155.773 26.815 156.212 26.815C156.662 26.815 157.046 26.9164 157.363 27.1193C157.682 27.3195 157.925 27.5988 158.092 27.9574C158.262 28.3132 158.347 28.7232 158.347 29.1874C158.347 29.6599 158.262 30.0755 158.092 30.4341C157.923 30.7899 157.678 31.0678 157.358 31.268C157.039 31.4681 156.657 31.5682 156.212 31.5682ZM156.212 30.9803C156.712 30.9803 157.085 30.8149 157.329 30.4841C157.574 30.1506 157.696 29.7183 157.696 29.1874C157.696 28.6426 157.572 28.209 157.325 27.8865C157.08 27.5641 156.709 27.4029 156.212 27.4029C155.875 27.4029 155.598 27.4793 155.378 27.6322C155.161 27.7823 154.999 27.9922 154.89 28.2618C154.784 28.5286 154.732 28.8372 154.732 29.1874C154.732 29.7294 154.857 30.1645 155.107 30.4925C155.357 30.8177 155.725 30.9803 156.212 30.9803ZM159.266 31.4431V26.94H159.817V28.0241L159.708 27.8824C159.758 27.7489 159.824 27.6266 159.904 27.5154C159.985 27.4015 160.072 27.3084 160.167 27.2361C160.284 27.1332 160.42 27.0554 160.576 27.0026C160.731 26.947 160.888 26.915 161.047 26.9067C161.205 26.8956 161.35 26.9067 161.48 26.94V27.5154C161.316 27.4737 161.137 27.464 160.943 27.4863C160.748 27.5085 160.569 27.5863 160.405 27.7197C160.255 27.8365 160.142 27.9769 160.067 28.1409C159.992 28.3021 159.942 28.4744 159.917 28.6579C159.892 28.8386 159.879 29.0178 159.879 29.1957V31.4431H159.266ZM162.267 31.4431L162.271 25.439H162.888V29.1082L164.898 26.94H165.715L163.606 29.1916L165.991 31.4431H165.098L162.888 29.275V31.4431H162.267Z" fill="#B3B3B3"/>
<path d="M9.32835 58.7385V53.3223H7.23109V52.7344H12.0385V53.3223H9.94126V58.7385H9.32835ZM15.9593 58.7385V56.4411C15.9593 56.1909 15.9357 55.9616 15.8885 55.7531C15.8412 55.5419 15.7648 55.3584 15.6591 55.2028C15.5563 55.0443 15.4215 54.922 15.2547 54.8359C15.0907 54.7497 14.8906 54.7066 14.6543 54.7066C14.4375 54.7066 14.2457 54.7441 14.0789 54.8192C13.9149 54.8942 13.7759 55.0026 13.6619 55.1444C13.5508 55.2834 13.466 55.4529 13.4076 55.6531C13.3492 55.8532 13.3201 56.0811 13.3201 56.3369L12.8864 56.241C12.8864 55.7795 12.967 55.3918 13.1283 55.0777C13.2895 54.7636 13.5118 54.5259 13.7954 54.3647C14.0789 54.2035 14.4041 54.1229 14.771 54.1229C15.0407 54.1229 15.2755 54.1646 15.4757 54.248C15.6786 54.3313 15.8495 54.4439 15.9885 54.5857C16.1303 54.7274 16.2443 54.8901 16.3304 55.0735C16.4166 55.2542 16.4791 55.4474 16.5181 55.6531C16.557 55.856 16.5764 56.0589 16.5764 56.2618V58.7385H15.9593ZM12.703 58.7385V52.7344H13.2575V56.1242H13.3201V58.7385H12.703ZM17.7418 53.3807V52.6927H18.3547V53.3807H17.7418ZM17.7418 58.7385V54.2354H18.3547V58.7385H17.7418ZM21.285 58.8594C20.7569 58.8594 20.3219 58.7454 19.98 58.5175C19.6408 58.2896 19.4324 57.9727 19.3545 57.5669L19.98 57.4626C20.0467 57.7184 20.1982 57.9227 20.4344 58.0755C20.6735 58.2256 20.9681 58.3007 21.3184 58.3007C21.6603 58.3007 21.9299 58.2298 22.1273 58.0881C22.3246 57.9435 22.4233 57.7475 22.4233 57.5002C22.4233 57.3612 22.3913 57.2486 22.3274 57.1624C22.2662 57.0735 22.1398 56.9915 21.948 56.9164C21.7562 56.8414 21.4699 56.7524 21.0891 56.6496C20.6804 56.5384 20.3608 56.4272 20.1301 56.316C19.8994 56.2048 19.7354 56.077 19.6381 55.9324C19.5408 55.7851 19.4921 55.6058 19.4921 55.3946C19.4921 55.1388 19.5644 54.9151 19.7089 54.7233C19.8535 54.5287 20.0536 54.3786 20.3094 54.273C20.5651 54.1646 20.8625 54.1104 21.2016 54.1104C21.5407 54.1104 21.8437 54.166 22.1106 54.2771C22.3802 54.3855 22.597 54.5384 22.761 54.7358C22.925 54.9331 23.0223 55.1625 23.0529 55.4237L22.4275 55.5363C22.3858 55.2723 22.2537 55.0638 22.0314 54.9109C21.8118 54.7552 21.5324 54.6746 21.1933 54.6691C20.8736 54.6607 20.6137 54.7219 20.4136 54.8525C20.2135 54.9804 20.1134 55.1513 20.1134 55.3654C20.1134 55.4849 20.1495 55.5877 20.2218 55.6739C20.2941 55.7573 20.4247 55.8365 20.6137 55.9116C20.8055 55.9866 21.0779 56.0686 21.4309 56.1576C21.8451 56.2632 22.1703 56.3744 22.4066 56.4911C22.6429 56.6079 22.8111 56.7455 22.9111 56.9039C23.0112 57.0624 23.0612 57.2583 23.0612 57.4918C23.0612 57.9171 22.9028 58.2521 22.5859 58.4967C22.2718 58.7385 21.8382 58.8594 21.285 58.8594ZM26.6143 58.7385L25.2384 54.2313L25.8513 54.2354L26.9187 57.7336L27.9903 54.2354H28.549L29.6205 57.7336L30.6963 54.2354H31.305L29.9291 58.7385H29.3954L28.2696 55.1527L27.148 58.7385H26.6143ZM33.7988 58.8636C33.3596 58.8636 32.9788 58.7663 32.6563 58.5717C32.3367 58.3771 32.0879 58.1033 31.91 57.7503C31.7321 57.3973 31.6431 56.9831 31.6431 56.5078C31.6431 56.0158 31.7307 55.5905 31.9058 55.232C32.0809 54.8734 32.3269 54.5968 32.6438 54.4022C32.9635 54.2076 33.3401 54.1104 33.7738 54.1104C34.2185 54.1104 34.5979 54.2132 34.912 54.4189C35.2261 54.6218 35.4638 54.9137 35.625 55.2945C35.7862 55.6753 35.8599 56.1298 35.846 56.6579H35.2206V56.4411C35.2094 55.8574 35.083 55.4168 34.8411 55.1194C34.6021 54.822 34.2519 54.6732 33.7904 54.6732C33.3068 54.6732 32.9357 54.8303 32.6772 55.1444C32.4214 55.4585 32.2936 55.906 32.2936 56.487C32.2936 57.054 32.4214 57.4946 32.6772 57.8087C32.9357 58.12 33.3012 58.2757 33.7738 58.2757C34.0962 58.2757 34.3769 58.202 34.616 58.0547C34.8578 57.9046 35.0482 57.6892 35.1872 57.4084L35.7584 57.6294C35.5805 58.0213 35.3179 58.3257 34.9704 58.5425C34.6257 58.7566 34.2352 58.8636 33.7988 58.8636ZM32.0768 56.6579V56.1451H35.5166V56.6579H32.0768ZM38.6767 58.8636C38.2376 58.8636 37.8567 58.7663 37.5343 58.5717C37.2146 58.3771 36.9659 58.1033 36.788 57.7503C36.6101 57.3973 36.5211 56.9831 36.5211 56.5078C36.5211 56.0158 36.6087 55.5905 36.7838 55.232C36.9589 54.8734 37.2049 54.5968 37.5218 54.4022C37.8415 54.2076 38.2181 54.1104 38.6517 54.1104C39.0965 54.1104 39.4759 54.2132 39.79 54.4189C40.1041 54.6218 40.3418 54.9137 40.503 55.2945C40.6642 55.6753 40.7379 56.1298 40.724 56.6579H40.0985V56.4411C40.0874 55.8574 39.961 55.4168 39.7191 55.1194C39.4801 54.822 39.1298 54.6732 38.6684 54.6732C38.1847 54.6732 37.8137 54.8303 37.5552 55.1444C37.2994 55.4585 37.1716 55.906 37.1716 56.487C37.1716 57.054 37.2994 57.4946 37.5552 57.8087C37.8137 58.12 38.1792 58.2757 38.6517 58.2757C38.9742 58.2757 39.2549 58.202 39.494 58.0547C39.7358 57.9046 39.9262 57.6892 40.0652 57.4084L40.6364 57.6294C40.4585 58.0213 40.1958 58.3257 39.8484 58.5425C39.5037 58.7566 39.1132 58.8636 38.6767 58.8636ZM36.9547 56.6579V56.1451H40.3946V56.6579H36.9547ZM41.6451 58.7385L41.6493 52.7344H42.2664V56.4036L44.276 54.2354H45.0933L42.9835 56.487L45.3685 58.7385H44.4762L42.2664 56.5704V58.7385H41.6451Z" fill="#B3B3B3"/>
<path d="M7.86272 75.4529L7.86987 74.4951L12.523 70.2923C12.9233 69.9301 13.1878 69.587 13.3164 69.263C13.4498 68.9342 13.5165 68.5911 13.5165 68.2337C13.5165 67.8096 13.4165 67.4261 13.2163 67.083C13.0162 66.7399 12.747 66.4683 12.4087 66.2681C12.0703 66.0632 11.6915 65.9608 11.2722 65.9608C10.8338 65.9608 10.443 66.0656 10.0999 66.2753C9.75686 66.4849 9.48525 66.7613 9.28511 67.1044C9.08974 67.4475 8.99444 67.8216 8.9992 68.2266H7.92705C7.92705 67.6024 8.07477 67.0425 8.37021 66.5469C8.66564 66.0513 9.06592 65.663 9.57102 65.3818C10.0761 65.0959 10.6479 64.9529 11.2865 64.9529C11.9107 64.9529 12.4706 65.1007 12.9662 65.3961C13.4665 65.6868 13.8596 66.0823 14.1455 66.5826C14.4362 67.0782 14.5816 67.631 14.5816 68.2409C14.5816 68.6698 14.5291 69.0486 14.4243 69.3774C14.3242 69.7014 14.1646 70.004 13.9454 70.2851C13.731 70.5615 13.457 70.8474 13.1234 71.1429L8.99206 74.874L8.82766 74.4451H14.5816V75.4529H7.86272ZM16.8518 75.4601L20.6401 66.1895H15.8726V65.1674H21.7623V66.1895L17.9812 75.4601H16.8518ZM29.0523 75.4601V71.5217C29.0523 71.0928 29.0118 70.6997 28.9308 70.3423C28.8498 69.9802 28.7187 69.6657 28.5377 69.3988C28.3614 69.1272 28.1302 68.9175 27.8443 68.7698C27.5632 68.6221 27.2201 68.5482 26.8151 68.5482C26.4434 68.5482 26.1146 68.6126 25.8287 68.7412C25.5475 68.8699 25.3093 69.0557 25.1139 69.2988C24.9233 69.537 24.778 69.8277 24.6779 70.1708C24.5778 70.5139 24.5278 70.9046 24.5278 71.343L23.7844 71.1786C23.7844 70.3876 23.9226 69.7228 24.199 69.1844C24.4754 68.6459 24.8566 68.2385 25.3426 67.9621C25.8287 67.6858 26.3862 67.5476 27.0152 67.5476C27.4774 67.5476 27.8801 67.619 28.2232 67.762C28.571 67.9049 28.8641 68.0979 29.1023 68.341C29.3454 68.584 29.5407 68.8627 29.6884 69.1772C29.8362 69.487 29.9434 69.8182 30.0101 70.1708C30.0768 70.5186 30.1102 70.8665 30.1102 71.2143V75.4601H29.0523ZM23.4699 75.4601V65.1674H24.4206V70.9785H24.5278V75.4601H23.4699ZM36.6209 75.4601V66.3396L34.6839 67.5047V66.3253L36.6209 65.1674H37.6859V75.4601H36.6209ZM40.1111 75.4529L40.1183 74.4951L44.7714 70.2923C45.1717 69.9301 45.4362 69.587 45.5648 69.263C45.6982 68.9342 45.765 68.5911 45.765 68.2337C45.765 67.8096 45.6649 67.4261 45.4648 67.083C45.2646 66.7399 44.9954 66.4683 44.6571 66.2681C44.3187 66.0632 43.9399 65.9608 43.5206 65.9608C43.0822 65.9608 42.6914 66.0656 42.3484 66.2753C42.0053 66.4849 41.7337 66.7613 41.5335 67.1044C41.3382 67.4475 41.2428 67.8216 41.2476 68.2266H40.1755C40.1755 67.6024 40.3232 67.0425 40.6186 66.5469C40.9141 66.0513 41.3143 65.663 41.8194 65.3818C42.3245 65.0959 42.8963 64.9529 43.5349 64.9529C44.1591 64.9529 44.719 65.1007 45.2146 65.3961C45.7149 65.6868 46.108 66.0823 46.394 66.5826C46.6846 67.0782 46.83 67.631 46.83 68.2409C46.83 68.6698 46.7775 69.0486 46.6727 69.3774C46.5726 69.7014 46.413 70.004 46.1938 70.2851C45.9794 70.5615 45.7054 70.8474 45.3718 71.1429L41.2405 74.874L41.0761 74.4451H46.83V75.4529H40.1111ZM57.7561 75.4601L57.7633 70.3923C57.7633 69.7967 57.5965 69.3297 57.2629 68.9914C56.9341 68.6483 56.5148 68.4768 56.0049 68.4768C55.7143 68.4768 55.4307 68.5435 55.1544 68.6769C54.878 68.8103 54.6493 69.0248 54.4682 69.3202C54.2919 69.6156 54.2037 70.0016 54.2037 70.4781L53.5819 70.2994C53.5676 69.7467 53.6748 69.263 53.9035 68.8484C54.137 68.4339 54.4563 68.1122 54.8613 67.8835C55.2711 67.65 55.7333 67.5333 56.248 67.5333C57.0247 67.5333 57.6465 67.7739 58.1135 68.2552C58.5805 68.7317 58.814 69.3774 58.814 70.1922L58.8068 75.4601H57.7561ZM48.5427 75.4601V67.7406H49.4862V69.6418H49.6006V75.4601H48.5427ZM53.1601 75.4601L53.1673 70.4638C53.1673 69.8491 53.0029 69.3655 52.6741 69.0128C52.3501 68.6555 51.9212 68.4768 51.3875 68.4768C50.8538 68.4768 50.4226 68.6602 50.0938 69.0271C49.765 69.3893 49.6006 69.8729 49.6006 70.4781L48.9716 70.135C48.9716 69.6395 49.0883 69.1963 49.3218 68.8056C49.5553 68.4101 49.8746 68.1003 50.2796 67.8764C50.6847 67.6476 51.1445 67.5333 51.6591 67.5333C52.1499 67.5333 52.5859 67.6381 52.9672 67.8478C53.3531 68.0574 53.6557 68.3624 53.8749 68.7627C54.0941 69.1629 54.2037 69.649 54.2037 70.2208L54.1966 75.4601H53.1601Z" fill="white"/>
<path opacity="0.4" d="M11.9131 90.7785C14.1062 90.7785 15.884 89.0006 15.884 86.8075C15.884 84.6144 14.1062 82.8366 11.9131 82.8366C9.71999 82.8366 7.94214 84.6144 7.94214 86.8075C7.94214 89.0006 9.71999 90.7785 11.9131 90.7785Z" fill="#575F65"/>
<path d="M13.3149 86.7956C13.1997 86.6805 13.0091 86.6805 12.894 86.7956L12.211 87.4786V85.4177C12.211 85.2549 12.076 85.1199 11.9132 85.1199C11.7504 85.1199 11.6153 85.2549 11.6153 85.4177V87.4786L10.9323 86.7956C10.8172 86.6805 10.6266 86.6805 10.5114 86.7956C10.3963 86.9108 10.3963 87.1014 10.5114 87.2165L11.7027 88.4078C11.7623 88.4674 11.8377 88.4952 11.9132 88.4952C11.9886 88.4952 12.0641 88.4674 12.1236 88.4078L13.3149 87.2165C13.4301 87.1014 13.4301 86.9108 13.3149 86.7956Z" fill="#575F65"/>
<path d="M20.0667 90.4284C19.7693 90.4284 19.4955 90.3756 19.2453 90.27C18.9951 90.1644 18.7797 90.0143 18.599 89.8197C18.4184 89.6223 18.2863 89.3875 18.2029 89.1151L18.7867 88.9399C18.8867 89.2374 19.0507 89.4625 19.2787 89.6154C19.5094 89.7683 19.7693 89.8419 20.0584 89.8364C20.3252 89.8308 20.5545 89.7711 20.7463 89.6571C20.9409 89.5431 21.0896 89.3847 21.1925 89.1818C21.2953 88.9788 21.3467 88.744 21.3467 88.4771C21.3467 88.0685 21.2272 87.7405 20.9882 87.4931C20.7519 87.2429 20.4392 87.1179 20.05 87.1179C19.9416 87.1179 19.8277 87.1332 19.7081 87.1637C19.5886 87.1915 19.4774 87.2318 19.3746 87.2846L19.066 86.7968L21.4009 84.6412L21.501 84.8914H18.4406V84.3035H21.9096V84.8997L19.8749 86.8427L19.8666 86.6008C20.2835 86.548 20.6504 86.5953 20.9673 86.7426C21.2842 86.8899 21.5316 87.1151 21.7095 87.4181C21.8902 87.7183 21.9805 88.0713 21.9805 88.4771C21.9805 88.8607 21.8971 89.1998 21.7303 89.4945C21.5663 89.7863 21.3398 90.0157 21.0507 90.1824C20.7616 90.3464 20.4336 90.4284 20.0667 90.4284ZM25.7058 90.3075V89.1442H22.8956V88.5605L24.9053 84.3035H25.5932L23.5835 88.5605H25.7058V86.8093H26.3229V88.5605H26.9775V89.1442H26.3229V90.3075H25.7058ZM30.2342 90.3075L29.8173 89.8906L35.4169 84.3035L35.8338 84.7162L30.2342 90.3075ZM34.583 90.4326C34.3078 90.4326 34.0562 90.3659 33.8283 90.2325C33.6032 90.0963 33.4225 89.9156 33.2863 89.6904C33.1501 89.4625 33.082 89.2096 33.082 88.9316C33.082 88.6592 33.1515 88.409 33.2904 88.1811C33.4294 87.9532 33.6129 87.7711 33.8408 87.6349C34.0687 87.4987 34.3161 87.4306 34.583 87.4306C34.8582 87.4306 35.1097 87.4987 35.3377 87.6349C35.5656 87.7683 35.7463 87.949 35.8797 88.1769C36.0159 88.4021 36.084 88.6536 36.084 88.9316C36.084 89.2096 36.0159 89.4625 35.8797 89.6904C35.7463 89.9156 35.5656 90.0963 35.3377 90.2325C35.1097 90.3659 34.8582 90.4326 34.583 90.4326ZM34.583 89.8781C34.7525 89.8781 34.9096 89.835 35.0541 89.7488C35.1987 89.6626 35.314 89.5487 35.4002 89.4069C35.4864 89.2624 35.5295 89.1039 35.5295 88.9316C35.5295 88.7593 35.4864 88.6022 35.4002 88.4604C35.314 88.3159 35.1987 88.2005 35.0541 88.1144C34.9096 88.0282 34.7525 87.9851 34.583 87.9851C34.4106 87.9851 34.2522 88.0282 34.1077 88.1144C33.9659 88.2005 33.8505 88.3159 33.7616 88.4604C33.6754 88.6022 33.6323 88.7593 33.6323 88.9316C33.6323 89.1039 33.6754 89.2624 33.7616 89.4069C33.8505 89.5487 33.9659 89.6626 34.1077 89.7488C34.2522 89.835 34.4106 89.8781 34.583 89.8781ZM31.0681 87.1804C30.7929 87.1804 30.5414 87.1137 30.3134 86.9803C30.0855 86.8441 29.9034 86.6634 29.7672 86.4382C29.6338 86.2103 29.5671 85.9574 29.5671 85.6794C29.5671 85.407 29.6366 85.1568 29.7756 84.9289C29.9145 84.7009 30.098 84.5189 30.3259 84.3827C30.5539 84.2465 30.8013 84.1784 31.0681 84.1784C31.3433 84.1784 31.5935 84.2465 31.8186 84.3827C32.0465 84.5161 32.2286 84.6968 32.3648 84.9247C32.501 85.1499 32.5691 85.4014 32.5691 85.6794C32.5691 85.9574 32.501 86.2103 32.3648 86.4382C32.2286 86.6634 32.0465 86.8441 31.8186 86.9803C31.5935 87.1137 31.3433 87.1804 31.0681 87.1804ZM31.0681 86.6259C31.2404 86.6259 31.3975 86.5828 31.5393 86.4966C31.6838 86.4104 31.7992 86.2965 31.8853 86.1547C31.9715 86.0102 32.0146 85.8517 32.0146 85.6794C32.0146 85.5071 31.9715 85.35 31.8853 85.2082C31.7992 85.0637 31.6838 84.9483 31.5393 84.8622C31.3975 84.776 31.2404 84.7329 31.0681 84.7329C30.8958 84.7329 30.7373 84.776 30.5928 84.8622C30.451 84.9483 30.3371 85.0637 30.2509 85.2082C30.1647 85.35 30.1216 85.5071 30.1216 85.6794C30.1216 85.8517 30.1647 86.0102 30.2509 86.1547C30.3371 86.2965 30.451 86.4104 30.5928 86.4966C30.7373 86.5828 30.8958 86.6259 31.0681 86.6259Z" fill="white"/>
<path d="M9.32835 129.516V124.1H7.23109V123.512H12.0385V124.1H9.94126V129.516H9.32835ZM15.9593 129.516V127.218C15.9593 126.968 15.9357 126.739 15.8885 126.53C15.8412 126.319 15.7648 126.136 15.6591 125.98C15.5563 125.822 15.4215 125.699 15.2547 125.613C15.0907 125.527 14.8906 125.484 14.6543 125.484C14.4375 125.484 14.2457 125.521 14.0789 125.596C13.9149 125.671 13.7759 125.78 13.6619 125.922C13.5508 126.061 13.466 126.23 13.4076 126.43C13.3492 126.63 13.3201 126.858 13.3201 127.114L12.8864 127.018C12.8864 126.557 12.967 126.169 13.1283 125.855C13.2895 125.541 13.5118 125.303 13.7954 125.142C14.0789 124.981 14.4041 124.9 14.771 124.9C15.0407 124.9 15.2755 124.942 15.4757 125.025C15.6786 125.109 15.8495 125.221 15.9885 125.363C16.1303 125.505 16.2443 125.667 16.3304 125.851C16.4166 126.031 16.4791 126.225 16.5181 126.43C16.557 126.633 16.5764 126.836 16.5764 127.039V129.516H15.9593ZM12.703 129.516V123.512H13.2575V126.901H13.3201V129.516H12.703ZM17.7418 124.158V123.47H18.3547V124.158H17.7418ZM17.7418 129.516V125.013H18.3547V129.516H17.7418ZM21.285 129.637C20.7569 129.637 20.3219 129.523 19.98 129.295C19.6408 129.067 19.4324 128.75 19.3545 128.344L19.98 128.24C20.0467 128.496 20.1982 128.7 20.4344 128.853C20.6735 129.003 20.9681 129.078 21.3184 129.078C21.6603 129.078 21.9299 129.007 22.1273 128.865C22.3246 128.721 22.4233 128.525 22.4233 128.277C22.4233 128.138 22.3913 128.026 22.3274 127.94C22.2662 127.851 22.1398 127.769 21.948 127.694C21.7562 127.619 21.4699 127.53 21.0891 127.427C20.6804 127.316 20.3608 127.204 20.1301 127.093C19.8994 126.982 19.7354 126.854 19.6381 126.71C19.5408 126.562 19.4921 126.383 19.4921 126.172C19.4921 125.916 19.5644 125.692 19.7089 125.501C19.8535 125.306 20.0536 125.156 20.3094 125.05C20.5651 124.942 20.8625 124.888 21.2016 124.888C21.5407 124.888 21.8437 124.943 22.1106 125.054C22.3802 125.163 22.597 125.316 22.761 125.513C22.925 125.71 23.0223 125.94 23.0529 126.201L22.4275 126.314C22.3858 126.049 22.2537 125.841 22.0314 125.688C21.8118 125.532 21.5324 125.452 21.1933 125.446C20.8736 125.438 20.6137 125.499 20.4136 125.63C20.2135 125.758 20.1134 125.929 20.1134 126.143C20.1134 126.262 20.1495 126.365 20.2218 126.451C20.2941 126.535 20.4247 126.614 20.6137 126.689C20.8055 126.764 21.0779 126.846 21.4309 126.935C21.8451 127.04 22.1703 127.152 22.4066 127.268C22.6429 127.385 22.8111 127.523 22.9111 127.681C23.0112 127.84 23.0612 128.036 23.0612 128.269C23.0612 128.694 22.9028 129.029 22.5859 129.274C22.2718 129.516 21.8382 129.637 21.285 129.637ZM31.0257 129.516L31.0298 126.56C31.0298 126.212 30.9325 125.94 30.738 125.742C30.5462 125.542 30.3016 125.442 30.0041 125.442C29.8346 125.442 29.6692 125.481 29.508 125.559C29.3468 125.637 29.2133 125.762 29.1077 125.934C29.0049 126.106 28.9534 126.332 28.9534 126.61L28.5907 126.505C28.5823 126.183 28.6449 125.901 28.7783 125.659C28.9145 125.417 29.1008 125.229 29.337 125.096C29.5761 124.96 29.8457 124.892 30.1459 124.892C30.599 124.892 30.9617 125.032 31.2341 125.313C31.5065 125.591 31.6428 125.967 31.6428 126.443L31.6386 129.516H31.0257ZM25.6512 129.516V125.013H26.2016V126.122H26.2683V129.516H25.6512ZM28.3447 129.516L28.3489 126.601C28.3489 126.243 28.253 125.961 28.0612 125.755C27.8721 125.546 27.622 125.442 27.3106 125.442C26.9993 125.442 26.7478 125.549 26.556 125.763C26.3642 125.974 26.2683 126.257 26.2683 126.61L25.9014 126.409C25.9014 126.12 25.9695 125.862 26.1057 125.634C26.2419 125.403 26.4281 125.223 26.6644 125.092C26.9006 124.958 27.1689 124.892 27.4691 124.892C27.7554 124.892 28.0097 124.953 28.2321 125.075C28.4573 125.198 28.6338 125.375 28.7616 125.609C28.8895 125.842 28.9534 126.126 28.9534 126.459L28.9493 129.516H28.3447ZM34.58 129.641C34.1324 129.641 33.7502 129.539 33.4334 129.336C33.1165 129.134 32.8732 128.853 32.7037 128.494C32.5341 128.136 32.4494 127.724 32.4494 127.26C32.4494 126.787 32.5355 126.373 32.7079 126.018C32.8802 125.662 33.1248 125.385 33.4417 125.188C33.7614 124.988 34.1408 124.888 34.58 124.888C35.0303 124.888 35.4139 124.989 35.7307 125.192C36.0504 125.392 36.2936 125.671 36.4604 126.03C36.63 126.386 36.7147 126.796 36.7147 127.26C36.7147 127.733 36.63 128.148 36.4604 128.507C36.2908 128.863 36.0462 129.14 35.7266 129.341C35.4069 129.541 35.0247 129.641 34.58 129.641ZM34.58 129.053C35.0803 129.053 35.4528 128.888 35.6974 128.557C35.942 128.223 36.0643 127.791 36.0643 127.26C36.0643 126.715 35.9406 126.282 35.6932 125.959C35.4486 125.637 35.0775 125.475 34.58 125.475C34.2436 125.475 33.9657 125.552 33.7461 125.705C33.5292 125.855 33.3666 126.065 33.2582 126.334C33.1526 126.601 33.0998 126.91 33.0998 127.26C33.0998 127.802 33.2249 128.237 33.475 128.565C33.7252 128.89 34.0935 129.053 34.58 129.053ZM40.8867 129.516V127.218C40.8867 126.968 40.8631 126.739 40.8158 126.53C40.7686 126.319 40.6921 126.136 40.5865 125.98C40.4837 125.822 40.3488 125.699 40.1821 125.613C40.0181 125.527 39.8179 125.484 39.5817 125.484C39.3648 125.484 39.173 125.521 39.0063 125.596C38.8423 125.671 38.7033 125.78 38.5893 125.922C38.4781 126.061 38.3934 126.23 38.335 126.43C38.2766 126.63 38.2474 126.858 38.2474 127.114L37.8138 127.018C37.8138 126.557 37.8944 126.169 38.0556 125.855C38.2168 125.541 38.4392 125.303 38.7227 125.142C39.0063 124.981 39.3315 124.9 39.6984 124.9C39.968 124.9 40.2029 124.942 40.403 125.025C40.606 125.109 40.7769 125.221 40.9159 125.363C41.0577 125.505 41.1716 125.667 41.2578 125.851C41.344 126.031 41.4065 126.225 41.4454 126.43C41.4843 126.633 41.5038 126.836 41.5038 127.039V129.516H40.8867ZM37.6303 129.516V125.013H38.1849V126.122H38.2474V129.516H37.6303ZM45.0374 129.516C44.7845 129.569 44.5343 129.589 44.2869 129.578C44.0423 129.567 43.8227 129.514 43.6281 129.42C43.4363 129.325 43.2904 129.178 43.1903 128.978C43.1097 128.811 43.0653 128.643 43.0569 128.473C43.0514 128.301 43.0486 128.105 43.0486 127.885V123.762H43.6573V127.86C43.6573 128.049 43.6587 128.208 43.6615 128.336C43.6671 128.461 43.6962 128.572 43.7491 128.669C43.8491 128.856 44.0076 128.967 44.2244 129.003C44.444 129.039 44.715 129.031 45.0374 128.978V129.516ZM42.0854 125.538V125.013H45.0374V125.538H42.0854ZM49.1768 129.516V127.218C49.1768 126.968 49.1532 126.739 49.1059 126.53C49.0587 126.319 48.9823 126.136 48.8766 125.98C48.7738 125.822 48.639 125.699 48.4722 125.613C48.3082 125.527 48.108 125.484 47.8718 125.484C47.655 125.484 47.4632 125.521 47.2964 125.596C47.1324 125.671 46.9934 125.78 46.8794 125.922C46.7683 126.061 46.6835 126.23 46.6251 126.43C46.5667 126.63 46.5375 126.858 46.5375 127.114L46.1039 127.018C46.1039 126.557 46.1845 126.169 46.3457 125.855C46.507 125.541 46.7293 125.303 47.0129 125.142C47.2964 124.981 47.6216 124.9 47.9885 124.9C48.2582 124.9 48.493 124.942 48.6932 125.025C48.8961 125.109 49.067 125.221 49.206 125.363C49.3478 125.505 49.4617 125.667 49.5479 125.851C49.6341 126.031 49.6966 126.225 49.7355 126.43C49.7745 126.633 49.7939 126.836 49.7939 127.039V129.516H49.1768ZM45.9205 129.516V123.512H46.475V126.901H46.5375V129.516H45.9205Z" fill="#B3B3B3"/>
<path d="M9.94246 149.707V140.587L8.00543 141.752V140.572L9.94246 139.414H11.0075V149.707H9.94246ZM13.4327 149.7L13.4398 148.742L18.093 144.539C18.4932 144.177 18.7577 143.834 18.8863 143.51C19.0198 143.181 19.0865 142.838 19.0865 142.481C19.0865 142.057 18.9864 141.673 18.7863 141.33C18.5861 140.987 18.3169 140.715 17.9786 140.515C17.6403 140.31 17.2614 140.208 16.8421 140.208C16.4037 140.208 16.013 140.313 15.6699 140.522C15.3268 140.732 15.0552 141.008 14.855 141.351C14.6597 141.694 14.5644 142.069 14.5691 142.474H13.497C13.497 141.849 13.6447 141.289 13.9401 140.794C14.2356 140.298 14.6359 139.91 15.141 139.629C15.6461 139.343 16.2179 139.2 16.8564 139.2C17.4806 139.2 18.0405 139.348 18.5361 139.643C19.0365 139.934 19.4296 140.329 19.7155 140.83C20.0062 141.325 20.1515 141.878 20.1515 142.488C20.1515 142.917 20.0991 143.296 19.9942 143.624C19.8942 143.948 19.7345 144.251 19.5153 144.532C19.3009 144.808 19.0269 145.094 18.6934 145.39L14.562 149.121L14.3976 148.692H20.1515V149.7H13.4327ZM24.6376 149.914C24.1277 149.914 23.6583 149.824 23.2295 149.643C22.8006 149.462 22.4313 149.204 22.1216 148.871C21.8118 148.532 21.5855 148.13 21.4425 147.663L22.4432 147.363C22.6148 147.872 22.8959 148.258 23.2867 148.52C23.6822 148.783 24.1277 148.909 24.6233 148.899C25.0807 148.89 25.4738 148.787 25.8026 148.592C26.1362 148.397 26.3911 148.125 26.5674 147.777C26.7438 147.429 26.8319 147.027 26.8319 146.569C26.8319 145.869 26.627 145.306 26.2172 144.882C25.8122 144.453 25.2761 144.239 24.609 144.239C24.4231 144.239 24.2278 144.265 24.0229 144.318C23.818 144.365 23.6274 144.434 23.451 144.525L22.9221 143.689L26.9248 139.993L27.0964 140.422H21.85V139.414H27.7969V140.436L24.3088 143.767L24.2945 143.353C25.0092 143.262 25.6382 143.343 26.1815 143.596C26.7247 143.848 27.1488 144.234 27.4538 144.754C27.7635 145.268 27.9184 145.873 27.9184 146.569C27.9184 147.227 27.7754 147.808 27.4895 148.313C27.2084 148.814 26.82 149.207 26.3244 149.493C25.8289 149.774 25.2666 149.914 24.6376 149.914ZM35.3482 149.707V145.769C35.3482 145.34 35.3077 144.947 35.2267 144.589C35.1457 144.227 35.0146 143.913 34.8335 143.646C34.6572 143.374 34.4261 143.164 34.1402 143.017C33.8591 142.869 33.516 142.795 33.1109 142.795C32.7393 142.795 32.4105 142.86 32.1246 142.988C31.8434 143.117 31.6052 143.303 31.4098 143.546C31.2192 143.784 31.0738 144.075 30.9738 144.418C30.8737 144.761 30.8237 145.152 30.8237 145.59L30.0803 145.426C30.0803 144.635 30.2185 143.97 30.4949 143.431C30.7713 142.893 31.1525 142.485 31.6385 142.209C32.1246 141.933 32.6821 141.795 33.3111 141.795C33.7733 141.795 34.1759 141.866 34.519 142.009C34.8669 142.152 35.1599 142.345 35.3982 142.588C35.6412 142.831 35.8366 143.11 35.9843 143.424C36.132 143.734 36.2393 144.065 36.306 144.418C36.3727 144.766 36.406 145.113 36.406 145.461V149.707H35.3482ZM29.7658 149.707V139.414H30.7165V145.225H30.8237V149.707H29.7658ZM42.9168 149.707V140.587L40.9798 141.752V140.572L42.9168 139.414H43.9818V149.707H42.9168ZM46.407 149.7L46.4142 148.742L51.0673 144.539C51.4676 144.177 51.732 143.834 51.8607 143.51C51.9941 143.181 52.0608 142.838 52.0608 142.481C52.0608 142.057 51.9608 141.673 51.7606 141.33C51.5605 140.987 51.2913 140.715 50.9529 140.515C50.6146 140.31 50.2358 140.208 49.8165 140.208C49.3781 140.208 48.9873 140.313 48.6442 140.522C48.3011 140.732 48.0295 141.008 47.8294 141.351C47.634 141.694 47.5387 142.069 47.5435 142.474H46.4713C46.4713 141.849 46.6191 141.289 46.9145 140.794C47.2099 140.298 47.6102 139.91 48.1153 139.629C48.6204 139.343 49.1922 139.2 49.8308 139.2C50.455 139.2 51.0149 139.348 51.5105 139.643C52.0108 139.934 52.4039 140.329 52.6898 140.83C52.9805 141.325 53.1258 141.878 53.1258 142.488C53.1258 142.917 53.0734 143.296 52.9686 143.624C52.8685 143.948 52.7089 144.251 52.4897 144.532C52.2753 144.808 52.0013 145.094 51.6677 145.39L47.5363 149.121L47.3719 148.692H53.1258V149.7H46.407ZM64.052 149.707L64.0591 144.639C64.0591 144.044 63.8924 143.577 63.5588 143.238C63.23 142.895 62.8107 142.724 62.3008 142.724C62.0101 142.724 61.7266 142.79 61.4502 142.924C61.1739 143.057 60.9451 143.272 60.7641 143.567C60.5877 143.863 60.4996 144.249 60.4996 144.725L59.8777 144.546C59.8634 143.994 59.9707 143.51 60.1994 143.095C60.4329 142.681 60.7521 142.359 61.1572 142.13C61.567 141.897 62.0292 141.78 62.5438 141.78C63.3205 141.78 63.9424 142.021 64.4094 142.502C64.8764 142.979 65.1099 143.624 65.1099 144.439L65.1027 149.707H64.052ZM54.8386 149.707V141.988H55.7821V143.889H55.8965V149.707H54.8386ZM59.456 149.707L59.4632 144.711C59.4632 144.096 59.2988 143.612 58.97 143.26C58.6459 142.902 58.2171 142.724 57.6834 142.724C57.1497 142.724 56.7185 142.907 56.3897 143.274C56.0609 143.636 55.8965 144.12 55.8965 144.725L55.2675 144.382C55.2675 143.886 55.3842 143.443 55.6177 143.053C55.8512 142.657 56.1705 142.347 56.5755 142.123C56.9805 141.895 57.4404 141.78 57.955 141.78C58.4458 141.78 58.8818 141.885 59.263 142.095C59.649 142.304 59.9516 142.609 60.1708 143.01C60.39 143.41 60.4996 143.896 60.4996 144.468L60.4924 149.707H59.456Z" fill="white"/>
<path opacity="0.4" d="M11.9128 169.943C14.1059 169.943 15.8838 168.165 15.8838 165.972C15.8838 163.779 14.1059 162.001 11.9128 162.001C9.71975 162.001 7.94189 163.779 7.94189 165.972C7.94189 168.165 9.71975 169.943 11.9128 169.943Z" fill="#575F65"/>
<path d="M13.3147 165.563L12.1234 164.372C12.0082 164.257 11.8176 164.257 11.7025 164.372L10.5112 165.563C10.396 165.678 10.396 165.869 10.5112 165.984C10.6263 166.099 10.8169 166.099 10.9321 165.984L11.6151 165.301V167.362C11.6151 167.525 11.7501 167.66 11.9129 167.66C12.0757 167.66 12.2107 167.525 12.2107 167.362V165.301L12.8937 165.984C12.9533 166.044 13.0288 166.071 13.1042 166.071C13.1796 166.071 13.2551 166.044 13.3147 165.984C13.4298 165.869 13.4298 165.678 13.3147 165.563Z" fill="#575F65"/>
<path d="M20.0665 169.593C19.769 169.593 19.4952 169.54 19.2451 169.435C18.9949 169.329 18.7795 169.179 18.5988 168.984C18.4181 168.787 18.2861 168.552 18.2027 168.28L18.7864 168.105C18.8865 168.402 19.0505 168.627 19.2784 168.78C19.5091 168.933 19.769 169.007 20.0581 169.001C20.325 168.995 20.5543 168.936 20.7461 168.822C20.9407 168.708 21.0894 168.549 21.1922 168.346C21.2951 168.143 21.3465 167.909 21.3465 167.642C21.3465 167.233 21.227 166.905 20.9879 166.658C20.7516 166.408 20.4389 166.282 20.0498 166.282C19.9414 166.282 19.8274 166.298 19.7079 166.328C19.5884 166.356 19.4772 166.396 19.3743 166.449L19.0658 165.961L21.4007 163.806L21.5008 164.056H18.4404V163.468H21.9094V164.064L19.8747 166.007L19.8663 165.765C20.2833 165.713 20.6502 165.76 20.9671 165.907C21.284 166.055 21.5313 166.28 21.7092 166.583C21.8899 166.883 21.9803 167.236 21.9803 167.642C21.9803 168.025 21.8969 168.364 21.7301 168.659C21.5661 168.951 21.3395 169.18 21.0505 169.347C20.7614 169.511 20.4334 169.593 20.0665 169.593ZM25.7056 169.472V168.309H22.8953V167.725L24.905 163.468H25.593L23.5833 167.725H25.7056V165.974H26.3227V167.725H26.9773V168.309H26.3227V169.472H25.7056ZM30.234 169.472L29.817 169.055L35.4166 163.468L35.8336 163.881L30.234 169.472ZM34.5827 169.597C34.3076 169.597 34.056 169.531 33.8281 169.397C33.6029 169.261 33.4222 169.08 33.286 168.855C33.1498 168.627 33.0817 168.374 33.0817 168.096C33.0817 167.824 33.1512 167.574 33.2902 167.346C33.4292 167.118 33.6126 166.936 33.8406 166.8C34.0685 166.663 34.3159 166.595 34.5827 166.595C34.8579 166.595 35.1095 166.663 35.3374 166.8C35.5654 166.933 35.746 167.114 35.8795 167.342C36.0157 167.567 36.0838 167.818 36.0838 168.096C36.0838 168.374 36.0157 168.627 35.8795 168.855C35.746 169.08 35.5654 169.261 35.3374 169.397C35.1095 169.531 34.8579 169.597 34.5827 169.597ZM34.5827 169.043C34.7523 169.043 34.9094 169 35.0539 168.913C35.1984 168.827 35.3138 168.713 35.4 168.572C35.4861 168.427 35.5292 168.269 35.5292 168.096C35.5292 167.924 35.4861 167.767 35.4 167.625C35.3138 167.481 35.1984 167.365 35.0539 167.279C34.9094 167.193 34.7523 167.15 34.5827 167.15C34.4104 167.15 34.252 167.193 34.1074 167.279C33.9657 167.365 33.8503 167.481 33.7614 167.625C33.6752 167.767 33.6321 167.924 33.6321 168.096C33.6321 168.269 33.6752 168.427 33.7614 168.572C33.8503 168.713 33.9657 168.827 34.1074 168.913C34.252 169 34.4104 169.043 34.5827 169.043ZM31.0679 166.345C30.7927 166.345 30.5411 166.278 30.3132 166.145C30.0853 166.009 29.9032 165.828 29.767 165.603C29.6336 165.375 29.5668 165.122 29.5668 164.844C29.5668 164.572 29.6363 164.321 29.7753 164.094C29.9143 163.866 30.0978 163.684 30.3257 163.547C30.5536 163.411 30.801 163.343 31.0679 163.343C31.343 163.343 31.5932 163.411 31.8184 163.547C32.0463 163.681 32.2284 163.861 32.3646 164.089C32.5008 164.314 32.5689 164.566 32.5689 164.844C32.5689 165.122 32.5008 165.375 32.3646 165.603C32.2284 165.828 32.0463 166.009 31.8184 166.145C31.5932 166.278 31.343 166.345 31.0679 166.345ZM31.0679 165.79C31.2402 165.79 31.3973 165.747 31.539 165.661C31.6836 165.575 31.7989 165.461 31.8851 165.319C31.9713 165.175 32.0143 165.016 32.0143 164.844C32.0143 164.672 31.9713 164.515 31.8851 164.373C31.7989 164.228 31.6836 164.113 31.539 164.027C31.3973 163.941 31.2402 163.898 31.0679 163.898C30.8955 163.898 30.7371 163.941 30.5925 164.027C30.4508 164.113 30.3368 164.228 30.2506 164.373C30.1645 164.515 30.1214 164.672 30.1214 164.844C30.1214 165.016 30.1645 165.175 30.2506 165.319C30.3368 165.461 30.4508 165.575 30.5925 165.661C30.7371 165.747 30.8955 165.79 31.0679 165.79Z" fill="white"/>
<path d="M104.269 52.6102H231.736" stroke="#4D4C4C" stroke-width="0.595642" stroke-dasharray="1.19 1.19"/>
<path d="M236.742 53.81C236.518 53.81 236.319 53.7655 236.146 53.6766C235.975 53.5861 235.84 53.4606 235.741 53.3001C235.644 53.1397 235.596 52.9539 235.596 52.7426C235.596 52.5457 235.642 52.3654 235.734 52.2018C235.826 52.0382 235.964 51.9095 236.146 51.8158L236.137 51.9874C235.991 51.8968 235.878 51.784 235.798 51.649C235.721 51.5124 235.682 51.3599 235.682 51.1916C235.682 50.9962 235.727 50.827 235.818 50.6841C235.908 50.5411 236.033 50.4307 236.192 50.3529C236.352 50.2751 236.535 50.2362 236.742 50.2362C236.948 50.2362 237.131 50.2751 237.29 50.3529C237.449 50.4307 237.573 50.5411 237.664 50.6841C237.755 50.827 237.8 50.9962 237.8 51.1916C237.8 51.3599 237.763 51.5116 237.688 51.6466C237.613 51.7817 237.499 51.8952 237.345 51.9874L237.338 51.8206C237.519 51.9095 237.656 52.0366 237.75 52.2018C237.844 52.3654 237.89 52.5457 237.89 52.7426C237.89 52.9539 237.841 53.1397 237.743 53.3001C237.644 53.4606 237.508 53.5861 237.335 53.6766C237.162 53.7655 236.964 53.81 236.742 53.81ZM236.742 53.3359C236.926 53.3359 237.076 53.2859 237.19 53.1858C237.304 53.0841 237.361 52.9364 237.361 52.7426C237.361 52.5488 237.304 52.4011 237.19 52.2995C237.077 52.1962 236.928 52.1446 236.742 52.1446C236.556 52.1446 236.406 52.1962 236.292 52.2995C236.179 52.4011 236.123 52.5488 236.123 52.7426C236.123 52.9364 236.18 53.0841 236.294 53.1858C236.408 53.2859 236.558 53.3359 236.742 53.3359ZM236.742 51.6681C236.899 51.6681 237.026 51.6292 237.123 51.5513C237.222 51.4719 237.271 51.352 237.271 51.1916C237.271 51.0312 237.222 50.9112 237.123 50.8318C237.026 50.7508 236.899 50.7103 236.742 50.7103C236.585 50.7103 236.457 50.7508 236.358 50.8318C236.26 50.9112 236.211 51.0312 236.211 51.1916C236.211 51.352 236.26 51.4719 236.358 51.5513C236.457 51.6292 236.585 51.6681 236.742 51.6681Z" fill="#B3B3B3"/>
<path d="M103.673 81.201H231.14" stroke="#4D4C4C" stroke-width="0.595642" stroke-dasharray="1.19 1.19"/>
<path d="M236.823 82.4008C236.601 82.4008 236.4 82.3484 236.223 82.2436C236.045 82.1371 235.903 81.9918 235.798 81.8075C235.695 81.6233 235.644 81.4136 235.644 81.1785V80.0849C235.644 79.8356 235.695 79.6164 235.798 79.4274C235.903 79.2383 236.048 79.0914 236.232 78.9866C236.418 78.8817 236.632 78.8293 236.873 78.8293C237.054 78.8293 237.224 78.8635 237.383 78.9318C237.542 79.0001 237.679 79.1017 237.795 79.2368L237.431 79.5775C237.365 79.4933 237.284 79.4266 237.185 79.3773C237.088 79.3265 236.984 79.3011 236.873 79.3011C236.73 79.3011 236.605 79.3352 236.497 79.4035C236.389 79.4702 236.304 79.5584 236.242 79.668C236.181 79.7776 236.151 79.8951 236.151 80.0206V80.6496L236.053 80.54C236.152 80.4114 236.274 80.3097 236.42 80.235C236.566 80.1604 236.723 80.1231 236.89 80.1231C237.103 80.1231 237.292 80.1731 237.459 80.2732C237.628 80.3716 237.759 80.5059 237.855 80.6758C237.952 80.8458 238 81.0372 238 81.25C238 81.4645 237.946 81.659 237.838 81.8337C237.732 82.0069 237.589 82.1451 237.409 82.2483C237.231 82.35 237.036 82.4008 236.823 82.4008ZM236.823 81.9219C236.947 81.9219 237.06 81.8917 237.161 81.8314C237.263 81.771 237.344 81.69 237.404 81.5883C237.465 81.4867 237.495 81.3739 237.495 81.25C237.495 81.1261 237.465 81.0134 237.404 80.9117C237.346 80.81 237.265 80.729 237.164 80.6687C237.062 80.6083 236.949 80.5781 236.825 80.5781C236.701 80.5781 236.588 80.6083 236.485 80.6687C236.383 80.729 236.302 80.81 236.242 80.9117C236.181 81.0134 236.151 81.1261 236.151 81.25C236.151 81.3723 236.181 81.4843 236.242 81.586C236.302 81.6876 236.383 81.7694 236.485 81.8314C236.586 81.8917 236.699 81.9219 236.823 81.9219Z" fill="#B3B3B3"/>
<path d="M103.673 109.792H231.14" stroke="#4D4C4C" stroke-width="0.595642" stroke-dasharray="1.19 1.19"/>
<path d="M237.097 110.92V110.322H235.548V109.85L236.663 107.489H237.233L236.118 109.85H237.097V108.921H237.602V109.85H237.943V110.322H237.602V110.92H237.097Z" fill="#B3B3B3"/>
<path d="M103.673 138.383H231.14" stroke="#4D4C4C" stroke-width="0.595642" stroke-dasharray="1.19 1.19"/>
<path d="M235.548 139.508L235.551 139.065L237.045 137.726C237.165 137.62 237.247 137.518 237.29 137.421C237.334 137.324 237.357 137.228 237.357 137.131C237.357 137.008 237.33 136.899 237.276 136.802C237.222 136.703 237.147 136.626 237.052 136.568C236.956 136.511 236.847 136.483 236.723 136.483C236.596 136.483 236.482 136.513 236.382 136.573C236.284 136.632 236.207 136.711 236.151 136.809C236.096 136.908 236.069 137.014 236.07 137.128H235.56C235.56 136.906 235.61 136.711 235.71 136.545C235.812 136.376 235.951 136.245 236.127 136.151C236.304 136.056 236.505 136.009 236.732 136.009C236.948 136.009 237.142 136.058 237.314 136.156C237.485 136.253 237.62 136.387 237.719 136.556C237.819 136.726 237.869 136.92 237.869 137.138C237.869 137.295 237.848 137.429 237.807 137.538C237.766 137.648 237.704 137.749 237.621 137.843C237.539 137.937 237.435 138.038 237.311 138.148L236.158 139.177L236.103 139.034H237.869V139.508H235.548Z" fill="#B3B3B3"/>
<rect x="109.034" y="105.324" width="10.1259" height="61.3511" fill="url(#paint1_linear_4150_13223)"/>
<path d="M112.346 173.463V170.032H112.796L114.04 172.612L115.276 170.032H115.731V173.46H115.26V171.113L114.152 173.463H113.925L112.815 171.113V173.463H112.346Z" fill="#B3B3B3"/>
<rect x="126.903" y="141.659" width="10.1259" height="25.0169" fill="url(#paint2_linear_4150_13223)"/>
<path d="M131.666 173.462V170.501H130.525V170.032H133.305V170.501H132.164V173.462H131.666Z" fill="#B3B3B3"/>
<rect x="144.772" y="117.237" width="10.1259" height="49.4383" fill="url(#paint3_linear_4150_13223)"/>
<path d="M148.811 173.463L147.815 170.032H148.337L149.059 172.626L149.781 170.034L150.305 170.032L151.027 172.626L151.749 170.032H152.273L151.275 173.463H150.779L150.043 170.897L149.307 173.463H148.811Z" fill="#B3B3B3"/>
<rect x="162.642" y="80.9032" width="10.1259" height="85.7724" fill="#7B61FF"/>
<path d="M167.404 173.462V170.501H166.263V170.032H169.044V170.501H167.902V173.462H167.404Z" fill="#B3B3B3"/>
<rect x="180.511" y="104.133" width="10.1259" height="62.5424" fill="url(#paint4_linear_4150_13223)"/>
<path d="M184.418 173.463V170.032H186.451V170.53H184.916V171.497H186.165V171.997H184.916V173.463H184.418Z" fill="#B3B3B3"/>
<rect x="198.38" y="152.38" width="10.1259" height="14.2954" fill="url(#paint5_linear_4150_13223)"/>
<path d="M202.936 173.534C202.689 173.534 202.467 173.492 202.269 173.408C202.072 173.322 201.909 173.2 201.78 173.043C201.653 172.884 201.57 172.696 201.532 172.478L202.052 172.4C202.104 172.609 202.214 172.773 202.381 172.891C202.547 173.007 202.742 173.065 202.964 173.065C203.102 173.065 203.23 173.043 203.345 173C203.461 172.956 203.554 172.893 203.624 172.812C203.696 172.729 203.731 172.631 203.731 172.517C203.731 172.455 203.72 172.4 203.698 172.352C203.677 172.305 203.648 172.263 203.61 172.228C203.573 172.192 203.528 172.161 203.474 172.135C203.422 172.108 203.364 172.085 203.3 172.066L202.421 171.807C202.335 171.781 202.248 171.749 202.159 171.709C202.07 171.668 201.988 171.614 201.914 171.549C201.84 171.483 201.781 171.401 201.735 171.304C201.689 171.205 201.666 171.086 201.666 170.946C201.666 170.735 201.72 170.556 201.828 170.41C201.937 170.263 202.085 170.151 202.271 170.077C202.457 170.001 202.665 169.962 202.895 169.962C203.127 169.966 203.334 170.007 203.517 170.086C203.701 170.166 203.854 170.28 203.974 170.429C204.097 170.577 204.181 170.757 204.227 170.968L203.693 171.058C203.669 170.93 203.619 170.819 203.541 170.727C203.463 170.634 203.368 170.562 203.255 170.513C203.142 170.462 203.02 170.436 202.888 170.434C202.761 170.431 202.644 170.45 202.538 170.491C202.433 170.533 202.349 170.591 202.285 170.665C202.223 170.74 202.192 170.826 202.192 170.923C202.192 171.018 202.22 171.095 202.276 171.154C202.331 171.212 202.4 171.259 202.481 171.294C202.563 171.328 202.645 171.355 202.726 171.378L203.36 171.556C203.439 171.579 203.529 171.609 203.629 171.647C203.731 171.683 203.828 171.735 203.922 171.802C204.017 171.868 204.096 171.957 204.158 172.069C204.22 172.178 204.251 172.316 204.251 172.483C204.251 172.656 204.216 172.809 204.146 172.941C204.076 173.071 203.98 173.18 203.858 173.269C203.737 173.357 203.597 173.423 203.438 173.467C203.28 173.512 203.112 173.534 202.936 173.534Z" fill="#B3B3B3"/>
<rect x="216.25" y="158.337" width="10.1259" height="8.33898" fill="url(#paint6_linear_4150_13223)"/>
<path d="M220.805 173.534C220.559 173.534 220.336 173.492 220.138 173.408C219.941 173.322 219.778 173.2 219.649 173.043C219.522 172.884 219.44 172.696 219.401 172.478L219.921 172.4C219.973 172.609 220.083 172.773 220.25 172.891C220.416 173.007 220.611 173.065 220.833 173.065C220.972 173.065 221.099 173.043 221.215 173C221.331 172.956 221.423 172.893 221.493 172.812C221.565 172.729 221.601 172.631 221.601 172.517C221.601 172.455 221.589 172.4 221.567 172.352C221.547 172.305 221.517 172.263 221.479 172.228C221.443 172.192 221.397 172.161 221.343 172.135C221.291 172.108 221.233 172.085 221.169 172.066L220.29 171.807C220.204 171.781 220.117 171.749 220.028 171.709C219.939 171.668 219.857 171.614 219.783 171.549C219.71 171.483 219.65 171.401 219.604 171.304C219.558 171.205 219.535 171.086 219.535 170.946C219.535 170.735 219.589 170.556 219.697 170.41C219.807 170.263 219.954 170.151 220.14 170.077C220.326 170.001 220.534 169.962 220.764 169.962C220.996 169.966 221.203 170.007 221.386 170.086C221.57 170.166 221.723 170.28 221.844 170.429C221.966 170.577 222.05 170.757 222.096 170.968L221.562 171.058C221.539 170.93 221.488 170.819 221.41 170.727C221.332 170.634 221.237 170.562 221.124 170.513C221.011 170.462 220.889 170.436 220.757 170.434C220.63 170.431 220.513 170.45 220.407 170.491C220.302 170.533 220.218 170.591 220.154 170.665C220.092 170.74 220.061 170.826 220.061 170.923C220.061 171.018 220.089 171.095 220.145 171.154C220.2 171.212 220.269 171.259 220.35 171.294C220.432 171.328 220.514 171.355 220.595 171.378L221.229 171.556C221.308 171.579 221.398 171.609 221.498 171.647C221.6 171.683 221.697 171.735 221.791 171.802C221.886 171.868 221.965 171.957 222.027 172.069C222.089 172.178 222.12 172.316 222.12 172.483C222.12 172.656 222.085 172.809 222.015 172.941C221.945 173.071 221.849 173.18 221.727 173.269C221.606 173.357 221.466 173.423 221.308 173.467C221.149 173.512 220.981 173.534 220.805 173.534Z" fill="#B3B3B3"/>
<path d="M104.269 166.973H231.736" stroke="#4D4C4C" stroke-width="0.595642"/>
<path d="M236.84 168.173C236.606 168.173 236.4 168.122 236.22 168.021C236.041 167.918 235.899 167.776 235.796 167.597C235.694 167.417 235.644 167.211 235.644 166.977V165.795C235.644 165.562 235.694 165.355 235.796 165.176C235.899 164.996 236.041 164.856 236.22 164.754C236.4 164.651 236.606 164.599 236.84 164.599C237.073 164.599 237.28 164.651 237.459 164.754C237.639 164.856 237.779 164.996 237.881 165.176C237.984 165.355 238.036 165.562 238.036 165.795V166.977C238.036 167.211 237.984 167.417 237.881 167.597C237.779 167.776 237.639 167.918 237.459 168.021C237.28 168.122 237.073 168.173 236.84 168.173ZM236.84 167.697C236.967 167.697 237.082 167.667 237.185 167.606C237.29 167.544 237.373 167.462 237.435 167.358C237.497 167.254 237.528 167.137 237.528 167.008V165.76C237.528 165.633 237.497 165.517 237.435 165.414C237.373 165.309 237.29 165.227 237.185 165.166C237.082 165.105 236.967 165.074 236.84 165.074C236.713 165.074 236.597 165.105 236.492 165.166C236.389 165.227 236.306 165.309 236.244 165.414C236.182 165.517 236.151 165.633 236.151 165.76V167.008C236.151 167.137 236.182 167.254 236.244 167.358C236.306 167.462 236.389 167.544 236.492 167.606C236.597 167.667 236.713 167.697 236.84 167.697Z" fill="#B3B3B3"/>
</g>
<defs>
<filter id="filter0_b_4150_13223" x="-1.78692" y="-1.78692" width="250.031" height="186.184" filterUnits="userSpaceOnUse" color-interpolation-filters="sRGB">
<feFlood flood-opacity="0" result="BackgroundImageFix"/>
<feGaussianBlur in="BackgroundImageFix" stdDeviation="0.893462"/>
<feComposite in2="SourceAlpha" operator="in" result="effect1_backgroundBlur_4150_13223"/>
<feBlend mode="normal" in="SourceGraphic" in2="effect1_backgroundBlur_4150_13223" result="shape"/>
</filter>
<radialGradient id="paint0_radial_4150_13223" cx="0" cy="0" r="1" gradientUnits="userSpaceOnUse" gradientTransform="translate(7.02492 -3.15066e-06) rotate(37.332) scale(301.122 323.576)">
<stop offset="0.047524" stop-color="#5547EB" stop-opacity="0.37"/>
<stop offset="0.374397" stop-color="#05051A" stop-opacity="0.1"/>
</radialGradient>
<linearGradient id="paint1_linear_4150_13223" x1="114.097" y1="105.324" x2="114.097" y2="166.676" gradientUnits="userSpaceOnUse">
<stop stop-color="#D1D1D1"/>
<stop offset="1" stop-color="#D9D9D9" stop-opacity="0"/>
</linearGradient>
<linearGradient id="paint2_linear_4150_13223" x1="131.966" y1="141.659" x2="131.966" y2="166.676" gradientUnits="userSpaceOnUse">
<stop stop-color="#D1D1D1"/>
<stop offset="1" stop-color="#D9D9D9" stop-opacity="0"/>
</linearGradient>
<linearGradient id="paint3_linear_4150_13223" x1="149.835" y1="117.237" x2="149.835" y2="166.676" gradientUnits="userSpaceOnUse">
<stop stop-color="#D1D1D1"/>
<stop offset="1" stop-color="#D9D9D9" stop-opacity="0"/>
</linearGradient>
<linearGradient id="paint4_linear_4150_13223" x1="185.574" y1="104.133" x2="185.574" y2="166.676" gradientUnits="userSpaceOnUse">
<stop stop-color="#D1D1D1"/>
<stop offset="1" stop-color="#D9D9D9" stop-opacity="0"/>
</linearGradient>
<linearGradient id="paint5_linear_4150_13223" x1="203.443" y1="152.38" x2="203.443" y2="166.676" gradientUnits="userSpaceOnUse">
<stop stop-color="#D1D1D1"/>
<stop offset="1" stop-color="#D9D9D9" stop-opacity="0"/>
</linearGradient>
<linearGradient id="paint6_linear_4150_13223" x1="221.312" y1="158.337" x2="221.312" y2="166.676" gradientUnits="userSpaceOnUse">
<stop stop-color="#D1D1D1"/>
<stop offset="1" stop-color="#D9D9D9" stop-opacity="0"/>
</linearGradient>
</defs>
</svg>
