<svg width="16" height="16" viewBox="0 0 16 16" fill="none" xmlns="http://www.w3.org/2000/svg">
<path fill-rule="evenodd" clip-rule="evenodd" d="M5.20668 1.33325H10.7933C13.22 1.33325 14.6667 2.77992 14.66 5.20659V10.7933C14.66 13.2199 13.2133 14.6666 10.7867 14.6666H5.20668C2.78001 14.6666 1.33334 13.2199 1.33334 10.7866V5.20659C1.33334 2.77992 2.78001 1.33325 5.20668 1.33325ZM10.4749 11.1818L8.00001 8.70697L5.52514 11.1818C5.33186 11.3751 5.01131 11.3751 4.81803 11.1818C4.62475 10.9886 4.62475 10.668 4.81803 10.4747L7.2929 7.99987L4.81803 5.52499C4.62475 5.33172 4.62475 5.01116 4.81803 4.81789C5.0113 4.62461 5.33186 4.62461 5.52514 4.81789L8.00001 7.29276L10.4749 4.81789C10.6682 4.62461 10.9887 4.62461 11.182 4.81789C11.3753 5.01116 11.3753 5.33172 11.182 5.52499L8.70712 7.99987L11.182 10.4747C11.3753 10.668 11.3753 10.9886 11.182 11.1818C10.9887 11.3751 10.6682 11.3751 10.4749 11.1818Z" fill="#BABABA"/>
</svg>
