<svg width="12" height="12" viewBox="0 0 12 12" fill="none" xmlns="http://www.w3.org/2000/svg">
<path d="M10.6352 4.59015C10.4902 4.36015 10.3352 4.14515 10.1752 3.94515C9.99022 3.71015 9.64022 3.69015 9.43022 3.90015L7.93022 5.40015C8.04022 5.73015 8.06022 6.11015 7.96022 6.50515C7.78522 7.21015 7.21522 7.78015 6.51022 7.95515C6.11522 8.05515 5.73522 8.03515 5.40522 7.92515C5.40522 7.92515 4.69022 8.64015 4.17522 9.15515C3.92522 9.40515 4.00522 9.84515 4.34022 9.97515C4.87522 10.1801 5.43022 10.2851 6.00022 10.2851C6.89022 10.2851 7.75522 10.0251 8.54522 9.54015C9.35022 9.04015 10.0752 8.30515 10.6602 7.37015C11.1352 6.61515 11.1102 5.34515 10.6352 4.59015Z" fill="#F7F9FF"/>
<path d="M7.00982 4.98982L4.98982 7.00982C4.73482 6.74982 4.56982 6.38982 4.56982 5.99982C4.56982 5.21482 5.20982 4.56982 5.99982 4.56982C6.38982 4.56982 6.74982 4.73482 7.00982 4.98982Z" fill="#F7F9FF"/>
<path d="M9.125 2.87484L7.43 4.56984C7.065 4.19984 6.56 3.97984 6 3.97984C4.88 3.97984 3.98 4.88484 3.98 5.99984C3.98 6.55984 4.205 7.06484 4.57 7.42984L2.88 9.12484H2.875C2.32 8.67484 1.81 8.09984 1.375 7.41984C0.875 6.63484 0.875 5.35984 1.375 4.57484C1.955 3.66484 2.665 2.94984 3.455 2.45984C4.245 1.97984 5.11 1.71484 6 1.71484C7.115 1.71484 8.195 2.12484 9.125 2.87484Z" fill="#F7F9FF"/>
<path d="M7.43004 6.00004C7.43004 6.78504 6.79004 7.43004 6.00004 7.43004C5.97004 7.43004 5.94504 7.43004 5.91504 7.42004L7.42004 5.91504C7.43004 5.94504 7.43004 5.97004 7.43004 6.00004Z" fill="#F7F9FF"/>
<path d="M10.8849 1.11494C10.7349 0.964941 10.4899 0.964941 10.3399 1.11494L1.11494 10.3449C0.964941 10.4949 0.964941 10.7399 1.11494 10.8899C1.18994 10.9599 1.28494 10.9999 1.38494 10.9999C1.48494 10.9999 1.57994 10.9599 1.65494 10.8849L10.8849 1.65494C11.0399 1.50494 11.0399 1.26494 10.8849 1.11494Z" fill="#F7F9FF"/>
</svg>
