<svg width="12" height="12" viewBox="0 0 12 12" fill="none" xmlns="http://www.w3.org/2000/svg">
<path d="M10.625 4.57484C9.47 2.75984 7.78 1.71484 6 1.71484C5.11 1.71484 4.245 1.97484 3.455 2.45984C2.665 2.94984 1.955 3.66484 1.375 4.57484C0.875 5.35984 0.875 6.63484 1.375 7.41984C2.53 9.23984 4.22 10.2798 6 10.2798C6.89 10.2798 7.755 10.0198 8.545 9.53484C9.335 9.04484 10.045 8.32984 10.625 7.41984C11.125 6.63984 11.125 5.35984 10.625 4.57484ZM6 8.01984C4.88 8.01984 3.98 7.11484 3.98 5.99984C3.98 4.88484 4.88 3.97984 6 3.97984C7.12 3.97984 8.02 4.88484 8.02 5.99984C8.02 7.11484 7.12 8.01984 6 8.01984Z" fill="#F7F9FF"/>
<path d="M6.0002 4.56982C5.2152 4.56982 4.5752 5.20982 4.5752 5.99982C4.5752 6.78482 5.2152 7.42482 6.0002 7.42482C6.7852 7.42482 7.4302 6.78482 7.4302 5.99982C7.4302 5.21482 6.7852 4.56982 6.0002 4.56982Z" fill="#F7F9FF"/>
</svg>
