<svg width="16" height="16" viewBox="0 0 16 16" fill="none" xmlns="http://www.w3.org/2000/svg">
<g clipPath="url(#clip0_2284_3937)">
<path d="M6.10002 4.99341C5.72668 4.99341 5.43335 5.29341 5.43335 5.66007C5.43335 6.02674 5.73335 6.32674 6.10002 6.32674C6.46668 6.32674 6.76668 6.02674 6.76668 5.66007C6.76668 5.29341 6.46668 4.99341 6.10002 4.99341Z" fill="#BABABA"/>
<path d="M14.3067 3.35992C13.7467 2.05992 12.5134 1.33325 10.7934 1.33325H5.20671C3.06671 1.33325 1.33337 3.06659 1.33337 5.20659V10.7933C1.33337 12.5133 2.06004 13.7466 3.36004 14.3066C3.48671 14.3599 3.63337 14.3266 3.72671 14.2333L14.2334 3.72659C14.3334 3.62659 14.3667 3.47992 14.3067 3.35992ZM7.02004 8.15992C6.76004 8.41325 6.42004 8.53325 6.08004 8.53325C5.74004 8.53325 5.40004 8.40659 5.14004 8.15992C4.46004 7.51992 3.71337 6.49992 4.00004 5.28659C4.25337 4.18659 5.22671 3.69325 6.08004 3.69325C6.93337 3.69325 7.90671 4.18659 8.16004 5.29325C8.44004 6.49992 7.69337 7.51992 7.02004 8.15992Z" fill="#BABABA"/>
<path d="M12.98 13.6866C13.1267 13.8333 13.1067 14.0733 12.9267 14.1733C12.34 14.4999 11.6267 14.6666 10.7933 14.6666H5.20668C5.01335 14.6666 4.93335 14.4399 5.06668 14.3066L9.09335 10.2799C9.22668 10.1466 9.43335 10.1466 9.56668 10.2799L12.98 13.6866Z" fill="#BABABA"/>
<path d="M14.6667 5.20668V10.7933C14.6667 11.6267 14.5 12.3467 14.1733 12.9267C14.0733 13.1067 13.8333 13.12 13.6867 12.98L10.2733 9.56668C10.14 9.43335 10.14 9.22668 10.2733 9.09335L14.3 5.06668C14.44 4.93335 14.6667 5.01335 14.6667 5.20668Z" fill="#BABABA"/>
</g>
<defs>
<clipPath id="clip0_2284_3937">
<rect width="16" height="16" fill="white"/>
</clipPath>
</defs>
</svg>
