<svg width="16" height="16" viewBox="0 0 16 16" fill="none" xmlns="http://www.w3.org/2000/svg">
<path d="M11.3334 1.62012H4.66671C2.66671 1.62012 1.33337 2.95345 1.33337 4.95345V8.95345C1.33337 10.9535 2.66671 12.2868 4.66671 12.2868V13.7068C4.66671 14.2401 5.26004 14.5601 5.70004 14.2601L8.66671 12.2868H11.3334C13.3334 12.2868 14.6667 10.9535 14.6667 8.95345V4.95345C14.6667 2.95345 13.3334 1.62012 11.3334 1.62012ZM8.00004 9.73345C7.72004 9.73345 7.50004 9.50678 7.50004 9.23345C7.50004 8.96012 7.72004 8.73345 8.00004 8.73345C8.28004 8.73345 8.50004 8.96012 8.50004 9.23345C8.50004 9.50678 8.28004 9.73345 8.00004 9.73345ZM8.84004 6.96678C8.58004 7.14012 8.50004 7.25345 8.50004 7.44012V7.58012C8.50004 7.85345 8.27337 8.08012 8.00004 8.08012C7.72671 8.08012 7.50004 7.85345 7.50004 7.58012V7.44012C7.50004 6.66678 8.06671 6.28678 8.28004 6.14012C8.52671 5.97345 8.60671 5.86012 8.60671 5.68678C8.60671 5.35345 8.33337 5.08012 8.00004 5.08012C7.66671 5.08012 7.39337 5.35345 7.39337 5.68678C7.39337 5.96012 7.16671 6.18678 6.89337 6.18678C6.62004 6.18678 6.39337 5.96012 6.39337 5.68678C6.39337 4.80012 7.11337 4.08012 8.00004 4.08012C8.88671 4.08012 9.60671 4.80012 9.60671 5.68678C9.60671 6.44678 9.04671 6.82678 8.84004 6.96678Z" fill="#BABABA"/>
</svg>
