<svg width="20" height="20" viewBox="0 0 20 20" fill="none" xmlns="http://www.w3.org/2000/svg">
<path opacity="0.4" d="M13.4915 1.66675H6.50817C3.47484 1.66675 1.6665 3.47508 1.6665 6.50841V13.4834C1.6665 16.5251 3.47484 18.3334 6.50817 18.3334H13.4832C16.5165 18.3334 18.3248 16.5251 18.3248 13.4917V6.50841C18.3332 3.47508 16.5248 1.66675 13.4915 1.66675Z" fill="#BABABA"/>
<path d="M9.99987 8.90845C9.39987 8.90845 8.9082 9.40011 8.9082 10.0001C8.9082 10.6001 9.39987 11.0918 9.99987 11.0918C10.5999 11.0918 11.0915 10.6001 11.0915 10.0001C11.0915 9.40011 10.5999 8.90845 9.99987 8.90845Z" fill="#BABABA"/>
<path d="M5.83337 8.90845C5.23337 8.90845 4.7417 9.40011 4.7417 10.0001C4.7417 10.6001 5.23337 11.0918 5.83337 11.0918C6.43337 11.0918 6.92503 10.6001 6.92503 10.0001C6.92503 9.40011 6.43337 8.90845 5.83337 8.90845Z" fill="#BABABA"/>
<path d="M14.1669 8.90845C13.5669 8.90845 13.0752 9.40011 13.0752 10.0001C13.0752 10.6001 13.5669 11.0918 14.1669 11.0918C14.7669 11.0918 15.2585 10.6001 15.2585 10.0001C15.2585 9.40011 14.7669 8.90845 14.1669 8.90845Z" fill="#BABABA"/>
</svg>
