<svg width="986" height="429" viewBox="0 0 986 429" fill="none" xmlns="http://www.w3.org/2000/svg">
<g opacity="0.8">
<mask id="mask0_4150_13121" style="mask-type:luminance" maskUnits="userSpaceOnUse" x="0" y="0" width="1442" height="430">
<path d="M1442 0H0V429.167H1442V0Z" fill="white"/>
</mask>
<g mask="url(#mask0_4150_13121)">
<path d="M753.513 188.912C755.782 191.607 759.185 194.071 762.934 196.38C770.49 201.006 779.527 205.1 788.871 208.997C793.562 210.937 798.369 212.834 803.291 214.653C808.213 216.482 813.116 218.31 818.134 220.087C838.053 227.245 858.26 234.241 878.506 241.21C898.752 248.189 919.074 255.107 939.416 262.016C1020.82 289.637 1102.65 317.018 1184.58 344.339C1281.75 376.733 1379.07 409.014 1476.51 441.253H1493.26C1391.45 408.293 1289.76 375.265 1188.23 342.133C1105.71 315.19 1023.28 288.178 941.262 260.935C920.766 254.12 900.29 247.287 879.89 240.412C859.491 233.537 839.149 226.636 819.076 219.572C814.039 217.821 809.098 216.018 804.137 214.216C799.177 212.422 794.351 210.551 789.64 208.637C780.238 204.791 771.163 200.757 763.55 196.191C759.781 193.908 756.359 191.478 754.052 188.826C752.917 187.504 752.129 186.122 751.879 184.706C751.648 183.299 752.071 181.865 753.302 180.56C754.551 179.264 756.551 178.114 758.993 177.204C761.415 176.286 764.203 175.565 767.126 174.998C772.99 173.865 779.296 173.23 785.66 172.981C779.296 173.205 772.971 173.814 767.049 174.921C764.107 175.479 761.281 176.192 758.801 177.11C756.32 178.02 754.263 179.179 752.956 180.492C751.667 181.814 751.206 183.281 751.398 184.715C751.61 186.148 752.398 187.564 753.513 188.903V188.912Z" fill="#7B61FF"/>
<path d="M761.55 189.006C764.818 191.478 768.741 193.762 772.894 195.942C789.678 204.628 809.655 211.907 829.67 219.005C869.931 233.142 910.941 246.815 951.971 260.497C1034.11 287.792 1116.7 314.812 1199.4 341.755C1301.59 375.033 1403.99 408.173 1506.51 441.253H1523.75C1416.68 407.444 1309.74 373.548 1203.01 339.524C1119.72 312.95 1036.53 286.307 953.817 259.381C912.498 245.888 871.18 232.404 830.65 218.456C810.482 211.452 790.409 204.285 773.49 195.71C769.298 193.564 765.357 191.307 762.05 188.869C760.415 187.65 758.935 186.38 757.839 185.05C756.724 183.728 755.993 182.32 756.07 180.904C756.109 179.488 757.205 178.088 759.223 176.998C761.242 175.9 763.992 175.11 766.895 174.544C772.778 173.428 779.238 173.016 785.622 172.981C779.238 172.981 772.759 173.368 766.818 174.466C763.876 175.024 761.069 175.805 758.993 176.921C756.897 178.028 755.743 179.462 755.666 180.904C755.551 182.354 756.282 183.779 757.378 185.127C758.474 186.483 759.935 187.77 761.55 189.006Z" fill="#39B687"/>
<path d="M747.284 203.297C750.783 205.495 754.628 207.58 758.647 209.589C762.665 211.597 766.876 213.529 771.183 215.4C775.489 217.288 780.027 219.048 784.43 220.876C802.387 228.017 820.807 234.901 839.187 241.802C857.606 248.686 876.103 255.527 894.656 262.325C968.871 289.551 1043.61 316.494 1118.44 343.377C1209.61 376.105 1300.97 408.705 1392.49 441.244H1418.85C1320.62 407.546 1222.53 373.771 1124.66 339.867C1048.82 313.567 973.082 287.208 897.848 260.565C879.044 253.905 860.298 247.21 841.629 240.48C822.998 233.725 804.329 226.987 786.16 220.009C781.7 218.224 777.124 216.498 772.778 214.662C768.414 212.833 764.165 210.954 760.108 208.997C756.051 207.04 752.167 205.005 748.63 202.868C745.073 200.731 741.862 198.473 739.305 196.079C736.825 193.684 734.96 191.1 734.863 188.457C734.71 185.822 736.728 183.178 740.535 181.135C744.304 179.075 749.437 177.573 754.859 176.457C760.3 175.35 766.107 174.569 772.029 174.14C766.088 174.517 760.262 175.255 754.725 176.32C749.226 177.393 743.977 178.869 740.035 180.938C736.056 182.989 733.825 185.719 733.883 188.439C733.883 191.178 735.671 193.83 738.113 196.302C740.612 198.765 743.785 201.083 747.303 203.271L747.284 203.297Z" fill="#7B61FF"/>
<path d="M724.288 197.375C728.498 202.181 734.574 206.567 741.111 210.756C747.667 214.945 754.935 218.902 762.395 222.747C792.427 238.034 823.766 252.694 855.029 267.406C917.689 296.761 981.002 325.816 1044.45 354.81C1107.69 383.702 1171.13 412.499 1234.66 441.253H1284C1275.61 437.76 1267.21 434.275 1258.83 430.781C1192.5 403.126 1126.26 375.436 1060.24 347.643C994.211 319.85 928.321 291.989 863.085 263.844C830.553 249.742 797.887 235.656 766.682 221.039C758.934 217.365 751.436 213.614 744.61 209.623C737.804 205.64 731.459 201.452 726.96 196.894C724.711 194.619 722.999 192.233 722.403 189.778C721.807 187.341 722.557 184.8 725.384 182.68C728.171 180.551 732.786 178.963 737.881 177.925C742.995 176.886 748.571 176.268 754.224 176.062C748.552 176.165 742.899 176.672 737.592 177.633C732.324 178.594 727.345 180.131 724.153 182.345C722.538 183.435 721.461 184.68 720.827 185.959C720.212 187.238 720.077 188.56 720.25 189.856C720.634 192.456 722.192 194.989 724.288 197.383V197.375Z" fill="url(#paint0_linear_4150_13121)"/>
<path d="M718.02 209.383C722.346 213.838 727.557 218.112 733.21 222.249C744.649 230.481 757.012 238.386 769.471 246.265C781.911 254.145 794.581 261.947 807.271 269.741C858.202 300.864 910.153 331.635 962.257 362.355C1007.04 388.723 1052.05 415.005 1097.15 441.253H1129.34C1078.02 413.426 1026.82 385.547 975.888 357.583C921.515 327.687 867.296 297.74 814.096 267.449C800.83 259.861 787.602 252.265 774.605 244.6C761.588 236.935 748.649 229.236 736.747 221.271C730.883 217.271 725.461 213.134 720.885 208.825C716.367 204.516 712.579 200.001 711.137 195.289C710.445 192.946 710.426 190.551 711.503 188.242C712.579 185.942 714.848 183.727 718.347 181.942C721.808 180.139 726.326 178.766 731.229 177.813C736.151 176.861 741.439 176.26 746.803 176.062C741.419 176.174 736.074 176.706 731.018 177.599C725.999 178.491 721.27 179.822 717.559 181.633C713.81 183.427 711.272 185.701 709.984 188.088C708.676 190.482 708.542 192.971 709.08 195.401C710.214 200.276 713.752 204.945 718.04 209.4L718.02 209.383Z" fill="#7B61FF"/>
<path d="M711.849 221.975C714.233 224.104 716.732 226.215 719.424 228.267L727.461 234.378C732.806 238.455 738.209 242.506 743.65 246.549L776.297 270.806C819.98 303.105 863.951 335.318 907.942 367.523C941.55 392.114 975.216 416.679 1008.86 441.245H1045.78C1005.92 414.928 966.064 388.603 926.284 362.261C879.063 330.983 831.862 299.697 784.968 268.342L749.898 244.79C744.054 240.867 738.247 236.927 732.518 232.979L723.904 227.056C721.097 225.082 718.482 223.065 715.983 221.022C711.022 216.928 706.735 212.654 703.812 208.199C700.909 203.761 699.409 199.075 700.947 194.5C701.716 192.217 703.312 189.994 705.735 187.951C708.157 185.908 711.407 184.054 715.252 182.483C722.962 179.342 732.729 177.187 742.996 176.14C732.633 177.024 722.635 179.007 714.464 182.097C710.407 183.642 706.869 185.496 704.177 187.573C701.486 189.659 699.621 191.951 698.621 194.32C696.602 199.075 697.794 203.976 700.409 208.602C703.062 213.246 707.1 217.701 711.83 221.975H711.849Z" fill="url(#paint1_linear_4150_13121)"/>
<path d="M665.455 208.971L668.532 216.31L680.683 245.665L728.615 363.145L760.243 441.253H768.664L734.441 362.655L683.067 245.459L670.051 216.172L666.763 208.851C665.667 206.413 664.763 203.975 664.417 201.503C663.667 196.594 665.052 191.512 670.166 187.126C672.742 184.955 676.184 182.98 680.356 181.358C684.471 179.71 689.296 178.431 694.315 177.401C704.447 175.367 715.522 174.397 726.577 173.968C737.671 173.539 748.841 173.659 759.935 174.097C771.029 174.552 782.065 175.29 792.928 176.414C782.084 175.255 771.048 174.483 759.955 173.994C748.861 173.522 737.671 173.367 726.539 173.753C715.426 174.148 704.293 175.084 694.007 177.101C688.912 178.122 684.009 179.41 679.779 181.066C675.511 182.697 671.954 184.697 669.282 186.912C663.975 191.375 662.495 196.551 663.167 201.529C663.475 204.027 664.379 206.507 665.417 208.954L665.455 208.971Z" fill="#7B61FF"/>
<path d="M678.741 211.152L682.183 218.507C684.49 223.409 687.009 228.284 689.431 233.176C691.835 238.069 694.334 242.944 696.853 247.828C716.868 286.865 737.594 325.825 758.378 364.776C772.01 390.277 785.699 415.761 799.446 441.254H807.944C793.313 415.555 778.701 389.857 764.185 364.141C742.285 325.31 720.444 286.479 699.314 247.571C696.661 242.712 694.026 237.846 691.469 232.97C688.931 228.095 686.259 223.237 683.817 218.353L680.164 211.031L678.357 207.366C677.838 206.147 677.338 204.92 676.972 203.684C675.55 198.774 675.607 193.667 679.222 188.955C681.01 186.612 683.663 184.397 687.182 182.475C690.681 180.552 694.969 178.913 699.698 177.616C709.196 174.99 720.175 173.591 731.211 172.844C742.285 172.097 753.533 171.994 764.723 172.252C775.913 172.527 787.064 173.136 798.043 174.166C787.084 173.102 775.932 172.458 764.742 172.14C753.552 171.84 742.266 171.909 731.134 172.621C720.059 173.333 708.966 174.698 699.295 177.325C694.469 178.621 690.085 180.277 686.49 182.226C682.875 184.174 680.106 186.423 678.261 188.809C674.492 193.607 674.338 198.792 675.703 203.761C676.357 206.268 677.607 208.714 678.741 211.169V211.152Z" fill="#39B687"/>
<path d="M647.729 235.673C656.304 272.556 666.648 309.327 677.03 346.107C686.067 377.839 695.392 409.555 704.851 441.253H719.56C708.389 409.349 697.372 377.444 686.643 345.506C674.396 308.863 662.226 272.213 651.805 235.467C649.286 226.283 646.748 217.082 645.037 207.872C644.71 205.572 644.172 203.254 644.153 200.98C644.153 198.688 644.537 196.405 645.46 194.164C647.229 189.675 651.516 185.375 658.303 181.95C661.706 180.251 665.648 178.766 669.955 177.53C674.281 176.302 678.914 175.29 683.74 174.483C693.392 172.878 703.659 172.028 713.945 171.633C724.251 171.238 734.652 171.29 744.977 171.633C755.302 171.994 765.607 172.62 775.74 173.607C765.627 172.552 755.34 171.865 744.996 171.444C734.652 171.032 724.232 170.912 713.849 171.238C703.486 171.582 693.123 172.363 683.26 173.933C678.338 174.723 673.569 175.719 669.109 176.955C664.667 178.199 660.553 179.701 656.977 181.435C649.863 184.929 645.268 189.366 643.287 193.984C642.268 196.293 641.788 198.636 641.73 200.98C641.711 203.331 642.095 205.632 642.307 207.958C643.576 217.228 645.652 226.446 647.709 235.673H647.729Z" fill="#7B61FF"/>
<path d="M601.142 441.253L611.005 333.704L620.311 228.455L622.445 202.13C622.599 199.916 622.791 197.795 623.445 195.684C624.079 193.572 625.118 191.487 626.637 189.478C629.598 185.453 634.673 181.745 641.46 178.766C648.267 175.779 656.688 173.548 665.705 172.003C674.742 170.44 684.336 169.522 694.026 169.007C703.736 168.501 713.56 168.415 723.347 168.612C733.133 168.827 742.92 169.299 752.571 170.14C742.996 169.153 733.229 168.543 723.404 168.183C713.58 167.84 703.697 167.788 693.834 168.157C683.99 168.535 674.146 169.325 664.725 170.801C655.323 172.26 646.305 174.457 638.846 177.53C631.386 180.594 625.618 184.508 622.138 188.766C620.369 190.894 619.1 193.092 618.254 195.323C617.389 197.547 617.062 199.821 616.619 201.976L611.332 228.189L589.395 333.052L566.419 441.245H601.161L601.142 441.253Z" fill="url(#paint2_linear_4150_13121)"/>
<path d="M744.4 168.261C707.139 165.969 665.975 165.05 633.193 174.501L633.732 174.312C632.732 174.784 631.347 174.999 630.348 175.076C628.848 175.196 627.464 175.136 626.31 175.222C625.983 175.256 626.079 175.273 626.195 175.23L625.791 175.376C613.928 179.359 602.527 184.457 599.335 191.015C542.713 269.123 496.607 348.554 444.906 427.572L410.106 422.602C470.19 345.524 526.139 265.939 590.933 190.071C593.221 186.311 597.835 182.955 603.411 180.183C609.006 177.402 615.466 175.119 622.157 173.093L621.773 173.239C623.984 172.235 627.329 172.475 629.617 172.449C664.11 163.214 706.678 165.042 744.419 168.252L744.4 168.261Z" fill="#7B61FF"/>
<path d="M313.242 441.253C325.489 429.743 337.756 418.233 349.965 406.714C384.207 374.415 418.277 342.081 451.981 309.662C468.824 293.457 485.59 277.226 502.144 260.952C518.679 244.669 535.137 228.378 550.806 211.907C552.787 209.855 554.709 207.787 556.613 205.709C558.535 203.641 560.439 201.572 562.246 199.478L565.015 196.362L566.438 194.869L568.014 193.401C570.206 191.47 572.744 189.607 575.609 187.856C581.338 184.345 588.414 181.273 596.374 178.715C604.333 176.157 613.12 174.097 622.291 172.458C640.691 169.179 660.475 167.514 680.317 166.784C690.257 166.423 700.236 166.303 710.234 166.398C720.212 166.501 730.21 166.767 740.112 167.359C730.23 166.655 720.251 166.26 710.253 166.037C700.255 165.823 690.219 165.823 680.202 166.063C660.206 166.552 640.133 167.986 621.118 171.101C611.639 172.664 602.449 174.672 594.028 177.23C585.607 179.788 577.954 182.921 571.687 186.551C568.553 188.362 565.746 190.302 563.304 192.319L561.554 193.856L559.958 195.418L556.844 198.465C554.806 200.491 552.671 202.499 550.499 204.508C548.365 206.516 546.192 208.525 543.981 210.525C526.388 226.533 507.969 242.377 489.512 258.205C470.996 274.024 452.308 289.8 433.504 305.559C395.916 337.069 357.963 368.501 319.836 399.899C303.071 413.701 286.267 427.486 269.443 441.27H313.28L313.242 441.253Z" fill="url(#paint3_linear_4150_13121)"/>
<g style="mix-blend-mode:color-dodge">
<path d="M873.508 358.442C862.299 350.991 851.763 343.369 841.476 335.687C836.266 331.868 831.286 327.979 826.21 324.125L811.31 312.469L796.774 300.719C792.064 296.77 787.219 292.856 782.624 288.874C773.318 280.943 764.243 272.96 755.841 264.806C767.05 272.256 777.586 279.878 787.892 287.56C793.102 291.38 798.063 295.268 803.158 299.122L818.039 310.787L832.555 322.538C837.266 326.486 842.111 330.4 846.706 334.383C856.012 342.314 865.087 350.296 873.489 358.45L873.508 358.442Z" fill="url(#paint4_linear_4150_13121)"/>
</g>
<g style="mix-blend-mode:overlay">
<path d="M762.915 196.379C770.471 201.005 779.507 205.099 788.852 208.996C798.234 212.884 808.155 216.507 818.095 220.086C838.014 227.244 858.221 234.24 878.467 241.209L939.377 262.015C1020.78 289.637 1102.61 317.017 1184.54 344.338C1281.71 376.732 1379.03 409.014 1476.47 441.253H1493.22C1391.42 408.293 1289.73 375.264 1188.19 342.132C1105.67 315.189 1023.24 288.177 941.223 260.934L879.851 240.411C859.452 233.536 839.11 226.635 819.037 219.571C809.02 216.034 799.042 212.472 789.601 208.636C780.199 204.79 771.124 200.756 763.511 196.19C759.742 193.907 756.32 191.478 754.013 188.825C751.763 186.207 750.725 183.203 753.263 180.56C755.762 177.916 761.3 176.122 767.087 174.998C772.951 173.865 779.257 173.229 785.621 172.98C779.257 173.204 772.932 173.813 767.01 174.92C761.184 176.019 755.551 177.804 752.917 180.491C750.264 183.177 751.263 186.25 753.494 188.911C755.762 191.606 759.165 194.07 762.915 196.379Z" fill="url(#paint5_radial_4150_13121)"/>
<path d="M772.895 195.941C789.679 204.627 809.656 211.906 829.671 219.004C869.932 233.141 910.942 246.814 951.972 260.496C1034.11 287.791 1116.71 314.811 1199.4 341.755C1301.59 375.032 1403.99 408.181 1506.51 441.253H1523.75C1416.68 407.443 1309.74 373.547 1203.01 339.523C1119.72 312.949 1036.53 286.306 953.818 259.38C912.499 245.887 871.181 232.403 830.652 218.455C810.483 211.451 790.41 204.284 773.491 195.709C769.299 193.563 765.358 191.306 762.051 188.868C758.84 186.448 755.975 183.761 756.052 180.903C756.091 179.487 757.186 178.088 759.205 176.997C761.224 175.899 763.973 175.109 766.877 174.543C772.76 173.427 779.22 173.015 785.603 172.98C779.22 172.98 772.741 173.367 766.8 174.465C763.858 175.023 761.051 175.804 758.974 176.92C756.879 178.027 755.725 179.461 755.648 180.903C755.494 183.821 758.359 186.551 761.532 189.006C764.8 191.478 768.722 193.761 772.875 195.941H772.895Z" fill="url(#paint6_radial_4150_13121)"/>
<path d="M758.628 209.58C762.646 211.589 766.857 213.52 771.164 215.391C775.47 217.279 780.008 219.039 784.411 220.867C820.461 235.064 857.607 248.669 894.637 262.325C968.852 289.551 1043.59 316.494 1118.42 343.377C1209.59 376.105 1300.95 408.705 1392.45 441.244H1418.81C1320.58 407.546 1222.49 373.771 1124.63 339.866C1048.78 313.567 973.044 287.208 897.81 260.565C860.279 247.201 822.614 233.888 786.103 220C781.642 218.215 777.066 216.49 772.721 214.653C768.357 212.825 764.108 210.945 760.051 208.988C751.995 205.065 744.381 200.868 739.247 196.07C736.767 193.675 734.902 191.092 734.806 188.448C734.652 185.813 736.671 183.169 740.478 181.126C744.246 179.066 749.38 177.564 754.802 176.448C760.243 175.341 766.049 174.56 771.971 174.131C766.03 174.509 760.205 175.247 754.667 176.311C749.168 177.384 743.92 178.86 739.978 180.929C735.998 182.98 733.768 185.71 733.826 188.431C733.826 191.169 735.614 193.821 738.055 196.293C743.112 201.228 750.63 205.529 758.609 209.554L758.628 209.58Z" fill="url(#paint7_radial_4150_13121)"/>
<path d="M724.29 197.374C728.501 202.18 734.576 206.567 741.113 210.755C747.67 214.944 754.937 218.901 762.397 222.746C792.429 238.033 823.769 252.693 855.031 267.405C917.691 296.76 981.004 325.815 1044.45 354.809C1107.71 383.692 1171.12 412.498 1234.66 441.252H1284C1209.24 410.129 1134.63 378.928 1060.22 347.642C994.194 319.849 928.304 291.988 863.068 263.843C830.537 249.741 797.87 235.655 766.666 221.038C758.917 217.364 751.419 213.613 744.593 209.622C737.787 205.64 731.442 201.451 726.943 196.893C724.694 194.619 722.983 192.232 722.387 189.778C721.79 187.34 722.54 184.799 725.367 182.679C728.154 180.55 732.769 178.963 737.864 177.924C742.978 176.885 748.554 176.267 754.207 176.061C748.535 176.164 742.882 176.671 737.576 177.632C732.307 178.593 727.328 180.13 724.136 182.344C720.887 184.542 719.829 187.271 720.214 189.855C720.598 192.456 722.156 194.988 724.251 197.382L724.29 197.374Z" fill="url(#paint8_radial_4150_13121)"/>
<path d="M718.022 209.382C722.348 213.837 727.558 218.111 733.211 222.248C744.651 230.48 757.013 238.385 769.472 246.264C781.912 254.144 794.582 261.946 807.272 269.74C858.203 300.863 910.154 331.634 962.258 362.354C1007.06 388.713 1052.05 415.004 1097.15 441.252H1129.32C1078 413.425 1026.82 385.538 975.89 357.582C921.517 327.686 867.298 297.739 814.097 267.448C800.831 259.86 787.603 252.264 774.606 244.599C761.589 236.934 748.65 229.235 736.748 221.27C730.884 217.27 725.462 213.133 720.886 208.824C716.368 204.515 712.58 200 711.138 195.288C710.446 192.945 710.427 190.55 711.504 188.241C712.581 185.941 714.849 183.726 718.348 181.941C721.809 180.138 726.328 178.765 731.23 177.812C736.152 176.86 741.44 176.259 746.804 176.061C741.421 176.173 736.075 176.705 731.019 177.598C726.001 178.49 721.271 179.821 717.56 181.632C713.811 183.426 711.273 185.7 709.985 188.087C708.677 190.481 708.543 192.971 709.081 195.4C710.216 200.275 713.753 204.944 718.041 209.399L718.022 209.382Z" fill="url(#paint9_radial_4150_13121)"/>
<path d="M711.849 221.974C716.54 226.266 722.135 230.317 727.461 234.377C732.806 238.454 738.209 242.505 743.65 246.548L776.297 270.805C819.98 303.104 863.951 335.317 907.942 367.522L1009.02 441.244H1045.95L926.284 362.26C879.063 330.982 831.862 299.696 784.968 268.341L749.899 244.789C744.054 240.866 738.247 236.926 732.518 232.978L723.904 227.055C721.097 225.081 718.482 223.064 715.983 221.021C711.022 216.927 706.735 212.653 703.812 208.198C700.909 203.76 699.41 199.074 700.948 194.499C702.428 189.933 707.485 185.615 715.252 182.482C722.962 179.341 732.729 177.186 742.996 176.139C732.633 177.023 722.635 179.006 714.464 182.096C706.254 185.16 700.563 189.572 698.64 194.327C696.622 199.082 697.814 203.983 700.429 208.61C703.082 213.253 707.119 217.708 711.849 221.983V221.974Z" fill="url(#paint10_radial_4150_13121)"/>
<path d="M665.455 208.97L668.532 216.309L680.683 245.664L728.615 363.144L760.243 441.252H768.664L734.441 362.654L683.067 245.458L670.051 216.171L666.763 208.85C665.667 206.412 664.763 203.974 664.417 201.502C663.667 196.593 665.052 191.511 670.166 187.125C675.242 182.713 684.24 179.417 694.315 177.4C704.447 175.366 715.522 174.396 726.577 173.967C737.671 173.538 748.841 173.658 759.935 174.096C771.029 174.551 782.065 175.289 792.928 176.413C782.084 175.255 771.048 174.482 759.955 173.993C748.861 173.521 737.671 173.366 726.539 173.752C715.426 174.147 704.293 175.083 694.007 177.1C683.778 179.091 674.55 182.43 669.282 186.919C663.975 191.383 662.495 196.558 663.167 201.537C663.475 204.034 664.379 206.515 665.417 208.961L665.455 208.97Z" fill="url(#paint11_radial_4150_13121)"/>
<path d="M678.742 211.15L682.184 218.506C686.952 228.291 691.797 238.068 696.835 247.818C716.85 286.855 737.576 325.815 758.36 364.766C771.992 390.267 785.681 415.751 799.428 441.244H807.926C793.295 415.545 778.683 389.847 764.167 364.131C742.267 325.3 720.426 286.469 699.296 247.561C693.97 237.836 688.856 228.094 683.799 218.343L680.146 211.022C678.935 208.575 677.627 206.146 676.954 203.674C675.532 198.765 675.589 193.658 679.204 188.945C682.645 184.216 690.182 180.19 699.7 177.607C709.197 174.98 720.176 173.581 731.212 172.834C742.287 172.088 753.534 171.985 764.724 172.242C775.914 172.517 787.065 173.126 798.044 174.156C787.085 173.092 775.933 172.448 764.743 172.131C753.553 171.83 742.267 171.899 731.135 172.611C720.061 173.324 708.967 174.688 699.296 177.315C689.625 179.899 681.838 183.984 678.243 188.799C674.474 193.589 674.32 198.782 675.685 203.752C676.339 206.258 677.589 208.704 678.723 211.159L678.742 211.15Z" fill="url(#paint12_radial_4150_13121)"/>
<path d="M647.729 235.672C656.304 272.555 666.648 309.326 677.03 346.106C686.067 377.838 695.392 409.554 704.851 441.252H719.56C708.389 409.348 697.372 377.443 686.643 345.505C674.396 308.863 662.226 272.212 651.805 235.466C649.286 226.282 646.748 217.081 645.037 207.871C644.71 205.571 644.172 203.253 644.153 200.979C644.153 198.687 644.537 196.404 645.46 194.163C647.229 189.674 651.516 185.374 658.303 181.949C665.09 178.525 674.108 176.078 683.74 174.482C693.411 172.877 703.659 172.027 713.945 171.632C724.251 171.237 734.652 171.289 744.977 171.632C755.302 171.993 765.607 172.619 775.74 173.606C765.627 172.551 755.34 171.864 744.996 171.443C734.652 171.031 724.232 170.911 713.849 171.237C703.486 171.581 693.123 172.362 683.26 173.933C673.435 175.495 664.11 177.941 656.977 181.434C649.863 184.928 645.268 189.365 643.287 193.983C642.268 196.292 641.788 198.635 641.73 200.979C641.711 203.33 642.095 205.631 642.307 207.957C643.576 217.227 645.652 226.445 647.709 235.672H647.729Z" fill="url(#paint13_radial_4150_13121)"/>
<path d="M601.142 441.252L611.005 333.703L620.311 228.454L622.445 202.129C622.599 199.915 622.791 197.795 623.445 195.683C624.079 193.572 625.117 191.486 626.636 189.477C629.597 185.452 634.673 181.744 641.46 178.765C648.266 175.778 656.688 173.547 665.705 172.002C674.741 170.439 684.336 169.521 694.026 169.006C703.735 168.5 713.56 168.414 723.346 168.611C733.133 168.826 742.919 169.298 752.571 170.139C742.996 169.152 733.229 168.543 723.404 168.182C713.579 167.839 703.697 167.787 693.834 168.156C683.989 168.534 674.145 169.324 664.724 170.8C655.323 172.259 646.305 174.456 638.845 177.529C631.385 180.594 625.617 184.508 622.137 188.765C620.368 190.894 619.1 193.091 618.254 195.323C617.388 197.546 617.061 199.82 616.619 201.975L611.332 228.188L589.394 333.051L566.418 441.244H601.161L601.142 441.252Z" fill="url(#paint14_radial_4150_13121)"/>
<path d="M431.122 441.252L511.72 317.918L576.841 217.519L584.897 204.953L588.896 198.67C590.261 196.559 591.453 194.481 593.203 192.516C596.644 188.55 601.605 184.851 607.988 181.684C614.352 178.508 622.081 175.881 630.522 173.83C647.48 169.71 666.86 167.822 686.164 167.092C705.544 166.422 725.155 166.809 744.382 168.259C725.232 166.603 705.602 166.002 686.067 166.474C666.591 167.006 646.884 168.688 629.233 172.74C620.447 174.757 612.276 177.392 605.469 180.645C598.625 183.881 593.203 187.718 589.396 191.829L588.031 193.383L586.819 194.962L584.512 198.069L579.917 204.266L570.669 216.661L495.993 315.704L400.705 441.244H431.122V441.252Z" fill="url(#paint15_radial_4150_13121)"/>
<path d="M313.242 441.252C325.49 429.742 337.756 418.231 349.965 406.713C384.208 374.414 418.278 342.08 451.982 309.661C468.825 293.456 485.59 277.224 502.144 260.95C518.679 244.668 535.137 228.377 550.807 211.905C552.787 209.854 554.71 207.785 556.614 205.708C558.536 203.64 560.44 201.571 562.247 199.477L565.016 196.361C565.919 195.357 566.938 194.37 568.015 193.4C570.207 191.468 572.745 189.606 575.609 187.855C581.339 184.344 588.414 181.271 596.374 178.714C604.334 176.156 613.121 174.096 622.292 172.456C640.692 169.177 660.476 167.512 680.318 166.783C700.198 166.087 720.271 166.233 740.113 167.349C720.348 165.993 700.237 165.598 680.203 166.053C660.207 166.542 640.134 167.976 621.119 171.092C611.64 172.654 602.45 174.662 594.029 177.22C585.607 179.778 577.955 182.911 571.687 186.542C568.553 188.353 565.746 190.292 563.304 192.31C562.112 193.322 560.978 194.352 559.94 195.408L556.825 198.455C554.787 200.481 552.653 202.489 550.48 204.498C548.346 206.506 546.173 208.515 543.962 210.515C526.37 226.523 507.951 242.368 489.493 258.195C470.978 274.014 452.29 289.79 433.486 305.549C395.898 337.059 357.944 368.491 319.818 399.889C303.052 413.691 286.248 427.476 269.425 441.261H313.262L313.242 441.252Z" fill="url(#paint16_radial_4150_13121)"/>
</g>
<path d="M431.122 441.254L511.72 317.92L576.841 217.52L584.897 204.954L588.896 198.671C590.261 196.56 591.453 194.483 593.203 192.517C596.645 188.552 601.605 184.852 607.988 181.685C614.352 178.509 622.081 175.883 630.522 173.831C647.48 169.711 666.86 167.823 686.164 167.093C705.544 166.424 725.156 166.81 744.382 168.261C725.232 166.604 705.602 166.003 686.068 166.475C666.591 167.007 646.884 168.69 629.234 172.741C620.447 174.758 612.276 177.393 605.47 180.646C598.625 183.882 593.203 187.719 589.396 191.83L588.031 193.384L586.82 194.963L584.513 198.071L579.917 204.268L570.669 216.662L495.993 315.705L400.706 441.245H431.122V441.254Z" fill="#4E4646"/>
<path d="M631.637 274.015L635.809 322.485L646.018 441.253H662.688L646.115 322.228L639.366 273.809C638.212 265.741 637.193 257.664 635.924 249.613C634.732 241.561 633.733 233.502 633.252 225.442C632.81 217.382 632.733 209.314 634.194 201.314C634.963 197.314 636.155 193.34 638.347 189.478C640.577 185.65 643.961 181.882 649.883 178.972C652.805 177.521 656.324 176.302 660.188 175.332C664.053 174.354 668.187 173.581 672.417 172.886C680.857 171.504 689.605 170.509 698.526 169.934C707.448 169.35 716.484 169.118 725.521 169.161C734.557 169.204 743.613 169.504 752.553 170.148C743.651 169.41 734.596 169.015 725.54 168.878C716.484 168.74 707.371 168.878 698.353 169.367C689.336 169.848 680.396 170.766 671.763 172.079C667.456 172.74 663.169 173.487 659.093 174.457C655.016 175.427 651.21 176.68 647.999 178.199C644.769 179.71 642.192 181.478 640.116 183.332C638.02 185.186 636.54 187.143 635.251 189.117C632.771 193.074 631.348 197.117 630.349 201.168C628.426 209.271 628.08 217.391 628.099 225.502C628.157 233.613 628.734 241.707 629.483 249.793C630.31 257.887 630.906 265.955 631.637 274.032V274.015Z" fill="#4E4646"/>
<path d="M758.628 209.581C762.646 211.589 766.857 213.52 771.164 215.392C775.47 217.28 780.008 219.04 784.411 220.868C820.461 235.065 857.607 248.669 894.637 262.325C968.852 289.552 1043.59 316.495 1118.42 343.378C1209.59 376.106 1300.95 408.705 1392.45 441.245H1418.81C1320.58 407.547 1222.49 373.771 1124.63 339.867C1048.78 313.568 973.044 287.208 897.81 260.566C860.279 247.201 822.614 233.889 786.103 220.001C781.642 218.216 777.066 216.49 772.721 214.653C768.357 212.825 764.108 210.945 760.051 208.988C751.995 205.066 744.381 200.869 739.247 196.071C736.767 193.676 734.902 191.092 734.806 188.449C734.652 185.813 736.671 183.17 740.478 181.127C744.246 179.067 749.38 177.565 754.802 176.449C760.243 175.342 766.049 174.561 771.971 174.132C766.03 174.509 760.205 175.247 754.667 176.312C749.168 177.385 743.92 178.861 739.978 180.93C735.998 182.981 733.768 185.71 733.826 188.431C733.826 191.169 735.614 193.822 738.055 196.294C743.112 201.229 750.63 205.529 758.609 209.555L758.628 209.581Z" fill="#4E4646"/>
<path style="mix-blend-mode:color-dodge" d="M728.462 202.551C758.109 211.1 788.526 219.821 819.539 228.67C998.52 279.741 1160.68 324.512 1272.92 354.159L1288.32 343.395C1180.9 310.366 1021.8 263.467 842.803 212.396C811.79 203.547 781.297 194.886 751.476 186.466L728.462 202.543V202.551Z" fill="url(#paint17_radial_4150_13121)"/>
<path style="mix-blend-mode:color-dodge" d="M684.472 205.941C706.006 218.43 728.116 231.193 750.688 244.162C881.045 319.043 1000.27 385.461 1083.79 430.18L1106.38 422.344C1029.94 375.17 915.192 307.19 784.835 232.317C762.244 219.348 739.998 206.628 718.214 194.233L684.472 205.941Z" fill="url(#paint18_radial_4150_13121)"/>
<path style="mix-blend-mode:color-dodge" d="M567.035 158.183C550.211 172.037 533.042 186.234 515.661 200.714C415.259 284.281 327.643 359.883 270.002 412.113L295.208 418.147C360.771 367.814 453.367 293.405 553.768 209.838C571.168 195.358 588.165 181.118 604.7 167.204L567.035 158.183Z" fill="url(#paint19_radial_4150_13121)"/>
<path d="M36.8008 438.137C79.0995 417.486 121.36 396.825 163.562 376.131C216.147 350.33 268.617 324.485 320.894 298.563L360.04 279.096L399.05 259.578L437.869 239.982C450.809 233.45 463.537 226.833 476.361 220.258C463.364 226.764 450.463 233.313 437.388 239.785L398.089 259.183L358.598 278.513L318.971 297.782C266.06 323.438 212.956 349.025 159.736 374.56C115.515 395.778 71.2166 416.962 26.8799 438.128H36.7816L36.8008 438.137Z" fill="#4E4646"/>
<path d="M104.267 438.137C115.303 431.777 126.32 425.416 137.394 419.073C174.348 397.881 211.513 376.766 249.082 355.797C286.69 334.836 324.47 313.936 363.558 293.516C323.816 313.687 285.363 334.347 247.083 355.067C208.822 375.805 170.983 396.688 133.338 417.648C121.09 424.472 108.881 431.305 96.6724 438.145H104.267V438.137Z" fill="#5547EB"/>
<path d="M180.56 438.137C209.726 417.614 238.951 397.117 268.272 376.638C304.802 351.111 341.544 325.635 378.498 300.237C415.49 274.839 452.636 249.484 490.859 224.455C451.906 249.269 414.048 274.41 376.345 299.602C338.66 324.803 301.207 350.064 263.946 375.384C233.183 396.276 202.516 417.202 171.927 438.137H180.56Z" fill="#4E4646"/>
</g>
<path d="M624 409.084L648 369.584L676 409.084L650 395.584L624 409.084Z" fill="#7B61FF"/>
</g>
<defs>
<linearGradient id="paint0_linear_4150_13121" x1="698.774" y1="308.649" x2="1458.15" y2="308.649" gradientUnits="userSpaceOnUse">
<stop stop-color="#27BF7A"/>
<stop offset="0.05" stop-color="#34C282"/>
<stop offset="0.15" stop-color="#57CD97"/>
<stop offset="0.28" stop-color="#90DEBA"/>
<stop offset="0.44" stop-color="#DEF5EA"/>
<stop offset="0.5" stop-color="white"/>
<stop offset="0.54" stop-color="#E3F7EC"/>
<stop offset="0.63" stop-color="#ABE6C6"/>
<stop offset="0.72" stop-color="#7DD9A7"/>
<stop offset="0.8" stop-color="#59CE8E"/>
<stop offset="0.87" stop-color="#3FC77D"/>
<stop offset="0.94" stop-color="#2FC272"/>
<stop offset="0.99" stop-color="#2AC16F"/>
</linearGradient>
<linearGradient id="paint1_linear_4150_13121" x1="676.568" y1="308.701" x2="1210.32" y2="308.701" gradientUnits="userSpaceOnUse">
<stop stop-color="#27BF7A"/>
<stop offset="0.05" stop-color="#34C282"/>
<stop offset="0.15" stop-color="#57CD97"/>
<stop offset="0.28" stop-color="#90DEBA"/>
<stop offset="0.44" stop-color="#DEF5EA"/>
<stop offset="0.5" stop-color="white"/>
<stop offset="0.51" stop-color="#FCFEFD" stop-opacity="0.99"/>
<stop offset="0.59" stop-color="#C5EED8" stop-opacity="0.73"/>
<stop offset="0.67" stop-color="#96E0B8" stop-opacity="0.51"/>
<stop offset="0.74" stop-color="#6FD59E" stop-opacity="0.33"/>
<stop offset="0.82" stop-color="#51CC89" stop-opacity="0.18"/>
<stop offset="0.89" stop-color="#3BC67A" stop-opacity="0.08"/>
<stop offset="0.95" stop-color="#2EC272" stop-opacity="0.02"/>
<stop offset="0.99" stop-color="#2AC16F" stop-opacity="0"/>
</linearGradient>
<linearGradient id="paint2_linear_4150_13121" x1="489.051" y1="239.674" x2="634.405" y2="522.212" gradientUnits="userSpaceOnUse">
<stop stop-color="#27BF7A"/>
<stop offset="0.05" stop-color="#34C282"/>
<stop offset="0.15" stop-color="#57CD97"/>
<stop offset="0.28" stop-color="#90DEBA"/>
<stop offset="0.44" stop-color="#DEF5EA"/>
<stop offset="0.5" stop-color="white"/>
<stop offset="0.54" stop-color="#E3F7EC"/>
<stop offset="0.63" stop-color="#ABE6C6"/>
<stop offset="0.72" stop-color="#7DD9A7"/>
<stop offset="0.8" stop-color="#59CE8E"/>
<stop offset="0.87" stop-color="#3FC77D"/>
<stop offset="0.94" stop-color="#2FC272"/>
<stop offset="0.99" stop-color="#2AC16F"/>
</linearGradient>
<linearGradient id="paint3_linear_4150_13121" x1="396.262" y1="262.282" x2="463.102" y2="392.187" gradientUnits="userSpaceOnUse">
<stop stop-color="#27BF7A"/>
<stop offset="0.05" stop-color="#34C282"/>
<stop offset="0.15" stop-color="#57CD97"/>
<stop offset="0.28" stop-color="#90DEBA"/>
<stop offset="0.44" stop-color="#DEF5EA"/>
<stop offset="0.5" stop-color="white"/>
<stop offset="0.51" stop-color="#FCFEFD" stop-opacity="0.99"/>
<stop offset="0.59" stop-color="#C5EED8" stop-opacity="0.73"/>
<stop offset="0.67" stop-color="#96E0B8" stop-opacity="0.51"/>
<stop offset="0.74" stop-color="#6FD59E" stop-opacity="0.33"/>
<stop offset="0.82" stop-color="#51CC89" stop-opacity="0.18"/>
<stop offset="0.89" stop-color="#3BC67A" stop-opacity="0.08"/>
<stop offset="0.95" stop-color="#2EC272" stop-opacity="0.02"/>
<stop offset="0.99" stop-color="#2AC16F" stop-opacity="0"/>
</linearGradient>
<linearGradient id="paint4_linear_4150_13121" x1="776.471" y1="315.302" x2="841.281" y2="283.958" gradientUnits="userSpaceOnUse">
<stop stop-color="#1C1100" stop-opacity="0.07"/>
<stop offset="0.55" stop-color="#FFFFF9"/>
<stop offset="0.59" stop-color="#F1F5ED" stop-opacity="0.94"/>
<stop offset="0.67" stop-color="#CDDBCF" stop-opacity="0.8"/>
<stop offset="0.77" stop-color="#93B19E" stop-opacity="0.56"/>
<stop offset="0.9" stop-color="#44795B" stop-opacity="0.24"/>
<stop offset="0.99" stop-color="#094E29" stop-opacity="0"/>
</linearGradient>
<radialGradient id="paint5_radial_4150_13121" cx="0" cy="0" r="1" gradientUnits="userSpaceOnUse" gradientTransform="translate(1030.67 452.917) scale(533.252 238.059)">
<stop stop-color="white"/>
<stop offset="0.07" stop-color="#FFF7D6" stop-opacity="0.83"/>
<stop offset="0.18" stop-color="#FFEDA1" stop-opacity="0.61"/>
<stop offset="0.29" stop-color="#FFE474" stop-opacity="0.43"/>
<stop offset="0.39" stop-color="#FFDD4F" stop-opacity="0.27"/>
<stop offset="0.5" stop-color="#FFD832" stop-opacity="0.15"/>
<stop offset="0.6" stop-color="#FFD41E" stop-opacity="0.07"/>
<stop offset="0.69" stop-color="#FFD112" stop-opacity="0.02"/>
<stop offset="0.78" stop-color="#FFD10E" stop-opacity="0"/>
</radialGradient>
<radialGradient id="paint6_radial_4150_13121" cx="0" cy="0" r="1" gradientUnits="userSpaceOnUse" gradientTransform="translate(1030.67 0.429656) scale(533.252 238.059)">
<stop stop-color="white"/>
<stop offset="0.07" stop-color="#FFF7D6" stop-opacity="0.83"/>
<stop offset="0.18" stop-color="#FFEDA1" stop-opacity="0.61"/>
<stop offset="0.29" stop-color="#FFE474" stop-opacity="0.43"/>
<stop offset="0.39" stop-color="#FFDD4F" stop-opacity="0.27"/>
<stop offset="0.5" stop-color="#FFD832" stop-opacity="0.15"/>
<stop offset="0.6" stop-color="#FFD41E" stop-opacity="0.07"/>
<stop offset="0.69" stop-color="#FFD112" stop-opacity="0.02"/>
<stop offset="0.78" stop-color="#FFD10E" stop-opacity="0"/>
</radialGradient>
<radialGradient id="paint7_radial_4150_13121" cx="0" cy="0" r="1" gradientUnits="userSpaceOnUse" gradientTransform="translate(1030.67 452.918) scale(533.252 238.059)">
<stop stop-color="white"/>
<stop offset="0.07" stop-color="#FFF7D6" stop-opacity="0.83"/>
<stop offset="0.18" stop-color="#FFEDA1" stop-opacity="0.61"/>
<stop offset="0.29" stop-color="#FFE474" stop-opacity="0.43"/>
<stop offset="0.39" stop-color="#FFDD4F" stop-opacity="0.27"/>
<stop offset="0.5" stop-color="#FFD832" stop-opacity="0.15"/>
<stop offset="0.6" stop-color="#FFD41E" stop-opacity="0.07"/>
<stop offset="0.69" stop-color="#FFD112" stop-opacity="0.02"/>
<stop offset="0.78" stop-color="#FFD10E" stop-opacity="0"/>
</radialGradient>
<radialGradient id="paint8_radial_4150_13121" cx="0" cy="0" r="1" gradientUnits="userSpaceOnUse" gradientTransform="translate(1030.67 452.917) scale(533.252 238.059)">
<stop stop-color="white"/>
<stop offset="0.07" stop-color="#FFF7D6" stop-opacity="0.83"/>
<stop offset="0.18" stop-color="#FFEDA1" stop-opacity="0.61"/>
<stop offset="0.29" stop-color="#FFE474" stop-opacity="0.43"/>
<stop offset="0.39" stop-color="#FFDD4F" stop-opacity="0.27"/>
<stop offset="0.5" stop-color="#FFD832" stop-opacity="0.15"/>
<stop offset="0.6" stop-color="#FFD41E" stop-opacity="0.07"/>
<stop offset="0.69" stop-color="#FFD112" stop-opacity="0.02"/>
<stop offset="0.78" stop-color="#FFD10E" stop-opacity="0"/>
</radialGradient>
<radialGradient id="paint9_radial_4150_13121" cx="0" cy="0" r="1" gradientUnits="userSpaceOnUse" gradientTransform="translate(1030.67 452.917) scale(533.252 238.059)">
<stop stop-color="white"/>
<stop offset="0.07" stop-color="#FFF7D6" stop-opacity="0.83"/>
<stop offset="0.18" stop-color="#FFEDA1" stop-opacity="0.61"/>
<stop offset="0.29" stop-color="#FFE474" stop-opacity="0.43"/>
<stop offset="0.39" stop-color="#FFDD4F" stop-opacity="0.27"/>
<stop offset="0.5" stop-color="#FFD832" stop-opacity="0.15"/>
<stop offset="0.6" stop-color="#FFD41E" stop-opacity="0.07"/>
<stop offset="0.69" stop-color="#FFD112" stop-opacity="0.02"/>
<stop offset="0.78" stop-color="#FFD10E" stop-opacity="0"/>
</radialGradient>
<radialGradient id="paint10_radial_4150_13121" cx="0" cy="0" r="1" gradientUnits="userSpaceOnUse" gradientTransform="translate(1030.67 452.917) scale(533.252 238.059)">
<stop stop-color="white"/>
<stop offset="0.07" stop-color="#FFF7D6" stop-opacity="0.83"/>
<stop offset="0.18" stop-color="#FFEDA1" stop-opacity="0.61"/>
<stop offset="0.29" stop-color="#FFE474" stop-opacity="0.43"/>
<stop offset="0.39" stop-color="#FFDD4F" stop-opacity="0.27"/>
<stop offset="0.5" stop-color="#FFD832" stop-opacity="0.15"/>
<stop offset="0.6" stop-color="#FFD41E" stop-opacity="0.07"/>
<stop offset="0.69" stop-color="#FFD112" stop-opacity="0.02"/>
<stop offset="0.78" stop-color="#FFD10E" stop-opacity="0"/>
</radialGradient>
<radialGradient id="paint11_radial_4150_13121" cx="0" cy="0" r="1" gradientUnits="userSpaceOnUse" gradientTransform="translate(1030.67 452.917) scale(533.251 238.059)">
<stop stop-color="white"/>
<stop offset="0.07" stop-color="#FFF7D6" stop-opacity="0.83"/>
<stop offset="0.18" stop-color="#FFEDA1" stop-opacity="0.61"/>
<stop offset="0.29" stop-color="#FFE474" stop-opacity="0.43"/>
<stop offset="0.39" stop-color="#FFDD4F" stop-opacity="0.27"/>
<stop offset="0.5" stop-color="#FFD832" stop-opacity="0.15"/>
<stop offset="0.6" stop-color="#FFD41E" stop-opacity="0.07"/>
<stop offset="0.69" stop-color="#FFD112" stop-opacity="0.02"/>
<stop offset="0.78" stop-color="#FFD10E" stop-opacity="0"/>
</radialGradient>
<radialGradient id="paint12_radial_4150_13121" cx="0" cy="0" r="1" gradientUnits="userSpaceOnUse" gradientTransform="translate(1030.67 452.917) scale(533.252 238.059)">
<stop stop-color="white"/>
<stop offset="0.07" stop-color="#FFF7D6" stop-opacity="0.83"/>
<stop offset="0.18" stop-color="#FFEDA1" stop-opacity="0.61"/>
<stop offset="0.29" stop-color="#FFE474" stop-opacity="0.43"/>
<stop offset="0.39" stop-color="#FFDD4F" stop-opacity="0.27"/>
<stop offset="0.5" stop-color="#FFD832" stop-opacity="0.15"/>
<stop offset="0.6" stop-color="#FFD41E" stop-opacity="0.07"/>
<stop offset="0.69" stop-color="#FFD112" stop-opacity="0.02"/>
<stop offset="0.78" stop-color="#FFD10E" stop-opacity="0"/>
</radialGradient>
<radialGradient id="paint13_radial_4150_13121" cx="0" cy="0" r="1" gradientUnits="userSpaceOnUse" gradientTransform="translate(1030.67 452.917) scale(533.252 238.059)">
<stop stop-color="white"/>
<stop offset="0.07" stop-color="#FFF7D6" stop-opacity="0.83"/>
<stop offset="0.18" stop-color="#FFEDA1" stop-opacity="0.61"/>
<stop offset="0.29" stop-color="#FFE474" stop-opacity="0.43"/>
<stop offset="0.39" stop-color="#FFDD4F" stop-opacity="0.27"/>
<stop offset="0.5" stop-color="#FFD832" stop-opacity="0.15"/>
<stop offset="0.6" stop-color="#FFD41E" stop-opacity="0.07"/>
<stop offset="0.69" stop-color="#FFD112" stop-opacity="0.02"/>
<stop offset="0.78" stop-color="#FFD10E" stop-opacity="0"/>
</radialGradient>
<radialGradient id="paint14_radial_4150_13121" cx="0" cy="0" r="1" gradientUnits="userSpaceOnUse" gradientTransform="translate(1030.67 452.917) scale(533.252 238.059)">
<stop stop-color="white"/>
<stop offset="0.07" stop-color="#FFF7D6" stop-opacity="0.83"/>
<stop offset="0.18" stop-color="#FFEDA1" stop-opacity="0.61"/>
<stop offset="0.29" stop-color="#FFE474" stop-opacity="0.43"/>
<stop offset="0.39" stop-color="#FFDD4F" stop-opacity="0.27"/>
<stop offset="0.5" stop-color="#FFD832" stop-opacity="0.15"/>
<stop offset="0.6" stop-color="#FFD41E" stop-opacity="0.07"/>
<stop offset="0.69" stop-color="#FFD112" stop-opacity="0.02"/>
<stop offset="0.78" stop-color="#FFD10E" stop-opacity="0"/>
</radialGradient>
<radialGradient id="paint15_radial_4150_13121" cx="0" cy="0" r="1" gradientUnits="userSpaceOnUse" gradientTransform="translate(1030.67 452.917) scale(533.252 238.059)">
<stop stop-color="white"/>
<stop offset="0.07" stop-color="#FFF7D6" stop-opacity="0.83"/>
<stop offset="0.18" stop-color="#FFEDA1" stop-opacity="0.61"/>
<stop offset="0.29" stop-color="#FFE474" stop-opacity="0.43"/>
<stop offset="0.39" stop-color="#FFDD4F" stop-opacity="0.27"/>
<stop offset="0.5" stop-color="#FFD832" stop-opacity="0.15"/>
<stop offset="0.6" stop-color="#FFD41E" stop-opacity="0.07"/>
<stop offset="0.69" stop-color="#FFD112" stop-opacity="0.02"/>
<stop offset="0.78" stop-color="#FFD10E" stop-opacity="0"/>
</radialGradient>
<radialGradient id="paint16_radial_4150_13121" cx="0" cy="0" r="1" gradientUnits="userSpaceOnUse" gradientTransform="translate(1030.67 452.917) scale(533.252 238.059)">
<stop stop-color="white"/>
<stop offset="0.07" stop-color="#FFF7D6" stop-opacity="0.83"/>
<stop offset="0.18" stop-color="#FFEDA1" stop-opacity="0.61"/>
<stop offset="0.29" stop-color="#FFE474" stop-opacity="0.43"/>
<stop offset="0.39" stop-color="#FFDD4F" stop-opacity="0.27"/>
<stop offset="0.5" stop-color="#FFD832" stop-opacity="0.15"/>
<stop offset="0.6" stop-color="#FFD41E" stop-opacity="0.07"/>
<stop offset="0.69" stop-color="#FFD112" stop-opacity="0.02"/>
<stop offset="0.78" stop-color="#FFD10E" stop-opacity="0"/>
</radialGradient>
<radialGradient id="paint17_radial_4150_13121" cx="0" cy="0" r="1" gradientUnits="userSpaceOnUse" gradientTransform="translate(1070.84 273.882) rotate(-164.077) scale(343.458 6.24037)">
<stop stop-color="white"/>
<stop offset="0.05" stop-color="#E9E9E9" stop-opacity="0.92"/>
<stop offset="0.2" stop-color="#ACACAC" stop-opacity="0.68"/>
<stop offset="0.35" stop-color="#777777" stop-opacity="0.47"/>
<stop offset="0.5" stop-color="#4C4C4C" stop-opacity="0.3"/>
<stop offset="0.64" stop-color="#2B2B2B" stop-opacity="0.17"/>
<stop offset="0.77" stop-color="#131313" stop-opacity="0.08"/>
<stop offset="0.9" stop-color="#040404" stop-opacity="0.02"/>
<stop offset="1" stop-opacity="0"/>
</radialGradient>
<radialGradient id="paint18_radial_4150_13121" cx="0" cy="0" r="1" gradientUnits="userSpaceOnUse" gradientTransform="translate(960.323 321.941) rotate(-150.123) scale(277.643 7.73493)">
<stop stop-color="white"/>
<stop offset="0.05" stop-color="#E9E9E9" stop-opacity="0.92"/>
<stop offset="0.2" stop-color="#ACACAC" stop-opacity="0.68"/>
<stop offset="0.35" stop-color="#777777" stop-opacity="0.47"/>
<stop offset="0.5" stop-color="#4C4C4C" stop-opacity="0.3"/>
<stop offset="0.64" stop-color="#2B2B2B" stop-opacity="0.17"/>
<stop offset="0.77" stop-color="#131313" stop-opacity="0.08"/>
<stop offset="0.9" stop-color="#040404" stop-opacity="0.02"/>
<stop offset="1" stop-opacity="0"/>
</radialGradient>
<radialGradient id="paint19_radial_4150_13121" cx="0" cy="0" r="1" gradientUnits="userSpaceOnUse" gradientTransform="translate(441.283 316.818) rotate(-39.7685) scale(241.131 8.89441)">
<stop stop-color="white"/>
<stop offset="0.05" stop-color="#E9E9E9" stop-opacity="0.92"/>
<stop offset="0.2" stop-color="#ACACAC" stop-opacity="0.68"/>
<stop offset="0.35" stop-color="#777777" stop-opacity="0.47"/>
<stop offset="0.5" stop-color="#4C4C4C" stop-opacity="0.3"/>
<stop offset="0.64" stop-color="#2B2B2B" stop-opacity="0.17"/>
<stop offset="0.77" stop-color="#131313" stop-opacity="0.08"/>
<stop offset="0.9" stop-color="#040404" stop-opacity="0.02"/>
<stop offset="1" stop-opacity="0"/>
</radialGradient>
</defs>
</svg>
