<svg width="16" height="16" viewBox="0 0 16 16" fill="none" xmlns="http://www.w3.org/2000/svg">
<path opacity="0.4" d="M5.92018 3.06673C5.38685 0.760063 1.91351 0.753396 1.38018 3.06673C1.06685 4.42006 1.92685 5.56673 2.67351 6.28006C3.22018 6.7934 4.08018 6.7934 4.62685 6.28006C5.37351 5.56673 6.22685 4.42006 5.92018 3.06673ZM3.67351 4.1334C3.30685 4.1334 3.00685 3.8334 3.00685 3.46673C3.00685 3.10006 3.30018 2.80006 3.66685 2.80006H3.67351C4.04685 2.80006 4.34018 3.10006 4.34018 3.46673C4.34018 3.8334 4.04685 4.1334 3.67351 4.1334Z" fill="#BABABA"/>
<path d="M4.34017 3.46672C4.34017 3.83338 4.04684 4.13338 3.6735 4.13338C3.30684 4.13338 3.00684 3.83338 3.00684 3.46672C3.00684 3.10005 3.30017 2.80005 3.66684 2.80005H3.6735C4.04684 2.80005 4.34017 3.10005 4.34017 3.46672Z" fill="#E8E8E8"/>
<path opacity="0.4" d="M14.6067 11.0667C14.0733 8.76006 10.5867 8.7534 10.0467 11.0667C9.73333 12.4201 10.5933 13.5667 11.3467 14.2801C11.8933 14.7934 12.76 14.7934 13.3067 14.2801C14.06 13.5667 14.92 12.4201 14.6067 11.0667ZM12.3533 12.1334C11.9867 12.1334 11.6867 11.8334 11.6867 11.4667C11.6867 11.1001 11.98 10.8001 12.3467 10.8001H12.3533C12.72 10.8001 13.02 11.1001 13.02 11.4667C13.02 11.8334 12.72 12.1334 12.3533 12.1334Z" fill="#E8E8E8"/>
<path d="M13.0199 11.4667C13.0199 11.8334 12.7199 12.1334 12.3532 12.1334C11.9865 12.1334 11.6865 11.8334 11.6865 11.4667C11.6865 11.1 11.9799 10.8 12.3465 10.8H12.3532C12.7199 10.8 13.0199 11.1 13.0199 11.4667Z" fill="#E8E8E8"/>
<path d="M8.00012 13.1666H6.21346C5.44012 13.1666 4.76679 12.6999 4.50012 11.9799C4.22679 11.2599 4.42679 10.4666 5.00679 9.95325L10.3335 5.29325C10.6535 5.01325 10.6601 4.63325 10.5668 4.37325C10.4668 4.11325 10.2135 3.83325 9.78679 3.83325H8.00012C7.72679 3.83325 7.50012 3.60659 7.50012 3.33325C7.50012 3.05992 7.72679 2.83325 8.00012 2.83325H9.78679C10.5601 2.83325 11.2335 3.29992 11.5001 4.01992C11.7735 4.73992 11.5735 5.53325 10.9935 6.04659L5.66679 10.7066C5.34679 10.9866 5.34012 11.3666 5.43346 11.6266C5.53346 11.8866 5.78679 12.1666 6.21346 12.1666H8.00012C8.27346 12.1666 8.50012 12.3933 8.50012 12.6666C8.50012 12.9399 8.27346 13.1666 8.00012 13.1666Z" fill="#E8E8E8"/>
</svg>
