<svg width="16" height="16" viewBox="0 0 16 16" fill="none" xmlns="http://www.w3.org/2000/svg">
<g clip-path="url(#clip0_2284_2428)">
<path d="M5.92006 3.06673C5.38672 0.760063 1.91339 0.753396 1.38006 3.06673C1.06672 4.42006 1.92672 5.56673 2.67339 6.28006C3.22006 6.7934 4.08006 6.7934 4.62672 6.28006C5.37339 5.56673 6.22672 4.42006 5.92006 3.06673ZM3.67339 4.1334C3.30672 4.1334 3.00672 3.8334 3.00672 3.46673C3.00672 3.10006 3.30006 2.80006 3.66672 2.80006H3.67339C4.04672 2.80006 4.34006 3.10006 4.34006 3.46673C4.34006 3.8334 4.04672 4.1334 3.67339 4.1334Z" fill="#F7F9FF"/>
<path d="M14.6067 11.0667C14.0733 8.76006 10.5867 8.7534 10.0467 11.0667C9.73333 12.4201 10.5933 13.5667 11.3467 14.2801C11.8933 14.7934 12.76 14.7934 13.3067 14.2801C14.06 13.5667 14.92 12.4201 14.6067 11.0667ZM12.3533 12.1334C11.9867 12.1334 11.6867 11.8334 11.6867 11.4667C11.6867 11.1001 11.98 10.8001 12.3467 10.8001H12.3533C12.72 10.8001 13.02 11.1001 13.02 11.4667C13.02 11.8334 12.72 12.1334 12.3533 12.1334Z" fill="#F7F9FF"/>
<path d="M8 13.1666H6.21333C5.44 13.1666 4.76667 12.6999 4.5 11.9799C4.22667 11.2599 4.42667 10.4666 5.00667 9.95325L10.3333 5.29325C10.6533 5.01325 10.66 4.63325 10.5667 4.37325C10.4667 4.11325 10.2133 3.83325 9.78667 3.83325H8C7.72667 3.83325 7.5 3.60659 7.5 3.33325C7.5 3.05992 7.72667 2.83325 8 2.83325H9.78667C10.56 2.83325 11.2333 3.29992 11.5 4.01992C11.7733 4.73992 11.5733 5.53325 10.9933 6.04659L5.66667 10.7066C5.34667 10.9866 5.34 11.3666 5.43333 11.6266C5.53333 11.8866 5.78667 12.1666 6.21333 12.1666H8C8.27333 12.1666 8.5 12.3933 8.5 12.6666C8.5 12.9399 8.27333 13.1666 8 13.1666Z" fill="#F7F9FF"/>
</g>
<defs>
<clipPath id="clip0_2284_2428">
<rect width="16" height="16" fill="white"/>
</clipPath>
</defs>
</svg>
