<svg width="20" height="20" viewBox="0 0 20 20" fill="none" xmlns="http://www.w3.org/2000/svg">
<path d="M9.58317 17.5001C13.9554 17.5001 17.4998 13.9557 17.4998 9.58341C17.4998 5.21116 13.9554 1.66675 9.58317 1.66675C5.21092 1.66675 1.6665 5.21116 1.6665 9.58341C1.6665 13.9557 5.21092 17.5001 9.58317 17.5001Z" fill="#BABABA"/>
<path d="M17.7501 18.3332C17.6001 18.3332 17.4501 18.2749 17.3418 18.1666L15.7918 16.6166C15.5668 16.3916 15.5668 16.0249 15.7918 15.7916C16.0168 15.5666 16.3835 15.5666 16.6168 15.7916L18.1668 17.3416C18.3918 17.5666 18.3918 17.9332 18.1668 18.1666C18.0501 18.2749 17.9001 18.3332 17.7501 18.3332Z" fill="#BABABA"/>
</svg>
