<svg width="16" height="16" viewBox="0 0 16 16" fill="none" xmlns="http://www.w3.org/2000/svg">
<path d="M14.0467 3.48665C12.9733 3.37998 11.9 3.29998 10.82 3.23998V3.23331L10.6733 2.36665C10.5733 1.75331 10.4267 0.833313 8.86667 0.833313H7.12C5.56667 0.833313 5.42 1.71331 5.31334 2.35998L5.17334 3.21331C4.55334 3.25331 3.93334 3.29331 3.31334 3.35331L1.95334 3.48665C1.67334 3.51331 1.47334 3.75998 1.5 4.03331C1.52667 4.30665 1.76667 4.50665 2.04667 4.47998L3.40667 4.34665C6.9 3.99998 10.42 4.13331 13.9533 4.48665C13.9733 4.48665 13.9867 4.48665 14.0067 4.48665C14.26 4.48665 14.48 4.29331 14.5067 4.03331C14.5267 3.75998 14.3267 3.51331 14.0467 3.48665Z" fill="#F24F63"/>
<path d="M12.82 5.42669C12.66 5.26002 12.44 5.16669 12.2133 5.16669H3.78664C3.55998 5.16669 3.33331 5.26002 3.17998 5.42669C3.02664 5.59335 2.93998 5.82002 2.95331 6.05335L3.36664 12.8934C3.43998 13.9067 3.53331 15.1734 5.85998 15.1734H10.14C12.4666 15.1734 12.56 13.9134 12.6333 12.8934L13.0466 6.06002C13.06 5.82002 12.9733 5.59335 12.82 5.42669ZM9.10664 11.8334H6.88664C6.61331 11.8334 6.38664 11.6067 6.38664 11.3334C6.38664 11.06 6.61331 10.8334 6.88664 10.8334H9.10664C9.37998 10.8334 9.60664 11.06 9.60664 11.3334C9.60664 11.6067 9.37998 11.8334 9.10664 11.8334ZM9.66664 9.16669H6.33331C6.05998 9.16669 5.83331 8.94002 5.83331 8.66669C5.83331 8.39335 6.05998 8.16669 6.33331 8.16669H9.66664C9.93998 8.16669 10.1666 8.39335 10.1666 8.66669C10.1666 8.94002 9.93998 9.16669 9.66664 9.16669Z" fill="#F24F63"/>
</svg>
