
<svg width="112" height="144" viewBox="0 0 112 144" fill="none" xmlns="http://www.w3.org/2000/svg">
<mask id="mask0_3222_270" style="mask-type:luminance" maskUnits="userSpaceOnUse" x="0" y="-3" width="170" height="171">
<path d="M170 -2.96106H1.52588e-05V167.039H170V-2.96106Z" fill="white"/>
</mask>
<g mask="url(#mask0_3222_270)">
<path fill-rule="evenodd" clip-rule="evenodd" d="M91.0716 -2.96106H78.9286V50.8041L58.7878 0.953888L47.5291 5.50269L68.1917 56.6443L29.1891 17.6417L20.6028 26.228L57.9851 63.6102L9.5405 42.4443L4.67892 53.5715L55.9389 75.9675H1.52588e-05V88.1105H55.9389L4.67893 110.506L9.5405 121.634L57.985 100.468L20.6028 137.85L29.1891 146.436L68.1917 107.434L47.5291 158.576L58.7878 163.124L78.9286 113.274V167.039H91.0716V113.274L111.212 163.124L122.471 158.576L101.809 107.434L140.811 146.436L149.397 137.85L112.015 100.468L160.46 121.634L165.321 110.506L114.062 88.1105H170V75.9675H114.061L165.321 53.5715L160.46 42.4443L112.015 63.6102L149.397 26.2279L140.811 17.6417L101.809 56.6442L122.471 5.50269L111.212 0.953888L91.0716 50.8041V-2.96106Z" fill="url(#paint0_linear_3222_270)"/>
</g>
<defs>
<linearGradient id="paint0_linear_3222_270" x1="11.9" y1="19.1389" x2="152.15" y2="149.614" gradientUnits="userSpaceOnUse">
<stop stop-color="#E9B8FF"/>
<stop offset="1" stop-color="#F9ECFF"/>
</linearGradient>
</defs>
</svg>
