<svg width="25" height="24" viewBox="0 0 25 24" fill="none" xmlns="http://www.w3.org/2000/svg">
<path opacity="0.4" d="M21.55 11.71V17.7C21.55 20.46 19.31 22.7 16.55 22.7H7.81006C7.58006 22.7 7.35007 22.68 7.13007 22.65C7.50007 22.49 7.83007 22.27 8.13007 22C8.17007 21.97 8.20004 21.94 8.23004 21.9C8.50004 21.67 8.73004 21.38 8.92004 21.06C9.29004 20.46 9.50006 19.75 9.50006 19C9.50006 17.95 9.09005 17 8.43005 16.28C8.33005 16.17 8.22004 16.06 8.10004 15.97C7.40004 15.36 6.50006 15 5.50006 15C4.79006 15 4.12004 15.19 3.54004 15.52C3.35004 15.62 3.17006 15.74 3.00006 15.88C2.93006 15.93 2.87006 15.99 2.81006 16.05V11.78C3.57006 12.6 4.65007 13.07 5.82007 13.07C7.08007 13.07 8.29005 12.44 9.05005 11.43C9.73005 12.44 10.8901 13.07 12.1801 13.07C13.4601 13.07 14.6 12.47 15.29 11.47C16.06 12.46 17.2501 13.07 18.4901 13.07C19.7001 13.07 20.8 12.58 21.55 11.71Z" fill="white"/>
<path d="M15.17 1.57001H9.17002L8.43003 8.92999C8.37003 9.60999 8.47001 10.25 8.72001 10.83C9.30001 12.19 10.66 13.07 12.18 13.07C13.72 13.07 15.0501 12.21 15.6501 10.84C15.8301 10.41 15.94 9.91002 15.95 9.40002V9.21002L15.17 1.57001Z" fill="white"/>
<path opacity="0.6" d="M22.5399 8.59003L22.2599 5.81C21.8399 2.79 20.4699 1.56 17.5399 1.56H13.7L14.4399 9.06C14.4499 9.16 14.46 9.27002 14.46 9.46002C14.52 9.98002 14.6799 10.46 14.9199 10.89C15.6399 12.21 17.0399 13.06 18.4999 13.06C19.8299 13.06 21.03 12.47 21.78 11.43C22.37 10.64 22.6399 9.63003 22.5399 8.59003Z" fill="white"/>
<path opacity="0.6" d="M6.77007 1.57001C3.83007 1.57001 2.47003 2.79998 2.04003 5.84998L1.77007 8.59998C1.67007 9.66998 1.96008 10.71 2.59008 11.52C3.35008 12.51 4.52006 13.07 5.82006 13.07C7.28006 13.07 8.68006 12.22 9.39006 10.92C9.65006 10.47 9.82004 9.94997 9.87004 9.40997L10.6501 1.58002H6.77007V1.57001Z" fill="white"/>
<path d="M8.42999 16.28C8.32999 16.17 8.21998 16.06 8.09998 15.97C7.39998 15.36 6.5 15 5.5 15C4.79 15 4.11998 15.19 3.53998 15.52C3.34998 15.62 3.17 15.74 3 15.88C2.08 16.61 1.5 17.74 1.5 19C1.5 19.75 1.71002 20.46 2.08002 21.06C2.17002 21.22 2.28002 21.37 2.40002 21.51C2.42002 21.54 2.44997 21.56 2.46997 21.59C3.18997 22.45 4.28 23 5.5 23C6.51 23 7.43001 22.63 8.13 22C8.17 21.97 8.19998 21.94 8.22998 21.9C8.49998 21.67 8.72998 21.38 8.91998 21.06C9.28998 20.46 9.5 19.75 9.5 19C9.5 17.95 9.08999 17 8.42999 16.28ZM7 19.73H6.25V20.51C6.25 20.92 5.91 21.26 5.5 21.26C5.09 21.26 4.75 20.92 4.75 20.51V19.73H4C3.59 19.73 3.25 19.39 3.25 18.98C3.25 18.57 3.59 18.23 4 18.23H4.75V17.52C4.75 17.11 5.09 16.77 5.5 16.77C5.91 16.77 6.25 17.11 6.25 17.52V18.23H7C7.41 18.23 7.75 18.57 7.75 18.98C7.75 19.39 7.41 19.73 7 19.73Z" fill="white"/>
</svg>
