<svg width="25" height="25" viewBox="0 0 25 25" fill="none" xmlns="http://www.w3.org/2000/svg">
<path d="M21.2368 5.73C19.6268 5.57 18.0168 5.45 16.3968 5.36V5.35L16.1768 4.05C16.0268 3.13 15.8068 1.75 13.4668 1.75H10.8468C8.51675 1.75 8.29675 3.07 8.13675 4.04L7.92675 5.32C6.99675 5.38 6.06675 5.44 5.13675 5.53L3.09675 5.73C2.67675 5.77 2.37675 6.14 2.41675 6.55C2.45675 6.96 2.81675 7.26 3.23675 7.22L5.27675 7.02C10.5168 6.5 15.7968 6.7 21.0968 7.23C21.1268 7.23 21.1468 7.23 21.1768 7.23C21.5568 7.23 21.8868 6.94 21.9268 6.55C21.9568 6.14 21.6568 5.77 21.2368 5.73Z" fill="white"/>
<path opacity="0.3991" d="M19.3967 8.64C19.1567 8.39 18.8267 8.25 18.4867 8.25H5.84674C5.50674 8.25 5.16674 8.39 4.93674 8.64C4.70674 8.89 4.57674 9.23 4.59674 9.58L5.21674 19.84C5.32674 21.36 5.46674 23.26 8.95674 23.26H15.3767C18.8667 23.26 19.0067 21.37 19.1167 19.84L19.7367 9.59C19.7567 9.23 19.6267 8.89 19.3967 8.64Z" fill="white"/>
<path fill-rule="evenodd" clip-rule="evenodd" d="M9.74673 17.5C9.74673 17.0858 10.0825 16.75 10.4967 16.75H13.8267C14.2409 16.75 14.5767 17.0858 14.5767 17.5C14.5767 17.9142 14.2409 18.25 13.8267 18.25H10.4967C10.0825 18.25 9.74673 17.9142 9.74673 17.5Z" fill="white"/>
<path fill-rule="evenodd" clip-rule="evenodd" d="M8.91675 13.5C8.91675 13.0858 9.25253 12.75 9.66675 12.75H14.6667C15.081 12.75 15.4167 13.0858 15.4167 13.5C15.4167 13.9142 15.081 14.25 14.6667 14.25H9.66675C9.25253 14.25 8.91675 13.9142 8.91675 13.5Z" fill="white"/>
</svg>
