<svg width="16" height="17" viewBox="0 0 16 17" fill="none" xmlns="http://www.w3.org/2000/svg">
<path opacity="0.4" d="M7.99992 15.1668C11.6818 15.1668 14.6666 12.1821 14.6666 8.50016C14.6666 4.81826 11.6818 1.8335 7.99992 1.8335C4.31802 1.8335 1.33325 4.81826 1.33325 8.50016C1.33325 12.1821 4.31802 15.1668 7.99992 15.1668Z" fill="white"/>
<path d="M8 9.66683C8.27333 9.66683 8.5 9.44016 8.5 9.16683V5.8335C8.5 5.56016 8.27333 5.3335 8 5.3335C7.72667 5.3335 7.5 5.56016 7.5 5.8335V9.16683C7.5 9.44016 7.72667 9.66683 8 9.66683Z" fill="white"/>
<path d="M8.61325 10.9134C8.57992 10.8334 8.53325 10.7601 8.47325 10.6934C8.40659 10.6334 8.33325 10.5868 8.25325 10.5534C8.09325 10.4868 7.90659 10.4868 7.74659 10.5534C7.66659 10.5868 7.59325 10.6334 7.52659 10.6934C7.46659 10.7601 7.41992 10.8334 7.38659 10.9134C7.35325 10.9934 7.33325 11.0801 7.33325 11.1668C7.33325 11.2534 7.35325 11.3401 7.38659 11.4201C7.41992 11.5068 7.46659 11.5734 7.52659 11.6401C7.59325 11.7001 7.66659 11.7468 7.74659 11.7801C7.82659 11.8134 7.91325 11.8334 7.99992 11.8334C8.08659 11.8334 8.17325 11.8134 8.25325 11.7801C8.33325 11.7468 8.40659 11.7001 8.47325 11.6401C8.53325 11.5734 8.57992 11.5068 8.61325 11.4201C8.64659 11.3401 8.66659 11.2534 8.66659 11.1668C8.66659 11.0801 8.64659 10.9934 8.61325 10.9134Z" fill="white"/>
</svg>
