<svg width="25" height="25" viewBox="0 0 25 25" fill="none" xmlns="http://www.w3.org/2000/svg">
<path d="M17.5833 3.72668V2.16669C17.5833 1.75669 17.2433 1.41669 16.8333 1.41669C16.4233 1.41669 16.0833 1.75669 16.0833 2.16669V3.66669H9.5833V2.16669C9.5833 1.75669 9.2433 1.41669 8.8333 1.41669C8.4233 1.41669 8.0833 1.75669 8.0833 2.16669V3.72668C5.3833 3.97668 4.0733 5.58668 3.8733 7.97668C3.8533 8.26668 4.0933 8.50668 4.3733 8.50668H21.2933C21.5833 8.50668 21.8233 8.25668 21.7933 7.97668C21.5933 5.58668 20.2833 3.97668 17.5833 3.72668Z" fill="white"/>
<path opacity="0.4" d="M20.8333 10.0067C21.3833 10.0067 21.8333 10.4567 21.8333 11.0067V17.1667C21.8333 20.1667 20.3333 22.1667 16.8333 22.1667H8.83331C5.33331 22.1667 3.83331 20.1667 3.83331 17.1667V11.0067C3.83331 10.4567 4.28331 10.0067 4.83331 10.0067H20.8333Z" fill="white"/>
<path d="M9.33331 15.1667C9.07331 15.1667 8.81331 15.0567 8.62331 14.8767C8.44331 14.6867 8.33331 14.4267 8.33331 14.1667C8.33331 13.9067 8.44331 13.6467 8.62331 13.4567C8.90331 13.1767 9.34331 13.0867 9.71331 13.2467C9.84331 13.2967 9.95331 13.3667 10.0433 13.4567C10.2233 13.6467 10.3333 13.9067 10.3333 14.1667C10.3333 14.4267 10.2233 14.6867 10.0433 14.8767C9.85331 15.0567 9.59331 15.1667 9.33331 15.1667Z" fill="white"/>
<path d="M12.8333 15.1667C12.5733 15.1667 12.3133 15.0567 12.1233 14.8767C11.9433 14.6867 11.8333 14.4267 11.8333 14.1667C11.8333 13.9067 11.9433 13.6467 12.1233 13.4567C12.2133 13.3667 12.3233 13.2967 12.4533 13.2467C12.8233 13.0867 13.2633 13.1767 13.5433 13.4567C13.7233 13.6467 13.8333 13.9067 13.8333 14.1667C13.8333 14.4267 13.7233 14.6867 13.5433 14.8767C13.4933 14.9167 13.4433 14.9567 13.3933 14.9967C13.3333 15.0367 13.2733 15.0667 13.2133 15.0867C13.1533 15.1167 13.0933 15.1367 13.0333 15.1467C12.9633 15.1567 12.9033 15.1667 12.8333 15.1667Z" fill="white"/>
<path d="M16.3333 15.1667C16.0733 15.1667 15.8133 15.0567 15.6233 14.8767C15.4433 14.6867 15.3333 14.4267 15.3333 14.1667C15.3333 13.9067 15.4433 13.6467 15.6233 13.4567C15.7233 13.3667 15.8233 13.2967 15.9533 13.2467C16.1333 13.1667 16.3333 13.1467 16.5333 13.1867C16.5933 13.1967 16.6533 13.2167 16.7133 13.2467C16.7733 13.2667 16.8333 13.2967 16.8933 13.3367C16.9433 13.3767 16.9933 13.4167 17.0433 13.4567C17.2233 13.6467 17.3333 13.9067 17.3333 14.1667C17.3333 14.4267 17.2233 14.6867 17.0433 14.8767C16.9933 14.9167 16.9433 14.9567 16.8933 14.9967C16.8333 15.0367 16.7733 15.0667 16.7133 15.0867C16.6533 15.1167 16.5933 15.1367 16.5333 15.1467C16.4633 15.1567 16.3933 15.1667 16.3333 15.1667Z" fill="white"/>
<path d="M9.33331 18.6667C9.20331 18.6667 9.07331 18.6367 8.95331 18.5867C8.82331 18.5367 8.72331 18.4667 8.62331 18.3767C8.44331 18.1867 8.33331 17.9267 8.33331 17.6667C8.33331 17.4067 8.44331 17.1467 8.62331 16.9567C8.72331 16.8667 8.82331 16.7967 8.95331 16.7467C9.13331 16.6667 9.33331 16.6467 9.53331 16.6867C9.59331 16.6967 9.65331 16.7167 9.71331 16.7467C9.77331 16.7667 9.83331 16.7967 9.89331 16.8367C9.94331 16.8767 9.99331 16.9167 10.0433 16.9567C10.2233 17.1467 10.3333 17.4067 10.3333 17.6667C10.3333 17.9267 10.2233 18.1867 10.0433 18.3767C9.99331 18.4167 9.94331 18.4667 9.89331 18.4967C9.83331 18.5367 9.77331 18.5667 9.71331 18.5867C9.65331 18.6167 9.59331 18.6367 9.53331 18.6467C9.46331 18.6567 9.40331 18.6667 9.33331 18.6667Z" fill="white"/>
<path d="M12.8333 18.6667C12.5733 18.6667 12.3133 18.5567 12.1233 18.3767C11.9433 18.1867 11.8333 17.9267 11.8333 17.6667C11.8333 17.4067 11.9433 17.1467 12.1233 16.9567C12.4933 16.5867 13.1733 16.5867 13.5433 16.9567C13.7233 17.1467 13.8333 17.4067 13.8333 17.6667C13.8333 17.9267 13.7233 18.1867 13.5433 18.3767C13.3533 18.5567 13.0933 18.6667 12.8333 18.6667Z" fill="white"/>
<path d="M16.3333 18.6667C16.0733 18.6667 15.8133 18.5567 15.6233 18.3767C15.4433 18.1867 15.3333 17.9267 15.3333 17.6667C15.3333 17.4067 15.4433 17.1467 15.6233 16.9567C15.9933 16.5867 16.6733 16.5867 17.0433 16.9567C17.2233 17.1467 17.3333 17.4067 17.3333 17.6667C17.3333 17.9267 17.2233 18.1867 17.0433 18.3767C16.8533 18.5567 16.5933 18.6667 16.3333 18.6667Z" fill="white"/>
</svg>
