<svg width="25" height="25" viewBox="0 0 25 25" fill="none" xmlns="http://www.w3.org/2000/svg">
<path opacity="0.4" d="M15.6467 3.5H7.68675C4.23675 3.5 2.16675 5.56 2.16675 9.02V16.97C2.16675 20.44 4.23675 22.5 7.68675 22.5H15.6367C19.0967 22.5 21.1567 20.44 21.1567 16.98V9.02C21.1667 5.56 19.0967 3.5 15.6467 3.5Z" fill="white"/>
<path d="M21.1868 3.48C19.3968 1.68 17.6468 1.64 15.8068 3.48L14.6768 4.6C14.5768 4.7 14.5468 4.84 14.5868 4.97C15.2868 7.42 17.2468 9.38 19.6968 10.08C19.7268 10.09 19.7768 10.09 19.8068 10.09C19.9068 10.09 20.0068 10.05 20.0768 9.98L21.1868 8.86C22.0968 7.95 22.5468 7.08 22.5468 6.19C22.5468 5.29 22.0968 4.4 21.1868 3.48Z" fill="white"/>
<path d="M18.0268 10.92C17.7568 10.79 17.4968 10.66 17.2568 10.51C17.0568 10.39 16.8568 10.26 16.6668 10.12C16.5068 10.02 16.3268 9.87 16.1468 9.72C16.1268 9.71 16.0668 9.66 15.9868 9.58C15.6768 9.33 15.3468 8.99 15.0368 8.62C15.0168 8.6 14.9568 8.54 14.9068 8.45C14.8068 8.34 14.6568 8.15 14.5268 7.94C14.4168 7.8 14.2868 7.6 14.1668 7.39C14.0168 7.14 13.8868 6.89 13.7668 6.63C13.6368 6.35 13.5368 6.09 13.4468 5.84L8.06676 11.22C7.71676 11.57 7.37676 12.23 7.30676 12.72L6.87676 15.7C6.78676 16.33 6.95676 16.92 7.34676 17.31C7.67676 17.64 8.12676 17.81 8.62676 17.81C8.73676 17.81 8.84676 17.8 8.95676 17.79L11.9268 17.37C12.4168 17.3 13.0768 16.97 13.4268 16.61L18.8068 11.23C18.5568 11.15 18.3068 11.04 18.0268 10.92Z" fill="white"/>
</svg>
