<svg width="24" height="24" viewBox="0 0 24 24" fill="none" xmlns="http://www.w3.org/2000/svg">
<path d="M13.2563 7.63126L14.4281 7.33126C14.4423 7.32796 14.4571 7.32839 14.4711 7.3325C14.485 7.3366 14.4977 7.34425 14.5078 7.3547L15.3656 8.19845C15.3787 8.211 15.3955 8.21899 15.4136 8.22124C15.4316 8.22349 15.4498 8.21987 15.4656 8.21092C15.4814 8.20198 15.4939 8.18818 15.5012 8.17158C15.5085 8.15498 15.5103 8.13645 15.5063 8.11876L15.2063 6.94689C15.203 6.93271 15.2034 6.91792 15.2075 6.90396C15.2116 6.89 15.2193 6.87733 15.2297 6.8672L16.0735 6.0047C16.0869 5.99142 16.0955 5.97399 16.0979 5.95522C16.1003 5.93646 16.0963 5.91743 16.0866 5.90121C16.0768 5.88499 16.0619 5.87251 16.0442 5.86577C16.0266 5.85904 16.0071 5.85844 15.9891 5.86408L14.8219 6.16876C14.8077 6.17206 14.7929 6.17164 14.779 6.16753C14.765 6.16342 14.7523 6.15577 14.7422 6.14533L13.8797 5.30158C13.8666 5.28902 13.8498 5.28103 13.8318 5.27879C13.8138 5.27654 13.7955 5.28016 13.7797 5.2891C13.764 5.29805 13.7515 5.31185 13.7441 5.32845C13.7368 5.34505 13.735 5.36357 13.7391 5.38126L14.0438 6.55314C14.0471 6.56731 14.0466 6.5821 14.0425 6.59607C14.0384 6.61003 14.0308 6.62269 14.0203 6.63283L13.1766 7.49064C13.164 7.50374 13.156 7.52055 13.1538 7.53855C13.1515 7.55656 13.1552 7.57481 13.1641 7.5906C13.1731 7.60638 13.1868 7.61887 13.2034 7.62619C13.2201 7.63352 13.2386 7.6353 13.2563 7.63126Z" fill="#F8AF18" stroke="#FCD34D" strokeWidth="0.09375" strokeLinecap="round" strokeLinejoin="round"/>
<path d="M13.3781 9.06565L13.9406 9.64221C13.9471 9.64896 13.9517 9.65721 13.9542 9.66621C13.9566 9.67521 13.9568 9.68468 13.9547 9.69377L13.7531 10.4719C13.7494 10.4839 13.7498 10.4969 13.7543 10.5087C13.7587 10.5205 13.7671 10.5304 13.7779 10.5369C13.7887 10.5434 13.8014 10.546 13.8139 10.5445C13.8264 10.5429 13.838 10.5371 13.8469 10.5281L14.4234 9.96565C14.4302 9.95921 14.4384 9.95455 14.4474 9.9521C14.4564 9.94964 14.4659 9.94947 14.475 9.95158L15.2531 10.1531C15.2652 10.1569 15.2781 10.1565 15.2899 10.152C15.3017 10.1475 15.3116 10.1392 15.3181 10.1284C15.3246 10.1176 15.3273 10.1049 15.3257 10.0924C15.3241 10.0799 15.3184 10.0683 15.3094 10.0594L14.7469 9.48283C14.7404 9.47608 14.7358 9.46783 14.7333 9.45883C14.7309 9.44983 14.7307 9.44036 14.7328 9.43127L14.9344 8.65315C14.9381 8.64111 14.9377 8.62815 14.9332 8.61637C14.9288 8.60458 14.9204 8.59464 14.9096 8.58816C14.8988 8.58167 14.8861 8.579 14.8736 8.58059C14.8611 8.58217 14.8495 8.58791 14.8406 8.5969L14.2641 9.1594C14.2573 9.16583 14.2491 9.17049 14.2401 9.17294C14.2311 9.1754 14.2216 9.17557 14.2125 9.17346L13.4297 8.9719C13.418 8.96967 13.4059 8.97119 13.3952 8.97625C13.3844 8.9813 13.3756 8.98963 13.3698 9.00004C13.3641 9.01045 13.3618 9.0224 13.3633 9.03419C13.3648 9.04597 13.37 9.05698 13.3781 9.06565Z" fill="#F8AF18" stroke="#FCD34D" strokeWidth="0.09375" strokeLinecap="round" strokeLinejoin="round"/>
<path d="M15.8109 10.4859L16.9734 10.814C16.9876 10.8174 17.0006 10.8243 17.0113 10.8342C17.022 10.844 17.0299 10.8565 17.0344 10.8703L17.3578 12.0328C17.3636 12.0493 17.3743 12.0637 17.3886 12.0738C17.4029 12.084 17.42 12.0894 17.4375 12.0894C17.455 12.0894 17.4721 12.084 17.4864 12.0738C17.5007 12.0637 17.5114 12.0493 17.5172 12.0328L17.8453 10.8703C17.8487 10.8561 17.8556 10.8431 17.8654 10.8324C17.8753 10.8218 17.8877 10.8138 17.9016 10.8094L19.0641 10.4859C19.0806 10.4802 19.095 10.4694 19.1051 10.4551C19.1153 10.4408 19.1207 10.4237 19.1207 10.4062C19.1207 10.3887 19.1153 10.3716 19.1051 10.3573C19.095 10.3431 19.0806 10.3323 19.0641 10.3265L17.9016 9.99842C17.8874 9.99508 17.8744 9.98815 17.8637 9.97829C17.853 9.96844 17.8451 9.95599 17.8406 9.94217L17.5172 8.77967C17.5114 8.76312 17.5007 8.74878 17.4864 8.73863C17.4721 8.72848 17.455 8.72302 17.4375 8.72302C17.42 8.72302 17.4029 8.72848 17.3886 8.73863C17.3743 8.74878 17.3636 8.76312 17.3578 8.77967L17.0297 9.94217C17.0264 9.95631 17.0194 9.96935 17.0096 9.98002C16.9997 9.9907 16.9873 9.99865 16.9734 10.0031L15.8109 10.3265C15.7944 10.3323 15.7801 10.3431 15.7699 10.3573C15.7598 10.3716 15.7543 10.3887 15.7543 10.4062C15.7543 10.4237 15.7598 10.4408 15.7699 10.4551C15.7801 10.4694 15.7944 10.4802 15.8109 10.4859Z" fill="url(#paint0_linear_415_1149)" stroke="#FCD34D" strokeWidth="0.09375" strokeLinecap="round" strokeLinejoin="round"/>
<g clip-path="url(#clip0_415_1149)">
<path d="M17.4984 13.575C15.8408 13.5862 14.2465 12.9388 13.0661 11.775C11.8856 10.6113 11.2155 9.02638 11.2031 7.36875C11.2063 6.84309 11.2772 6.32003 11.4141 5.8125C9.88385 5.96861 8.46537 6.68488 7.43134 7.82361C6.39732 8.96234 5.82075 10.4431 5.8125 11.9813C5.8125 15.4078 8.625 18.1875 12.1031 18.1875C15.0328 18.1875 17.4844 16.2094 18.1875 13.5375C17.9571 13.5626 17.7255 13.5752 17.4937 13.575H17.4984Z" fill="url(#paint1_linear_415_1149)" stroke="#72B9D5" strokeWidth="0.28125" strokeLinecap="round" strokeLinejoin="round"/>
</g>
<defs>
<linearGradient id="paint0_linear_415_1149" x1="16.7016" y1="9.13123" x2="18.1734" y2="11.6812" gradientUnits="userSpaceOnUse">
<stop stop-color="#FCD966"/>
<stop offset="0.5" stop-color="#FCD966"/>
<stop offset="1" stop-color="#FCCD34"/>
</linearGradient>
<linearGradient id="paint1_linear_415_1149" x1="8.21719" y1="7.03125" x2="14.4469" y2="17.8172" gradientUnits="userSpaceOnUse">
<stop stop-color="#86C3DB"/>
<stop offset="0.5" stop-color="#86C3DB"/>
<stop offset="1" stop-color="#5EAFCF"/>
</linearGradient>
<clipPath id="clip0_415_1149">
<rect width="12.6562" height="12.6562" fill="white" transform="translate(5.67188 5.67188)"/>
</clipPath>
</defs>
</svg>
