<svg width="29" height="40" viewBox="0 0 29 40" fill="none" xmlns="http://www.w3.org/2000/svg">
<path d="M6.52522 39.27C6.51991 39.4881 6.30189 39.6795 5.96157 39.8124C5.63189 39.94 5.19054 40.0092 4.70134 39.9985C3.85054 39.9773 3.14332 39.7061 2.96253 39.3604C2.93063 39.302 2.91467 39.2381 2.91467 39.1796C2.91467 39.0148 3.04229 38.8659 3.25499 38.7436C3.58467 38.5522 4.12705 38.4352 4.73856 38.4512C5.46705 38.4724 6.09451 38.6745 6.3657 38.9457C6.46673 39.0467 6.51991 39.1531 6.51991 39.27H6.52522Z" fill="#666666"/>
<path d="M16.2933 18.1489L10.3963 30.5067C10.3963 30.5067 10.3909 30.5173 10.3856 30.5279C10.375 30.5492 10.3697 30.5652 10.3644 30.5758L10.3537 30.5918L6.37626 38.9402L5.96682 39.8016C5.63714 39.9292 5.19579 39.9983 4.70658 39.9877C3.85579 39.9664 3.14857 39.6952 2.96777 39.3496L3.26023 38.7328L8.49793 27.7469L9.07221 26.5452L13.5017 17.2556L13.6771 16.8887L15.5595 17.7873L16.2933 18.1383V18.1489Z" fill="url(#paint0_linear_1618_7404)"/>
<path style="mix-blend-mode:multiply" d="M10.6036 30.5124C10.9014 29.869 12.5285 26.2851 10.8907 25.9341C10.1357 25.7693 9.60922 26.1787 9.27954 26.5616L13.709 17.272C14.3099 17.4209 15.033 17.607 15.7668 17.8037L16.5006 18.1547L10.6036 30.5124Z" fill="url(#paint1_linear_1618_7404)"/>
<path d="M21.5131 27.2342C23.3745 23.3195 20.8219 18.215 15.8119 15.8328C10.8019 13.4507 5.23157 14.693 3.37024 18.6077C1.50891 22.5223 4.06143 27.6269 9.07145 30.0091C14.0815 32.3912 19.6518 31.1489 21.5131 27.2342Z" fill="#0094D9"/>
<g style="mix-blend-mode:multiply">
<path d="M10.0508 17.0752C10.0508 17.0752 8.39176 19.8934 11.6726 22.4352C14.9535 24.9769 19.5371 24.9929 20.3507 22.5468C21.1643 20.1008 16.8093 16.9635 14.9535 16.1978C13.0977 15.4321 10.875 16.1074 10.0508 17.0752Z" fill="white"/>
</g>
<g style="mix-blend-mode:multiply">
<path d="M10.0403 17.0859C10.0403 17.0859 8.39725 19.8775 11.6462 22.398C14.9005 24.9185 19.4363 24.9291 20.2445 22.5043C21.0528 20.0796 16.735 16.9742 14.8952 16.2138C13.0607 15.4534 10.8539 16.1234 10.0403 17.0805V17.0859Z" fill="#FDFDFD"/>
</g>
<g style="mix-blend-mode:multiply">
<path d="M10.0348 17.0907C10.0348 17.0907 8.4023 19.8558 11.63 22.355C14.8524 24.8542 19.3509 24.8648 20.1486 22.4613C20.9462 20.0578 16.6709 16.979 14.8524 16.2293C13.0338 15.4795 10.8483 16.1389 10.0401 17.0907H10.0348Z" fill="#FCFCFC"/>
</g>
<g style="mix-blend-mode:multiply">
<path d="M10.0243 17.1024C10.0243 17.1024 8.40779 19.8409 11.6036 22.3135C14.7941 24.7861 19.2501 24.7967 20.0424 22.4198C20.8347 20.0429 16.5967 16.9907 14.7941 16.2463C12.9914 15.5018 10.8272 16.1559 10.0296 17.0971L10.0243 17.1024Z" fill="#FAFAFA"/>
</g>
<g style="mix-blend-mode:multiply">
<path d="M10.0188 17.1071C10.0188 17.1071 8.41829 19.819 11.5822 22.2704C14.7461 24.7217 19.1596 24.7323 19.9412 22.3767C20.7229 20.0211 16.5274 17.0008 14.7407 16.2616C12.9541 15.5225 10.8111 16.1712 10.0188 17.1071Z" fill="#F9F9F9"/>
</g>
<g style="mix-blend-mode:multiply">
<path d="M10.0084 17.1174C10.0084 17.1174 8.42379 19.8027 11.5558 22.2328C14.6877 24.6629 19.0587 24.6735 19.835 22.3392C20.6114 20.0048 16.4531 17.0111 14.6824 16.2826C12.9117 15.5541 10.7901 16.1975 10.0031 17.1174H10.0084Z" fill="#F7F7F7"/>
</g>
<g style="mix-blend-mode:multiply">
<path d="M10.0029 17.1285C10.0029 17.1285 8.43429 19.7925 11.5344 22.196C14.6398 24.5995 18.9682 24.6101 19.7339 22.297C20.5049 19.9839 16.3839 17.0221 14.6344 16.2989C12.885 15.5758 10.7793 16.2139 10.0029 17.1285Z" fill="#F6F6F6"/>
</g>
<g style="mix-blend-mode:multiply">
<path d="M9.99241 17.1338C9.99241 17.1338 8.43972 19.7713 11.5132 22.1535C14.5867 24.5357 18.8726 24.5464 19.633 22.2546C20.3934 19.9627 16.3149 17.0275 14.5814 16.315C12.8479 15.5971 10.7634 16.2299 9.99241 17.1338Z" fill="#F4F4F4"/>
</g>
<g style="mix-blend-mode:multiply">
<path d="M9.98696 17.144C9.98696 17.144 8.45022 19.7549 11.4918 22.1105C14.5334 24.4661 18.7767 24.4768 19.5318 22.2115C20.2869 19.9463 16.2456 17.0376 14.5281 16.3304C12.8105 15.6232 10.7474 16.2453 9.98696 17.144Z" fill="#F3F3F3"/>
</g>
<g style="mix-blend-mode:multiply">
<path d="M9.9818 17.1494C9.9818 17.1494 8.45569 19.7337 11.4707 22.068C14.4857 24.4024 18.6865 24.413 19.4309 22.1691C20.1754 19.9251 16.1766 17.0483 14.4804 16.3464C12.7788 15.6445 10.7369 16.2614 9.9818 17.1494Z" fill="#F1F1F1"/>
</g>
<g style="mix-blend-mode:multiply">
<path d="M9.9711 17.1604C9.9711 17.1604 8.46095 19.7181 11.444 22.0312C14.4271 24.3443 18.5854 24.3549 19.3245 22.1322C20.0636 19.9095 16.1021 17.0594 14.4218 16.3628C12.7362 15.6662 10.7155 16.2777 9.9711 17.1604Z" fill="#EFEFEF"/>
</g>
<g style="mix-blend-mode:multiply">
<path d="M9.96589 17.1711C9.96589 17.1711 8.47169 19.7022 11.4229 21.9941C14.3741 24.2806 18.4951 24.2912 19.2236 22.0951C19.9574 19.8937 16.0384 17.0754 14.3687 16.3841C12.7044 15.6929 10.6997 16.3044 9.96058 17.1711H9.96589Z" fill="#EEEEEE"/>
</g>
<g style="mix-blend-mode:multiply">
<path d="M9.95513 17.1763C9.95513 17.1763 8.47687 19.6862 11.4015 21.9461C14.3261 24.2113 18.3992 24.222 19.1277 22.0418C19.8509 19.867 15.9745 17.07 14.3208 16.3894C12.6723 15.7087 10.6889 16.3096 9.95513 17.171V17.1763Z" fill="#ECECEC"/>
</g>
<g style="mix-blend-mode:multiply">
<path d="M9.94992 17.1866C9.94992 17.1866 8.48762 19.6698 11.3803 21.9085C14.273 24.1525 18.309 24.1578 19.0268 22.0042C19.7447 19.8506 15.9055 17.0856 14.273 16.4102C12.6406 15.7349 10.6784 16.3305 9.95524 17.1813L9.94992 17.1866Z" fill="#EBEBEB"/>
</g>
<g style="mix-blend-mode:multiply">
<path d="M9.93922 17.1918C9.93922 17.1918 8.49287 19.6485 11.3537 21.8659C14.2145 24.0833 18.2079 24.0939 18.9204 21.9616C19.6276 19.8293 15.831 17.0961 14.2145 16.4261C12.5979 15.7561 10.6571 16.3464 9.93922 17.1918Z" fill="#E9E9E9"/>
</g>
<g style="mix-blend-mode:multiply">
<path d="M9.93401 17.2027C9.93401 17.2027 8.50361 19.6328 11.3325 21.8289C14.1667 24.025 18.1176 24.0356 18.8195 21.9246C19.5214 19.8135 15.7619 17.107 14.1614 16.4476C12.5608 15.7882 10.6412 16.3678 9.93401 17.2027Z" fill="#E8E8E8"/>
</g>
<g style="mix-blend-mode:multiply">
<path d="M9.92324 17.2133C9.92324 17.2133 8.50348 19.6168 11.3058 21.7916C14.1081 23.9611 18.0164 23.9718 18.713 21.8873C19.4096 19.7976 15.6874 17.1229 14.1081 16.4688C12.5235 15.8148 10.6251 16.3891 9.92324 17.2186V17.2133Z" fill="#E6E6E6"/>
</g>
<g style="mix-blend-mode:screen">
<path d="M16.3679 25.6362C16.4849 24.3919 13.9591 25.801 10.8005 23.6953C7.64194 21.5949 7.97694 18.3459 6.31258 18.2077C5.48306 18.1385 4.7652 19.0797 4.62163 20.4676C4.47806 21.8554 4.92473 23.69 6.4083 25.4075C7.33353 26.4763 8.40234 27.242 9.48178 27.7366C10.5612 28.2311 11.6619 28.4438 12.651 28.4225C14.6344 28.3746 16.1977 27.3643 16.3626 25.6415L16.3679 25.6362Z" fill="black"/>
<path d="M6.27003 18.2822C5.52559 18.2502 4.88218 19.0691 4.70138 20.2921C4.69075 20.3772 4.68011 20.4676 4.66948 20.5527C4.57376 21.6587 4.85027 23.0413 5.73297 24.4185C5.94567 24.7535 6.19559 25.0885 6.48805 25.4182C7.42924 26.487 8.50868 27.2367 9.59344 27.7206C10.6782 28.2045 11.6885 28.3959 12.6403 28.3747C14.544 28.3321 16.0169 27.3697 16.2349 25.7479C16.3147 25.1417 15.7936 25.1576 14.8311 25.0353C14.6716 25.0247 14.5015 25.0087 14.3207 24.9928C13.3688 24.8917 12.1458 24.6365 10.8058 23.7591C10.641 23.6528 10.4868 23.5411 10.3379 23.4241C10.0401 23.1955 9.77955 22.9562 9.54559 22.7063C8.59908 21.7066 8.13114 20.6165 7.72702 19.7657C7.51432 19.3244 7.32289 18.9415 7.08892 18.6756C7.02511 18.6012 6.95598 18.5427 6.88686 18.4895C6.70606 18.3566 6.504 18.2981 6.27003 18.2875V18.2822Z" fill="url(#paint2_linear_1618_7404)"/>
<path d="M6.2274 18.3569C5.51486 18.3569 4.90335 19.1811 4.74914 20.3882C4.73851 20.4733 4.72787 20.5584 4.72256 20.6488C4.64811 21.7388 4.93525 23.1001 5.81795 24.4561C6.03597 24.7857 6.28589 25.1154 6.56771 25.4398C7.52485 26.5086 8.61493 27.2424 9.69969 27.7157C10.6994 28.1464 11.7097 28.3538 12.6243 28.3325C14.4482 28.2953 15.8307 27.386 16.0966 25.8599C16.1976 25.2749 15.7669 25.2643 14.8789 25.0888C14.7194 25.0782 14.5439 25.0622 14.3631 25.0463C13.4166 24.9506 12.1723 24.706 10.8057 23.8233C10.6409 23.7169 10.4814 23.6053 10.3325 23.4883C10.0347 23.2596 9.76882 23.0203 9.52953 22.7704C8.56708 21.7654 8.09382 20.67 7.68438 19.8086C7.47168 19.3566 7.27493 18.9684 7.04097 18.7079C6.97716 18.6334 6.90803 18.5749 6.83359 18.5218C6.64747 18.3942 6.44009 18.3676 6.22208 18.3676L6.2274 18.3569Z" fill="url(#paint3_linear_1618_7404)"/>
<path d="M6.18486 18.4364C5.50422 18.4683 4.92462 19.2925 4.79168 20.4837C4.78105 20.5687 4.77573 20.6538 4.77041 20.7389C4.71192 21.8183 5.01502 23.1583 5.89771 24.4877C6.11573 24.8121 6.36565 25.1364 6.64747 25.4502C7.61525 26.519 8.72128 27.2368 9.81136 27.6941C10.7738 28.0982 11.731 28.295 12.6083 28.279C14.3471 28.2418 15.6499 27.3857 15.9637 25.9606C16.086 25.397 15.7456 25.3544 14.9374 25.1258C14.7779 25.1152 14.5971 25.0992 14.4163 25.0833C13.4698 24.9875 12.2042 24.7589 10.8217 23.8656C10.6568 23.7592 10.4973 23.6475 10.3431 23.5306C10.04 23.3019 9.77414 23.0626 9.53485 22.8127C8.55644 21.8024 8.07255 20.6964 7.66311 19.8296C7.44509 19.3723 7.24835 18.9788 7.00906 18.7183C6.93993 18.6438 6.87081 18.5853 6.79636 18.5375C6.59962 18.4205 6.39224 18.4205 6.18486 18.4311V18.4364Z" fill="url(#paint4_linear_1618_7404)"/>
<path d="M6.14241 18.5109C5.49368 18.5747 4.94598 19.4042 4.83431 20.574C4.82899 20.6538 4.82368 20.7389 4.81836 20.824C4.78114 21.8928 5.09487 23.2062 5.97756 24.5196C6.19558 24.8386 6.4455 25.1577 6.72733 25.4661C7.71105 26.5349 8.82772 27.2368 9.92312 27.6835C10.843 28.061 11.7576 28.2471 12.5978 28.2312C14.2568 28.1993 15.4799 27.391 15.8308 26.067C15.9744 25.5246 15.7245 25.4555 14.9907 25.1736C14.8311 25.1577 14.6503 25.1471 14.4642 25.1311C13.5177 25.0407 12.2362 24.8174 10.8324 23.924C10.6622 23.8177 10.5027 23.706 10.3485 23.589C10.0454 23.3604 9.77423 23.1211 9.52962 22.8712C8.53526 21.8556 8.04605 20.7389 7.63129 19.8668C7.41328 19.4042 7.21121 19.0001 6.97193 18.7448C6.9028 18.6704 6.83367 18.6119 6.75391 18.5694C6.55185 18.4577 6.34447 18.4896 6.14241 18.5109Z" fill="url(#paint5_linear_1618_7404)"/>
<path d="M6.0999 18.5855C5.48307 18.6812 4.96728 19.5107 4.8822 20.6699C4.87688 20.7497 4.87157 20.8348 4.87157 20.9199C4.8503 21.978 5.17998 23.2702 6.06268 24.557C6.28069 24.8707 6.53061 25.1845 6.80712 25.4876C7.8068 26.551 8.9341 27.2423 10.0348 27.6783C10.9122 28.0293 11.7843 28.2101 12.5872 28.1941C14.1665 28.1675 15.315 27.4018 15.7032 26.1841C15.8734 25.6577 15.7139 25.562 15.0492 25.227C14.8897 25.211 14.7035 25.2004 14.5174 25.1845C13.5709 25.0994 12.2735 24.8867 10.8431 23.988C10.6729 23.8817 10.5081 23.77 10.3539 23.653C10.0455 23.4244 9.76894 23.1851 9.52434 22.9299C8.51402 21.9036 8.0195 20.7869 7.59942 19.9042C7.37609 19.431 7.17402 19.0268 6.93474 18.7716C6.86561 18.6972 6.79117 18.6387 6.71141 18.5961C6.50403 18.4951 6.29133 18.5536 6.10522 18.5802L6.0999 18.5855Z" fill="url(#paint6_linear_1618_7404)"/>
<path d="M6.05712 18.6599C5.46689 18.7875 4.99363 19.6223 4.92451 20.7603C4.92451 20.84 4.91919 20.9198 4.91919 21.0049C4.91919 22.0471 5.25951 23.318 6.14752 24.5835C6.36554 24.8972 6.61546 25.2003 6.89197 25.4981C7.90228 26.5616 9.04553 27.2422 10.1462 27.6623C10.9811 27.9867 11.8106 28.1568 12.571 28.1462C14.0705 28.1196 15.1447 27.4071 15.5647 26.2904C15.7562 25.7799 15.687 25.663 15.1021 25.2695C14.9426 25.2535 14.7512 25.2429 14.5651 25.2269C13.6185 25.1418 12.3051 24.9451 10.8535 24.0411C10.6833 23.9348 10.5185 23.8231 10.3589 23.7061C10.0505 23.4775 9.76871 23.2382 9.51879 22.983C8.49252 21.9514 7.99268 20.8241 7.56728 19.9361C7.33863 19.4575 7.13657 19.0427 6.89728 18.7928C6.82284 18.7184 6.74839 18.6599 6.66331 18.6226C6.4453 18.5269 6.2326 18.6173 6.05712 18.6545V18.6599Z" fill="url(#paint7_linear_1618_7404)"/>
<path d="M6.01482 18.7343C5.45649 18.8938 5.01514 19.7339 4.96729 20.8559C4.96729 20.9357 4.96729 21.0154 4.96729 21.0952C4.98324 22.1268 5.33419 23.3764 6.22752 24.6154C6.44554 24.9238 6.69546 25.2216 6.96665 25.514C7.99292 26.5775 9.14681 27.2422 10.2528 27.6516C11.0451 27.9494 11.8321 28.1089 12.5553 28.0983C13.9751 28.077 14.9854 27.407 15.432 26.3967C15.6501 25.9075 15.666 25.7586 15.1555 25.3173C14.996 25.3013 14.7993 25.2907 14.6131 25.2747C13.672 25.195 12.3373 25.0089 10.859 24.0996C10.6889 23.9932 10.5187 23.8816 10.3539 23.7646C10.0401 23.5359 9.75831 23.2913 9.50307 23.0414C8.46085 22.0045 7.95038 20.8719 7.52498 19.9732C7.29633 19.4893 7.08895 19.0693 6.84966 18.8193C6.77522 18.7396 6.70078 18.6864 6.61038 18.6545C6.38705 18.5641 6.16903 18.6864 6.00419 18.7343H6.01482Z" fill="url(#paint8_linear_1618_7404)"/>
<path d="M5.97216 18.8141C5.44573 19.0109 5.03628 19.8457 5.01501 20.9517C5.01501 21.0315 5.01501 21.1113 5.01501 21.191C5.05224 22.212 5.41382 23.435 6.30716 24.658C6.53049 24.9611 6.77509 25.2536 7.04628 25.5354C8.0885 26.5989 9.25303 27.2476 10.3644 27.6464C11.1195 27.9176 11.8586 28.0665 12.5392 28.0612C13.8739 28.0452 14.8257 27.4231 15.299 26.5138C15.5436 26.0405 15.6499 25.8704 15.2086 25.3705C15.0491 25.3546 14.8523 25.3386 14.6609 25.328C13.7197 25.2482 12.3691 25.0728 10.8695 24.1635C10.6941 24.0571 10.5292 23.9455 10.3591 23.8285C10.0453 23.5998 9.75818 23.3552 9.49763 23.1C8.43946 22.0578 7.92366 20.9145 7.49295 20.0105C7.25898 19.516 7.0516 19.0906 6.81231 18.846C6.73255 18.7663 6.65811 18.7184 6.56771 18.6812C6.33906 18.6014 6.11573 18.7503 5.96684 18.8088L5.97216 18.8141Z" fill="url(#paint9_linear_1618_7404)"/>
<path d="M5.92968 18.8885C5.42984 19.1224 5.05762 19.9573 5.05762 21.0474C5.05762 21.1218 5.05762 21.2016 5.06293 21.2813C5.11611 22.2916 5.49365 23.4934 6.38698 24.6898C6.61031 24.9876 6.85492 25.2747 7.12611 25.5512C8.17896 26.6147 9.35944 27.2528 10.4761 27.6357C11.1886 27.8803 11.8852 28.0239 12.5286 28.0132C13.7836 28.0026 14.6822 27.4283 15.1661 26.62C15.4426 26.1627 15.6287 25.966 15.2618 25.4183C15.1023 25.4023 14.9002 25.3864 14.7088 25.3758C13.7676 25.3013 12.3957 25.1365 10.8749 24.2219C10.6994 24.1155 10.5293 24.0039 10.3591 23.8869C10.0401 23.6582 9.75293 23.4136 9.48706 23.1584C8.41293 22.1108 7.89182 20.9623 7.45579 20.0477C7.22182 19.5478 7.00912 19.1171 6.76984 18.8725C6.69008 18.7927 6.61563 18.7449 6.51992 18.713C6.28063 18.6385 6.06262 18.8193 5.91904 18.8831L5.92968 18.8885Z" fill="url(#paint10_linear_1618_7404)"/>
<path d="M5.88713 18.9625C5.41919 19.2284 5.07887 20.0633 5.10546 21.1374C5.10546 21.2118 5.10546 21.2916 5.1161 21.366C5.19054 22.3604 5.57871 23.5462 6.47205 24.716C6.69538 25.0085 6.93998 25.2903 7.20586 25.5615C8.27466 26.6197 9.46577 27.2471 10.5824 27.6194C11.2524 27.8427 11.9012 27.9703 12.5127 27.965C13.6878 27.9544 14.5386 27.4332 15.0331 26.7313C15.3416 26.29 15.6074 26.072 15.3203 25.4658C15.1608 25.4498 14.9534 25.4339 14.762 25.4232C13.8208 25.3541 12.4329 25.1999 10.8909 24.28C10.7154 24.1736 10.5399 24.062 10.3697 23.9397C10.0507 23.7163 9.75292 23.4664 9.48704 23.2112C8.39697 22.1583 7.86522 20.9991 7.43451 20.0792C7.19522 19.574 6.98252 19.1327 6.74324 18.8934C6.66347 18.8137 6.58371 18.7658 6.488 18.7392C6.2434 18.6701 6.02006 18.8828 5.89244 18.9572L5.88713 18.9625Z" fill="url(#paint11_linear_1618_7404)"/>
<path d="M5.84986 19.0369C5.41383 19.34 5.11073 20.1748 5.15327 21.233C5.15327 21.3075 5.1639 21.3819 5.16922 21.4617C5.25962 22.4454 5.66375 23.6046 6.55708 24.7585C6.78041 25.0456 7.02501 25.3221 7.29089 25.588C8.37033 26.6462 9.57739 27.263 10.6994 27.6193C11.3215 27.816 11.933 27.933 12.502 27.933C13.5974 27.933 14.4056 27.4598 14.9002 26.8536C15.2458 26.4335 15.5861 26.1836 15.3734 25.5295C15.2139 25.5136 15.0012 25.4976 14.8098 25.487C13.8739 25.4179 12.4648 25.2743 10.8961 24.3544C10.7206 24.248 10.5452 24.1363 10.3697 24.014C10.0453 23.7907 9.74755 23.5408 9.47636 23.2856C8.36501 22.2274 7.83327 21.0629 7.39724 20.1323C7.15263 19.6165 6.93994 19.1752 6.70065 18.9412C6.61557 18.8614 6.54113 18.8136 6.44009 18.7923C6.19017 18.7338 5.96152 18.9731 5.84454 19.0582L5.84986 19.0369Z" fill="url(#paint12_linear_1618_7404)"/>
<path d="M5.80733 19.112C5.4032 19.4523 5.13201 20.2871 5.19582 21.324C5.19582 21.3985 5.20646 21.4729 5.21709 21.5474C5.32876 22.5205 5.74352 23.6584 6.63685 24.7857C6.86018 25.0675 7.10479 25.3387 7.36534 25.5993C8.46074 26.6574 9.67312 27.2636 10.8057 27.6039C11.3853 27.7794 11.9543 27.8804 12.4861 27.8804C13.4964 27.8804 14.2674 27.471 14.7672 26.9552C15.1501 26.5564 15.5702 26.2746 15.4266 25.5674C15.2671 25.5461 15.0544 25.5355 14.8576 25.5195C13.9218 25.4557 12.4967 25.3228 10.9068 24.3975C10.7313 24.2912 10.5505 24.1795 10.375 24.0572C10.0507 23.8339 9.74756 23.5839 9.47106 23.3234C8.34375 22.2599 7.80669 21.0847 7.36534 20.1489C7.12074 19.6278 6.90272 19.1758 6.66344 18.9471C6.57836 18.8674 6.4986 18.8195 6.39757 18.7982C6.14233 18.7451 5.90836 19.0216 5.80201 19.112H5.80733Z" fill="url(#paint13_linear_1618_7404)"/>
<path d="M5.76485 19.1918C5.39263 19.5694 5.15334 20.3989 5.24374 21.4252C5.24906 21.4996 5.25969 21.5741 5.27033 21.6485C5.39795 22.611 5.82334 23.7223 6.72199 24.8283C6.94533 25.1049 7.18993 25.3707 7.45048 25.6206C8.56183 26.6788 9.78485 27.2797 10.9228 27.5987C11.4598 27.7529 11.9863 27.838 12.4808 27.8433C13.4114 27.8433 14.1452 27.503 14.645 27.0723C15.0704 26.7001 15.5596 26.3864 15.4958 25.6206C15.3363 25.5994 15.1183 25.5887 14.9215 25.5728C13.9856 25.509 12.5446 25.392 10.9334 24.4614C10.7526 24.3551 10.5771 24.2434 10.3964 24.1211C10.0667 23.8978 9.76358 23.6479 9.48175 23.3873C8.3385 22.3185 7.79612 21.1327 7.34945 20.1915C7.09953 19.6651 6.88152 19.2078 6.64223 18.9791C6.55715 18.8941 6.47739 18.8515 6.37104 18.8356C6.10517 18.7877 5.87652 19.0961 5.7808 19.1918H5.76485Z" fill="url(#paint14_linear_1618_7404)"/>
<path d="M5.72233 19.2659C5.38733 19.686 5.17464 20.5102 5.2863 21.5152C5.29162 21.5843 5.30226 21.6587 5.31289 21.7332C5.46178 22.6797 5.89781 23.7751 6.79646 24.8545C7.02511 25.1257 7.2644 25.3863 7.52495 25.6309C8.64693 26.6891 9.8859 27.2846 11.0238 27.5824C11.5184 27.71 12.0022 27.7898 12.4542 27.7898C13.305 27.7951 14.0016 27.5239 14.4961 27.1729C14.9907 26.822 15.5224 26.4764 15.533 25.6628C15.3735 25.6415 15.1502 25.6309 14.9534 25.6149C14.0176 25.5564 12.5553 25.4501 10.9228 24.5142C10.742 24.4132 10.5612 24.2962 10.3804 24.1739C10.0507 23.9506 9.73701 23.7006 9.45519 23.4401C8.29598 22.3606 7.74297 21.1749 7.2963 20.223C7.04638 19.686 6.82305 19.2287 6.58376 19C6.49337 18.9149 6.4136 18.8724 6.30725 18.8618C6.03606 18.8245 5.8021 19.1595 5.71702 19.2659H5.72233Z" fill="url(#paint15_linear_1618_7404)"/>
<path d="M5.67965 19.3402C5.37655 19.7975 5.19576 20.6164 5.32869 21.6108C5.33933 21.6799 5.34996 21.7543 5.3606 21.8235C5.52544 22.7593 5.97742 23.8282 6.87607 24.8916C7.10472 25.1575 7.34401 25.4128 7.59925 25.652C8.73718 26.7102 9.98147 27.3005 11.13 27.577C11.582 27.6833 12.0234 27.7471 12.4381 27.7524C13.2092 27.7631 13.8685 27.5663 14.3631 27.2898C14.8842 26.9974 15.5063 26.5879 15.5861 25.7159C15.4265 25.6946 15.1979 25.6839 15.0011 25.668C14.0706 25.6095 12.587 25.5138 10.9333 24.5779C10.7525 24.4769 10.5664 24.3599 10.3856 24.2376C10.0506 24.0143 9.73686 23.7643 9.44972 23.5038C8.27456 22.419 7.71623 21.2226 7.26425 20.2655C7.00901 19.7231 6.78568 19.2551 6.54639 19.0318C6.45599 18.9467 6.37092 18.9095 6.26457 18.8936C5.98806 18.8617 5.74877 19.2286 5.67433 19.3455L5.67965 19.3402Z" fill="url(#paint16_linear_1618_7404)"/>
<path d="M7.67919 25.6628C8.83308 26.7157 10.0827 27.3112 11.2419 27.5611C12.4011 27.811 13.4593 27.7153 14.2303 27.3963C14.7993 27.157 15.4852 26.6837 15.6394 25.7638C15.4799 25.7426 15.2512 25.7266 15.0492 25.716C14.0176 25.6575 12.2894 25.5618 10.3858 24.2962C10.0508 24.0729 9.73173 23.823 9.43927 23.5571C8.24816 22.467 7.68451 21.2653 7.22721 20.2975C6.96665 19.7498 6.74332 19.2765 6.50403 19.0532C6.41364 18.9681 6.32856 18.9309 6.21689 18.9203C5.92975 18.899 5.69578 19.2925 5.63197 19.4148C5.3661 19.9093 5.21721 20.7282 5.37142 21.7013C5.52562 22.6744 5.98824 23.8017 6.95602 24.9237C7.18467 25.1842 7.42927 25.4341 7.67919 25.6681V25.6628Z" fill="url(#paint17_linear_1618_7404)"/>
</g>
<path d="M22.4086 9.20029L19.5744 7.84966L16.7402 6.49902C16.7402 6.49902 10.1252 16.7777 10.0029 17.0435C9.12556 18.8887 10.3273 21.2922 12.6883 22.4142C15.0492 23.5361 17.6707 22.9512 18.5481 21.1061C18.7236 20.7445 22.4086 9.19497 22.4086 9.19497V9.20029Z" fill="#0094D9"/>
<g style="mix-blend-mode:screen">
<path d="M16.3734 17.3365C16.3734 17.3365 17.5964 15.4222 18.862 13.5345C20.1275 11.6468 21.441 9.78572 21.6271 9.88675C21.8079 9.98778 21.09 13.0506 20.1754 16.1188C19.2608 19.187 18.1548 22.2551 17.5699 22.3775C16.3947 22.6221 14.2783 20.5482 16.3787 17.3312L16.3734 17.3365Z" fill="black"/>
<path d="M18.8513 13.6194C20.0743 11.7955 21.3452 9.9929 21.5473 10.0461C21.7015 10.2003 21.0049 13.1461 20.1222 16.108C19.6543 17.6766 19.1438 19.2187 18.6812 20.3726C18.3515 21.1968 18.0484 21.8242 17.7985 22.1273C17.7028 22.239 17.6124 22.3028 17.5273 22.3134C16.9158 22.4251 16.0437 21.8934 15.6874 20.8884C15.379 20.0163 15.4588 18.8039 16.4053 17.3523C16.4425 17.2938 17.6283 15.4433 18.8513 13.6141V13.6194Z" fill="url(#paint18_linear_1618_7404)"/>
<path d="M18.8461 13.7098C20.0319 11.9444 21.2496 10.2109 21.4729 10.2109C21.6006 10.4236 20.9306 13.2525 20.0798 16.1027C19.6065 17.6873 19.1014 19.2081 18.6494 20.346C18.3197 21.1755 18.0166 21.7924 17.7773 22.0955C17.6816 22.1965 17.5912 22.255 17.5061 22.2656C16.9106 22.356 16.0704 21.8296 15.7301 20.8458C15.4376 19.9844 15.5227 18.7986 16.4479 17.3895C16.5224 17.2725 17.671 15.4805 18.8514 13.7151L18.8461 13.7098Z" fill="url(#paint19_linear_1618_7404)"/>
<path d="M18.8408 13.7946C19.984 12.093 21.1592 10.418 21.3985 10.3701C21.4995 10.636 20.8561 13.3532 20.0372 16.0917C19.5639 17.6869 19.0641 19.1918 18.6174 20.3138C18.2824 21.1486 17.99 21.7601 17.7507 22.0579C17.655 22.1536 17.5646 22.2068 17.4742 22.2068C16.8946 22.2759 16.0863 21.7548 15.762 20.787C15.4801 19.9415 15.5812 18.7823 16.4798 17.4104C16.5915 17.235 17.7028 15.5015 18.8408 13.7999V13.7946Z" fill="url(#paint20_linear_1618_7404)"/>
<path d="M18.8353 13.8856C19.936 12.2425 21.0633 10.6367 21.3239 10.5356C21.3983 10.8547 20.7762 13.4549 19.9945 16.0871C19.5159 17.6929 19.0214 19.1818 18.5801 20.2879C18.2451 21.128 17.9526 21.7289 17.724 22.0213C17.6283 22.1064 17.5379 22.1543 17.4475 22.149C16.8838 22.1968 16.1021 21.681 15.799 20.7345C15.5332 19.8997 15.6448 18.7724 16.5169 17.4377C16.6658 17.2037 17.7399 15.5287 18.8406 13.8856H18.8353Z" fill="url(#paint21_linear_1618_7404)"/>
<path d="M18.8302 13.9704C19.8883 12.3911 20.9731 10.8437 21.2496 10.6948C21.2975 11.0724 20.7019 13.5556 19.9468 16.0761C19.4629 17.6979 18.9737 19.1655 18.543 20.2503C18.208 21.0958 17.9156 21.6913 17.6975 21.9785C17.6018 22.0582 17.5061 22.0954 17.4157 22.0848C16.868 22.1114 16.1183 21.6009 15.8364 20.6757C15.5865 19.8515 15.7088 18.7508 16.5543 17.4586C16.7404 17.1662 17.7773 15.5497 18.8355 13.9704H18.8302Z" fill="url(#paint22_linear_1618_7404)"/>
<path d="M18.8249 14.0551C19.8405 12.5343 20.8774 11.0507 21.1752 10.8486C21.1964 11.2793 20.6222 13.6456 19.9043 16.0597C19.4151 17.6922 18.9312 19.1439 18.5058 20.2127C18.1708 21.0635 17.8837 21.6484 17.6656 21.9302C17.5753 21.9993 17.4742 22.0312 17.3838 22.0153C16.8574 22.0206 16.1342 21.5154 15.8683 20.6062C15.6291 19.7926 15.762 18.7238 16.5809 17.4689C16.8042 17.1179 17.8039 15.5599 18.8195 14.0444L18.8249 14.0551Z" fill="url(#paint23_linear_1618_7404)"/>
<path d="M18.8194 14.1461C19.7925 12.6892 20.7869 11.2694 21.1006 11.0142C21.1006 11.498 20.5476 13.7526 19.8616 16.0604C19.3724 17.7088 18.8885 19.1392 18.4738 20.1921C18.1388 21.0429 17.8516 21.6278 17.6443 21.9043C17.5539 21.9628 17.4528 21.9894 17.3571 21.9734C16.8466 21.9575 16.1554 21.4576 15.9055 20.5696C15.6821 19.772 15.8257 18.7245 16.618 17.5121C16.8785 17.1026 17.841 15.6084 18.8141 14.1461H18.8194Z" fill="url(#paint24_linear_1618_7404)"/>
<path d="M18.8142 14.2309C19.75 12.8324 20.6912 11.4764 21.0315 11.1733C20.9996 11.7104 20.4785 13.8533 19.8192 16.0494C19.3246 17.7085 18.8461 19.1229 18.4419 20.1598C18.1069 21.0159 17.8251 21.5902 17.6231 21.8667C17.5327 21.9199 17.4316 21.9359 17.3359 21.9146C16.8414 21.8827 16.1767 21.3775 15.9481 20.5108C15.7407 19.7238 15.8949 18.7082 16.6606 17.5383C16.9584 17.0704 17.8836 15.6347 18.8142 14.2362V14.2309Z" fill="url(#paint25_linear_1618_7404)"/>
<path d="M18.8089 14.3161C19.7022 12.9814 20.6008 11.684 20.9571 11.333C20.8986 11.9286 20.3988 13.9492 19.7766 16.039C19.2768 17.7086 18.8089 19.1071 18.4047 20.1281C18.0644 20.9895 17.7879 21.5585 17.5912 21.8243C17.5008 21.8669 17.3997 21.8828 17.2987 21.8509C16.8201 21.7978 16.1874 21.2979 15.98 20.4524C15.7886 19.6761 15.9534 18.6924 16.6925 17.5597C17.0275 17.0333 17.9155 15.6561 18.8089 14.3214V14.3161Z" fill="url(#paint26_linear_1618_7404)"/>
<path d="M18.8034 14.4062C19.6542 13.13 20.505 11.9017 20.8825 11.4976C20.7975 12.1463 20.3242 14.0553 19.734 16.0333C19.2341 17.719 18.7662 19.1015 18.3727 20.0959C18.0324 20.9626 17.7612 21.521 17.5698 21.7868C17.4794 21.8241 17.3783 21.8294 17.2773 21.7922C16.8147 21.7177 16.2138 21.2232 16.0224 20.3937C15.8416 19.6279 16.0224 18.6708 16.7349 17.5807C17.1071 16.9958 17.9579 15.6771 18.8087 14.4009L18.8034 14.4062Z" fill="url(#paint27_linear_1618_7404)"/>
<path d="M18.7981 14.4909C19.6064 13.2786 20.4146 12.1087 20.8081 11.6567C20.6965 12.3586 20.2498 14.1506 19.6915 16.0224C19.1863 17.7186 18.7237 19.0852 18.3408 20.0636C18.0005 20.9357 17.7293 21.4834 17.5485 21.744C17.4581 21.7705 17.3571 21.7705 17.2507 21.728C16.8041 21.6323 16.2351 21.1431 16.0596 20.3348C15.8948 19.5797 16.0809 18.6545 16.7722 17.6017C17.1816 16.9582 17.9952 15.698 18.8034 14.4856L18.7981 14.4909Z" fill="url(#paint28_linear_1618_7404)"/>
<path d="M18.7927 14.5762C19.5584 13.4223 20.3188 12.3216 20.7336 11.8164C20.5953 12.5768 20.1699 14.2518 19.6435 16.0119C19.133 17.7241 18.6757 19.0694 18.2982 20.0319C17.9579 20.9093 17.692 21.4516 17.5112 21.7069C17.4208 21.7281 17.3198 21.7175 17.2134 21.675C16.788 21.558 16.2457 21.0741 16.0861 20.2818C15.9372 19.5427 16.134 18.644 16.7987 17.6284C17.2453 16.9318 18.0217 15.7301 18.7874 14.5762H18.7927Z" fill="url(#paint29_linear_1618_7404)"/>
<path d="M18.7875 14.6668C19.516 13.5767 20.2285 12.5345 20.6592 11.9814C20.4944 12.795 20.0956 14.3583 19.6011 16.0121C19.0853 17.7349 18.6333 19.0643 18.2664 20.0108C17.9261 20.8935 17.6602 21.4252 17.49 21.6805C17.4049 21.6911 17.2986 21.6805 17.1869 21.6273C16.7775 21.4891 16.267 21.0105 16.1288 20.2395C15.9958 19.511 16.2032 18.6389 16.8413 17.6658C17.3252 16.9107 18.0643 15.7675 18.7875 14.6774V14.6668Z" fill="url(#paint30_linear_1618_7404)"/>
<path d="M18.7822 14.7514C19.4682 13.7199 20.1328 12.7414 20.5848 12.1353C20.3934 13.002 20.0159 14.4483 19.5586 15.9957C19.0428 17.7292 18.5908 19.0426 18.2292 19.9732C17.8836 20.8559 17.6283 21.3876 17.4635 21.6322C17.3784 21.6322 17.272 21.611 17.1604 21.5578C16.7669 21.3983 16.2883 20.925 16.166 20.1752C16.0437 19.4255 16.267 18.6172 16.8786 17.6814C17.3997 16.8678 18.1016 15.783 18.7822 14.7514Z" fill="url(#paint31_linear_1618_7404)"/>
<path d="M18.7769 14.8367C19.4203 13.8689 20.0425 12.9543 20.5157 12.2949C20.2977 13.2148 19.9467 14.5495 19.5213 15.9852C19.0002 17.7347 18.5589 19.0268 18.2026 19.9361C17.857 20.8241 17.6017 21.3452 17.4422 21.5898C17.3571 21.5845 17.2508 21.5579 17.1338 21.4941C16.7563 21.3133 16.3096 20.8454 16.2033 20.1116C16.1022 19.4044 16.3256 18.5961 16.9158 17.6975C17.4741 16.8254 18.1388 15.7991 18.7822 14.8313L18.7769 14.8367Z" fill="url(#paint32_linear_1618_7404)"/>
<path d="M17.1018 21.4411C16.7402 21.2391 16.3254 20.7765 16.235 20.0639C16.15 19.3673 16.3839 18.5857 16.9369 17.7402V17.7296C17.5378 16.799 18.1653 15.8312 18.7661 14.9273C19.367 14.0233 19.9413 13.1672 20.4358 12.46C20.1912 13.4384 19.8669 14.6508 19.468 15.9801C18.9416 17.7402 18.5056 19.0164 18.16 19.9097C17.8143 20.803 17.5591 21.3188 17.4102 21.5528C17.3251 21.5369 17.2188 21.505 17.1018 21.4358V21.4411Z" fill="url(#paint33_linear_1618_7404)"/>
</g>
<path d="M27.9013 9.90745C26.5401 12.7736 22.0468 13.4861 17.8726 11.5027C13.6984 9.51928 11.4172 5.58436 12.7838 2.71825C14.1451 -0.147858 18.6383 -0.860397 22.8125 1.12301C26.9867 3.10642 29.2679 7.04134 27.9013 9.90745Z" fill="#0094D9"/>
<g style="mix-blend-mode:screen">
<path d="M20.8185 0.601995C20.8185 0.601995 16.6443 -0.934749 14.2887 1.60699C11.5981 4.51032 14.7035 8.34953 18.8989 10.1362C23.0944 11.9229 26.8751 10.1947 27.0772 8.41334C27.2846 6.63199 24.9076 6.89254 24.0994 5.21223C23.2911 3.53191 24.9183 1.94199 20.8185 0.596678V0.601995Z" fill="black"/>
<path d="M14.3207 1.6387C16.6497 -0.881774 20.8026 0.644335 20.8026 0.644335C20.8133 0.644335 20.8186 0.649653 20.8292 0.65497C21.2919 0.809176 21.68 0.963383 22.0097 1.12291C23.4348 1.81418 23.6741 2.5533 23.7432 3.35092C23.7964 3.95711 23.7485 4.58989 24.0622 5.23862C24.4132 5.96711 25.0566 6.33933 25.6522 6.65838C26.0722 6.88703 26.4391 7.07846 26.6837 7.34965C26.9284 7.62084 27.056 7.97711 26.9709 8.48226C26.6944 10.1041 23.3763 11.6727 19.5318 10.3327C19.3191 10.2583 19.1011 10.1732 18.883 10.0828C16.0276 8.8598 13.6985 6.69028 13.3635 4.52608C13.2093 3.5264 13.4805 2.53203 14.3153 1.63338L14.3207 1.6387Z" fill="url(#paint34_linear_1618_7404)"/>
<path d="M14.3526 1.67052C16.6603 -0.823369 20.7814 0.68147 20.7867 0.686788C20.792 0.686788 20.8026 0.692105 20.8133 0.697423C21.2706 0.851629 21.6587 1.00584 21.9884 1.16536C23.4082 1.85663 23.6315 2.5798 23.7006 3.38274C23.7538 3.98361 23.7113 4.61639 24.025 5.2598C24.3866 6.00424 25.0406 6.38178 25.6415 6.70615C26.0882 6.94543 26.4391 7.13686 26.6678 7.424C26.8964 7.71115 26.9815 8.0621 26.8698 8.56194C26.5136 10.12 23.2752 11.6142 19.5158 10.2901C19.3031 10.2157 19.0904 10.1306 18.8777 10.0402C16.0488 8.81718 13.7517 6.66893 13.4167 4.54194C13.2625 3.5529 13.5337 2.56917 14.3579 1.67583L14.3526 1.67052Z" fill="url(#paint35_linear_1618_7404)"/>
<path d="M14.3845 1.69734C16.671 -0.775278 20.7654 0.718927 20.7707 0.724244C20.776 0.724244 20.7867 0.729562 20.7973 0.734879C21.2546 0.883768 21.6375 1.03797 21.9618 1.1975C23.3816 1.88345 23.589 2.59599 23.6581 3.40956C23.7113 4.00511 23.6741 4.63257 23.9825 5.27599C24.3494 6.03638 25.0141 6.41392 25.6202 6.7436C26.0935 6.99884 26.4338 7.18495 26.6465 7.48805C26.8592 7.79114 26.9017 8.13678 26.7582 8.62598C26.3221 10.1149 23.1689 11.5399 19.4839 10.2319C19.2765 10.1574 19.0691 10.0776 18.8564 9.98725C16.0488 8.76955 13.7836 6.63725 13.4539 4.54218C13.2944 3.55845 13.5656 2.58535 14.3791 1.70797L14.3845 1.69734Z" fill="url(#paint36_linear_1618_7404)"/>
<path d="M14.4164 1.72953C16.6816 -0.721814 20.7494 0.761756 20.7548 0.767073C20.7601 0.767073 20.776 0.772391 20.7813 0.777708C21.2333 0.926597 21.6162 1.0808 21.9406 1.23501C23.355 1.92096 23.5517 2.61755 23.6156 3.43644C23.6634 4.02667 23.6315 4.65413 23.9452 5.29754C24.3175 6.07389 24.9981 6.45675 25.6096 6.78643C26.1094 7.05762 26.4338 7.24373 26.6306 7.55215C26.8273 7.86056 26.8273 8.21151 26.6571 8.69008C26.1467 10.1098 23.0679 11.4658 19.4679 10.1737C19.2659 10.0992 19.0585 10.0194 18.8511 9.92905C16.0648 8.71135 13.8368 6.60564 13.5071 4.53715C13.3475 3.55874 13.6187 2.6016 14.4217 1.72953H14.4164Z" fill="url(#paint37_linear_1618_7404)"/>
<path d="M14.4483 1.76124C16.6922 -0.668837 20.7282 0.804098 20.7441 0.809415C20.7494 0.809415 20.7654 0.814733 20.7707 0.82005C21.2174 0.968939 21.6002 1.12315 21.9246 1.27735C23.3337 1.95799 23.5145 2.64925 23.5783 3.47346C23.6262 4.05838 23.5996 4.68052 23.908 5.32393C24.2909 6.11624 24.9821 6.50441 25.599 6.83409C26.1254 7.11592 26.4391 7.30203 26.6146 7.62639C26.7901 7.95076 26.7582 8.29107 26.5561 8.76433C25.9765 10.115 22.9721 11.4018 19.4467 10.1203C19.2446 10.0458 19.0425 9.96607 18.8458 9.87568C16.086 8.65798 13.8899 6.57354 13.5549 4.53695C13.3954 3.56386 13.6613 2.61735 14.4589 1.76124H14.4483Z" fill="url(#paint38_linear_1618_7404)"/>
<path d="M14.4801 1.78785C16.7028 -0.615639 20.7121 0.841344 20.7281 0.846662C20.7334 0.846662 20.7494 0.851979 20.7547 0.857296C21.2013 1.00619 21.5789 1.15507 21.8979 1.30928C23.3017 1.98991 23.4719 2.66523 23.5357 3.49475C23.5783 4.07436 23.5623 4.69118 23.8707 5.33459C24.2589 6.14285 24.9608 6.53634 25.5829 6.86602C26.1359 7.1638 26.4337 7.34459 26.5932 7.67959C26.7421 7.99332 26.6783 8.35491 26.4444 8.82284C25.7956 10.1097 22.8604 11.322 19.42 10.0565C19.2233 9.98205 19.0265 9.90229 18.8298 9.81721C16.0913 8.60483 13.9271 6.53634 13.5974 4.53166C13.4379 3.5692 13.7037 2.62801 14.4854 1.78253L14.4801 1.78785Z" fill="url(#paint39_linear_1618_7404)"/>
<path d="M14.512 1.81956C16.7187 -0.56266 20.6962 0.883687 20.7121 0.889005C20.7121 0.889005 20.7334 0.894322 20.7387 0.89964C21.1801 1.04321 21.5576 1.19742 21.8767 1.35162C23.2805 2.02694 23.4294 2.69162 23.4932 3.52646C23.5357 4.10075 23.5198 4.71757 23.8282 5.35567C24.2217 6.17456 24.9395 6.57336 25.567 6.91368C26.1519 7.22741 26.4337 7.40289 26.572 7.75384C26.6996 8.0782 26.6039 8.43979 26.338 8.89709C25.6255 10.1148 22.7541 11.2634 19.3934 10.0084C19.202 9.934 19.0052 9.85955 18.8138 9.76916C16.0966 8.55678 13.9696 6.50956 13.6399 4.5421C13.4804 3.58495 13.7463 2.65972 14.5173 1.82488L14.512 1.81956Z" fill="url(#paint40_linear_1618_7404)"/>
<path d="M14.544 1.8459C16.7294 -0.51505 20.6803 0.920663 20.6963 0.931297C20.6963 0.931297 20.7175 0.936615 20.7228 0.941932C21.1589 1.0855 21.5364 1.23439 21.8555 1.3886C23.2539 2.06392 23.3922 2.71264 23.4507 3.55812C23.4932 4.12709 23.4826 4.7386 23.7857 5.37669C24.1898 6.21153 24.9183 6.61566 25.5458 6.95597C26.1573 7.28566 26.4285 7.46113 26.5455 7.8174C26.6518 8.14708 26.5242 8.51399 26.2264 8.96065C25.4554 10.1145 22.6478 11.1887 19.3669 9.9497C19.1755 9.88057 18.9894 9.80081 18.7979 9.71573C16.1073 8.50867 14.0069 6.48272 13.6772 4.54185C13.5124 3.59002 13.7782 2.67542 14.544 1.85122V1.8459Z" fill="url(#paint41_linear_1618_7404)"/>
<path d="M14.5758 1.87837C16.74 -0.455992 20.659 0.963769 20.6802 0.974404C20.6802 0.974404 20.7015 0.979721 20.7068 0.985039C21.1428 1.12861 21.5151 1.2775 21.8288 1.42639C23.222 2.09639 23.3496 2.73448 23.4081 3.58527C23.4453 4.14892 23.44 4.75511 23.7484 5.39321C24.1578 6.244 24.9023 6.65345 25.5351 6.99376C26.1732 7.33408 26.4337 7.50956 26.5294 7.88178C26.6145 8.21678 26.455 8.589 26.12 9.03035C25.2905 10.1204 22.5413 11.1201 19.3402 9.89709C19.1541 9.82797 18.968 9.7482 18.7819 9.66313C16.1125 8.45606 14.0494 6.45138 13.7197 4.54242C13.5548 3.60123 13.8207 2.69194 14.5705 1.88369L14.5758 1.87837Z" fill="url(#paint42_linear_1618_7404)"/>
<path d="M14.6078 1.9052C16.7507 -0.407892 20.6431 1.00123 20.6644 1.01187C20.6644 1.01187 20.6857 1.01719 20.691 1.0225C21.1217 1.16607 21.4939 1.30965 21.8076 1.46385C23.2008 2.13385 23.3072 2.75599 23.3657 3.6121C23.4029 4.17044 23.4029 4.77663 23.706 5.4094C24.1207 6.27615 24.8758 6.69091 25.5139 7.03123C26.1786 7.3875 26.4285 7.55766 26.503 7.94583C26.5721 8.28615 26.3807 8.66369 26.0084 9.0944C25.1204 10.1207 22.4351 11.0459 19.3138 9.83884C19.133 9.76972 18.9469 9.68996 18.7661 9.61019C16.1233 8.40313 14.092 6.41972 13.7623 4.54266C13.5975 3.60679 13.858 2.71345 14.6025 1.91052L14.6078 1.9052Z" fill="url(#paint43_linear_1618_7404)"/>
<path d="M14.6397 1.93643C16.7613 -0.355397 20.6271 1.04309 20.6537 1.05373C20.6537 1.05373 20.675 1.05905 20.675 1.06436C21.1004 1.20262 21.4726 1.35151 21.7863 1.5004C23.1742 2.16508 23.2699 2.77658 23.3231 3.64333C23.3603 4.19103 23.3656 4.79722 23.6687 5.42999C24.0941 6.31269 24.8598 6.73277 25.5032 7.07841C26.1945 7.45063 26.4338 7.61547 26.4869 8.01428C26.5348 8.35991 26.3115 8.74809 25.9073 9.16285C24.9662 10.1306 22.334 10.9761 19.2924 9.77967C19.1116 9.71055 18.9362 9.63078 18.7554 9.55102C16.1339 8.34928 14.1345 6.38182 13.8101 4.53666C13.6453 3.60611 13.9059 2.72341 14.6397 1.93111V1.93643Z" fill="url(#paint44_linear_1618_7404)"/>
<path d="M14.6715 1.96841C16.7719 -0.296826 20.6058 1.08571 20.6377 1.09635C20.6377 1.09635 20.6589 1.10166 20.6589 1.10698C21.0843 1.24524 21.4512 1.39412 21.7597 1.5377C23.1422 2.19706 23.2273 2.79793 23.2804 3.67C23.3123 4.21238 23.323 4.81857 23.6261 5.44603C24.0568 6.34468 24.8385 6.76475 25.4872 7.11571C26.205 7.49856 26.4337 7.6634 26.4656 8.07817C26.4922 8.43444 26.2423 8.82261 25.8009 9.22674C24.8066 10.136 22.2276 10.9017 19.2711 9.72126C19.0956 9.65213 18.9201 9.57769 18.75 9.49793C16.1497 8.29618 14.1876 6.35531 13.8579 4.54206C13.6878 3.61682 13.9536 2.75008 14.6715 1.96841Z" fill="url(#paint45_linear_1618_7404)"/>
<path d="M14.7035 1.99524C16.7826 -0.248723 20.5899 1.12318 20.6218 1.13382C20.6218 1.13382 20.6431 1.13913 20.6431 1.14445C21.0632 1.2827 21.4301 1.42628 21.7385 1.57516C23.1157 2.23453 23.1848 2.81945 23.238 3.70215C23.2699 4.23921 23.2859 4.84008 23.5889 5.46754C24.0303 6.37683 24.8173 6.80754 25.4713 7.15849C26.2158 7.5573 26.4338 7.71682 26.4444 8.14222C26.4551 8.50381 26.1679 8.90262 25.6893 9.29611C24.6418 10.1522 22.1213 10.8329 19.2393 9.66833C19.0691 9.5992 18.899 9.52476 18.7288 9.445C16.1551 8.24857 14.2249 6.32365 13.8952 4.5423C13.7251 3.6277 13.9856 2.76627 14.6982 1.99524H14.7035Z" fill="url(#paint46_linear_1618_7404)"/>
<path d="M14.7352 2.02745C16.7931 -0.195248 20.5738 1.16602 20.6057 1.17666C20.6057 1.17666 20.627 1.18197 20.627 1.18729C21.0417 1.32554 21.4086 1.46912 21.717 1.61269C23.0943 2.26673 23.1474 2.84102 23.1953 3.72903C23.2272 4.26078 23.2431 4.85633 23.5462 5.48911C23.9929 6.41435 24.7958 6.85038 25.4552 7.20133C26.2262 7.61609 26.4336 7.7703 26.423 8.21165C26.4177 8.57855 26.0986 8.988 25.5828 9.36554C24.4821 10.1685 22.0148 10.7693 19.2178 9.61546C19.053 9.54633 18.8828 9.47189 18.718 9.39744C16.1656 8.20101 14.2673 6.29736 13.9429 4.54792C13.7728 3.63864 14.0333 2.78784 14.7352 2.03277V2.02745Z" fill="url(#paint47_linear_1618_7404)"/>
<path d="M14.7672 2.05357C16.8038 -0.142536 20.5579 1.20278 20.5898 1.21341L20.6111 1.21873C21.0258 1.35167 21.3874 1.49524 21.6905 1.64413C23.0624 2.29818 23.105 2.85651 23.1528 3.74984C23.1794 4.27627 23.206 4.87182 23.5091 5.49928C23.9611 6.44047 24.78 6.88182 25.4393 7.23809C26.2369 7.66881 26.4337 7.81769 26.4018 8.27499C26.3752 8.64722 26.0296 9.0673 25.4766 9.42888C24.3227 10.184 21.9139 10.6944 19.1913 9.5565C19.0265 9.48738 18.8616 9.41293 18.7021 9.33849C16.171 8.14206 14.3099 6.25968 13.9855 4.54214C13.8154 3.63817 14.0706 2.80333 14.7619 2.05357H14.7672Z" fill="url(#paint48_linear_1618_7404)"/>
<path d="M18.6968 9.28514C16.1922 8.09403 14.3577 6.23292 14.0333 4.54197C13.8632 3.64863 14.1184 2.81911 14.7991 2.0853C16.8144 -0.089537 20.5366 1.24514 20.5738 1.2611H20.5951C21.0045 1.40467 21.3661 1.54292 21.6692 1.69181C23.0358 2.34054 23.0624 2.88824 23.1102 3.79221C23.1368 4.31332 23.1687 4.90355 23.4665 5.53101C23.9291 6.48815 24.7587 6.93482 25.4233 7.29109C26.2475 7.73244 26.4337 7.88665 26.3805 8.34926C26.3379 8.73212 25.9551 9.16284 25.3648 9.50847C24.1525 10.2104 21.8021 10.6358 19.1647 9.50847C19.0052 9.43934 18.8456 9.37022 18.6861 9.29577L18.6968 9.28514Z" fill="url(#paint49_linear_1618_7404)"/>
</g>
<defs>
<linearGradient id="paint0_linear_1618_7404" x1="8.23601" y1="28.1663" x2="10.9473" y2="29.4598" gradientUnits="userSpaceOnUse">
<stop offset="0.02" stop-color="#808080"/>
<stop offset="0.13" stop-color="#CCCCCC"/>
<stop offset="0.47" stop-color="#F2F2F2"/>
<stop offset="0.68" stop-color="#CCCCCC"/>
<stop offset="0.85" stop-color="#808080"/>
<stop offset="1" stop-color="#4D4D4D"/>
</linearGradient>
<linearGradient id="paint1_linear_1618_7404" x1="10.6334" y1="27.4042" x2="14.3261" y2="19.1218" gradientUnits="userSpaceOnUse">
<stop stop-color="white"/>
<stop offset="1" stop-color="#C1272D"/>
</linearGradient>
<linearGradient id="paint2_linear_1618_7404" x1="5.97243" y1="23.479" x2="17.8392" y2="22.7325" gradientUnits="userSpaceOnUse">
<stop stop-color="#010101"/>
<stop offset="1" stop-color="#040404"/>
</linearGradient>
<linearGradient id="paint3_linear_1618_7404" x1="4.36385" y1="24.0974" x2="16.392" y2="22.3384" gradientUnits="userSpaceOnUse">
<stop stop-color="#020202"/>
<stop offset="1" stop-color="#070707"/>
</linearGradient>
<linearGradient id="paint4_linear_1618_7404" x1="-3.93821" y1="26.9445" x2="8.48239" y2="23.6884" gradientUnits="userSpaceOnUse">
<stop stop-color="#030303"/>
<stop offset="1" stop-color="#0B0B0B"/>
</linearGradient>
<linearGradient id="paint5_linear_1618_7404" x1="-25.9436" y1="39.1009" x2="-12.7869" y2="33.3911" gradientUnits="userSpaceOnUse">
<stop stop-color="#050505"/>
<stop offset="1" stop-color="#0E0E0E"/>
</linearGradient>
<linearGradient id="paint6_linear_1618_7404" x1="-77.8187" y1="86.5228" x2="-62.9871" y2="75.9201" gradientUnits="userSpaceOnUse">
<stop stop-color="#060606"/>
<stop offset="1" stop-color="#121212"/>
</linearGradient>
<linearGradient id="paint7_linear_1618_7404" x1="-204.916" y1="293.51" x2="-184.813" y2="268.21" gradientUnits="userSpaceOnUse">
<stop stop-color="#070707"/>
<stop offset="1" stop-color="#151515"/>
</linearGradient>
<linearGradient id="paint8_linear_1618_7404" x1="-24465.2" y1="67917.5" x2="-22809.2" y2="63357.7" gradientUnits="userSpaceOnUse">
<stop stop-color="#080808"/>
<stop offset="1" stop-color="#191919"/>
</linearGradient>
<linearGradient id="paint9_linear_1618_7404" x1="27.8965" y1="-483.438" x2="29.2501" y2="-517.585" gradientUnits="userSpaceOnUse">
<stop stop-color="#090909"/>
<stop offset="1" stop-color="#1D1D1D"/>
</linearGradient>
<linearGradient id="paint10_linear_1618_7404" x1="-43.4274" y1="-227.909" x2="-47.5287" y2="-247.254" gradientUnits="userSpaceOnUse">
<stop stop-color="#0A0A0A"/>
<stop offset="1" stop-color="#202020"/>
</linearGradient>
<linearGradient id="paint11_linear_1618_7404" x1="-49.6229" y1="-123.909" x2="-55.5662" y2="-138.285" gradientUnits="userSpaceOnUse">
<stop stop-color="#0B0B0B"/>
<stop offset="1" stop-color="#242424"/>
</linearGradient>
<linearGradient id="paint12_linear_1618_7404" x1="-41.5516" y1="-65.2241" x2="-48.4011" y2="-77.0734" gradientUnits="userSpaceOnUse">
<stop stop-color="#0C0C0C"/>
<stop offset="1" stop-color="#272727"/>
</linearGradient>
<linearGradient id="paint13_linear_1618_7404" x1="-29.1947" y1="-29.8508" x2="-36.6227" y2="-40.2338" gradientUnits="userSpaceOnUse">
<stop stop-color="#0E0E0E"/>
<stop offset="1" stop-color="#2B2B2B"/>
</linearGradient>
<linearGradient id="paint14_linear_1618_7404" x1="-16.4924" y1="-8.45506" x2="-24.3741" y2="-17.9351" gradientUnits="userSpaceOnUse">
<stop stop-color="#0F0F0F"/>
<stop offset="1" stop-color="#2E2E2E"/>
</linearGradient>
<linearGradient id="paint15_linear_1618_7404" x1="-6.56659" y1="5.49" x2="-14.8674" y2="-3.42404" gradientUnits="userSpaceOnUse">
<stop stop-color="#101010"/>
<stop offset="1" stop-color="#323232"/>
</linearGradient>
<linearGradient id="paint16_linear_1618_7404" x1="4.14632" y1="19.3133" x2="-4.43147" y2="10.881" gradientUnits="userSpaceOnUse">
<stop stop-color="#111111"/>
<stop offset="1" stop-color="#353535"/>
</linearGradient>
<linearGradient id="paint17_linear_1618_7404" x1="13.9643" y1="27.2494" x2="5.06863" y2="19.1094" gradientUnits="userSpaceOnUse">
<stop stop-color="#121212"/>
<stop offset="1" stop-color="#393939"/>
</linearGradient>
<linearGradient id="paint18_linear_1618_7404" x1="15.9038" y1="15.9441" x2="21.6174" y2="16.1186" gradientUnits="userSpaceOnUse">
<stop stop-color="#010101"/>
<stop offset="1" stop-color="#040404"/>
</linearGradient>
<linearGradient id="paint19_linear_1618_7404" x1="16.2611" y1="15.9269" x2="21.4681" y2="16.2481" gradientUnits="userSpaceOnUse">
<stop stop-color="#020202"/>
<stop offset="1" stop-color="#070707"/>
</linearGradient>
<linearGradient id="paint20_linear_1618_7404" x1="16.6559" y1="15.9287" x2="21.3619" y2="16.3678" gradientUnits="userSpaceOnUse">
<stop stop-color="#030303"/>
<stop offset="1" stop-color="#0B0B0B"/>
</linearGradient>
<linearGradient id="paint21_linear_1618_7404" x1="17.1464" y1="15.9171" x2="21.4225" y2="16.4527" gradientUnits="userSpaceOnUse">
<stop stop-color="#050505"/>
<stop offset="1" stop-color="#0E0E0E"/>
</linearGradient>
<linearGradient id="paint22_linear_1618_7404" x1="17.4997" y1="16.3026" x2="21.3158" y2="16.905" gradientUnits="userSpaceOnUse">
<stop stop-color="#060606"/>
<stop offset="1" stop-color="#121212"/>
</linearGradient>
<linearGradient id="paint23_linear_1618_7404" x1="17.9553" y1="16.2589" x2="21.3802" y2="16.9128" gradientUnits="userSpaceOnUse">
<stop stop-color="#070707"/>
<stop offset="1" stop-color="#151515"/>
</linearGradient>
<linearGradient id="paint24_linear_1618_7404" x1="18.3797" y1="16.1401" x2="21.4545" y2="16.8313" gradientUnits="userSpaceOnUse">
<stop stop-color="#080808"/>
<stop offset="1" stop-color="#191919"/>
</linearGradient>
<linearGradient id="paint25_linear_1618_7404" x1="18.6451" y1="16.507" x2="21.4363" y2="17.2299" gradientUnits="userSpaceOnUse">
<stop stop-color="#090909"/>
<stop offset="1" stop-color="#1D1D1D"/>
</linearGradient>
<linearGradient id="paint26_linear_1618_7404" x1="18.8168" y1="16.8408" x2="21.4001" y2="17.5996" gradientUnits="userSpaceOnUse">
<stop stop-color="#0A0A0A"/>
<stop offset="1" stop-color="#202020"/>
</linearGradient>
<linearGradient id="paint27_linear_1618_7404" x1="19.1097" y1="16.4555" x2="21.5447" y2="17.257" gradientUnits="userSpaceOnUse">
<stop stop-color="#0B0B0B"/>
<stop offset="1" stop-color="#242424"/>
</linearGradient>
<linearGradient id="paint28_linear_1618_7404" x1="19.0967" y1="16.6033" x2="21.4221" y2="17.4529" gradientUnits="userSpaceOnUse">
<stop stop-color="#0C0C0C"/>
<stop offset="1" stop-color="#272727"/>
</linearGradient>
<linearGradient id="paint29_linear_1618_7404" x1="19.1172" y1="16.6994" x2="21.3704" y2="17.6052" gradientUnits="userSpaceOnUse">
<stop stop-color="#0E0E0E"/>
<stop offset="1" stop-color="#2B2B2B"/>
</linearGradient>
<linearGradient id="paint30_linear_1618_7404" x1="18.9227" y1="16.6266" x2="21.0984" y2="17.5821" gradientUnits="userSpaceOnUse">
<stop stop-color="#0F0F0F"/>
<stop offset="1" stop-color="#2E2E2E"/>
</linearGradient>
<linearGradient id="paint31_linear_1618_7404" x1="18.7679" y1="16.4746" x2="20.8869" y2="17.4857" gradientUnits="userSpaceOnUse">
<stop stop-color="#101010"/>
<stop offset="1" stop-color="#323232"/>
</linearGradient>
<linearGradient id="paint32_linear_1618_7404" x1="17.9615" y1="16.8839" x2="20.0106" y2="17.941" gradientUnits="userSpaceOnUse">
<stop stop-color="#111111"/>
<stop offset="1" stop-color="#353535"/>
</linearGradient>
<linearGradient id="paint33_linear_1618_7404" x1="17.6299" y1="16.4473" x2="19.6289" y2="17.5572" gradientUnits="userSpaceOnUse">
<stop stop-color="#121212"/>
<stop offset="1" stop-color="#393939"/>
</linearGradient>
<linearGradient id="paint34_linear_1618_7404" x1="13.3347" y1="5.393" x2="27.1922" y2="5.76798" gradientUnits="userSpaceOnUse">
<stop stop-color="#010101"/>
<stop offset="1" stop-color="#040404"/>
</linearGradient>
<linearGradient id="paint35_linear_1618_7404" x1="13.3121" y1="5.14698" x2="27.058" y2="5.89383" gradientUnits="userSpaceOnUse">
<stop stop-color="#020202"/>
<stop offset="1" stop-color="#070707"/>
</linearGradient>
<linearGradient id="paint36_linear_1618_7404" x1="13.3312" y1="5.05732" x2="27.0879" y2="6.18591" gradientUnits="userSpaceOnUse">
<stop stop-color="#030303"/>
<stop offset="1" stop-color="#0B0B0B"/>
</linearGradient>
<linearGradient id="paint37_linear_1618_7404" x1="13.3609" y1="4.70649" x2="26.9631" y2="6.20338" gradientUnits="userSpaceOnUse">
<stop stop-color="#050505"/>
<stop offset="1" stop-color="#0E0E0E"/>
</linearGradient>
<linearGradient id="paint38_linear_1618_7404" x1="13.3902" y1="4.60027" x2="26.9608" y2="6.47852" gradientUnits="userSpaceOnUse">
<stop stop-color="#060606"/>
<stop offset="1" stop-color="#121212"/>
</linearGradient>
<linearGradient id="paint39_linear_1618_7404" x1="13.4197" y1="4.49085" x2="26.9373" y2="6.7505" gradientUnits="userSpaceOnUse">
<stop stop-color="#070707"/>
<stop offset="1" stop-color="#151515"/>
</linearGradient>
<linearGradient id="paint40_linear_1618_7404" x1="13.4569" y1="4.37235" x2="26.9006" y2="7.0099" gradientUnits="userSpaceOnUse">
<stop stop-color="#080808"/>
<stop offset="1" stop-color="#191919"/>
</linearGradient>
<linearGradient id="paint41_linear_1618_7404" x1="13.4977" y1="4.23764" x2="26.8412" y2="7.24961" gradientUnits="userSpaceOnUse">
<stop stop-color="#090909"/>
<stop offset="1" stop-color="#1D1D1D"/>
</linearGradient>
<linearGradient id="paint42_linear_1618_7404" x1="13.5624" y1="4.06162" x2="26.7907" y2="7.44085" gradientUnits="userSpaceOnUse">
<stop stop-color="#0A0A0A"/>
<stop offset="1" stop-color="#202020"/>
</linearGradient>
<linearGradient id="paint43_linear_1618_7404" x1="13.6486" y1="3.82843" x2="26.7309" y2="7.56739" gradientUnits="userSpaceOnUse">
<stop stop-color="#0B0B0B"/>
<stop offset="1" stop-color="#242424"/>
</linearGradient>
<linearGradient id="paint44_linear_1618_7404" x1="13.769" y1="3.54308" x2="26.6915" y2="7.63241" gradientUnits="userSpaceOnUse">
<stop stop-color="#0C0C0C"/>
<stop offset="1" stop-color="#272727"/>
</linearGradient>
<linearGradient id="paint45_linear_1618_7404" x1="13.9291" y1="3.18149" x2="26.6683" y2="7.6078" gradientUnits="userSpaceOnUse">
<stop stop-color="#0E0E0E"/>
<stop offset="1" stop-color="#2B2B2B"/>
</linearGradient>
<linearGradient id="paint46_linear_1618_7404" x1="13.8489" y1="3.52943" x2="26.5103" y2="8.32643" gradientUnits="userSpaceOnUse">
<stop stop-color="#0F0F0F"/>
<stop offset="1" stop-color="#2E2E2E"/>
</linearGradient>
<linearGradient id="paint47_linear_1618_7404" x1="14.0904" y1="3.04769" x2="26.528" y2="8.15381" gradientUnits="userSpaceOnUse">
<stop stop-color="#101010"/>
<stop offset="1" stop-color="#323232"/>
</linearGradient>
<linearGradient id="paint48_linear_1618_7404" x1="14.0149" y1="3.35303" x2="26.3301" y2="8.80778" gradientUnits="userSpaceOnUse">
<stop stop-color="#111111"/>
<stop offset="1" stop-color="#353535"/>
</linearGradient>
<linearGradient id="paint49_linear_1618_7404" x1="14.3231" y1="2.69567" x2="26.3806" y2="8.43129" gradientUnits="userSpaceOnUse">
<stop stop-color="#121212"/>
<stop offset="1" stop-color="#393939"/>
</linearGradient>
</defs>
</svg>
