<svg width="33" height="32" viewBox="0 0 33 32" fill="none" xmlns="http://www.w3.org/2000/svg">
<path d="M3.25991 6.13334C4.32658 1.52001 11.2732 1.52001 12.3266 6.13334C12.9532 8.84001 11.2332 11.1333 9.73991 12.56C8.64658 13.6 6.92658 13.5867 5.83324 12.56C4.35324 11.1333 2.63324 8.84001 3.25991 6.13334Z" stroke="white" strokeWidth="1.5"/>
<path d="M20.5933 22.1333C21.66 17.52 28.6467 17.52 29.7133 22.1333C30.34 24.84 28.62 27.1333 27.1133 28.56C26.02 29.6 24.2867 29.5867 23.1933 28.56C21.6867 27.1333 19.9667 24.84 20.5933 22.1333Z" stroke="white" strokeWidth="1.5"/>
<path d="M16.5 6.66666H20.0733C22.54 6.66666 23.6867 9.71999 21.8333 11.3467L11.18 20.6667C9.32667 22.28 10.4733 25.3333 12.9267 25.3333H16.5" stroke="white" strokeWidth="1.5" strokeLinecap="round" strokeLinejoin="round"/>
<path d="M7.81496 7.33332H7.83036" stroke="white" strokeWidth="2" strokeLinecap="round" strokeLinejoin="round"/>
<path d="M25.1482 23.3333H25.1636" stroke="white" strokeWidth="2" strokeLinecap="round" strokeLinejoin="round"/>
</svg>
