<svg width="55" height="50" viewBox="0 0 55 50" fill="none" xmlns="http://www.w3.org/2000/svg">
<path d="M55 36.5698V35.7186L22.6386 17.4966L0 29.9842V30.8355L32.3249 50L55 36.5698Z" fill="#F4F4F6"/>
<path d="M22.6387 17.4966L20.822 18.5058L32.3249 49.1463V50L55 36.5698V35.7186L22.6387 17.4966Z" fill="#D1706F"/>
<path d="M55 35.7185L22.6386 16.6428L0 29.9842L32.3249 49.1463L55 35.7185Z" fill="#9AC4FF"/>
<path d="M55 35.7185L22.6387 16.6428L3.63574 27.8425L35.9388 47.0095L55 35.7185Z" fill="#E5E5E5"/>
<path d="M20.1703 28.7185L12.9451 24.4646L12.9621 5.40619L20.1703 9.75627V28.7185Z" fill="#F4F5F7"/>
<path d="M20.1703 11.5106L12.9451 7.25429L12.9621 5.40619L20.1703 9.75627V11.5106Z" fill="#FF717B"/>
<path d="M20.1703 28.7184L12.9451 24.4646L12.967 22.3771L20.1703 26.6186V28.7184Z" fill="#FFB7B4"/>
<path d="M29.4334 23.1988L20.1703 28.7184V10.7037L29.3969 5.22852L29.4334 23.1988Z" fill="#0036AC"/>
<path d="M29.4334 23.1988L20.1703 28.7184V26.6187L29.3969 21.1434L29.4334 23.1988Z" fill="#FF0044"/>
<path d="M18.9519 17.1931L16.571 15.8113V18.032L18.9519 19.4286V17.1931Z" fill="#51B5F4"/>
<path d="M17.0404 17.7384L16.571 18.032V15.8113L17.0404 16.0852V17.7384Z" fill="#0036AC"/>
<path d="M17.0404 17.7384L18.9519 18.8487V19.4286L16.571 18.032L17.0404 17.7384Z" fill="#FF717B"/>
<path d="M18.9519 20.1466L16.571 18.7648V20.9855L18.9519 22.3821V20.1466Z" fill="#51B5F4"/>
<path d="M17.0404 20.6919L16.571 20.9855V18.7648L17.0404 19.0362V20.6919Z" fill="#0036AC"/>
<path d="M17.0404 20.6919L18.9519 21.8022V22.3821L16.571 20.9855L17.0404 20.6919Z" fill="#FF717B"/>
<path d="M16.0847 15.5498L13.7039 14.168V16.3887L16.0847 17.7853V15.5498Z" fill="#51B5F4"/>
<path d="M14.1732 16.0951L13.7039 16.3887V14.168L14.1732 14.4394V16.0951Z" fill="#0036AC"/>
<path d="M14.1732 16.0951L16.0847 17.2054V17.7853L13.7039 16.3887L14.1732 16.0951Z" fill="#FF717B"/>
<path d="M24.6693 13.9805V14.7947L22.1499 16.2727L22.1377 15.4585L24.6693 13.9805Z" fill="#3879F0"/>
<path d="M27.6556 12.2557V13.0725L25.1362 14.5504L25.1265 13.7362L27.6556 12.2557Z" fill="#3879F0"/>
<path d="M29.3969 4.2514V6.0773L20.1703 11.5106V9.77351L29.3969 4.2514Z" fill="#FF0044"/>
<path d="M29.1052 37.3594L16.8824 30.1915V12.1743L29.1052 19.3447V37.3594Z" fill="#3879F0"/>
<path d="M29.1052 37.3594L16.8824 30.1915V27.9288L29.1052 35.0992V37.3594Z" fill="#FFB7B4"/>
<path d="M41.2549 30.1865L29.1051 37.3594V19.3447L41.216 12.2162L41.2549 30.1865Z" fill="#0036AC"/>
<path d="M41.2549 30.1865L29.1051 37.3594V35.0992L41.216 27.9733L41.2549 30.1865Z" fill="#FF0044"/>
<path d="M22.2301 27.0801V33.3276L19.0808 31.477V25.2073L22.2301 27.0801Z" fill="#FFB7B4"/>
<path d="M19.6548 31.366V26.0783L21.6562 27.2429V32.4912L19.6548 31.366Z" fill="#51B5F4"/>
<path d="M24.8031 28.5654V34.8352L21.6538 32.9895V26.7469L24.8031 28.5654Z" fill="#FFB7B4"/>
<path d="M22.2277 32.8119V27.571L24.2291 28.7579V33.9395L22.2277 32.8119Z" fill="#51B5F4"/>
<path d="M19.0808 26.441L24.8031 29.8115L24.8007 30.3839L19.0808 27.0282V26.441Z" fill="#FFB7B4"/>
<path d="M41.216 11.1651V13.0552L29.1051 20.1342V18.3404L41.216 11.1651Z" fill="#FF0044"/>
<path d="M41.216 11.1676V11.1651L29.0808 4.05646L29.0711 4.06139L22.1377 0L12.9622 5.40614L19.6985 9.48727L16.8824 11.1182L29.1052 18.3404L32.2642 16.4701L32.0769 16.5959L39.2851 20.9608L48.5118 15.4412L41.216 11.1676Z" fill="url(#paint0_linear_412_1876)"/>
<path d="M16.8824 11.1182V12.1743L29.1052 19.3446V18.3404L16.8824 11.1182Z" fill="#FF717B"/>
<path d="M12.1401 5.6134L16.8751 8.32758V13.8694L12.1401 11.1158V5.6134Z" fill="#3879F0"/>
<path d="M12.1401 5.6134L14.0443 4.50305L18.7184 7.21969L16.8751 8.32757L12.1401 5.6134Z" fill="#FFB7B4"/>
<path d="M18.7184 7.21967L16.875 8.32754V13.8694L18.7184 12.8553V7.21967Z" fill="#0036AC"/>
<path d="M17.5438 9.18622L16.4568 9.81788L17.5438 16.5071L28.592 24.0327L29.6791 23.4036V16.137L17.5438 9.18622Z" fill="#3879F0"/>
<path d="M25.6737 17.3016C25.1484 18.5847 24.8177 19.9368 24.5818 21.3038L28.5896 24.0352L29.6766 23.4035V16.137L28.5896 16.7686C28.5896 16.7686 26.0434 16.396 25.6713 17.3016H25.6737Z" fill="#0036AC"/>
<path d="M16.4568 9.81787V17.1387L28.592 24.0327V16.7662L16.4568 9.81787Z" fill="#FFB7B4"/>
<path d="M24.0346 16.4109C23.6041 15.7323 22.7432 14.812 22.1134 15.1377C21.233 14.2075 20.5643 14.2223 20.1995 14.5973C19.4529 15.3647 20.253 17.1881 20.9217 18.444C21.3716 19.3298 21.931 19.5988 22.0988 19.5494C22.2107 19.5174 22.3006 19.51 22.4806 19.5988C22.6289 19.6753 22.8819 20.0109 22.8794 20.0059C23.2418 20.3686 23.806 20.4476 24.1002 20.1194C24.6936 19.4656 25.1557 18.1776 24.0321 16.4084L24.0346 16.4109Z" fill="#FF0044"/>
<path d="M22.2593 15.2018C22.2447 15.3425 22.252 15.3597 22.1134 15.2882C22.1474 14.9723 22.038 14.5381 21.8459 14.1532C21.7632 13.9878 21.4106 13.5906 21.5832 13.5264C21.7924 13.4475 22.0721 14.1655 22.1304 14.3431C22.2301 14.6491 22.2739 14.9403 22.2617 15.1993L22.2593 15.2018Z" fill="#FF0044"/>
<path d="M22.1158 14.5381C22.1158 14.5381 22.0088 13.8645 22.4465 13.8842C22.8867 13.904 23.3099 14.3974 23.3099 14.3974C23.3099 14.3974 23.4242 14.9798 22.9207 14.9279C22.4173 14.8761 22.1158 14.5381 22.1158 14.5381Z" fill="#FF0044"/>
<path d="M39.2851 39.9082L32.0599 35.6519L32.077 16.5959L39.2851 20.9436V39.9082Z" fill="#F4F5F7"/>
<path d="M39.2851 22.6979L32.0599 18.4441L32.077 16.5959L39.2851 20.9436V22.6979Z" fill="#FF717B"/>
<path d="M39.2851 39.9082L32.0599 35.6519L32.0818 33.5669L39.2851 37.8084V39.9082Z" fill="#FFB7B4"/>
<path d="M48.5483 34.3886L39.2852 39.9082V21.8935L48.5118 16.4183L48.5483 34.3886Z" fill="#0036AC"/>
<path d="M48.5483 34.3886L39.2852 39.9082V37.8084L48.5118 32.3307L48.5483 34.3886Z" fill="#FF0044"/>
<path d="M38.0692 28.3804L35.6859 27.0011V29.2218L38.0692 30.6183V28.3804Z" fill="#51B5F4"/>
<path d="M36.1577 28.9257L35.6859 29.2218V27.0011L36.1577 27.2725V28.9257Z" fill="#0036AC"/>
<path d="M36.1577 28.9257L38.0692 30.0361V30.6184L35.6859 29.2218L36.1577 28.9257Z" fill="#FF717B"/>
<path d="M35.202 26.7371L32.8212 25.3578V27.5785L35.202 28.9726V26.7371Z" fill="#51B5F4"/>
<path d="M33.2905 27.2824L32.8212 27.5785V25.3578L33.2905 25.6292V27.2824Z" fill="#0036AC"/>
<path d="M33.2905 27.2824L35.202 28.3928V28.9726L32.8212 27.5785L33.2905 27.2824Z" fill="#FF717B"/>
<path d="M35.202 29.6906L32.8212 28.3113V30.532L35.202 31.9261V29.6906Z" fill="#51B5F4"/>
<path d="M33.2905 30.2359L32.8212 30.532V28.3113L33.2905 28.5827V30.2359Z" fill="#0036AC"/>
<path d="M33.2905 30.2359L35.202 31.3462V31.9261L32.8212 30.532L33.2905 30.2359Z" fill="#FF717B"/>
<path d="M43.7842 25.1702V25.9845L41.2647 27.4625L41.255 26.6482L43.7842 25.1702Z" fill="#3879F0"/>
<path d="M46.7729 23.4455V24.2622L44.2535 25.7377L44.2413 24.926L46.7729 23.4455Z" fill="#3879F0"/>
<path d="M48.5118 15.4412V17.2671L39.2852 22.6979V20.9608L48.5118 15.4412Z" fill="#FF0044"/>
<path d="M18.237 18.6069L15.8658 21.4642L20.6202 24.2499L22.967 21.3383L18.237 18.6069Z" fill="#F4F5F7"/>
<path d="M15.8658 21.4642V22.2414C15.8658 22.614 16.0628 22.9594 16.3814 23.147L16.6149 23.2827C16.807 23.3962 17.0478 23.2555 17.0478 23.031V22.1575L15.8683 21.4642H15.8658Z" fill="#F4F5F7"/>
<path d="M17.0477 22.1575V22.9496C17.0477 23.3222 17.2447 23.6676 17.5633 23.8551L17.7968 23.9908C17.9889 24.1043 18.2296 23.9637 18.2296 23.7392V22.8509L17.0502 22.16L17.0477 22.1575Z" fill="#3879F0"/>
<path d="M18.2369 22.8484V23.6404C18.2369 24.013 18.4339 24.3585 18.7525 24.546L18.986 24.6817C19.1781 24.7952 19.4188 24.6545 19.4188 24.43V23.5417L18.2394 22.8509L18.2369 22.8484Z" fill="#F4F5F7"/>
<path d="M17.0477 22.1575L19.3872 19.2706L20.5789 19.959L18.2369 22.8484L17.0477 22.1575Z" fill="#3879F0"/>
<path d="M19.4164 23.5491V24.3412C19.4164 24.7138 19.6134 25.0592 19.9319 25.2467L20.1654 25.3824C20.3575 25.4959 20.5983 25.3553 20.5983 25.1308V24.2425L19.4188 23.5516L19.4164 23.5491Z" fill="#3879F0"/>
<path d="M19.4164 23.5491L21.7559 20.6622L22.9475 21.3506L20.6032 24.24L19.4164 23.5491Z" fill="#3879F0"/>
<path d="M22.9671 21.363L20.5984 24.2227L25.3309 26.9986L27.6801 24.1092L22.9671 21.363Z" fill="#F4F5F7"/>
<path d="M20.5984 24.2227V25C20.5984 25.3725 20.7954 25.718 21.114 25.9055L21.3474 26.0412C21.5395 26.1547 21.7803 26.0141 21.7803 25.7895V24.9161L20.6008 24.2227H20.5984Z" fill="#F4F5F7"/>
<path d="M21.7803 24.9136V25.7057C21.7803 26.0783 21.9773 26.4237 22.2958 26.6112L22.5293 26.7469C22.7214 26.8604 22.9622 26.7198 22.9622 26.4953V25.607L21.7827 24.9161L21.7803 24.9136Z" fill="#3879F0"/>
<path d="M22.967 25.607V26.399C22.967 26.7716 23.164 27.1171 23.4826 27.3046L23.7161 27.4403C23.9082 27.5538 24.1489 27.4132 24.1489 27.1886V26.3003L22.9695 25.6095L22.967 25.607Z" fill="#F4F5F7"/>
<path d="M21.7803 24.9136L24.1198 22.0292L25.3114 22.7176L22.967 25.6069L21.7803 24.9136Z" fill="#3879F0"/>
<path d="M24.1489 26.3077V27.0998C24.1489 27.4724 24.3459 27.8178 24.6645 28.0053L24.898 28.141C25.0901 28.2545 25.3308 28.1139 25.3308 27.8894V27.0011L24.1514 26.3102L24.1489 26.3077Z" fill="#3879F0"/>
<path d="M24.1489 26.3077L26.4884 23.4208L27.6801 24.1093L25.3357 26.9986L24.1489 26.3077Z" fill="#3879F0"/>
<path d="M25.1484 28.1558L27.6801 26.5767V24.1093L25.3357 26.9986L25.1484 28.1558Z" fill="#0036AC"/>
<g style="mix-blend-mode:multiply" opacity="0.31">
<path d="M15.8658 22.2414C15.8658 22.614 16.0628 22.9594 16.3814 23.147L16.6149 23.2827C16.807 23.3962 17.0478 23.2555 17.0478 23.031V22.1575L15.8683 21.4642V22.2414H15.8658Z" fill="#26120D"/>
<path d="M17.0477 22.9471C17.0477 23.3197 17.2447 23.6651 17.5633 23.8527L17.7968 23.9884C17.9889 24.1019 18.2296 23.9612 18.2296 23.7367V22.8484L17.0502 22.1575V22.9496L17.0477 22.9471Z" fill="#26120D"/>
<path d="M19.4188 23.5418L18.2369 22.8509V23.6429C18.2369 24.0155 18.4339 24.361 18.7525 24.5485L18.986 24.6842C19.1781 24.7977 19.4188 24.657 19.4188 24.4325V24.3437C19.4188 24.7163 19.6158 25.0617 19.9344 25.2492L20.1679 25.3849C20.36 25.4984 20.6008 25.3578 20.6008 25.1333V24.245L19.4237 23.5541V23.5442L19.4188 23.5418Z" fill="#26120D"/>
<path d="M20.5984 24.24V24.9975C20.5984 25.3701 20.7954 25.7155 21.114 25.9031L21.3474 26.0388C21.5395 26.1523 21.7803 26.0116 21.7803 25.7871V24.9136L20.6008 24.2203V24.24H20.5984Z" fill="#26120D"/>
<path d="M21.7803 25.7057C21.7803 26.0783 21.9773 26.4237 22.2958 26.6113L22.5293 26.747C22.7214 26.8605 22.9622 26.7198 22.9622 26.4953V25.607L21.7827 24.9161V25.7082L21.7803 25.7057Z" fill="#26120D"/>
<path d="M24.1489 26.3077V26.2979L22.967 25.607V26.399C22.967 26.7716 23.164 27.1171 23.4826 27.3046L23.7161 27.4403C23.9082 27.5538 24.1489 27.4132 24.1489 27.1886V27.0998C24.1489 27.4724 24.3459 27.8178 24.6645 28.0053L24.898 28.141C25.0901 28.2545 25.3309 28.1139 25.3309 27.8894V27.0011L24.1538 26.3102L24.1489 26.3077Z" fill="#26120D"/>
</g>
<path d="M33.8717 18.3034L38.6066 21.02V26.5594L33.8717 23.8058V18.3034Z" fill="#3879F0"/>
<path d="M33.8717 18.3034L35.7735 17.1931L40.4476 19.9097L38.6066 21.02L33.8717 18.3034Z" fill="#FFB7B4"/>
<path d="M40.4476 19.9097L38.6067 21.02V26.5594L40.4476 25.5453V19.9097Z" fill="#0036AC"/>
<path d="M20.3891 4.40436L20.3527 7.51579L36.2403 16.6502V13.6597L20.3891 4.40436Z" fill="#FF717B"/>
<path d="M36.2404 13.6597L41.4446 10.5286V13.7017L36.2404 16.6503V13.6597Z" fill="#FF0044"/>
<path d="M41.4446 10.5285L25.6907 1.30035L20.3892 4.40438L36.2403 13.6597L41.4446 10.5285Z" fill="url(#paint1_linear_412_1876)"/>
<path d="M12.1596 27.0603C12.1182 27.0356 12.0793 27.0307 12.0501 27.043C12.0428 27.0455 12.038 27.0504 12.0307 27.0553L11.948 27.1047L11.9796 27.1738C11.9796 27.1738 11.9796 27.1935 11.9796 27.2059C11.9796 27.3514 12.0623 27.5192 12.1669 27.5834C12.1742 27.5883 12.1815 27.5932 12.1888 27.5957C12.1985 27.6204 12.2058 27.6426 12.2058 27.6426L12.2812 27.5982C12.2812 27.5982 12.2836 27.5982 12.286 27.5957H12.2909C12.3274 27.5686 12.3517 27.5143 12.3517 27.4378C12.3517 27.2922 12.269 27.1244 12.1644 27.0603H12.1596Z" fill="#0036AC"/>
<path d="M12.252 27.4945C12.252 27.6401 12.1693 27.7043 12.0647 27.6426C11.9601 27.5809 11.8774 27.4106 11.8774 27.2651C11.8774 27.1195 11.9601 27.0553 12.0647 27.117C12.1693 27.1787 12.252 27.3489 12.252 27.4945Z" fill="#3879F0"/>
<path d="M12.1547 27.4328C12.1547 27.5019 12.1158 27.534 12.0672 27.5019C12.0185 27.4723 11.9796 27.3909 11.9796 27.3218C11.9796 27.2527 12.0185 27.2206 12.0672 27.2527C12.1158 27.2848 12.1547 27.3638 12.1547 27.4328Z" fill="#0036AC"/>
<path d="M14.003 28.0053C13.9616 27.9807 13.9227 27.9757 13.8935 27.9881C13.8862 27.9905 13.8814 27.9955 13.8741 28.0004L13.7914 28.0498L13.823 28.1188C13.823 28.1188 13.823 28.1386 13.823 28.1509C13.823 28.2965 13.9057 28.4643 14.0103 28.5284C14.0175 28.5334 14.0248 28.5383 14.0321 28.5408C14.0419 28.5654 14.0492 28.5877 14.0492 28.5877L14.1246 28.5432C14.1246 28.5432 14.127 28.5432 14.1294 28.5408H14.1343C14.1708 28.5136 14.1951 28.4593 14.1951 28.3829C14.1951 28.2373 14.1124 28.0695 14.0078 28.0053H14.003Z" fill="#0036AC"/>
<path d="M14.0953 28.4372C14.0953 28.5827 14.0127 28.6469 13.9081 28.5852C13.8059 28.521 13.7208 28.3533 13.7208 28.2077C13.7208 28.0621 13.8035 27.9979 13.9081 28.0596C14.0102 28.1238 14.0953 28.2916 14.0953 28.4372Z" fill="#3879F0"/>
<path d="M13.9981 28.3779C13.9981 28.447 13.9592 28.4791 13.9105 28.447C13.8619 28.4174 13.823 28.336 13.823 28.2669C13.823 28.1978 13.8619 28.1657 13.9105 28.1978C13.9592 28.2274 13.9981 28.3088 13.9981 28.3779Z" fill="#0036AC"/>
<path d="M14.0905 28.1213L14.0053 28.3754C13.9786 28.4494 13.8862 28.3976 13.874 28.3211L13.8083 27.9658L14.088 28.1213H14.0905Z" fill="#0036AC"/>
<path d="M14.0637 28.1213L13.9786 28.3754C13.9518 28.4494 13.8594 28.3976 13.8473 28.3211L13.7816 27.9658L14.0613 28.1213H14.0637Z" fill="#FFB7B4"/>
<path d="M12.2495 27.159L12.1644 27.4131C12.1376 27.4872 12.0452 27.4353 12.0331 27.3588L11.9674 27.0035L12.2471 27.159H12.2495Z" fill="#0036AC"/>
<path d="M12.2252 27.159L12.1401 27.4131C12.1133 27.4872 12.0209 27.4353 12.0088 27.3588L11.9431 27.0035L12.2228 27.159H12.2252Z" fill="#FFB7B4"/>
<path d="M13.3998 26.3472C13.3585 26.3225 13.3196 26.3176 13.2904 26.3299C13.2831 26.3324 13.2782 26.3373 13.2709 26.3423L13.1882 26.3916L13.2198 26.4607C13.2198 26.4607 13.2198 26.4804 13.2198 26.4928C13.2198 26.6384 13.3025 26.8061 13.4071 26.8703C13.4144 26.8752 13.4217 26.8802 13.429 26.8826C13.4387 26.9073 13.446 26.9295 13.446 26.9295L13.5214 26.8851C13.5214 26.8851 13.5238 26.8851 13.5263 26.8826H13.5311C13.5676 26.8555 13.5919 26.8012 13.5919 26.7247C13.5919 26.5791 13.5092 26.4114 13.4047 26.3472H13.3998Z" fill="#2A2183"/>
<path d="M13.4922 26.779C13.4922 26.9246 13.4095 26.9887 13.3049 26.9271C13.2004 26.8654 13.1177 26.6951 13.1177 26.5495C13.1177 26.404 13.2004 26.3398 13.3049 26.4015C13.4095 26.4632 13.4922 26.6334 13.4922 26.779Z" fill="#4B42AE"/>
<path d="M13.3949 26.7198C13.3949 26.7889 13.356 26.8209 13.3074 26.7889C13.2588 26.7593 13.2198 26.6778 13.2198 26.6087C13.2198 26.5397 13.2588 26.5076 13.3074 26.5397C13.356 26.5717 13.3949 26.6507 13.3949 26.7198Z" fill="#2A2183"/>
<path d="M15.2432 27.2898C15.2018 27.2651 15.1629 27.2602 15.1338 27.2725C15.1265 27.275 15.1216 27.2799 15.1143 27.2848L15.0316 27.3342L15.0632 27.4033C15.0632 27.4033 15.0632 27.423 15.0632 27.4353C15.0632 27.5809 15.1459 27.7487 15.2505 27.8129C15.2578 27.8178 15.2651 27.8227 15.2724 27.8252C15.2821 27.8499 15.2894 27.8721 15.2894 27.8721L15.3648 27.8277C15.3648 27.8277 15.3672 27.8277 15.3697 27.8252H15.3745C15.411 27.7981 15.4353 27.7438 15.4353 27.6673C15.4353 27.5217 15.3526 27.3539 15.2481 27.2898H15.2432Z" fill="#0036AC"/>
<path d="M15.3356 27.724C15.3356 27.8696 15.2529 27.9337 15.1483 27.8721C15.0437 27.8104 14.9611 27.6401 14.9611 27.4945C14.9611 27.349 15.0437 27.2848 15.1483 27.3465C15.2529 27.4082 15.3356 27.5784 15.3356 27.724Z" fill="#3879F0"/>
<path d="M15.2383 27.6648C15.2383 27.7339 15.1994 27.7659 15.1508 27.7339C15.1021 27.7018 15.0632 27.6228 15.0632 27.5537C15.0632 27.4847 15.1021 27.4526 15.1508 27.4847C15.1994 27.5143 15.2383 27.5957 15.2383 27.6648Z" fill="#0036AC"/>
<path d="M15.3307 27.4082L15.2456 27.6623C15.2188 27.7364 15.1264 27.6845 15.1142 27.6081L15.0486 27.2527L15.3283 27.4082H15.3307Z" fill="#0036AC"/>
<path d="M15.304 27.4082L15.2188 27.6623C15.1921 27.7364 15.0997 27.6845 15.0875 27.6081L15.0219 27.2527L15.3015 27.4082H15.304Z" fill="#FFB7B4"/>
<path d="M13.4897 26.4459L13.4046 26.7001C13.3779 26.7741 13.2855 26.7223 13.2733 26.6458L13.2076 26.2905L13.4873 26.4459H13.4897Z" fill="#1D45AA"/>
<path d="M13.463 26.4459L13.3779 26.7001C13.3511 26.7741 13.2587 26.7223 13.2466 26.6458L13.1809 26.2905L13.4606 26.4459H13.463Z" fill="#15327D"/>
<path d="M13.3342 26.6729C13.3342 26.6927 13.322 26.7001 13.3098 26.6927C13.2952 26.6853 13.2855 26.6606 13.2855 26.6408C13.2855 26.6211 13.2977 26.6137 13.3098 26.6211C13.3244 26.6285 13.3342 26.6532 13.3342 26.6729Z" fill="#0F2559"/>
<path d="M14.6328 28.4569C14.5234 28.4569 14.4164 28.4297 14.3167 28.3754L11.9237 27.0554C11.9018 27.043 11.8872 27.0257 11.8775 27.0035L11.5954 26.098C11.5784 26.0511 11.5419 26.0116 11.5832 25.9845L12.2423 25.5922C12.2885 25.565 12.3493 25.5798 12.3784 25.6292C12.4052 25.6761 12.3906 25.7377 12.342 25.7674L11.7559 26.1153L12.0501 26.8974L14.4115 28.2002C14.5526 28.2792 14.7228 28.2767 14.8614 28.1953L15.4086 27.8819C15.4572 27.8523 15.4889 27.8005 15.4889 27.7438C15.4889 27.6846 15.4597 27.6327 15.411 27.6031L13.232 26.3003C13.1858 26.2732 13.1688 26.2115 13.198 26.1621C13.2248 26.1153 13.2855 26.098 13.3342 26.1276L15.5132 27.4304C15.625 27.497 15.6907 27.6155 15.6883 27.7462C15.6858 27.877 15.6202 27.993 15.5083 28.0596L14.9611 28.373C14.859 28.4322 14.7471 28.4618 14.6353 28.4618L14.6328 28.4569Z" fill="#FFB7B4"/>
<path d="M14.6326 28.3335C14.5232 28.3335 14.4162 28.3063 14.3165 28.252L11.9429 26.9468C11.9211 26.9344 11.9065 26.9172 11.8967 26.895L11.6317 25.9746C11.6146 25.9277 11.5392 25.8833 11.5806 25.8586L12.2396 25.4663C12.2858 25.4392 12.3466 25.454 12.3758 25.5033C12.4026 25.5502 12.388 25.6119 12.3393 25.6415L11.8457 25.982L12.0475 26.7716L14.4089 28.0744C14.5499 28.1533 14.7202 28.1509 14.8588 28.0695L15.406 27.7561C15.4546 27.7265 15.4862 27.6747 15.4862 27.6179C15.4862 27.5587 15.457 27.5069 15.4084 27.4773L13.2294 26.1745C13.1832 26.1473 13.1662 26.0856 13.1954 26.0363C13.2221 25.9894 13.2829 25.9721 13.3316 26.0017L15.5105 27.3046C15.6224 27.3712 15.6881 27.4896 15.6856 27.6204C15.6832 27.7512 15.6175 27.8671 15.5057 27.9337L14.9585 28.2471C14.8564 28.3063 14.7445 28.3359 14.6326 28.3359V28.3335Z" fill="#0036AC"/>
<path d="M11.6878 24.62C11.6562 24.62 11.6246 24.6027 11.61 24.5707L11.3036 23.9464C11.2817 23.902 11.2987 23.8502 11.3425 23.828C11.3863 23.8058 11.4373 23.823 11.4592 23.8674L11.7657 24.4917C11.7875 24.5361 11.7705 24.5879 11.7267 24.6101C11.7146 24.6175 11.7 24.62 11.6878 24.62Z" fill="#0036AC"/>
<path d="M13.0107 23.8551C12.9791 23.8551 12.9475 23.8378 12.9329 23.8058L12.6265 23.1815C12.6046 23.1371 12.6216 23.0853 12.6654 23.0631C12.7092 23.0409 12.7602 23.0581 12.7821 23.1025L13.0885 23.7268C13.1104 23.7712 13.0934 23.823 13.0496 23.8452C13.0375 23.8526 13.0229 23.8551 13.0107 23.8551Z" fill="#0036AC"/>
<path d="M12.9645 23.0458C12.9645 22.9866 12.9305 22.915 12.8867 22.8879C12.8697 22.878 12.8551 22.8755 12.8405 22.8805H12.8356C12.8356 22.8805 12.8332 22.8805 12.8308 22.8829L11.1017 23.9143L11.2136 24.129L12.928 23.1099C12.9499 23.105 12.9645 23.0803 12.9645 23.0408V23.0458Z" fill="#3879F0"/>
<path d="M11.2257 24.0821C11.2257 24.1413 11.1917 24.1684 11.1479 24.1413C11.1065 24.1141 11.0701 24.0451 11.0701 23.9834C11.0701 23.9217 11.1041 23.897 11.1479 23.9242C11.1892 23.9513 11.2257 24.0204 11.2257 24.0821Z" fill="#3879F0"/>
<path d="M13.2807 23.5984V25.0912L11.6343 26.0683V24.5854L13.2807 23.5984Z" fill="#0036AC"/>
<path d="M13.2807 25.0912L11.6343 26.0683L14.3264 27.418L15.7466 26.6655L13.2807 25.0912Z" fill="#0036AC"/>
<path d="M13.2806 25.0912L15.7466 26.6655V25.1554L13.2806 23.5984V25.0912Z" fill="#3879F0"/>
<path d="M13.2806 23.48L11.4348 24.5854L14.3215 26.0955L15.946 25.1554L13.2831 23.4825L13.2806 23.48ZM14.3215 25.9771L11.6342 24.583L13.2831 23.596L15.749 25.153L14.3239 25.9771H14.3215Z" fill="#FFB7B4"/>
<path d="M11.4348 24.5854V26.2115L14.3288 27.729L14.3215 26.0955L11.4348 24.5854Z" fill="#1D42A7"/>
<path d="M11.4348 24.5854V26.2115L14.3288 27.729L14.3215 26.0955L11.4348 24.5854Z" fill="#3879F0"/>
<path d="M14.3288 27.7289L15.946 26.7864V25.1554L14.3215 26.0955L14.3288 27.7289Z" fill="#2453CB"/>
<path d="M14.3288 27.7289L15.946 26.7864V25.1554L14.3215 26.0955L14.3288 27.7289Z" fill="#0036AC"/>
<path d="M33.164 38.9903C33.1226 38.9657 33.0837 38.9607 33.0545 38.9731C33.0472 38.9755 33.0424 38.9805 33.0351 38.9854L32.9524 39.0347L32.984 39.1038C32.984 39.1038 32.984 39.1236 32.984 39.1359C32.984 39.2815 33.0667 39.4493 33.1713 39.5134C33.1786 39.5184 33.1859 39.5233 33.1932 39.5258C33.2029 39.5504 33.2102 39.5726 33.2102 39.5726L33.2856 39.5282C33.2856 39.5282 33.288 39.5282 33.2904 39.5258H33.2953C33.3318 39.4986 33.3561 39.4443 33.3561 39.3678C33.3561 39.2223 33.2734 39.0545 33.1688 38.9903H33.164Z" fill="#0036AC"/>
<path d="M33.2588 39.4221C33.2588 39.5677 33.1761 39.6319 33.0715 39.5702C32.9694 39.506 32.8843 39.3382 32.8843 39.1927C32.8843 39.0471 32.967 38.9829 33.0715 39.0446C33.1737 39.1088 33.2588 39.2766 33.2588 39.4221Z" fill="#3879F0"/>
<path d="M33.1591 39.3629C33.1591 39.432 33.1202 39.4641 33.0716 39.432C33.0229 39.4024 32.984 39.321 32.984 39.2519C32.984 39.1828 33.0229 39.1507 33.0716 39.1828C33.1202 39.2124 33.1591 39.2938 33.1591 39.3629Z" fill="#0036AC"/>
<path d="M35.0098 39.9354C34.9685 39.9107 34.9295 39.9058 34.9004 39.9181C34.8931 39.9206 34.8882 39.9255 34.8809 39.9305L34.7982 39.9798L34.8298 40.0489C34.8298 40.0489 34.8298 40.0686 34.8298 40.081C34.8298 40.2266 34.9125 40.3943 35.0171 40.4585C35.0244 40.4634 35.0317 40.4684 35.039 40.4708C35.0487 40.4955 35.056 40.5177 35.056 40.5177L35.1314 40.4733C35.1314 40.4733 35.1338 40.4733 35.1363 40.4708H35.1411C35.1776 40.4437 35.2019 40.3894 35.2019 40.3129C35.2019 40.1673 35.1192 39.9995 35.0147 39.9354H35.0098Z" fill="#0036AC"/>
<path d="M35.1022 40.3672C35.1022 40.5128 35.0195 40.5769 34.9149 40.5152C34.8128 40.4511 34.7277 40.2833 34.7277 40.1377C34.7277 39.9922 34.8103 39.928 34.9149 39.9897C35.0171 40.0538 35.1022 40.2216 35.1022 40.3672Z" fill="#3879F0"/>
<path d="M35.0049 40.308C35.0049 40.3771 34.966 40.4091 34.9174 40.3771C34.8687 40.3474 34.8298 40.266 34.8298 40.1969C34.8298 40.1278 34.8687 40.0958 34.9174 40.1278C34.966 40.1599 35.0049 40.2389 35.0049 40.308Z" fill="#0036AC"/>
<path d="M35.0948 40.0513L35.0097 40.3055C34.983 40.3795 34.8906 40.3277 34.8784 40.2512L34.8127 39.8959L35.0924 40.0513H35.0948Z" fill="#0036AC"/>
<path d="M35.0706 40.0513L34.9854 40.3055C34.9587 40.3795 34.8663 40.3277 34.8541 40.2512L34.7885 39.8959L35.0681 40.0513H35.0706Z" fill="#FFB7B4"/>
<path d="M33.2539 39.089L33.1688 39.3432C33.142 39.4172 33.0496 39.3654 33.0375 39.2889L32.9718 38.9336L33.2515 39.089H33.2539Z" fill="#0036AC"/>
<path d="M33.2296 39.089L33.1445 39.3432C33.1177 39.4172 33.0253 39.3654 33.0132 39.2889L32.9475 38.9336L33.2272 39.089H33.2296Z" fill="#FFB7B4"/>
<path d="M34.4043 38.2773C34.363 38.2526 34.3241 38.2476 34.2949 38.26C34.2876 38.2624 34.2827 38.2674 34.2754 38.2723L34.1927 38.3217L34.2244 38.3908C34.2244 38.3908 34.2244 38.4105 34.2244 38.4228C34.2244 38.5684 34.307 38.7362 34.4116 38.8003C34.4189 38.8053 34.4262 38.8102 34.4335 38.8127C34.4432 38.8374 34.4505 38.8596 34.4505 38.8596L34.5259 38.8152C34.5259 38.8152 34.5284 38.8152 34.5308 38.8127H34.5356C34.5721 38.7855 34.5964 38.7313 34.5964 38.6548C34.5964 38.5092 34.5138 38.3414 34.4092 38.2773H34.4043Z" fill="#2A2183"/>
<path d="M34.4991 38.7091C34.4991 38.8546 34.4165 38.9188 34.3119 38.8571C34.2097 38.793 34.1246 38.6252 34.1246 38.4796C34.1246 38.334 34.2073 38.2699 34.3119 38.3315C34.414 38.3957 34.4991 38.5635 34.4991 38.7091Z" fill="#4B42AE"/>
<path d="M34.3995 38.6498C34.3995 38.7189 34.3606 38.751 34.3119 38.7189C34.2633 38.6893 34.2244 38.6079 34.2244 38.5388C34.2244 38.4697 34.2633 38.4376 34.3119 38.4697C34.3606 38.4993 34.3995 38.5807 34.3995 38.6498Z" fill="#2A2183"/>
<path d="M36.2501 39.2198C36.2088 39.1951 36.1699 39.1902 36.1407 39.2025C36.1334 39.205 36.1286 39.2099 36.1213 39.2149L36.0386 39.2642L36.0702 39.3333C36.0702 39.3333 36.0702 39.3531 36.0702 39.3654C36.0702 39.511 36.1529 39.6788 36.2574 39.7429C36.2647 39.7478 36.272 39.7528 36.2793 39.7552C36.2891 39.7799 36.2964 39.8021 36.2964 39.8021L36.3717 39.7577C36.3717 39.7577 36.3742 39.7577 36.3766 39.7552H36.3815C36.418 39.7281 36.4423 39.6738 36.4423 39.5973C36.4423 39.4518 36.3596 39.284 36.255 39.2198H36.2501Z" fill="#0036AC"/>
<path d="M36.3425 39.6541C36.3425 39.7997 36.2598 39.8638 36.1553 39.8021C36.0531 39.738 35.968 39.5702 35.968 39.4246C35.968 39.279 36.0507 39.2149 36.1553 39.2766C36.2574 39.3407 36.3425 39.5085 36.3425 39.6541Z" fill="#3879F0"/>
<path d="M36.2453 39.5924C36.2453 39.6615 36.2064 39.6936 36.1577 39.6615C36.1091 39.6319 36.0702 39.5504 36.0702 39.4814C36.0702 39.4123 36.1091 39.3802 36.1577 39.4123C36.2064 39.4419 36.2453 39.5233 36.2453 39.5924Z" fill="#0036AC"/>
<path d="M36.3352 39.3382L36.2501 39.5924C36.2233 39.6664 36.1309 39.6146 36.1188 39.5381L36.0531 39.1828L36.3328 39.3382H36.3352Z" fill="#0036AC"/>
<path d="M36.3109 39.3382L36.2258 39.5924C36.199 39.6664 36.1066 39.6146 36.0945 39.5381L36.0288 39.1828L36.3085 39.3382H36.3109Z" fill="#FFB7B4"/>
<path d="M34.4943 38.376L34.4091 38.6301C34.3824 38.7041 34.29 38.6523 34.2778 38.5758L34.2122 38.2205L34.4918 38.376H34.4943Z" fill="#1D45AA"/>
<path d="M34.47 38.376L34.3849 38.6301C34.3581 38.7041 34.2657 38.6523 34.2535 38.5758L34.1879 38.2205L34.4675 38.376H34.47Z" fill="#15327D"/>
<path d="M34.3411 38.603C34.3411 38.6227 34.329 38.6301 34.3168 38.6227C34.3046 38.6153 34.2925 38.5906 34.2925 38.5709C34.2925 38.5512 34.3046 38.5438 34.3168 38.5512C34.3314 38.5586 34.3411 38.5832 34.3411 38.603Z" fill="#0F2559"/>
<path d="M35.6397 40.3869C35.5302 40.3869 35.4232 40.3598 35.3235 40.3055L32.9305 38.9854C32.9086 38.9731 32.894 38.9558 32.8843 38.9336L32.6022 38.028C32.5852 37.9812 32.5487 37.9392 32.5901 37.9145L33.2491 37.5222C33.2953 37.4951 33.3561 37.5099 33.3853 37.5592C33.412 37.6061 33.3974 37.6678 33.3488 37.6974L32.7627 38.0453L33.057 38.8275L35.4184 40.1303C35.5594 40.2093 35.7296 40.2068 35.8683 40.1254L36.4154 39.812C36.4641 39.7824 36.4957 39.7306 36.4957 39.6738C36.4957 39.6171 36.4665 39.5628 36.4179 39.5332L34.2389 38.2304C34.1927 38.2032 34.1757 38.1415 34.2048 38.0922C34.2316 38.0453 34.2924 38.028 34.341 38.0577L36.52 39.3605C36.6319 39.4271 36.6975 39.5455 36.6951 39.6763C36.6951 39.8071 36.627 39.923 36.5151 39.9897L35.968 40.303C35.8658 40.3622 35.754 40.3918 35.6421 40.3918L35.6397 40.3869Z" fill="#FFB7B4"/>
<path d="M35.6395 40.2635C35.53 40.2635 35.423 40.2364 35.3233 40.1821L32.9498 38.8768C32.9279 38.8645 32.9133 38.8472 32.9036 38.825L32.6385 37.9047C32.6215 37.8578 32.5461 37.8134 32.5874 37.7887L33.2465 37.3964C33.2927 37.3692 33.3535 37.384 33.3827 37.4334C33.4094 37.4803 33.3948 37.5419 33.3462 37.5716L32.8525 37.9121L33.0543 38.7016L35.4157 40.0044C35.5568 40.0834 35.727 40.0809 35.8656 39.9995L36.4128 39.6861C36.4614 39.6565 36.4931 39.6047 36.4931 39.548C36.4931 39.4912 36.4639 39.4369 36.4152 39.4073L34.2363 38.1045C34.19 38.0774 34.173 38.0157 34.2022 37.9663C34.229 37.9195 34.2898 37.9022 34.3384 37.9318L36.5174 39.2346C36.6292 39.3012 36.6949 39.4197 36.6925 39.5504C36.6925 39.6812 36.6244 39.7972 36.5125 39.8638L35.9653 40.1772C35.8632 40.2364 35.7513 40.266 35.6395 40.266V40.2635Z" fill="#0036AC"/>
<path d="M32.6947 36.5501C32.6631 36.5501 32.6314 36.5328 32.6168 36.5007L32.3104 35.8765C32.2885 35.832 32.3056 35.7802 32.3493 35.758C32.3931 35.7358 32.4442 35.7531 32.4661 35.7975L32.7725 36.4218C32.7944 36.4662 32.7774 36.518 32.7336 36.5402C32.7214 36.5476 32.7068 36.5501 32.6947 36.5501Z" fill="#0036AC"/>
<path d="M34.0175 35.7852C33.9859 35.7852 33.9543 35.7679 33.9397 35.7358L33.6333 35.1116C33.6114 35.0671 33.6284 35.0153 33.6722 34.9931C33.716 34.9709 33.7671 34.9882 33.7889 35.0326L34.0954 35.6569C34.1173 35.7013 34.1002 35.7531 34.0565 35.7753C34.0443 35.7827 34.0321 35.7852 34.0175 35.7852Z" fill="#0036AC"/>
<path d="M33.9714 34.9758C33.9714 34.9166 33.9373 34.8451 33.8935 34.8179C33.8765 34.808 33.8619 34.8056 33.8473 34.8105H33.8425C33.8425 34.8105 33.84 34.8105 33.8376 34.813L32.1085 35.8444L32.2204 36.059L33.9349 35.04C33.9568 35.035 33.9714 35.0104 33.9714 34.9709V34.9758Z" fill="#3879F0"/>
<path d="M32.2325 36.0121C32.2325 36.0713 32.1985 36.0985 32.1547 36.0713C32.1134 36.0442 32.0769 35.9751 32.0769 35.9134C32.0769 35.8517 32.111 35.8271 32.1547 35.8542C32.1961 35.8813 32.2325 35.9504 32.2325 36.0121Z" fill="#3879F0"/>
<path d="M34.2875 35.5286V37.0214L32.6387 37.9985V36.5131L34.2875 35.5286Z" fill="#0036AC"/>
<path d="M34.2875 37.0213L32.6387 37.9984L35.3332 39.3481L36.7535 38.5955L34.2875 37.0213Z" fill="#0036AC"/>
<path d="M34.2875 37.0214L36.7534 38.5956V37.083L34.2875 35.5286V37.0214Z" fill="#3879F0"/>
<path d="M34.2875 35.4101L32.4417 36.5155L35.3283 38.0256L36.9528 37.0855L34.2899 35.4126L34.2875 35.4101ZM35.3283 37.9071L32.6411 36.513L34.2899 35.5261L36.7559 37.083L35.3308 37.9071H35.3283Z" fill="#FFB7B4"/>
<path d="M32.4417 36.5155V38.1391L35.3356 39.659L35.3283 38.0256L32.4417 36.5155Z" fill="#1D42A7"/>
<path d="M32.4417 36.5155V38.1391L35.3356 39.659L35.3283 38.0256L32.4417 36.5155Z" fill="#3879F0"/>
<path d="M35.3357 39.659L36.9505 38.7165V37.0855L35.3284 38.0256L35.3357 39.659Z" fill="#2453CB"/>
<path d="M35.3357 39.659L36.9505 38.7165V37.0855L35.3284 38.0256L35.3357 39.659Z" fill="#0036AC"/>
<path d="M39.285 39.7997L42.3857 41.5491L51.7802 35.8715V35.5557L48.6625 34.2208L39.285 39.4863V39.7997Z" fill="#3879F0"/>
<path d="M48.6625 34.2208L45.1897 36.1257L42.3857 41.2357V41.5491L51.7802 35.8715V35.5557L48.6625 34.2208Z" fill="#0036AC"/>
<path d="M39.285 39.4863L42.3857 41.2357L51.7802 35.5557L48.6625 33.905L39.285 39.4863Z" fill="#FFB7B4"/>
<path d="M46.7656 33.335V35.1362L48.2904 35.9357V34.2307L46.7656 33.335Z" fill="#3879F0"/>
<path d="M48.2904 34.2307L50.039 33.1968L48.502 32.3184L46.7656 33.335L48.2904 34.2307Z" fill="#FFB7B4"/>
<path d="M48.2904 34.2307V35.9357L50.0389 34.9166V33.1968L48.2904 34.2307Z" fill="#0036AC"/>
<path d="M44.5525 34.6921V36.4933L46.0749 37.2927V35.5878L44.5525 34.6921Z" fill="#3879F0"/>
<path d="M46.0749 35.5877L47.8234 34.5564L46.2889 33.6755L44.5525 34.6921L46.0749 35.5877Z" fill="#FFB7B4"/>
<path d="M46.0748 35.5877V37.2927L47.8234 36.2737V34.5563L46.0748 35.5877Z" fill="#0036AC"/>
<path d="M42.2714 35.9924V37.7937L43.7937 38.5931V36.8881L42.2714 35.9924Z" fill="#3879F0"/>
<path d="M43.7937 36.8881L45.5447 35.8567L44.0077 34.9758L42.2714 35.9924L43.7937 36.8881Z" fill="#FFB7B4"/>
<path d="M43.7937 36.8881V38.5931L45.5447 37.574V35.8567L43.7937 36.8881Z" fill="#0036AC"/>
<path d="M39.9368 37.347V39.1507L41.4591 39.9477V38.2427L39.9368 37.347Z" fill="#3879F0"/>
<path d="M41.4591 38.2427L43.2077 37.2114L41.6707 36.3329L39.9368 37.3471L41.4591 38.2427Z" fill="#FFB7B4"/>
<path d="M41.4591 38.2428V39.9477L43.2076 38.9287V37.2114L41.4591 38.2428Z" fill="#0036AC"/>
<defs>
<linearGradient id="paint0_linear_412_1876" x1="12.9622" y1="10.4816" x2="48.5118" y2="10.4816" gradientUnits="userSpaceOnUse">
<stop stop-color="#FFE8E8"/>
<stop offset="1" stop-color="#FFB7B4"/>
</linearGradient>
<linearGradient id="paint1_linear_412_1876" x1="20.3892" y1="7.4788" x2="41.4446" y2="7.4788" gradientUnits="userSpaceOnUse">
<stop stop-color="#FFE8E8"/>
<stop offset="1" stop-color="#FFB7B4"/>
</linearGradient>
</defs>
</svg>
