<svg width="12" height="12" viewBox="0 0 12 12" fill="none" xmlns="http://www.w3.org/2000/svg">
<path opacity="0.4" d="M11 3.905V8.09C11 9.91 9.915 10.995 8.095 10.995H3.905C2.085 11 1 9.915 1 8.095V3.905C1 2.085 2.085 1 3.905 1H8.09C9.915 1 11 2.085 11 3.905Z" fill="#6DE2A6"/>
<path d="M6.26498 2.735L8.40998 4.88C8.55498 5.025 8.55498 5.265 8.40998 5.41C8.26498 5.555 8.02498 5.555 7.87998 5.41L6.37498 3.905V9C6.37498 9.205 6.20498 9.375 5.99998 9.375C5.79498 9.375 5.62498 9.205 5.62498 9V3.905L4.11998 5.41C3.97498 5.555 3.73498 5.555 3.58998 5.41C3.51498 5.335 3.47998 5.24 3.47998 5.145C3.47998 5.05 3.51998 4.95 3.58998 4.88L5.73498 2.735C5.80498 2.665 5.89998 2.625 5.99998 2.625C6.09998 2.625 6.19498 2.665 6.26498 2.735Z" fill="#6DE2A6"/>
</svg>
