<svg width="12" height="12" viewBox="0 0 12 12" fill="none" xmlns="http://www.w3.org/2000/svg">
<path opacity="0.4" d="M10.5202 3.595L6.00022 6.21L1.48022 3.595C1.68022 3.225 1.97022 2.9 2.29522 2.72L4.96522 1.24C5.53522 0.92 6.46522 0.92 7.03522 1.24L9.70522 2.72C10.0302 2.9 10.3202 3.225 10.5202 3.595Z" fill="#FF9A85"/>
<path opacity="0.6" d="M6.00031 6.20997V11C5.62531 11 5.25031 10.92 4.96531 10.76L2.29531 9.27997C1.69031 8.94497 1.19531 8.10497 1.19531 7.41497V4.58497C1.19531 4.26497 1.30531 3.91497 1.48031 3.59497L6.00031 6.20997Z" fill="#FF9A85"/>
<path d="M10.8052 4.58497V7.41497C10.8052 8.10497 10.3102 8.94497 9.70524 9.27997L7.03524 10.76C6.75024 10.92 6.37524 11 6.00024 11V6.20997L10.5202 3.59497C10.6952 3.91497 10.8052 4.26497 10.8052 4.58497Z" fill="#FF9A85"/>
</svg>
