<svg width="12" height="12" viewBox="0 0 12 12" fill="none" xmlns="http://www.w3.org/2000/svg">
<path d="M3.62 1H2.67C1.575 1 1 1.575 1 2.665V3.615C1 4.705 1.575 5.28 2.665 5.28H3.615C4.705 5.28 5.28 4.705 5.28 3.615V2.665C5.285 1.575 4.71 1 3.62 1Z" fill=" #5F05D1"/>
<path opacity="0.4" d="M9.33497 1H8.38497C7.29497 1 6.71997 1.575 6.71997 2.665V3.615C6.71997 4.705 7.29497 5.28 8.38497 5.28H9.33497C10.425 5.28 11 4.705 11 3.615V2.665C11 1.575 10.425 1 9.33497 1Z" fill=" #5F05D1"/>
<path d="M9.33497 6.71509H8.38497C7.29497 6.71509 6.71997 7.29009 6.71997 8.38009V9.33009C6.71997 10.4201 7.29497 10.9951 8.38497 10.9951H9.33497C10.425 10.9951 11 10.4201 11 9.33009V8.38009C11 7.29009 10.425 6.71509 9.33497 6.71509Z" fill=" #5F05D1"/>
<path opacity="0.4" d="M3.62 6.71509H2.67C1.575 6.71509 1 7.29009 1 8.38009V9.33009C1 10.4251 1.575 11.0001 2.665 11.0001H3.615C4.705 11.0001 5.28 10.4251 5.28 9.33509V8.38509C5.285 7.29009 4.71 6.71509 3.62 6.71509Z" fill=" #5F05D1"/>
</svg>
