<svg width="12" height="12" viewBox="0 0 12 12" fill="none" xmlns="http://www.w3.org/2000/svg">
<path d="M3 2.56006C2.795 2.56006 2.625 2.39006 2.625 2.18506V1.31006C2.625 1.10506 2.795 0.935059 3 0.935059C3.205 0.935059 3.375 1.10506 3.375 1.31006V2.18506C3.375 2.39506 3.205 2.56006 3 2.56006Z" fill="#AED0D4"/>
<path d="M5 2.56006C4.795 2.56006 4.625 2.39006 4.625 2.18506V1.31006C4.625 1.10506 4.795 0.935059 5 0.935059C5.205 0.935059 5.375 1.10506 5.375 1.31006V2.18506C5.375 2.39506 5.205 2.56006 5 2.56006Z" fill="#AED0D4"/>
<path d="M7 2.56006C6.795 2.56006 6.625 2.39006 6.625 2.18506V1.31006C6.625 1.10506 6.795 0.935059 7 0.935059C7.205 0.935059 7.375 1.10506 7.375 1.31006V2.18506C7.375 2.39506 7.205 2.56006 7 2.56006Z" fill="#AED0D4"/>
<path d="M11.125 6.62488C11.125 5.31488 10.11 4.25488 8.83 4.14488C8.46 3.53988 7.8 3.12988 7.04 3.12988H3.355C2.195 3.12988 1.25 4.07488 1.25 5.23488V5.49988H9.145V5.23488C9.145 5.13988 9.13 5.04488 9.115 4.95488C9.84 5.16988 10.375 5.82988 10.375 6.62488C10.375 7.40988 9.855 8.06488 9.145 8.28488V5.99988H1.25V8.89488C1.25 10.0549 2.195 10.9999 3.355 10.9999H7.04C8.14 10.9999 9.035 10.1499 9.125 9.06988C10.265 8.83988 11.125 7.82988 11.125 6.62488Z" fill="#AED0D4"/>
</svg>
