<svg width="44" height="86" viewBox="0 0 44 86" fill="none" xmlns="http://www.w3.org/2000/svg">
<g clipPath="url(#clip0_676_5103)">
<path d="M44 75.2558V74.5748L18.1109 59.9972L0 69.9873V70.6683L25.8599 86L44 75.2558Z" fill="#F4F4F6"/>
<path d="M18.1108 59.9972L16.6575 60.8045L25.8598 85.317V86L43.9999 75.2558V74.5748L18.1108 59.9972Z" fill="#D1706F"/>
<path d="M44 74.5748L18.1109 59.3142L0 69.9873L25.8599 85.317L44 74.5748Z" fill="#9AC4FF"/>
<path d="M43.9999 74.5748L18.1108 59.3142L2.90845 68.2739L28.7509 83.6075L43.9999 74.5748Z" fill="#E5E5E5"/>
<path d="M16.1364 68.9748L10.3562 65.5717L10.3698 50.325L16.1364 53.805V68.9748Z" fill="#F4F5F7"/>
<path d="M16.1364 55.2085L10.3562 51.8034L10.3698 50.325L16.1364 53.805V55.2085Z" fill="#FF717B"/>
<path d="M16.1364 68.9748L10.3562 65.5717L10.3737 63.9017L16.1364 67.2949V68.9748Z" fill="#FFB7B4"/>
<path d="M23.547 64.559L16.1365 68.9747V54.563L23.5178 50.1828L23.547 64.559Z" fill="#0036AC"/>
<path d="M23.547 64.5591L16.1365 68.9748V67.295L23.5178 62.9148L23.547 64.5591Z" fill="#FF0044"/>
<path d="M15.1615 59.7545L13.2568 58.649V60.4256L15.1615 61.5428V59.7545Z" fill="#51B5F4"/>
<path d="M13.6323 60.1907L13.2568 60.4256V58.649L13.6323 58.8682V60.1907Z" fill="#0036AC"/>
<path d="M13.6323 60.1907L15.1615 61.0789V61.5428L13.2568 60.4256L13.6323 60.1907Z" fill="#FF717B"/>
<path d="M15.1615 62.1172L13.2568 61.0118V62.7884L15.1615 63.9056V62.1172Z" fill="#51B5F4"/>
<path d="M13.6323 62.5535L13.2568 62.7884V61.0118L13.6323 61.229V62.5535Z" fill="#0036AC"/>
<path d="M13.6323 62.5535L15.1615 63.4417V63.9056L13.2568 62.7884L13.6323 62.5535Z" fill="#FF717B"/>
<path d="M12.8678 58.4398L10.9631 57.3344V59.1109L12.8678 60.2282V58.4398Z" fill="#51B5F4"/>
<path d="M11.3386 58.876L10.9631 59.1109V57.3344L11.3386 57.5515V58.876Z" fill="#0036AC"/>
<path d="M11.3386 58.876L12.8678 59.7643V60.2281L10.9631 59.1109L11.3386 58.876Z" fill="#FF717B"/>
<path d="M19.7355 57.1843V57.8357L17.7199 59.0181L17.7102 58.3667L19.7355 57.1843Z" fill="#3879F0"/>
<path d="M22.1247 55.8046V56.4579L20.1091 57.6403L20.1013 56.9889L22.1247 55.8046Z" fill="#3879F0"/>
<path d="M23.5178 49.4011V50.8618L16.1365 55.2085V53.8188L23.5178 49.4011Z" fill="#FF0044"/>
<path d="M23.2841 75.8874L13.5059 70.1531V55.7394L23.2841 61.4757V75.8874Z" fill="#3879F0"/>
<path d="M23.2841 75.8874L13.5059 70.1531V68.343L23.2841 74.0793V75.8874Z" fill="#FFB7B4"/>
<path d="M33.0038 70.1492L23.2839 75.8874V61.4757L32.9726 55.7729L33.0038 70.1492Z" fill="#0036AC"/>
<path d="M33.0038 70.1493L23.2839 75.8875V74.0794L32.9726 68.3787L33.0038 70.1493Z" fill="#FF0044"/>
<path d="M17.7841 67.664V72.662L15.2646 71.1816V66.1658L17.7841 67.664Z" fill="#FFB7B4"/>
<path d="M15.7239 71.0927V66.8625L17.325 67.7943V71.9928L15.7239 71.0927Z" fill="#51B5F4"/>
<path d="M19.8425 68.8523V73.868L17.323 72.3915V67.3975L19.8425 68.8523Z" fill="#FFB7B4"/>
<path d="M17.7822 72.2494V68.0568L19.3834 69.0062V73.1515L17.7822 72.2494Z" fill="#51B5F4"/>
<path d="M15.2646 67.1527L19.8425 69.8491L19.8405 70.3071L15.2646 67.6225V67.1527Z" fill="#FFB7B4"/>
<path d="M32.9727 54.9321V56.4442L23.2839 62.1074V60.6724L32.9727 54.9321Z" fill="#FF0044"/>
<path d="M32.9727 54.9341V54.9321L23.2646 49.2452L23.2568 49.2491L17.7101 46L10.3696 50.3249L15.7587 53.5898L13.5058 54.8946L23.284 60.6723L25.8113 59.1761L25.6615 59.2767L31.428 62.7687L38.8093 58.3529L32.9727 54.9341Z" fill="url(#paint0_linear_676_5103)"/>
<path d="M13.5059 54.8945V55.7394L23.2841 61.4757V60.6723L13.5059 54.8945Z" fill="#FF717B"/>
<path d="M9.71216 50.4907L13.5001 52.6621V57.0955L9.71216 54.8926V50.4907Z" fill="#3879F0"/>
<path d="M9.71216 50.4908L11.2355 49.6025L14.9748 51.7758L13.5001 52.6621L9.71216 50.4908Z" fill="#FFB7B4"/>
<path d="M14.9747 51.7758L13.5 52.6621V57.0956L14.9747 56.2843V51.7758Z" fill="#0036AC"/>
<path d="M14.0352 53.349L13.1655 53.8543L14.0352 59.2057L22.8737 65.2262L23.7433 64.7229V58.9096L14.0352 53.349Z" fill="#3879F0"/>
<path d="M20.5391 59.8412C20.1188 60.8677 19.8542 61.9494 19.6655 63.043L22.8718 65.2281L23.7414 64.7228V58.9095L22.8718 59.4149C22.8718 59.4149 20.8348 59.1168 20.5371 59.8412H20.5391Z" fill="#0036AC"/>
<path d="M13.1655 53.8543V59.711L22.8737 65.2262V59.4129L13.1655 53.8543Z" fill="#FFB7B4"/>
<path d="M19.2278 59.1286C18.8834 58.5858 18.1947 57.8495 17.6908 58.1101C16.9865 57.3659 16.4515 57.3777 16.1597 57.6778C15.5624 58.2917 16.2025 59.7504 16.7375 60.7552C17.0974 61.4638 17.5449 61.679 17.6791 61.6395C17.7686 61.6138 17.8406 61.6079 17.9846 61.679C18.1032 61.7402 18.3056 62.0086 18.3036 62.0047C18.5935 62.2948 19.0449 62.358 19.2803 62.0955C19.755 61.5724 20.1247 60.542 19.2258 59.1267L19.2278 59.1286Z" fill="#FF0044"/>
<path d="M17.8075 58.1614C17.7958 58.2739 17.8016 58.2878 17.6907 58.2305C17.718 57.9778 17.6304 57.6304 17.4767 57.3225C17.4106 57.1902 17.1285 56.8724 17.2666 56.8211C17.4339 56.758 17.6576 57.3324 17.7043 57.4745C17.7841 57.7193 17.8191 57.9522 17.8094 58.1595L17.8075 58.1614Z" fill="#FF0044"/>
<path d="M17.6928 57.6305C17.6928 57.6305 17.6072 57.0916 17.9574 57.1074C18.3096 57.1232 18.6481 57.518 18.6481 57.518C18.6481 57.518 18.7395 57.9838 18.3368 57.9424C17.9341 57.9009 17.6928 57.6305 17.6928 57.6305Z" fill="#FF0044"/>
<path d="M31.4281 77.9267L25.6479 74.5216L25.6616 59.2769L31.4281 62.7549V77.9267Z" fill="#F4F5F7"/>
<path d="M31.4281 64.1584L25.6479 60.7553L25.6616 59.2769L31.4281 62.7549V64.1584Z" fill="#FF717B"/>
<path d="M31.4281 77.9267L25.6479 74.5216L25.6655 72.8536L31.4281 76.2468V77.9267Z" fill="#FFB7B4"/>
<path d="M38.8387 73.511L31.4282 77.9267V63.5149L38.8095 59.1348L38.8387 73.511Z" fill="#0036AC"/>
<path d="M38.8387 73.511L31.4282 77.9267V76.2469L38.8095 71.8647L38.8387 73.511Z" fill="#FF0044"/>
<path d="M30.4552 68.7045L28.5486 67.6011V69.3776L30.4552 70.4949V68.7045Z" fill="#51B5F4"/>
<path d="M28.926 69.1408L28.5486 69.3776V67.6011L28.926 67.8182V69.1408Z" fill="#0036AC"/>
<path d="M28.926 69.1407L30.4552 70.029V70.4949L28.5486 69.3776L28.926 69.1407Z" fill="#FF717B"/>
<path d="M28.1615 67.3898L26.2568 66.2864V68.0629L28.1615 69.1782V67.3898Z" fill="#51B5F4"/>
<path d="M26.6323 67.8261L26.2568 68.0629V66.2864L26.6323 66.5035V67.8261Z" fill="#0036AC"/>
<path d="M26.6323 67.826L28.1615 68.7143V69.1782L26.2568 68.0629L26.6323 67.826Z" fill="#FF717B"/>
<path d="M28.1615 69.7526L26.2568 68.6492V70.4257L28.1615 71.541V69.7526Z" fill="#51B5F4"/>
<path d="M26.6323 70.1888L26.2568 70.4257V68.6492L26.6323 68.8663V70.1888Z" fill="#0036AC"/>
<path d="M26.6323 70.1888L28.1615 71.0771V71.541L26.2568 70.4257L26.6323 70.1888Z" fill="#FF717B"/>
<path d="M35.0273 66.1362V66.7876L33.0117 67.97L33.0039 67.3186L35.0273 66.1362Z" fill="#3879F0"/>
<path d="M37.4184 64.7565V65.4098L35.4028 66.5903L35.3931 65.9408L37.4184 64.7565Z" fill="#3879F0"/>
<path d="M38.8095 58.353V59.8137L31.4282 64.1584V62.7687L38.8095 58.353Z" fill="#FF0044"/>
<path d="M14.5895 60.8855L12.6926 63.1713L16.4961 65.3999L18.3736 63.0707L14.5895 60.8855Z" fill="#F4F5F7"/>
<path d="M12.6926 63.1713V63.7931C12.6926 64.0911 12.8502 64.3675 13.1051 64.5175L13.2918 64.6261C13.4455 64.7169 13.6382 64.6043 13.6382 64.4247V63.7259L12.6946 63.1713H12.6926Z" fill="#F4F5F7"/>
<path d="M13.6382 63.726V64.3596C13.6382 64.6577 13.7958 64.934 14.0506 65.084L14.2374 65.1926C14.3911 65.2834 14.5837 65.1709 14.5837 64.9912V64.2806L13.6401 63.7279L13.6382 63.726Z" fill="#3879F0"/>
<path d="M14.5896 64.2787V64.9123C14.5896 65.2104 14.7472 65.4867 15.0021 65.6368L15.1888 65.7453C15.3425 65.8361 15.5351 65.7236 15.5351 65.544V64.8334L14.5915 64.2807L14.5896 64.2787Z" fill="#F4F5F7"/>
<path d="M13.6382 63.726L15.5098 61.4165L16.4631 61.9672L14.5895 64.2787L13.6382 63.726Z" fill="#3879F0"/>
<path d="M15.5332 64.8394V65.473C15.5332 65.7711 15.6908 66.0474 15.9457 66.1974L16.1324 66.306C16.2861 66.3968 16.4787 66.2843 16.4787 66.1047V65.394L15.5351 64.8413L15.5332 64.8394Z" fill="#3879F0"/>
<path d="M15.5332 64.8393L17.4048 62.5298L18.3581 63.0805L16.4826 65.392L15.5332 64.8393Z" fill="#3879F0"/>
<path d="M18.3735 63.0905L16.4785 65.3783L20.2645 67.5989L22.1439 65.2875L18.3735 63.0905Z" fill="#F4F5F7"/>
<path d="M16.4785 65.3782V66C16.4785 66.298 16.6361 66.5744 16.891 66.7244L17.0777 66.833C17.2314 66.9238 17.424 66.8113 17.424 66.6316V65.9329L16.4805 65.3782H16.4785Z" fill="#F4F5F7"/>
<path d="M17.4241 65.9309V66.5645C17.4241 66.8626 17.5817 67.139 17.8365 67.289L18.0233 67.3975C18.177 67.4883 18.3696 67.3758 18.3696 67.1962V66.4856L17.426 65.9329L17.4241 65.9309Z" fill="#3879F0"/>
<path d="M18.3735 66.4856V67.1192C18.3735 67.4173 18.5311 67.6937 18.786 67.8437L18.9728 67.9522C19.1265 68.043 19.3191 67.9305 19.3191 67.7509V67.0403L18.3755 66.4876L18.3735 66.4856Z" fill="#F4F5F7"/>
<path d="M17.4241 65.931L19.2957 63.6234L20.249 64.1741L18.3735 66.4856L17.4241 65.931Z" fill="#3879F0"/>
<path d="M19.3191 67.0461V67.6798C19.3191 67.9778 19.4767 68.2542 19.7315 68.4042L19.9183 68.5128C20.072 68.6036 20.2646 68.4911 20.2646 68.3114V67.6008L19.321 67.0481L19.3191 67.0461Z" fill="#3879F0"/>
<path d="M19.3191 67.0462L21.1907 64.7367L22.144 65.2874L20.2685 67.5989L19.3191 67.0462Z" fill="#3879F0"/>
<path d="M20.1187 68.5246L22.1439 67.2613V65.2874L20.2685 67.5988L20.1187 68.5246Z" fill="#0036AC"/>
<g style="mix-blend-mode:multiply" opacity="0.31">
<path d="M12.6926 63.7931C12.6926 64.0911 12.8502 64.3675 13.1051 64.5175L13.2918 64.6261C13.4455 64.7169 13.6382 64.6043 13.6382 64.4247V63.7259L12.6946 63.1713V63.7931H12.6926Z" fill="#26120D"/>
<path d="M13.6382 64.3576C13.6382 64.6557 13.7958 64.932 14.0506 65.0821L14.2374 65.1906C14.3911 65.2814 14.5837 65.1689 14.5837 64.9893V64.2787L13.6401 63.726V64.3596L13.6382 64.3576Z" fill="#26120D"/>
<path d="M15.5351 64.8333L14.5896 64.2806V64.9143C14.5896 65.2123 14.7472 65.4887 15.0021 65.6387L15.1888 65.7473C15.3425 65.8381 15.5351 65.7256 15.5351 65.5459V65.4749C15.5351 65.7729 15.6927 66.0493 15.9476 66.1993L16.1343 66.3079C16.288 66.3987 16.4807 66.2862 16.4807 66.1065V65.3959L15.539 64.8432V64.8353L15.5351 64.8333Z" fill="#26120D"/>
<path d="M16.4785 65.392V65.998C16.4785 66.2961 16.6361 66.5724 16.891 66.7225L17.0777 66.831C17.2314 66.9218 17.424 66.8093 17.424 66.6297V65.9309L16.4805 65.3762V65.392H16.4785Z" fill="#26120D"/>
<path d="M17.4241 66.5645C17.4241 66.8626 17.5817 67.1389 17.8365 67.289L18.0233 67.3975C18.177 67.4883 18.3696 67.3758 18.3696 67.1962V66.4856L17.426 65.9329V66.5665L17.4241 66.5645Z" fill="#26120D"/>
<path d="M19.3191 67.0461V67.0382L18.3735 66.4855V67.1191C18.3735 67.4172 18.5311 67.6935 18.786 67.8435L18.9728 67.9521C19.1265 68.0429 19.3191 67.9304 19.3191 67.7508V67.6797C19.3191 67.9778 19.4766 68.2541 19.7315 68.4041L19.9183 68.5127C20.072 68.6035 20.2646 68.491 20.2646 68.3114V67.6008L19.323 67.048L19.3191 67.0461Z" fill="#26120D"/>
</g>
<path d="M27.0974 60.6427L30.8853 62.816V67.2475L27.0974 65.0446V60.6427Z" fill="#3879F0"/>
<path d="M27.0974 60.6427L28.6188 59.7544L32.3581 61.9277L30.8853 62.816L27.0974 60.6427Z" fill="#FFB7B4"/>
<path d="M32.358 61.9277L30.8853 62.816V67.2475L32.358 66.4362V61.9277Z" fill="#0036AC"/>
<path d="M16.3114 49.5235L16.2822 52.0126L28.9923 59.3202V56.9278L16.3114 49.5235Z" fill="#FF717B"/>
<path d="M28.9924 56.9278L33.1559 54.4229V56.9613L28.9924 59.3202V56.9278Z" fill="#FF0044"/>
<path d="M33.1559 54.4228L20.5528 47.0403L16.3115 49.5235L28.9925 56.9278L33.1559 54.4228Z" fill="url(#paint1_linear_676_5103)"/>
<path d="M9.72761 67.6483C9.69454 67.6286 9.66341 67.6246 9.64006 67.6345C9.63422 67.6364 9.63033 67.6404 9.6245 67.6443L9.55835 67.6838L9.58364 67.7391C9.58364 67.7391 9.58364 67.7549 9.58364 67.7648C9.58364 67.8812 9.64979 68.0154 9.73345 68.0668C9.73928 68.0707 9.74512 68.0747 9.75096 68.0766C9.75874 68.0964 9.76457 68.1141 9.76457 68.1141L9.82489 68.0786C9.82489 68.0786 9.82683 68.0786 9.82878 68.0766H9.83267C9.86185 68.0549 9.88131 68.0115 9.88131 67.9503C9.88131 67.8338 9.81516 67.6996 9.7315 67.6483H9.72761Z" fill="#0036AC"/>
<path d="M9.80156 67.9958C9.80156 68.1122 9.73542 68.1636 9.65176 68.1142C9.5681 68.0649 9.50195 67.9287 9.50195 67.8122C9.50195 67.6957 9.5681 67.6444 9.65176 67.6938C9.73542 67.7431 9.80156 67.8793 9.80156 67.9958Z" fill="#3879F0"/>
<path d="M9.72382 67.9464C9.72382 68.0017 9.69269 68.0274 9.65378 68.0017C9.61487 67.978 9.58374 67.9129 9.58374 67.8576C9.58374 67.8024 9.61487 67.7767 9.65378 67.8024C9.69269 67.828 9.72382 67.8912 9.72382 67.9464Z" fill="#0036AC"/>
<path d="M11.2022 68.4043C11.1691 68.3845 11.138 68.3806 11.1147 68.3905C11.1088 68.3924 11.1049 68.3964 11.0991 68.4003L11.033 68.4398L11.0583 68.4951C11.0583 68.4951 11.0583 68.5109 11.0583 68.5207C11.0583 68.6372 11.1244 68.7714 11.2081 68.8227C11.2139 68.8267 11.2197 68.8306 11.2256 68.8326C11.2333 68.8524 11.2392 68.8701 11.2392 68.8701L11.2995 68.8346C11.2995 68.8346 11.3014 68.8346 11.3034 68.8326H11.3073C11.3365 68.8109 11.3559 68.7675 11.3559 68.7063C11.3559 68.5898 11.2898 68.4556 11.2061 68.4043H11.2022Z" fill="#0036AC"/>
<path d="M11.2762 68.7497C11.2762 68.8661 11.21 68.9175 11.1264 68.8681C11.0447 68.8168 10.9766 68.6826 10.9766 68.5661C10.9766 68.4496 11.0427 68.3983 11.1264 68.4477C11.2081 68.499 11.2762 68.6332 11.2762 68.7497Z" fill="#3879F0"/>
<path d="M11.1984 68.7023C11.1984 68.7576 11.1673 68.7832 11.1284 68.7576C11.0895 68.7339 11.0583 68.6688 11.0583 68.6135C11.0583 68.5582 11.0895 68.5325 11.1284 68.5582C11.1673 68.5819 11.1984 68.647 11.1984 68.7023Z" fill="#0036AC"/>
<path d="M11.2726 68.4972L11.2045 68.7005C11.1831 68.7597 11.1091 68.7182 11.0994 68.6571L11.0469 68.3728L11.2706 68.4972H11.2726Z" fill="#0036AC"/>
<path d="M11.2511 68.4972L11.183 68.7005C11.1616 68.7597 11.0876 68.7182 11.0779 68.6571L11.0254 68.3728L11.2491 68.4972H11.2511Z" fill="#FFB7B4"/>
<path d="M9.79966 67.7273L9.73156 67.9306C9.71016 67.9898 9.63623 67.9483 9.6265 67.8872L9.57397 67.6029L9.79771 67.7273H9.79966Z" fill="#0036AC"/>
<path d="M9.78012 67.7273L9.71203 67.9306C9.69063 67.9898 9.6167 67.9483 9.60697 67.8872L9.55444 67.6029L9.77818 67.7273H9.78012Z" fill="#FFB7B4"/>
<path d="M10.7198 67.0779C10.6867 67.0581 10.6556 67.0542 10.6322 67.064C10.6264 67.066 10.6225 67.07 10.6167 67.0739L10.5505 67.1134L10.5758 67.1687C10.5758 67.1687 10.5758 67.1844 10.5758 67.1943C10.5758 67.3108 10.642 67.445 10.7256 67.4963C10.7315 67.5003 10.7373 67.5042 10.7431 67.5062C10.7509 67.5259 10.7568 67.5437 10.7568 67.5437L10.8171 67.5082C10.8171 67.5082 10.819 67.5082 10.821 67.5062H10.8249C10.854 67.4845 10.8735 67.4411 10.8735 67.3799C10.8735 67.2634 10.8073 67.1292 10.7237 67.0779H10.7198Z" fill="#2A2183"/>
<path d="M10.7938 67.4233C10.7938 67.5397 10.7276 67.591 10.6439 67.5417C10.5603 67.4923 10.4941 67.3561 10.4941 67.2397C10.4941 67.1232 10.5603 67.0719 10.6439 67.1212C10.7276 67.1706 10.7938 67.3068 10.7938 67.4233Z" fill="#4B42AE"/>
<path d="M10.716 67.3759C10.716 67.4312 10.6849 67.4568 10.646 67.4312C10.6071 67.4075 10.5759 67.3423 10.5759 67.2871C10.5759 67.2318 10.6071 67.2061 10.646 67.2318C10.6849 67.2575 10.716 67.3206 10.716 67.3759Z" fill="#2A2183"/>
<path d="M12.1944 67.8319C12.1613 67.8121 12.1302 67.8082 12.1069 67.8181C12.101 67.82 12.0971 67.824 12.0913 67.8279L12.0251 67.8674L12.0504 67.9227C12.0504 67.9227 12.0504 67.9385 12.0504 67.9483C12.0504 68.0648 12.1166 68.199 12.2002 68.2504C12.2061 68.2543 12.2119 68.2583 12.2178 68.2602C12.2255 68.28 12.2314 68.2977 12.2314 68.2977L12.2917 68.2622C12.2917 68.2622 12.2936 68.2622 12.2956 68.2602H12.2995C12.3286 68.2385 12.3481 68.1951 12.3481 68.1339C12.3481 68.0174 12.282 67.8832 12.1983 67.8319H12.1944Z" fill="#0036AC"/>
<path d="M12.2684 68.1794C12.2684 68.2958 12.2022 68.3471 12.1186 68.2978C12.0349 68.2484 11.9688 68.1122 11.9688 67.9958C11.9688 67.8793 12.0349 67.828 12.1186 67.8773C12.2022 67.9267 12.2684 68.0629 12.2684 68.1794Z" fill="#3879F0"/>
<path d="M12.1906 68.132C12.1906 68.1873 12.1595 68.2129 12.1206 68.1873C12.0817 68.1616 12.0505 68.0984 12.0505 68.0432C12.0505 67.9879 12.0817 67.9622 12.1206 67.9879C12.1595 68.0116 12.1906 68.0767 12.1906 68.132Z" fill="#0036AC"/>
<path d="M12.2647 67.9267L12.1966 68.13C12.1752 68.1893 12.1013 68.1478 12.0916 68.0866L12.0391 67.8024L12.2628 67.9267H12.2647Z" fill="#0036AC"/>
<path d="M12.2433 67.9267L12.1752 68.13C12.1538 68.1893 12.0798 68.1478 12.0701 68.0866L12.0176 67.8024L12.2413 67.9267H12.2433Z" fill="#FFB7B4"/>
<path d="M10.7918 67.1568L10.7237 67.3601C10.7023 67.4194 10.6284 67.3779 10.6187 67.3167L10.5662 67.0325L10.7899 67.1568H10.7918Z" fill="#1D45AA"/>
<path d="M10.7704 67.1568L10.7023 67.3601C10.6809 67.4194 10.6069 67.3779 10.5972 67.3167L10.5447 67.0325L10.7684 67.1568H10.7704Z" fill="#15327D"/>
<path d="M10.6673 67.3384C10.6673 67.3542 10.6576 67.3601 10.6479 67.3542C10.6362 67.3483 10.6284 67.3285 10.6284 67.3127C10.6284 67.2969 10.6381 67.291 10.6479 67.2969C10.6595 67.3029 10.6673 67.3226 10.6673 67.3384Z" fill="#0F2559"/>
<path d="M11.7061 68.7656C11.6186 68.7656 11.533 68.7439 11.4532 68.7005L9.5388 67.6444C9.52129 67.6346 9.50962 67.6207 9.50183 67.603L9.27615 66.8785C9.26253 66.841 9.23335 66.8095 9.26643 66.7877L9.79366 66.4739C9.83063 66.4522 9.87927 66.464 9.90261 66.5035C9.92401 66.541 9.91234 66.5903 9.87343 66.614L9.40456 66.8924L9.63997 67.5181L11.5291 68.5603C11.6419 68.6235 11.7781 68.6215 11.889 68.5564L12.3267 68.3057C12.3656 68.282 12.3909 68.2406 12.3909 68.1952C12.3909 68.1478 12.3676 68.1063 12.3287 68.0826L10.5855 67.0404C10.5485 67.0187 10.5349 66.9693 10.5583 66.9299C10.5797 66.8924 10.6283 66.8785 10.6672 66.9022L12.4104 67.9445C12.4999 67.9978 12.5524 68.0925 12.5505 68.1971C12.5485 68.3018 12.496 68.3945 12.4065 68.4478L11.9688 68.6985C11.887 68.7459 11.7976 68.7696 11.7081 68.7696L11.7061 68.7656Z" fill="#FFB7B4"/>
<path d="M11.7061 68.6669C11.6185 68.6669 11.5329 68.6452 11.4531 68.6018L9.5543 67.5575C9.53679 67.5477 9.52512 67.5339 9.51734 67.5161L9.30527 66.7798C9.29166 66.7423 9.23134 66.7068 9.26442 66.687L9.79166 66.3732C9.82862 66.3515 9.87726 66.3633 9.9006 66.4028C9.92201 66.4403 9.91033 66.4896 9.87142 66.5133L9.47648 66.7857L9.63796 67.4174L11.5271 68.4596C11.6399 68.5228 11.7761 68.5208 11.887 68.4557L12.3247 68.205C12.3636 68.1813 12.3889 68.1399 12.3889 68.0945C12.3889 68.0471 12.3656 68.0056 12.3267 67.9819L10.5835 66.9397C10.5465 66.918 10.5329 66.8686 10.5562 66.8292C10.5776 66.7916 10.6263 66.7778 10.6652 66.8015L12.4084 67.8438C12.4979 67.8971 12.5504 67.9918 12.5485 68.0964C12.5465 68.201 12.494 68.2938 12.4045 68.3471L11.9668 68.5978C11.885 68.6452 11.7955 68.6689 11.7061 68.6689V68.6669Z" fill="#0036AC"/>
<path d="M9.35017 65.6961C9.32488 65.6961 9.29959 65.6822 9.28791 65.6566L9.04278 65.1572C9.02527 65.1216 9.03888 65.0802 9.0739 65.0624C9.10892 65.0447 9.14978 65.0585 9.16729 65.094L9.41243 65.5934C9.42994 65.6289 9.41632 65.6704 9.3813 65.6882C9.37157 65.6941 9.3599 65.6961 9.35017 65.6961Z" fill="#0036AC"/>
<path d="M10.4085 65.0841C10.3832 65.0841 10.3579 65.0703 10.3463 65.0446L10.1011 64.5452C10.0836 64.5097 10.0972 64.4682 10.1323 64.4505C10.1673 64.4327 10.2081 64.4465 10.2256 64.4821L10.4708 64.9815C10.4883 65.017 10.4747 65.0585 10.4396 65.0762C10.4299 65.0821 10.4182 65.0841 10.4085 65.0841Z" fill="#0036AC"/>
<path d="M10.3716 64.4367C10.3716 64.3893 10.3444 64.3321 10.3094 64.3104C10.2957 64.3025 10.2841 64.3005 10.2724 64.3045H10.2685C10.2685 64.3045 10.2666 64.3045 10.2646 64.3064L8.88135 65.1315L8.97084 65.3033L10.3424 64.488C10.3599 64.4841 10.3716 64.4644 10.3716 64.4328V64.4367Z" fill="#3879F0"/>
<path d="M8.98047 65.2658C8.98047 65.3132 8.95323 65.3349 8.91821 65.3132C8.88514 65.2915 8.85596 65.2362 8.85596 65.1869C8.85596 65.1375 8.88319 65.1178 8.91821 65.1395C8.95129 65.1612 8.98047 65.2165 8.98047 65.2658Z" fill="#3879F0"/>
<path d="M10.6242 64.8789V66.0731L9.30713 66.8548V65.6685L10.6242 64.8789Z" fill="#0036AC"/>
<path d="M10.6242 66.0731L9.30713 66.8548L11.4608 67.9345L12.597 67.3325L10.6242 66.0731Z" fill="#0036AC"/>
<path d="M10.6243 66.0731L12.597 67.3325V66.1245L10.6243 64.8789V66.0731Z" fill="#3879F0"/>
<path d="M10.6244 64.7842L9.14771 65.6685L11.457 66.8766L12.7567 66.1245L10.6263 64.7862L10.6244 64.7842ZM11.457 66.7818L9.30724 65.6665L10.6263 64.877L12.5991 66.1225L11.459 66.7818H11.457Z" fill="#FFB7B4"/>
<path d="M9.14771 65.6685V66.9693L11.4629 68.1833L11.457 66.8765L9.14771 65.6685Z" fill="#1D42A7"/>
<path d="M9.14771 65.6685V66.9693L11.4629 68.1833L11.457 66.8765L9.14771 65.6685Z" fill="#3879F0"/>
<path d="M11.4629 68.1833L12.7566 67.4293V66.1245L11.457 66.8766L11.4629 68.1833Z" fill="#2453CB"/>
<path d="M11.4629 68.1833L12.7566 67.4293V66.1245L11.457 66.8766L11.4629 68.1833Z" fill="#0036AC"/>
<path d="M26.5311 77.1922C26.498 77.1725 26.4669 77.1685 26.4435 77.1784C26.4377 77.1804 26.4338 77.1843 26.428 77.1883L26.3618 77.2278L26.3871 77.283C26.3871 77.283 26.3871 77.2988 26.3871 77.3087C26.3871 77.4252 26.4533 77.5594 26.5369 77.6107C26.5427 77.6147 26.5486 77.6186 26.5544 77.6206C26.5622 77.6403 26.568 77.6581 26.568 77.6581L26.6284 77.6226C26.6284 77.6226 26.6303 77.6226 26.6322 77.6206H26.6361C26.6653 77.5989 26.6848 77.5554 26.6848 77.4943C26.6848 77.3778 26.6186 77.2436 26.535 77.1922H26.5311Z" fill="#0036AC"/>
<path d="M26.607 77.5376C26.607 77.6541 26.5408 77.7054 26.4572 77.6561C26.3755 77.6047 26.3074 77.4705 26.3074 77.3541C26.3074 77.2376 26.3735 77.1863 26.4572 77.2356C26.5389 77.2869 26.607 77.4212 26.607 77.5376Z" fill="#3879F0"/>
<path d="M26.5273 77.4903C26.5273 77.5455 26.4962 77.5712 26.4572 77.5455C26.4183 77.5219 26.3872 77.4567 26.3872 77.4014C26.3872 77.3462 26.4183 77.3205 26.4572 77.3462C26.4962 77.3699 26.5273 77.435 26.5273 77.4903Z" fill="#0036AC"/>
<path d="M28.0076 77.9482C27.9746 77.9285 27.9434 77.9245 27.9201 77.9344C27.9143 77.9364 27.9104 77.9403 27.9045 77.9443L27.8384 77.9837L27.8637 78.039C27.8637 78.039 27.8637 78.0548 27.8637 78.0647C27.8637 78.1811 27.9298 78.3154 28.0135 78.3667C28.0193 78.3706 28.0252 78.3746 28.031 78.3766C28.0388 78.3963 28.0446 78.4141 28.0446 78.4141L28.1049 78.3785C28.1049 78.3785 28.1069 78.3785 28.1088 78.3766H28.1127C28.1419 78.3549 28.1613 78.3114 28.1613 78.2502C28.1613 78.1338 28.0952 77.9995 28.0115 77.9482H28.0076Z" fill="#0036AC"/>
<path d="M28.0816 78.2936C28.0816 78.4101 28.0154 78.4614 27.9318 78.4121C27.8501 78.3607 27.782 78.2265 27.782 78.11C27.782 77.9936 27.8481 77.9423 27.9318 77.9916C28.0135 78.0429 28.0816 78.1772 28.0816 78.2936Z" fill="#3879F0"/>
<path d="M28.0038 78.2463C28.0038 78.3015 27.9727 78.3272 27.9338 78.3015C27.8949 78.2778 27.8638 78.2127 27.8638 78.1574C27.8638 78.1022 27.8949 78.0765 27.9338 78.1022C27.9727 78.1278 28.0038 78.191 28.0038 78.2463Z" fill="#0036AC"/>
<path d="M28.076 78.0411L28.0079 78.2444C27.9865 78.3036 27.9126 78.2622 27.9029 78.201L27.8503 77.9167L28.0741 78.0411H28.076Z" fill="#0036AC"/>
<path d="M28.0565 78.0411L27.9884 78.2444C27.967 78.3036 27.8931 78.2622 27.8833 78.201L27.8308 77.9167L28.0545 78.0411H28.0565Z" fill="#FFB7B4"/>
<path d="M26.6031 77.2712L26.535 77.4745C26.5136 77.5337 26.4397 77.4923 26.43 77.4311L26.3774 77.1469L26.6012 77.2712H26.6031Z" fill="#0036AC"/>
<path d="M26.5836 77.2712L26.5155 77.4745C26.4941 77.5337 26.4202 77.4923 26.4104 77.4311L26.3579 77.1469L26.5816 77.2712H26.5836Z" fill="#FFB7B4"/>
<path d="M27.5233 76.6218C27.4902 76.6021 27.4591 76.5981 27.4357 76.608C27.4299 76.61 27.426 76.6139 27.4202 76.6179L27.354 76.6573L27.3793 76.7126C27.3793 76.7126 27.3793 76.7284 27.3793 76.7383C27.3793 76.8547 27.4454 76.989 27.5291 77.0403C27.5349 77.0442 27.5408 77.0482 27.5466 77.0501C27.5544 77.0699 27.5602 77.0877 27.5602 77.0877L27.6205 77.0521C27.6205 77.0521 27.6225 77.0521 27.6244 77.0501H27.6283C27.6575 77.0284 27.677 76.985 27.677 76.9238C27.677 76.8074 27.6108 76.6731 27.5272 76.6218H27.5233Z" fill="#2A2183"/>
<path d="M27.5992 76.9672C27.5992 77.0837 27.533 77.135 27.4494 77.0856C27.3677 77.0343 27.2996 76.9001 27.2996 76.7836C27.2996 76.6672 27.3657 76.6158 27.4494 76.6652C27.5311 76.7165 27.5992 76.8507 27.5992 76.9672Z" fill="#4B42AE"/>
<path d="M27.5195 76.9198C27.5195 76.9751 27.4883 77.0008 27.4494 76.9751C27.4105 76.9514 27.3794 76.8863 27.3794 76.831C27.3794 76.7757 27.4105 76.7501 27.4494 76.7757C27.4883 76.7994 27.5195 76.8646 27.5195 76.9198Z" fill="#2A2183"/>
<path d="M28.9998 77.3758C28.9668 77.3561 28.9356 77.3521 28.9123 77.362C28.9064 77.364 28.9026 77.3679 28.8967 77.3719L28.8306 77.4114L28.8559 77.4666C28.8559 77.4666 28.8559 77.4824 28.8559 77.4923C28.8559 77.6088 28.922 77.743 29.0057 77.7943C29.0115 77.7983 29.0173 77.8022 29.0232 77.8042C29.031 77.8239 29.0368 77.8417 29.0368 77.8417L29.0971 77.8062C29.0971 77.8062 29.099 77.8061 29.101 77.8042H29.1049C29.1341 77.7825 29.1535 77.739 29.1535 77.6778C29.1535 77.5614 29.0874 77.4272 29.0037 77.3758H28.9998Z" fill="#0036AC"/>
<path d="M29.0738 77.7232C29.0738 77.8396 29.0076 77.891 28.924 77.8416C28.8423 77.7903 28.7742 77.6561 28.7742 77.5396C28.7742 77.4231 28.8403 77.3718 28.924 77.4212C29.0057 77.4725 29.0738 77.6067 29.0738 77.7232Z" fill="#3879F0"/>
<path d="M28.996 77.6739C28.996 77.7291 28.9649 77.7548 28.926 77.7291C28.8871 77.7055 28.856 77.6403 28.856 77.585C28.856 77.5298 28.8871 77.5041 28.926 77.5298C28.9649 77.5535 28.996 77.6186 28.996 77.6739Z" fill="#0036AC"/>
<path d="M29.0682 77.4707L29.0001 77.674C28.9787 77.7332 28.9048 77.6918 28.8951 77.6306L28.8425 77.3463L29.0663 77.4707H29.0682Z" fill="#0036AC"/>
<path d="M29.0487 77.4707L28.9806 77.674C28.9592 77.7332 28.8853 77.6918 28.8755 77.6306L28.823 77.3463L29.0467 77.4707H29.0487Z" fill="#FFB7B4"/>
<path d="M27.5953 76.7008L27.5272 76.9041C27.5058 76.9633 27.4319 76.9219 27.4222 76.8607L27.3696 76.5764L27.5934 76.7008H27.5953Z" fill="#1D45AA"/>
<path d="M27.5758 76.7008L27.5077 76.9041C27.4863 76.9633 27.4124 76.9219 27.4026 76.8607L27.3501 76.5764L27.5738 76.7008H27.5758Z" fill="#15327D"/>
<path d="M27.4728 76.8823C27.4728 76.8981 27.463 76.904 27.4533 76.8981C27.4436 76.8922 27.4338 76.8725 27.4338 76.8567C27.4338 76.8409 27.4436 76.835 27.4533 76.8409C27.465 76.8468 27.4728 76.8665 27.4728 76.8823Z" fill="#0F2559"/>
<path d="M28.5115 78.3096C28.424 78.3096 28.3384 78.2879 28.2586 78.2444L26.3442 77.1884C26.3267 77.1785 26.315 77.1647 26.3073 77.1469L26.0816 76.4225C26.068 76.385 26.0388 76.3514 26.0718 76.3317L26.5991 76.0178C26.636 75.9961 26.6847 76.008 26.708 76.0474C26.7294 76.0849 26.7178 76.1343 26.6789 76.158L26.21 76.4363L26.4454 77.062L28.3345 78.1043C28.4473 78.1675 28.5835 78.1655 28.6944 78.1003L29.1322 77.8496C29.1711 77.826 29.1964 77.7845 29.1964 77.7391C29.1964 77.6937 29.173 77.6503 29.1341 77.6266L27.3909 76.5843C27.3539 76.5626 27.3403 76.5133 27.3637 76.4738C27.3851 76.4363 27.4337 76.4225 27.4726 76.4462L29.2158 77.4884C29.3053 77.5417 29.3578 77.6365 29.3559 77.7411C29.3559 77.8457 29.3014 77.9385 29.2119 77.9918L28.7742 78.2425C28.6925 78.2898 28.603 78.3135 28.5135 78.3135L28.5115 78.3096Z" fill="#FFB7B4"/>
<path d="M28.5115 78.2108C28.4239 78.2108 28.3383 78.1891 28.2586 78.1457L26.3597 77.1015C26.3422 77.0916 26.3305 77.0778 26.3228 77.06L26.1107 76.3238C26.0971 76.2862 26.0368 76.2507 26.0698 76.231L26.5971 75.9171C26.634 75.8954 26.6827 75.9073 26.706 75.9467C26.7274 75.9842 26.7158 76.0336 26.6768 76.0573L26.2819 76.3297L26.4434 76.9613L28.3325 78.0036C28.4453 78.0667 28.5815 78.0648 28.6924 77.9996L29.1301 77.7489C29.1691 77.7253 29.1944 77.6838 29.1944 77.6384C29.1944 77.593 29.171 77.5496 29.1321 77.5259L27.3889 76.4836C27.3519 76.4619 27.3383 76.4126 27.3617 76.3731C27.3831 76.3356 27.4317 76.3218 27.4706 76.3455L29.2138 77.3877C29.3033 77.441 29.3558 77.5358 29.3539 77.6404C29.3539 77.745 29.2994 77.8378 29.2099 77.8911L28.7722 78.1418C28.6905 78.1891 28.601 78.2128 28.5115 78.2128V78.2108Z" fill="#0036AC"/>
<path d="M26.1556 75.24C26.1303 75.24 26.105 75.2262 26.0933 75.2005L25.8482 74.7011C25.8307 74.6656 25.8443 74.6241 25.8793 74.6064C25.9143 74.5886 25.9552 74.6024 25.9727 74.6379L26.2178 75.1374C26.2354 75.1729 26.2217 75.2143 26.1867 75.2321C26.177 75.238 26.1653 75.24 26.1556 75.24Z" fill="#0036AC"/>
<path d="M27.2139 74.6281C27.1886 74.6281 27.1634 74.6142 27.1517 74.5886L26.9065 74.0892C26.889 74.0536 26.9027 74.0122 26.9377 73.9944C26.9727 73.9767 27.0135 73.9905 27.0311 74.026L27.2762 74.5254C27.2937 74.5609 27.2801 74.6024 27.2451 74.6202C27.2353 74.6261 27.2256 74.6281 27.2139 74.6281Z" fill="#0036AC"/>
<path d="M27.177 73.9807C27.177 73.9333 27.1498 73.876 27.1148 73.8543C27.1012 73.8464 27.0895 73.8445 27.0778 73.8484H27.0739C27.0739 73.8484 27.072 73.8484 27.07 73.8504L25.6868 74.6755L25.7763 74.8472L27.1479 74.032C27.1654 74.028 27.177 74.0083 27.177 73.9767V73.9807Z" fill="#3879F0"/>
<path d="M25.7859 74.8098C25.7859 74.8571 25.7587 74.8789 25.7236 74.8571C25.6906 74.8354 25.6614 74.7802 25.6614 74.7308C25.6614 74.6815 25.6886 74.6617 25.7236 74.6834C25.7567 74.7052 25.7859 74.7604 25.7859 74.8098Z" fill="#3879F0"/>
<path d="M27.4297 74.4229V75.6171L26.1106 76.3988V75.2105L27.4297 74.4229Z" fill="#0036AC"/>
<path d="M27.4297 75.6171L26.1106 76.3987L28.2662 77.4785L29.4024 76.8764L27.4297 75.6171Z" fill="#0036AC"/>
<path d="M27.4297 75.6171L29.4024 76.8765V75.6664L27.4297 74.4229V75.6171Z" fill="#3879F0"/>
<path d="M27.4298 74.3281L25.9531 75.2125L28.2625 76.4205L29.5621 75.6684L27.4317 74.3301L27.4298 74.3281ZM28.2625 76.3258L26.1127 75.2105L27.4317 74.4209L29.4045 75.6665L28.2644 76.3258H28.2625Z" fill="#FFB7B4"/>
<path d="M25.9531 75.2124V76.5113L28.2683 77.7272L28.2625 76.4205L25.9531 75.2124Z" fill="#1D42A7"/>
<path d="M25.9531 75.2124V76.5113L28.2683 77.7272L28.2625 76.4205L25.9531 75.2124Z" fill="#3879F0"/>
<path d="M28.2683 77.7273L29.5601 76.9732V75.6685L28.2625 76.4205L28.2683 77.7273Z" fill="#2453CB"/>
<path d="M28.2683 77.7273L29.5601 76.9732V75.6685L28.2625 76.4205L28.2683 77.7273Z" fill="#0036AC"/>
<path d="M31.428 77.8398L33.9085 79.2393L41.4241 74.6973V74.4446L38.9299 73.3767L31.428 77.5891V77.8398Z" fill="#3879F0"/>
<path d="M38.9299 73.3767L36.1516 74.9006L33.9084 78.9886V79.2393L41.424 74.6973V74.4446L38.9299 73.3767Z" fill="#0036AC"/>
<path d="M31.428 77.5891L33.9085 78.9886L41.4241 74.4446L38.9299 73.124L31.428 77.5891Z" fill="#FFB7B4"/>
<path d="M37.4124 72.668V74.1089L38.6322 74.7485V73.3845L37.4124 72.668Z" fill="#3879F0"/>
<path d="M38.6322 73.3845L40.031 72.5575L38.8015 71.8547L37.4124 72.668L38.6322 73.3845Z" fill="#FFB7B4"/>
<path d="M38.6321 73.3846V74.7486L40.0309 73.9333V72.5575L38.6321 73.3846Z" fill="#0036AC"/>
<path d="M35.6421 73.7537V75.1946L36.86 75.8342V74.4702L35.6421 73.7537Z" fill="#3879F0"/>
<path d="M36.86 74.4702L38.2588 73.6451L37.0312 72.9404L35.6421 73.7537L36.86 74.4702Z" fill="#FFB7B4"/>
<path d="M36.8601 74.4702V75.8342L38.2589 75.019V73.6451L36.8601 74.4702Z" fill="#0036AC"/>
<path d="M33.8171 74.7939V76.2349L35.035 76.8745V75.5105L33.8171 74.7939Z" fill="#3879F0"/>
<path d="M35.035 75.5105L36.4358 74.6854L35.2062 73.9807L33.8171 74.794L35.035 75.5105Z" fill="#FFB7B4"/>
<path d="M35.0352 75.5105V76.8745L36.4359 76.0593V74.6854L35.0352 75.5105Z" fill="#0036AC"/>
<path d="M31.9495 75.8776V77.3205L33.1674 77.9581V76.5941L31.9495 75.8776Z" fill="#3879F0"/>
<path d="M33.1674 76.5941L34.5662 75.769L33.3366 75.0663L31.9495 75.8776L33.1674 76.5941Z" fill="#FFB7B4"/>
<path d="M33.1675 76.5942V77.9581L34.5663 77.1429V75.769L33.1675 76.5942Z" fill="#0036AC"/>
</g>
<path d="M29.256 37.2079C31.6509 32.4906 35.5509 28.551 37.6339 23.688C38.5132 21.6352 39 19.3745 39 17C39 7.61116 31.3888 0 22 0C12.6112 0 5 7.61116 5 17C5 19.2368 5.43198 21.3726 6.21707 23.3287C8.44791 28.887 13.0345 33.2888 15.6798 38.6622L22 51.5L29.256 37.2079Z" fill="#A4133C"/>
<rect x="12" y="8" width="20" height="18" rx="9" fill="white"/>
<path opacity="0.4" d="M28.2468 16.5933V20.5867C28.2468 22.4267 26.7534 23.92 24.9134 23.92H19.0868C17.2468 23.92 15.7534 22.4267 15.7534 20.5867V16.64C16.2601 17.1867 16.9801 17.5 17.7601 17.5C18.6001 17.5 19.4068 17.08 19.9134 16.4067C20.3668 17.08 21.1401 17.5 22.0001 17.5C22.8534 17.5 23.6134 17.1 24.0734 16.4333C24.5868 17.0933 25.3801 17.5 26.2068 17.5C27.0134 17.5 27.7468 17.1733 28.2468 16.5933Z" fill="#A4133C"/>
<path d="M23.9934 9.83331H19.9934L19.5001 14.74C19.4601 15.1933 19.5267 15.62 19.6934 16.0066C20.0801 16.9133 20.9867 17.5 22.0001 17.5C23.0267 17.5 23.9134 16.9266 24.3134 16.0133C24.4334 15.7266 24.5067 15.3933 24.5134 15.0533V14.9266L23.9934 9.83331Z" fill="#A4133C"/>
<path opacity="0.6" d="M28.9066 14.5133L28.7133 12.6666C28.4333 10.6533 27.5199 9.83331 25.5666 9.83331H23.0066L23.4999 14.8333C23.5066 14.9 23.5133 14.9733 23.5133 15.1C23.5533 15.4466 23.6599 15.7666 23.8199 16.0533C24.2999 16.9333 25.2333 17.5 26.2066 17.5C27.0933 17.5 27.8933 17.1066 28.3933 16.4133C28.7933 15.88 28.9733 15.2066 28.9066 14.5133Z" fill="#A4133C"/>
<path opacity="0.6" d="M18.3933 9.83331C16.4333 9.83331 15.5267 10.6533 15.24 12.6866L15.06 14.52C14.9933 15.2333 15.1867 15.9266 15.6067 16.4666C16.1133 17.1266 16.8933 17.5 17.76 17.5C18.7333 17.5 19.6667 16.9333 20.14 16.0666C20.3133 15.7666 20.4267 15.42 20.46 15.06L20.98 9.83998H18.3933V9.83331Z" fill="#A4133C"/>
<path d="M21.5667 20.1067C20.7201 20.1934 20.0801 20.9134 20.0801 21.7667V23.92H23.9134V22C23.9201 20.6067 23.1001 19.9467 21.5667 20.1067Z" fill="#A4133C"/>
<defs>
<linearGradient id="paint0_linear_676_5103" x1="10.3696" y1="54.3853" x2="38.8093" y2="54.3853" gradientUnits="userSpaceOnUse">
<stop stop-color="#FFE8E8"/>
<stop offset="1" stop-color="#FFB7B4"/>
</linearGradient>
<linearGradient id="paint1_linear_676_5103" x1="16.3115" y1="51.983" x2="33.1559" y2="51.983" gradientUnits="userSpaceOnUse">
<stop stop-color="#FFE8E8"/>
<stop offset="1" stop-color="#FFB7B4"/>
</linearGradient>
<clipPath id="clip0_676_5103">
<rect width="44" height="40" fill="white" transform="translate(0 46)"/>
</clipPath>
</defs>
</svg>
