<svg width="20" height="20" viewBox="0 0 20 20" fill="none" xmlns="http://www.w3.org/2000/svg">
<path opacity="0.4" d="M9.9999 18.3333C13.9902 18.3333 17.2249 15.0986 17.2249 11.1083C17.2249 7.11804 13.9902 3.8833 9.9999 3.8833C6.00965 3.8833 2.7749 7.11804 2.7749 11.1083C2.7749 15.0986 6.00965 18.3333 9.9999 18.3333Z" fill="#673BB7"/>
<path d="M10 11.4582C9.65833 11.4582 9.375 11.1748 9.375 10.8332V6.6665C9.375 6.32484 9.65833 6.0415 10 6.0415C10.3417 6.0415 10.625 6.32484 10.625 6.6665V10.8332C10.625 11.1748 10.3417 11.4582 10 11.4582Z" fill="#673BB7"/>
<path d="M12.4084 2.87484H7.5917C7.25837 2.87484 6.9917 2.60817 6.9917 2.27484C6.9917 1.9415 7.25837 1.6665 7.5917 1.6665H12.4084C12.7417 1.6665 13.0084 1.93317 13.0084 2.2665C13.0084 2.59984 12.7417 2.87484 12.4084 2.87484Z" fill="#673BB7"/>
</svg>
