<svg width="12" height="12" viewBox="0 0 12 12" fill="none" xmlns="http://www.w3.org/2000/svg">
<path d="M6.375 8H7.75C9.15 8 9.5 7.65 9.5 6.25V4.15C9.5 2.75 9.15 2.4 7.75 2.4H6.7C6.35 2.4 6.275 2.295 6.14 2.12L5.615 1.42C5.415 1.155 5.3 1 4.775 1H4.25C2.85 1 2.5 1.35 2.5 2.75V6.25C2.5 7.65 2.85 8 4.25 8H5.625V9.5C5.625 9.525 5.635 9.545 5.64 9.57C5.38 9.67 5.17 9.88 5.07 10.14C5.045 10.135 5.025 10.125 5 10.125H3C2.795 10.125 2.625 10.295 2.625 10.5C2.625 10.705 2.795 10.875 3 10.875H5C5.025 10.875 5.045 10.865 5.07 10.86C5.215 11.235 5.575 11.5 6 11.5C6.425 11.5 6.785 11.235 6.93 10.86C6.955 10.865 6.975 10.875 7 10.875H9C9.205 10.875 9.375 10.705 9.375 10.5C9.375 10.295 9.205 10.125 9 10.125H7C6.975 10.125 6.955 10.135 6.93 10.14C6.83 9.88 6.62 9.67 6.36 9.57C6.365 9.545 6.375 9.525 6.375 9.5V8Z" fill="#F7E9D3"/>
</svg>
