<svg width="55" height="24" viewBox="0 0 55 24" fill="none" xmlns="http://www.w3.org/2000/svg">
<path d="M1.22033 23.7178L7.0282 12.9392C7.43534 12.1836 8.38256 11.9081 9.1314 12.3275V12.3275C9.78446 12.6933 10.6061 12.5352 11.0767 11.9532L13.554 8.88976C14.2514 8.02744 15.5168 7.8961 16.3864 8.58432C19.0175 10.6666 22.572 13.3637 24.9958 15.1831C25.8273 15.8073 26.9974 15.6852 27.686 14.9061L32.0547 9.96319C32.167 9.83618 32.2627 9.69542 32.3394 9.54429L36.1506 2.03948C36.7751 0.809848 38.4273 0.566332 39.38 1.56352L43.8038 6.1942C44.46 6.88106 45.5088 7.0116 46.3134 6.50653L53.7795 1.81948" stroke="#B7E4C7"/>
</svg>
