<svg width="25" height="25" viewBox="0 0 25 25" fill="none" xmlns="http://www.w3.org/2000/svg">
<path opacity="0.4" d="M10.9168 2.95001C11.6168 2.36001 12.7468 2.36001 13.4268 2.95001L15.0068 4.30001C15.3068 4.55001 15.8768 4.76001 16.2768 4.76001H17.9768C19.0368 4.76001 19.9068 5.63001 19.9068 6.69001V8.39001C19.9068 8.79001 20.1168 9.35001 20.3668 9.65001L21.7168 11.23C22.3068 11.93 22.3068 13.06 21.7168 13.74L20.3668 15.32C20.1168 15.62 19.9068 16.18 19.9068 16.58V18.28C19.9068 19.34 19.0368 20.21 17.9768 20.21H16.2768C15.8768 20.21 15.3168 20.42 15.0168 20.67L13.4368 22.02C12.7368 22.61 11.6068 22.61 10.9268 22.02L9.34675 20.67C9.04675 20.42 8.47675 20.21 8.08675 20.21H6.33675C5.27675 20.21 4.40675 19.34 4.40675 18.28V16.57C4.40675 16.18 4.20675 15.61 3.95675 15.32L2.60675 13.73C2.02675 13.04 2.02675 11.92 2.60675 11.23L3.95675 9.64001C4.20675 9.34001 4.40675 8.78001 4.40675 8.39001V6.70001C4.40675 5.64001 5.27675 4.77001 6.33675 4.77001H8.06675C8.46675 4.77001 9.02675 4.56001 9.32675 4.31001L10.9168 2.95001Z" fill="white"/>
<path d="M12.1667 17.37C11.6167 17.37 11.1667 16.92 11.1667 16.37C11.1667 15.82 11.6067 15.37 12.1667 15.37C12.7167 15.37 13.1667 15.82 13.1667 16.37C13.1667 16.92 12.7267 17.37 12.1667 17.37Z" fill="white"/>
<path d="M12.1667 14.22C11.7567 14.22 11.4167 13.88 11.4167 13.47V8.63C11.4167 8.22 11.7567 7.88 12.1667 7.88C12.5767 7.88 12.9167 8.22 12.9167 8.63V13.46C12.9167 13.88 12.5867 14.22 12.1667 14.22Z" fill="white"/>
</svg>
