<svg width="18" height="18" viewBox="0 0 18 18" fill="none" xmlns="http://www.w3.org/2000/svg">
<g clip-path="url(#clip0_436_933)">
<path d="M9 12.9375C11.1746 12.9375 12.9375 11.1746 12.9375 9C12.9375 6.82538 11.1746 5.0625 9 5.0625C6.82538 5.0625 5.0625 6.82538 5.0625 9C5.0625 11.1746 6.82538 12.9375 9 12.9375Z" fill="#F8AF18" stroke="#F8AF18" stroke-width="0.28125" stroke-miterlimit="10"/>
<path d="M9 2.89219V0.5625V2.89219ZM9 17.4375V15.1078V17.4375ZM13.3219 4.67813L14.9625 3.0375L13.3219 4.67813ZM3.0375 14.9625L4.68281 13.3172L3.0375 14.9625ZM4.68281 4.67344L3.04219 3.03281L4.68281 4.67344ZM14.9719 14.9625L13.3266 13.3172L14.9719 14.9625ZM2.89219 9H0.5625H2.89219ZM17.4375 9H15.1078H17.4375Z" fill="#F8AF18"/>
<path d="M9 2.89219V0.5625M9 17.4375V15.1078M13.3219 4.67813L14.9625 3.0375M3.0375 14.9625L4.68281 13.3172M4.68281 4.67344L3.04219 3.03281M14.9719 14.9625L13.3266 13.3172M2.89219 9H0.5625M17.4375 9H15.1078" stroke="#FBBF24" stroke-width="1.125" stroke-miterlimit="10" stroke-linecap="round"/>
</g>
<defs>
<clipPath id="clip0_436_933">
<rect width="18" height="18" fill="white"/>
</clipPath>
</defs>
</svg>
