<svg width="25" height="24" viewBox="0 0 25 24" fill="none" xmlns="http://www.w3.org/2000/svg">
<path opacity="0.4" d="M16.3919 2H8.0119C4.3719 2 2.2019 4.17 2.2019 7.81V16.18C2.2019 19.83 4.3719 22 8.0119 22H16.3819C20.0219 22 22.1919 19.83 22.1919 16.19V7.81C22.2019 4.17 20.0319 2 16.3919 2Z" fill="white"/>
<path d="M12.2019 13C11.6419 13 11.2019 12.55 11.2019 12C11.2019 11.45 11.6519 11 12.2019 11C12.7519 11 13.2019 11.45 13.2019 12C13.2019 12.55 12.7619 13 12.2019 13Z" fill="white"/>
<path d="M16.2019 13C15.6419 13 15.2019 12.55 15.2019 12C15.2019 11.45 15.6519 11 16.2019 11C16.7519 11 17.2019 11.45 17.2019 12C17.2019 12.55 16.7619 13 16.2019 13Z" fill="white"/>
<path d="M8.2019 13C7.6419 13 7.2019 12.55 7.2019 12C7.2019 11.45 7.6519 11 8.2019 11C8.7519 11 9.2019 11.45 9.2019 12C9.2019 12.55 8.7619 13 8.2019 13Z" fill="white"/>
</svg>
