<svg width="16" height="16" viewBox="0 0 16 16" fill="none" xmlns="http://www.w3.org/2000/svg">
<path opacity="0.4" d="M12.8666 5.27999V8.71334C12.8666 10.7667 11.6932 11.6466 9.93323 11.6466H4.07322C3.77322 11.6466 3.48656 11.62 3.21989 11.56C3.05322 11.5334 2.89323 11.4867 2.74656 11.4333C1.74656 11.06 1.13989 10.1933 1.13989 8.71334V5.27999C1.13989 3.22666 2.31322 2.34668 4.07322 2.34668H9.93323C11.4266 2.34668 12.4999 2.98001 12.7866 4.42668C12.8332 4.69334 12.8666 4.96666 12.8666 5.27999Z" fill="#FF5733"/>
<path d="M14.8666 7.27995V10.7133C14.8666 12.7666 13.6933 13.6466 11.9333 13.6466H6.0733C5.57997 13.6466 5.13331 13.58 4.74664 13.4333C3.95331 13.14 3.4133 12.5333 3.21997 11.56C3.48664 11.62 3.7733 11.6466 4.0733 11.6466H9.93331C11.6933 11.6466 12.8666 10.7666 12.8666 8.7133V5.27995C12.8666 4.96661 12.84 4.68664 12.7866 4.42664C14.0533 4.6933 14.8666 5.58661 14.8666 7.27995Z" fill="#FF5733"/>
<path d="M7 8.76001C7.97202 8.76001 8.76001 7.97202 8.76001 7C8.76001 6.02798 7.97202 5.23999 7 5.23999C6.02798 5.23999 5.23999 6.02798 5.23999 7C5.23999 7.97202 6.02798 8.76001 7 8.76001Z" fill="#FF5733"/>
<path d="M3.18677 5.5C2.91343 5.5 2.68677 5.72667 2.68677 6V8C2.68677 8.27333 2.91343 8.5 3.18677 8.5C3.4601 8.5 3.68677 8.27333 3.68677 8V6C3.68677 5.72667 3.46677 5.5 3.18677 5.5Z" fill="#FF5733"/>
<path d="M10.8066 5.5C10.5333 5.5 10.3066 5.72667 10.3066 6V8C10.3066 8.27333 10.5333 8.5 10.8066 8.5C11.08 8.5 11.3066 8.27333 11.3066 8V6C11.3066 5.72667 11.0866 5.5 10.8066 5.5Z" fill="#FF5733"/>
</svg>
