<svg width="12" height="12" viewBox="0 0 12 12" fill="none" xmlns="http://www.w3.org/2000/svg">
<path d="M10.05 3.47C10.05 3.74 9.90495 3.985 9.67495 4.11L8.80495 4.58L8.06495 4.975L6.52995 5.805C6.36495 5.895 6.18495 5.94 5.99995 5.94C5.81495 5.94 5.63495 5.895 5.46995 5.805L2.32495 4.11C2.09495 3.985 1.94995 3.74 1.94995 3.47C1.94995 3.2 2.09495 2.955 2.32495 2.83L3.30995 2.3L4.09495 1.875L5.46995 1.135C5.79995 0.955 6.19995 0.955 6.52995 1.135L9.67495 2.83C9.90495 2.955 10.05 3.2 10.05 3.47Z" fill="#DFCDF6"/>
<path d="M4.95011 6.39507L2.02511 4.93507C1.80011 4.82007 1.54011 4.83507 1.32511 4.96507C1.11011 5.09507 0.985107 5.32507 0.985107 5.57507V8.34007C0.985107 8.82007 1.25011 9.25007 1.68011 9.46507L4.60511 10.9251C4.70511 10.9751 4.81511 11.0001 4.92511 11.0001C5.05511 11.0001 5.18511 10.9651 5.30011 10.8901C5.51511 10.7601 5.64011 10.5301 5.64011 10.2801V7.51507C5.64511 7.04007 5.38011 6.61007 4.95011 6.39507Z" fill="#DFCDF6"/>
<path d="M11.015 5.57506V8.34006C11.015 8.81506 10.75 9.24506 10.32 9.46006L7.39498 10.9251C7.29498 10.9751 7.18498 11.0001 7.07498 11.0001C6.94498 11.0001 6.81498 10.9651 6.69498 10.8901C6.48498 10.7601 6.35498 10.5301 6.35498 10.2801V7.52006C6.35498 7.04006 6.61998 6.61006 7.04998 6.39506L8.12498 5.86006L8.87498 5.48506L9.97498 4.93506C10.2 4.82006 10.46 4.83006 10.675 4.96506C10.885 5.09506 11.015 5.32506 11.015 5.57506Z" fill="#DFCDF6"/>
<path d="M8.80506 4.58L8.06506 4.975L3.31006 2.3L4.09506 1.875L8.68506 4.465C8.73506 4.495 8.77506 4.535 8.80506 4.58Z" fill="#DFCDF6"/>
<path d="M8.875 5.48511V6.62011C8.875 6.82511 8.705 6.99511 8.5 6.99511C8.295 6.99511 8.125 6.82511 8.125 6.62011V5.86011L8.875 5.48511Z" fill="#DFCDF6"/>
</svg>
