<svg width="25" height="25" viewBox="0 0 25 25" fill="none" xmlns="http://www.w3.org/2000/svg">
<path opacity="0.4" d="M20.5466 21.1067C19.5966 21.8067 18.3466 22.1667 16.8566 22.1667H8.47662C8.23662 22.1667 7.99663 22.1567 7.76663 22.1267L14.6666 15.2267L20.5466 21.1067Z" fill="white"/>
<path opacity="0.4" d="M22.6666 7.97669V16.3567C22.6666 17.8467 22.3066 19.0967 21.6066 20.0467L15.7266 14.1667L22.6266 7.26669C22.6566 7.49669 22.6666 7.73669 22.6666 7.97669Z" fill="white"/>
<path opacity="0.4" d="M15.7266 14.1667L21.6066 20.0467C21.3166 20.4667 20.9666 20.8167 20.5466 21.1067L14.6666 15.2267L7.76663 22.1267C7.12663 22.0867 6.54663 21.9567 6.01663 21.7567C3.87663 20.9767 2.66663 19.0767 2.66663 16.3567V7.97668C2.66663 4.33668 4.83662 2.16669 8.47662 2.16669H16.8566C19.5766 2.16669 21.4766 3.37669 22.2566 5.51669C22.4566 6.04669 22.5866 6.62669 22.6266 7.26669L15.7266 14.1667Z" fill="white"/>
<path d="M15.7266 14.1667L21.6066 20.0467C21.3166 20.4667 20.9666 20.8167 20.5466 21.1067L14.6666 15.2267L7.76663 22.1267C7.12663 22.0867 6.54663 21.9567 6.01663 21.7567L6.40662 21.3667L22.2566 5.51669C22.4566 6.04669 22.5866 6.62669 22.6266 7.26669L15.7266 14.1667Z" fill="white"/>
<path d="M12.9066 8.09669C12.5266 6.44669 11.0666 5.70669 9.78662 5.69669C8.50662 5.69669 7.04662 6.43669 6.66662 8.08669C6.24662 9.91669 7.36661 11.4467 8.37661 12.4067C8.77661 12.7867 9.27662 12.9667 9.78662 12.9667C10.2966 12.9667 10.7966 12.7767 11.1966 12.4067C12.2066 11.4467 13.3266 9.91669 12.9066 8.09669ZM9.81662 9.65668C9.26662 9.65668 8.81662 9.20668 8.81662 8.65668C8.81662 8.10668 9.25662 7.65668 9.81662 7.65668H9.82663C10.3766 7.65668 10.8266 8.10668 10.8266 8.65668C10.8266 9.20668 10.3666 9.65668 9.81662 9.65668Z" fill="white"/>
</svg>
