<svg width="25" height="25" viewBox="0 0 25 25" fill="none" xmlns="http://www.w3.org/2000/svg">
<path opacity="0.4" d="M21.4134 8.74672V15.5867C21.4134 16.7067 20.8134 17.7467 19.8434 18.3167L13.9034 21.7467C12.9334 22.3067 11.7334 22.3067 10.7534 21.7467L4.81338 18.3167C3.84338 17.7567 3.24338 16.7167 3.24338 15.5867V8.74672C3.24338 7.62672 3.84338 6.58668 4.81338 6.01668L10.7534 2.58669C11.7234 2.02669 12.9234 2.02669 13.9034 2.58669L19.8434 6.01668C20.8134 6.58668 21.4134 7.61672 21.4134 8.74672Z" fill="white"/>
<path d="M12.3334 12.1667C13.6202 12.1667 14.6634 11.1235 14.6634 9.83667C14.6634 8.54985 13.6202 7.50671 12.3334 7.50671C11.0465 7.50671 10.0034 8.54985 10.0034 9.83667C10.0034 11.1235 11.0465 12.1667 12.3334 12.1667Z" fill="white"/>
<path d="M15.0134 16.8267C15.8234 16.8267 16.2934 15.9267 15.8434 15.2567C15.1634 14.2467 13.8434 13.5667 12.3334 13.5667C10.8234 13.5667 9.50337 14.2467 8.82337 15.2567C8.37337 15.9267 8.84337 16.8267 9.65337 16.8267H15.0134Z" fill="white"/>
</svg>
