<svg width="12" height="6" viewBox="0 0 12 6" fill="none" xmlns="http://www.w3.org/2000/svg">
<path d="M8.58267 3.66665C8.2866 4.81678 7.24253 5.66665 6 5.66665C4.75747 5.66665 3.71337 4.81678 3.41735 3.66665H0V2.33331H3.41735C3.71337 1.18316 4.75747 0.333313 6 0.333313C7.24253 0.333313 8.2866 1.18316 8.58267 2.33331H12V3.66665H8.58267ZM6 4.33331C6.7364 4.33331 7.33333 3.73638 7.33333 2.99998C7.33333 2.26358 6.7364 1.66665 6 1.66665C5.2636 1.66665 4.66667 2.26358 4.66667 2.99998C4.66667 3.73638 5.2636 4.33331 6 4.33331Z" fill="black"/>
</svg>
