<svg width="12" height="12" viewBox="0 0 12 12" fill="none" xmlns="http://www.w3.org/2000/svg">
<path opacity="0.4" d="M10.6849 5.69493V8.68993C10.6849 10.0699 9.56494 11.1899 8.18494 11.1899H3.81494C2.43494 11.1899 1.31494 10.0699 1.31494 8.68993V5.72993C1.69494 6.13993 2.23494 6.37493 2.81994 6.37493C3.44994 6.37493 4.05494 6.05993 4.43494 5.55493C4.77494 6.05993 5.35494 6.37493 5.99994 6.37493C6.63994 6.37493 7.20994 6.07493 7.55494 5.57493C7.93994 6.06993 8.53494 6.37493 9.15494 6.37493C9.75994 6.37493 10.3099 6.12993 10.6849 5.69493Z" fill="#F7E9D3"/>
<path d="M7.49493 0.625H4.49493L4.12493 4.305C4.09493 4.645 4.14493 4.965 4.26993 5.255C4.55993 5.935 5.23993 6.375 5.99993 6.375C6.76993 6.375 7.43493 5.945 7.73493 5.26C7.82493 5.045 7.87993 4.795 7.88493 4.54V4.445L7.49493 0.625Z" fill="#F7E9D3"/>
<path opacity="0.6" d="M11.1799 4.135L11.0349 2.75C10.8249 1.24 10.1399 0.625 8.67488 0.625H6.75488L7.12488 4.375C7.12988 4.425 7.13488 4.48 7.13488 4.575C7.16488 4.835 7.24488 5.075 7.36488 5.29C7.72488 5.95 8.42488 6.375 9.15488 6.375C9.81988 6.375 10.4199 6.08 10.7949 5.56C11.0949 5.16 11.2299 4.655 11.1799 4.135Z" fill="#F7E9D3"/>
<path opacity="0.6" d="M3.29507 0.625C1.82507 0.625 1.14507 1.24 0.930069 2.765L0.795069 4.14C0.745069 4.675 0.890069 5.195 1.20507 5.6C1.58507 6.095 2.17007 6.375 2.82007 6.375C3.55007 6.375 4.25007 5.95 4.60507 5.3C4.73507 5.075 4.82007 4.815 4.84507 4.545L5.23507 0.63H3.29507V0.625Z" fill="#F7E9D3"/>
<path d="M5.67506 8.33012C5.04006 8.39512 4.56006 8.93512 4.56006 9.57512V11.1901H7.43506V9.75012C7.44006 8.70512 6.82506 8.21012 5.67506 8.33012Z" fill="#F7E9D3"/>
</svg>
