<svg width="25" height="25" viewBox="0 0 25 25" fill="none" xmlns="http://www.w3.org/2000/svg">
<path opacity="0.4" d="M16.69 2.16669H8.31C4.67 2.16669 2.5 4.33669 2.5 7.97669V16.3467C2.5 19.9967 4.67 22.1667 8.31 22.1667H16.68C20.32 22.1667 22.49 19.9967 22.49 16.3567V7.97669C22.5 4.33669 20.33 2.16669 16.69 2.16669Z" fill="white"/>
<path d="M7.83 15.4067C7.67 15.4067 7.51 15.3567 7.37 15.2467C7.04 14.9967 6.98 14.5267 7.23 14.1967L9.61 11.1067C9.9 10.7367 10.31 10.4967 10.78 10.4367C11.24 10.3767 11.71 10.5067 12.08 10.7967L13.91 12.2367C13.98 12.2967 14.05 12.2967 14.1 12.2867C14.14 12.2867 14.21 12.2667 14.27 12.1867L16.58 9.20669C16.83 8.87669 17.31 8.81669 17.63 9.07669C17.96 9.32669 18.02 9.79669 17.76 10.1267L15.45 13.1067C15.16 13.4767 14.75 13.7167 14.28 13.7667C13.81 13.8267 13.35 13.6967 12.98 13.4067L11.15 11.9667C11.08 11.9067 11 11.9067 10.96 11.9167C10.92 11.9167 10.85 11.9367 10.79 12.0167L8.41 15.1067C8.28 15.3067 8.06 15.4067 7.83 15.4067Z" fill="white"/>
</svg>
