<svg width="120" height="24" viewBox="0 0 120 24" fill="none" xmlns="http://www.w3.org/2000/svg">
<g clip-path="url(#clip0_4150_13185)">
<path d="M51.8311 0V23.9795L58.5295 24V0.0102718L51.8311 0Z" fill="#E8E8E8"/>
<path d="M75.4049 23.9897L68.3381 23.9846L61.0425 0H67.8504L75.4049 23.9897Z" fill="#E8E8E8"/>
<path d="M75.4048 23.9897L82.4665 23.9846L89.7622 0H82.9592L75.4048 23.9897Z" fill="#E8E8E8"/>
<path d="M106.14 11.4582L99.3371 11.5866L92.2754 0.0359497H98.7599L106.14 11.4582Z" fill="#E8E8E8"/>
<path d="M106.14 11.4582L112.938 11.5866L120 0.0359497H113.515L106.14 11.4582Z" fill="#E8E8E8"/>
<path d="M99.2075 23.9897H106.006L112.938 11.5866L106.14 11.4582L99.2075 23.9897Z" fill="#E8E8E8"/>
<path d="M29.8742 0H23.1758V23.9897H29.8742V0Z" fill="#E8E8E8"/>
<path d="M39.6283 11.2579L30.2923 23.9897L23.5889 23.9589L32.9299 11.2579H39.6283Z" fill="#E8E8E8"/>
<path d="M42.6191 0V23.9795L49.3176 24V0.0102718L42.6191 0Z" fill="#E8E8E8"/>
<path d="M32.9297 11.2579L42.1961 23.9897L48.9045 24L39.6281 11.2579H32.9297Z" fill="#E8E8E8"/>
<path d="M5.16568 0.00517273V5.33622H20.6627V0.00517273H5.16568ZM5.16568 9.33195V5.33622H0V14.6681H15.497V18.6639H20.6627V9.33195H5.16568ZM0 23.9949H15.497V18.6639H0V23.9949Z" fill="#E8E8E8"/>
</g>
<defs>
<clipPath id="clip0_4150_13185">
<rect width="120" height="24" fill="white"/>
</clipPath>
</defs>
</svg>
