<!-- <svg width="24" height="24" viewBox="0 0 24 24" fill="none" xmlns="http://www.w3.org/2000/svg">
<path d="M12.3701 8.88H17.6201" stroke="white" stroke-width="1.5" strokeLinecap="round" strokeLinejoin="round"/>
<path d="M6.37988 8.88L7.12988 9.63L9.37988 7.38" stroke="white" stroke-width="1.5" strokeLinecap="round" strokeLinejoin="round"/>
<path d="M12.3701 15.88H17.6201" stroke="white" stroke-width="1.5" strokeLinecap="round" strokeLinejoin="round"/>
<path d="M6.37988 15.88L7.12988 16.63L9.37988 14.38" stroke="white" stroke-width="1.5" strokeLinecap="round" strokeLinejoin="round"/>
<path d="M9 22H15C20 22 22 20 22 15V9C22 4 20 2 15 2H9C4 2 2 4 2 9V15C2 20 4 22 9 22Z" stroke="white" stroke-width="1.5" strokeLinecap="round" strokeLinejoin="round"/>
</svg> -->


<svg width="12" height="12" viewBox="0 0 12 12" fill="none" xmlns="http://www.w3.org/2000/svg">
<path d="M8.095 1H3.905C2.085 1 1 2.085 1 3.905V8.095C1 9.915 2.085 11 3.905 11H8.095C9.915 11 11 9.915 11 8.095V3.905C11 2.085 9.915 1 8.095 1ZM4.985 7.45L3.86 8.575C3.785 8.65 3.69 8.685 3.595 8.685C3.5 8.685 3.4 8.65 3.33 8.575L2.955 8.2C2.805 8.055 2.805 7.815 2.955 7.67C3.1 7.525 3.335 7.525 3.485 7.67L3.595 7.78L4.455 6.92C4.6 6.775 4.835 6.775 4.985 6.92C5.13 7.065 5.13 7.305 4.985 7.45ZM4.985 3.95L3.86 5.075C3.785 5.15 3.69 5.185 3.595 5.185C3.5 5.185 3.4 5.15 3.33 5.075L2.955 4.7C2.805 4.555 2.805 4.315 2.955 4.17C3.1 4.025 3.335 4.025 3.485 4.17L3.595 4.28L4.455 3.42C4.6 3.275 4.835 3.275 4.985 3.42C5.13 3.565 5.13 3.805 4.985 3.95ZM8.78 8.31H6.155C5.95 8.31 5.78 8.14 5.78 7.935C5.78 7.73 5.95 7.56 6.155 7.56H8.78C8.99 7.56 9.155 7.73 9.155 7.935C9.155 8.14 8.99 8.31 8.78 8.31ZM8.78 4.81H6.155C5.95 4.81 5.78 4.64 5.78 4.435C5.78 4.23 5.95 4.06 6.155 4.06H8.78C8.99 4.06 9.155 4.23 9.155 4.435C9.155 4.64 8.99 4.81 8.78 4.81Z" fill="#242424"/>
</svg>

