<svg width="16" height="16" viewBox="0 0 16 16" fill="none" xmlns="http://www.w3.org/2000/svg">
<path d="M3.33333 6.66669C2.6 6.66669 2 7.26669 2 8.00002C2 8.73335 2.6 9.33335 3.33333 9.33335C4.06667 9.33335 4.66667 8.73335 4.66667 8.00002C4.66667 7.26669 4.06667 6.66669 3.33333 6.66669Z" stroke="white" stroke-width="1.5"/>
<path d="M12.6666 6.66669C11.9333 6.66669 11.3333 7.26669 11.3333 8.00002C11.3333 8.73335 11.9333 9.33335 12.6666 9.33335C13.3999 9.33335 13.9999 8.73335 13.9999 8.00002C13.9999 7.26669 13.3999 6.66669 12.6666 6.66669Z" stroke="white" stroke-width="1.5"/>
<path d="M8.00008 6.66669C7.26675 6.66669 6.66675 7.26669 6.66675 8.00002C6.66675 8.73335 7.26675 9.33335 8.00008 9.33335C8.73341 9.33335 9.33341 8.73335 9.33341 8.00002C9.33341 7.26669 8.73341 6.66669 8.00008 6.66669Z" stroke="white" stroke-width="1.5"/>
</svg>
