<svg width="32" height="32" viewBox="0 0 32 32" fill="none" xmlns="http://www.w3.org/2000/svg">
<path d="M31.9824 16.7508C31.8211 20.1835 30.5589 23.473 28.3827 26.1326C26.2064 28.7921 23.2317 30.6803 19.8988 31.5177C16.566 32.3551 13.0521 32.0972 9.87717 30.7821C6.70229 29.4671 4.03516 27.1648 2.27055 24.216C0.505932 21.2672 -0.262395 17.8286 0.0792828 14.4092C0.420961 10.9897 1.85449 7.77117 4.16769 5.22984C6.48089 2.68851 9.55084 0.959469 12.9232 0.298629C16.2955 -0.362211 19.791 0.0802671 22.8922 1.56057L20.7932 5.95806C18.6364 4.92857 16.2055 4.62085 13.8602 5.08043C11.5149 5.54002 9.3799 6.74248 7.77118 8.50986C6.16246 10.2772 5.16551 12.5156 4.92789 14.8936C4.69027 17.2717 5.2246 19.6631 6.45181 21.7138C7.67902 23.7646 9.53388 25.3657 11.7419 26.2803C13.9498 27.1948 16.3936 27.3742 18.7115 26.7918C21.0293 26.2095 23.0981 24.8963 24.6116 23.0467C26.1251 21.1971 27.0028 18.9094 27.115 16.5222L31.9824 16.7508Z" fill="#FF5733"/>
<path opacity="0.4" d="M16.0004 24.3333C19.9906 24.3333 23.2254 21.0986 23.2254 17.1083C23.2254 13.118 19.9906 9.8833 16.0004 9.8833C12.0101 9.8833 8.77539 13.118 8.77539 17.1083C8.77539 21.0986 12.0101 24.3333 16.0004 24.3333Z" fill="#FF5733"/>
<path d="M16 17.4583C15.6583 17.4583 15.375 17.175 15.375 16.8333V12.6666C15.375 12.325 15.6583 12.0416 16 12.0416C16.3417 12.0416 16.625 12.325 16.625 12.6666V16.8333C16.625 17.175 16.3417 17.4583 16 17.4583Z" fill="#FF5733"/>
<path d="M18.4079 8.87496H13.5912C13.2579 8.87496 12.9912 8.60829 12.9912 8.27496C12.9912 7.94163 13.2579 7.66663 13.5912 7.66663H18.4079C18.7412 7.66663 19.0079 7.93329 19.0079 8.26663C19.0079 8.59996 18.7412 8.87496 18.4079 8.87496Z" fill="#FF5733"/>
</svg>
