<svg width="16" height="16" viewBox="0 0 16 16" fill="none" xmlns="http://www.w3.org/2000/svg">
<path opacity="0.4" d="M10.7933 1.33334H5.20659C2.77992 1.33334 1.33325 2.78001 1.33325 5.20668V10.7867C1.33325 13.22 2.77992 14.6667 5.20659 14.6667H10.7866C13.2133 14.6667 14.6599 13.22 14.6599 10.7933V5.20668C14.6666 2.78001 13.2199 1.33334 10.7933 1.33334Z" fill="white"/>
<path d="M11.2198 6.27333C11.1731 6.16 11.0798 6.06666 10.9665 6.02C10.9131 6 10.8531 5.98666 10.7931 5.98666H9.55313C9.29313 5.98666 9.08646 6.19333 9.08646 6.45333C9.08646 6.71333 9.29313 6.92 9.55313 6.92H9.67313L8.26646 8.32666L7.58646 7.31333C7.50646 7.2 7.38646 7.12 7.24646 7.10666C7.0998 7.09333 6.97313 7.14 6.87313 7.24L4.88646 9.22666C4.70646 9.40666 4.70646 9.7 4.88646 9.88666C4.9798 9.98 5.09313 10.02 5.21313 10.02C5.33313 10.02 5.45313 9.97333 5.5398 9.88666L7.12646 8.3L7.80646 9.31333C7.88646 9.42666 8.00646 9.50666 8.14646 9.52C8.29313 9.53333 8.4198 9.48666 8.5198 9.38666L10.3331 7.57333V7.69333C10.3331 7.95333 10.5398 8.16 10.7998 8.16C11.0598 8.16 11.2665 7.95333 11.2665 7.69333V6.44666C11.2531 6.38666 11.2465 6.32666 11.2198 6.27333Z" fill="white"/>
</svg>
