<svg width="16" height="16" viewBox="0 0 16 16" fill="none" xmlns="http://www.w3.org/2000/svg">
<path opacity="0.4" d="M10.7935 1.33337H5.20683C2.78016 1.33337 1.3335 2.78004 1.3335 5.20671V10.7867C1.3335 13.22 2.78016 14.6667 5.20683 14.6667H10.7868C13.2135 14.6667 14.6602 13.22 14.6602 10.7934V5.20671C14.6668 2.78004 13.2202 1.33337 10.7935 1.33337Z" fill="#2D6A4F"/>
<path d="M11.2203 6.27336C11.1736 6.16003 11.0803 6.06669 10.967 6.02003C10.9136 6.00003 10.8536 5.98669 10.7936 5.98669H9.55362C9.29362 5.98669 9.08695 6.19336 9.08695 6.45336C9.08695 6.71336 9.29362 6.92003 9.55362 6.92003H9.67362L8.26695 8.32669L7.58695 7.31336C7.50695 7.20003 7.38695 7.12003 7.24695 7.10669C7.10029 7.09336 6.97362 7.14003 6.87362 7.24003L4.88695 9.22669C4.70695 9.40669 4.70695 9.70003 4.88695 9.88669C4.98029 9.98003 5.09362 10.02 5.21362 10.02C5.33362 10.02 5.45362 9.97336 5.54029 9.88669L7.12695 8.30003L7.80695 9.31336C7.88695 9.42669 8.00695 9.50669 8.14695 9.52003C8.29362 9.53336 8.42029 9.48669 8.52029 9.38669L10.3336 7.57336V7.69336C10.3336 7.95336 10.5403 8.16003 10.8003 8.16003C11.0603 8.16003 11.267 7.95336 11.267 7.69336V6.44669C11.2536 6.38669 11.247 6.32669 11.2203 6.27336Z" fill="#2D6A4F"/>
</svg>
