<svg width="24" height="24" viewBox="0 0 24 24" fill="none" xmlns="http://www.w3.org/2000/svg">
<path opacity="0.4" d="M21.0017 8.94H2.5V6.42C2.5 4.25614 4.25614 2.5 6.42 2.5H8.75C9.51213 2.5 9.9501 2.62406 10.2601 2.80535C10.5779 2.99123 10.8166 3.26718 11.1394 3.69926L11.1405 3.70069L12.5405 5.56069L12.5412 5.56155C12.5518 5.57564 12.5627 5.59013 12.5738 5.60494C12.6956 5.76755 12.8461 5.96848 13.064 6.08752C13.3132 6.22369 13.5953 6.23 13.87 6.23L16.66 6.23L16.6621 6.23C18.5596 6.22199 20.2128 7.32689 21.0017 8.94Z" fill="#2C353A" stroke="#2C353A"/>
<path d="M21.4904 10.8604L21.4914 10.8857L21.495 10.9107C21.499 10.9384 21.5 10.9897 21.5 11.07V16.65C21.5 19.3239 19.3239 21.5 16.65 21.5H7.35C4.67614 21.5 2.5 19.3239 2.5 16.65V9.94H21.3642C21.4361 10.2349 21.4773 10.5389 21.4904 10.8604ZM13.31 18V16.75H14.5C15.1861 16.75 15.75 16.1861 15.75 15.5C15.75 14.8139 15.1861 14.25 14.5 14.25H13.31V13C13.31 12.3139 12.7461 11.75 12.06 11.75C11.3739 11.75 10.81 12.3139 10.81 13V14.25H9.5C8.81386 14.25 8.25 14.8139 8.25 15.5C8.25 16.1861 8.81386 16.75 9.5 16.75H10.81V18C10.81 18.6861 11.3739 19.25 12.06 19.25C12.7461 19.25 13.31 18.6861 13.31 18Z" fill="#2C353A" stroke="#2C353A"/>
</svg>
